<svg id="_ÎÓÈ_3" data-name="—ÎÓÈ_3" xmlns="http://www.w3.org/2000/svg" xmlns:xlink="http://www.w3.org/1999/xlink" viewBox="0 0 119.87 153"><defs><style>.cls-1{fill:#09011e;opacity:0.36;}.cls-2{fill:#392453;}.cls-3{fill:#502158;}.cls-4{fill:#633b79;}.cls-5{fill:#755695;}.cls-6{fill:#f892fc;opacity:0.46;}.cls-7{fill:url(#linear-gradient);}</style><linearGradient id="linear-gradient" x1="43.81" y1="141.18" x2="43.81" y2="206.18" gradientUnits="userSpaceOnUse"><stop offset="0.19" stop-color="#382158"/><stop offset="1" stop-color="#502158"/></linearGradient></defs><title>bar_right_endcap</title><path class="cls-1" d="M67,143.31H0l-.26,124H67a52.56,52.56,0,0,0,52.5-52.5v-19A52.56,52.56,0,0,0,67,143.31Z" transform="translate(0.22 -114.31)"/><path class="cls-2" d="M67,129.31H.06l-.26,124H67a52.56,52.56,0,0,0,52.5-52.5v-19A52.56,52.56,0,0,0,67,129.31Z" transform="translate(0.22 -114.31)"/><path class="cls-3" d="M67,134.31H.05l-.24,114H67a47.5,47.5,0,0,0,47.5-47.5v-19A47.5,47.5,0,0,0,67,134.31Z" transform="translate(0.22 -114.31)"/><path class="cls-2" d="M67,114.31H.09l-.25,119H67c29.44,0,52.5-22.18,52.5-50.5v-16A52.56,52.56,0,0,0,67,114.31Z" transform="translate(0.22 -114.31)"/><path class="cls-4" d="M67,119.31H.08l-.23,109H67c26.23,0,47.5-19.27,47.5-45.5v-16A47.5,47.5,0,0,0,67,119.31Z" transform="translate(0.22 -114.31)"/><path class="cls-5" d="M69.95,122s-26.5-.61-39.18.33S6.91,126,12.64,128.48s52.27,1.79,57.18,1.95C76.11,130.63,77.66,123,69.95,122Z" transform="translate(0.22 -114.31)"/><ellipse class="cls-6" cx="37.81" cy="124.61" rx="5.88" ry="1.9" transform="translate(-2.93 -113.31) rotate(-1.46)"/><path class="cls-5" d="M106.44,189.67c-.71-.74-1.31,0-1.9.84-6.54,9.25-14.2,21.56-26.72,24.75-11.75,3-27.5,2.13-35.13,2.38-36,1.18-24.24,5.65,2.45,5.39,14.8-.14,38.63,4.31,51.63-10C105.78,203.06,110,193.36,106.44,189.67Z" transform="translate(0.22 -114.31)"/><ellipse class="cls-6" cx="52.16" cy="106.62" rx="9.5" ry="1.64"/><path class="cls-2" d="M82.41,169.28s20.6-3.81,29.75,1.53,7.34,12,7.34,12v-16S92.33,158.6,82.41,169.28Z" transform="translate(0.22 -114.31)"/><path class="cls-3" d="M59.39,141.31H0l-.13,65H59.39c15.64,0,28.33-11.49,28.33-27.13v-9.54A28.32,28.32,0,0,0,59.39,141.31Z" transform="translate(0.22 -114.31)"/><path class="cls-7" d="M59.39,141.31H0l-.13,65H59.39c15.64,0,28.33-11.49,28.33-27.13v-9.54A28.32,28.32,0,0,0,59.39,141.31Z" transform="translate(0.22 -114.31)"/><ellipse class="cls-6" cx="60.04" cy="124.67" rx="11.1" ry="1.92" transform="translate(-2.93 -112.74) rotate(-1.46)"/><path class="cls-5" d="M81.21,129.74s-4.44,3.45,3,7.4,8.38,14,17.26,16.84S101.43,128.75,81.21,129.74Z" transform="translate(0.22 -114.31)"/><ellipse class="cls-6" cx="66.26" cy="106.37" rx="2.74" ry="1.36"/></svg>