<svg id="_ÎÓÈ_3" data-name="—ÎÓÈ_3" xmlns="http://www.w3.org/2000/svg" xmlns:xlink="http://www.w3.org/1999/xlink" viewBox="0 0 168.33 139"><defs><style>.cls-1{fill:#392453;}.cls-2{fill:#502158;}.cls-3{fill:#633b79;}.cls-4{fill:url(#linear-gradient);}</style><linearGradient id="linear-gradient" x1="84.14" y1="26.87" x2="84.14" y2="91.87" gradientUnits="userSpaceOnUse"><stop offset="0.19" stop-color="#382158"/><stop offset="1" stop-color="#502158"/></linearGradient></defs><title>bar_center</title><polygon class="cls-1" points="168.3 15 0 15 0 139 168.03 139 168.3 15"/><polygon class="cls-2" points="168.29 20 0 20 0 134 168.04 134 168.29 20"/><polygon class="cls-1" points="168.33 0 0 0 0 119 168.07 119 168.33 0"/><polygon class="cls-3" points="168.32 5 0 5 0 114 168.08 114 168.32 5"/><polygon class="cls-2" points="168.27 27 0 27 0 92 168.13 92 168.27 27"/><polygon class="cls-4" points="168.27 27 0 27 0 92 168.13 92 168.27 27"/></svg>