<svg id="_ÎÓÈ_1" data-name="—ÎÓÈ_1" xmlns="http://www.w3.org/2000/svg" viewBox="0 0 316.73 363.94"><defs><style>.cls-1{fill:#0a4377;}.cls-2{fill:#2d84e2;}.cls-3{fill:#3badf2;}.cls-4,.cls-6{opacity:0.27;}.cls-5,.cls-6,.cls-7{fill:#19328e;}.cls-7{opacity:0.5;}.cls-10,.cls-8,.cls-9{fill:#c5ffff;}.cls-8{opacity:0.13;}.cls-9{opacity:0.62;}.cls-10{opacity:0.22;}.cls-11{fill:#0e3b63;}.cls-12{fill:#ef48a0;}.cls-13{fill:#fff;}.cls-14{fill:#f8c;opacity:0.78;}</style></defs><title>BlueGuy</title><path class="cls-1" d="M380,689.6c-16.83-21.75-22.59-33.55-22.41-36.32,2-3.86,15.55-12.8,22.85-17.63l2.12-1.4a57.87,57.87,0,0,0,31.33-51.57c0-31.32-25.39-56.82-57.8-58q-1.7-.06-3.33-.06c-36.5,0-55.79,23.85-55.79,69,0,13.26,4.75,24.54,13.76,32.68,4.68,9.33,5.42,13.34,5.49,14.79-7.36-.09-24.1-1.85-35.89-3.5-3.65-.88-7.42-1.7-11.21-2.44-9.89-6.45-17-12.46-19.13-16.12-1.09-1.89.38-4.53,2-6.6,9.05-4.55,15.15-10.1,18.64-17,3.3-6.48,3.12-14.74-.46-22.12a29.73,29.73,0,0,0-23.33-16.45,72,72,0,0,0-10.71-.77c-20.39,0-32.28,8.15-33.48,22.95-1.67,20.63,7.88,34.47,18.17,39.14,4.45,2.88,7.4,5.2,7.37,7.08-.29.46-1.8,2.44-7.94,6-27.62,2.52-52.22,16.58-71.19,40.69-18.18,23.11-29.62,54.15-32.22,87.39-2.86,36.54,6.21,68.17,26.23,91.5,20.55,23.94,51.91,37.67,86,37.67h4.19c59.64,0,183.73,0,185.91-100.78C420.06,749.33,406.87,716.32,380,689.6Z" transform="translate(-116.33 -524.56)"/><path class="cls-2" d="M377.41,692.23c-7.2-9.29-25.93-34.39-23.08-40.51,2.39-5.12,16.67-14.29,26.52-20.83a54.21,54.21,0,0,0,29.49-48.22c0-30-24.36-53.1-54.36-54.24-46.82-1.78-55.43,35.13-55.43,65.08,0,13.19,4.93,23.17,13,30.21,5.1,10,9.33,21.08,3.24,21.08-7.09,0-24.37-1.78-37.08-3.56q-6-1.46-11.87-2.58c-6-3.89-17.47-11.81-20.88-17.75-2.25-3.91-.06-8.25,2.84-11.72,7.5-3.67,14.06-8.5,17.71-15.66,6.13-12-2.74-30.76-21.13-33,0,0-38.13-6.45-40.18,18.72-1.47,18.16,6.62,31.19,16.23,35.4,5.81,3.74,9.86,6.87,9.27,11.24-.37,2.8-6.22,6.62-10.42,9-55.95,4.66-95.74,58.89-100.9,124.67-6.4,81.64,48.68,125,108.73,125s184.41,1.14,186.54-97.05C416.56,746.6,400.79,715.41,377.41,692.23Z" transform="translate(-116.33 -524.56)"/><path class="cls-3" d="M320.56,662.21s-20.46-6.54-37.44-5.24c-21.06,1.62-38.27,12.65-22.09,31.9,29.23,34.79,90.93,104.35,113.66,99.72s29.23-42.9,15.16-63.77S372.44,685.88,320.56,662.21Z" transform="translate(-116.33 -524.56)"/><g class="cls-4"><path class="cls-5" d="M316.79,644.81c-5.95,0-19.08-1.25-30.65-2.71a10.08,10.08,0,0,1-.23,7.89c-4.65,10.46,7.44,24.42,15.35,18.44S331,665.94,345,670.93s19.08,3.49,19.08,3.49l.24-.25c-6.24-9.35-11.6-19-10-22.44,2.39-5.12,16.67-14.29,26.52-20.83A54.41,54.41,0,0,0,408,598.52c-6.74,14.66-27.69,25.35-41.1,15.09-16.28-12.46-4.19-31.89-24.66-43.36s-13,18.44-21.87,2c-7.1-13.21-.69-29.63,2.1-35.58-17.81,12.32-21.89,36.23-21.89,56.85,0,13.19,4.93,23.17,13,30.21C318.64,633.77,322.87,644.81,316.79,644.81Z" transform="translate(-116.33 -524.56)"/><path class="cls-5" d="M267.85,638.68c-6-3.89-17.47-11.81-20.88-17.75-2.25-3.91-.06-8.25,2.84-11.72,7.5-3.67,14.06-8.5,17.71-15.66,3.28-6.44,2.26-14.78-2.2-21.49,1.83,8.53.53,20.24-5.93,21.62-9.3,2-15.82-1-25.59-7.48s-14.42,8.47-19.07,6c-3.22-1.73-6.66-8.93-8.47-13.21,0,.12,0,.23,0,.35-1.47,18.16,6.62,31.19,16.23,35.4,5.81,3.74,9.86,6.87,9.27,11.24-.37,2.8-6.22,6.62-10.42,9a91.39,91.39,0,0,0-13.93,2.28c-1.43,3.43-3.14,7.32-4.73,10.74-3.26,7,33,9,40.48,4.49S267.85,638.68,267.85,638.68Z" transform="translate(-116.33 -524.56)"/><path class="cls-5" d="M408.29,597.43a53.89,53.89,0,0,0,1.8-9.85C409.88,580.91,409.47,587.2,408.29,597.43Z" transform="translate(-116.33 -524.56)"/></g><path class="cls-6" d="M415.67,787.63c.05-2.51,0-5,0-7.4-9.67,53.16-68.38,88-88.76,56.57-22.8-35.11-38.41-2.44-62.63-11.6s-15.86-124.51-74.29-147.41c-16.18-6.34-30.6-3.78-43,3.23-14.78,21.51-24.2,48.89-26.53,78.63-6.4,81.64,48.68,125,108.73,125S413.54,885.83,415.67,787.63Z" transform="translate(-116.33 -524.56)"/><path class="cls-7" d="M141.71,683.27s-4.34,11.79,1.55,18.61,12.72-4.34,18-11.48,9-22.65,8.38-29.16S143.26,677.69,141.71,683.27Z" transform="translate(-116.33 -524.56)"/><path class="cls-3" d="M397.32,840.51c-22.94,19.45-91.75,36-129.82,33.69-41.07-2.51-83.31-11.31-115-44.62-25.8-27.13-26.31-85.1-25.61-105.68a176.57,176.57,0,0,0-6.5,35.75c-6.4,81.64,48.68,125,108.73,125C275.47,884.69,360.12,885.35,397.32,840.51Z" transform="translate(-116.33 -524.56)"/><path class="cls-8" d="M377.41,692.23l-.85-1.11c10.23,21.64,16.93,47.6-9.9,49.84-45.18,3.77-103.85-66.62-128.49-69.76s-86-51.05-59.85,58.45c13.8,57.74,9.39,117.52-28.75,93a108.68,108.68,0,0,1-27.64-26.17c10.1,57.43,56.37,87.81,106.29,88.18-18.24-12-44.52-32.35-34.64-45,14.67-18.85,27.58-41.48,10.56-86.1s-13.49-81.07,27.58-67.25,89.73,130.42,104,149c25.73,33.54,53.25-38.39,63.22-54.73s-1.17-43.37,13.5-25.77l.17.2C407,729.52,394.15,708.82,377.41,692.23Z" transform="translate(-116.33 -524.56)"/><path class="cls-9" d="M244.72,878c-.46,3.56-14.77,3.79-32,.49S182,869.67,182.47,866.1s14.77-3.79,32-.49S245.18,874.46,244.72,878Z" transform="translate(-116.33 -524.56)"/><path class="cls-9" d="M178.46,861.74c-1,2.25-4.36,2.7-7.58,1s-5-4.9-4.06-7.15,4.36-2.7,7.58-1S179.43,859.49,178.46,861.74Z" transform="translate(-116.33 -524.56)"/><path class="cls-10" d="M217.68,766.38c-1.07.63-14.43-15.08-26.72-9.43a214.57,214.57,0,0,0-21.37,11.31s2.14-11.94,12.82-18.23,19.23-.63,19.23-.63l14.43,9.43Z" transform="translate(-116.33 -524.56)"/><path class="cls-11" d="M194.61,742C179.37,742,167,753.65,167,768a3.29,3.29,0,1,0,6.49,0c0-10.1,9.48-18.31,21.14-18.31s21.14,8.21,21.14,18.31a3.29,3.29,0,1,0,6.49,0C222.24,753.65,209.84,742,194.61,742Z" transform="translate(-116.33 -524.56)"/><path class="cls-11" d="M182.19,716.64s8.43-13.22,12.52-10.52S191.9,715.74,182.19,716.64Z" transform="translate(-116.33 -524.56)"/><path class="cls-10" d="M314.29,766.38c1.07.63,14.43-15.08,26.72-9.43a214.55,214.55,0,0,1,21.37,11.31s-2.14-11.94-12.82-18.23-19.23-.63-19.23-.63l-14.43,9.43Z" transform="translate(-116.33 -524.56)"/><path class="cls-11" d="M337.36,742C352.6,742,365,753.65,365,768a3.29,3.29,0,1,1-6.49,0c0-10.1-9.48-18.31-21.14-18.31s-21.14,8.21-21.14,18.31a3.29,3.29,0,1,1-6.49,0C309.73,753.65,322.13,742,337.36,742Z" transform="translate(-116.33 -524.56)"/><path class="cls-11" d="M349.78,716.64s-8.43-13.22-12.52-10.52S340.07,715.74,349.78,716.64Z" transform="translate(-116.33 -524.56)"/><ellipse class="cls-10" cx="134.06" cy="261.8" rx="15.6" ry="12.68"/><ellipse class="cls-10" cx="172.78" cy="263.01" rx="15.6" ry="12.68"/><path class="cls-12" d="M257.61,802.42s9.56,26,15.72,21.76,10.61-23.46,10.61-23.46l-11.61-13.55Z" transform="translate(-116.33 -524.56)"/><path class="cls-11" d="M305.72,773.79a2.94,2.94,0,0,0-4.34-.4A3.46,3.46,0,0,0,301,778s3.13,4.14,2.7,8.88c-.25,2.81-1.75,5.42-4.45,7.75a13.62,13.62,0,0,1-15.19,1.8c-6-2.85-9.74-8.87-10.1-16.1a3.15,3.15,0,0,0-3.24-3.12,1.07,1.07,0,0,1-.69,0,3.14,3.14,0,0,0-3.24,3.12c-.36,7.23-4.13,13.25-10.1,16.1a13.62,13.62,0,0,1-15.19-1.8c-2.68-2.32-4.18-4.91-4.44-7.71-.45-4.72,2.63-8.84,2.71-8.94a3.46,3.46,0,0,0-.39-4.63,2.94,2.94,0,0,0-4.34.4c-.2.25-4.8,6.22-4.12,13.76.42,4.64,2.68,8.76,6.71,12.25a19.27,19.27,0,0,0,12.68,4.75,20.59,20.59,0,0,0,8.88-2.05,23.79,23.79,0,0,0,11.17-11.42,23.8,23.8,0,0,0,11.17,11.42,20.59,20.59,0,0,0,8.88,2.05,19.27,19.27,0,0,0,12.68-4.75c4-3.49,6.29-7.61,6.71-12.25C310.52,780,305.91,774,305.72,773.79Z" transform="translate(-116.33 -524.56)"/><path class="cls-13" d="M327.31,671.42s-19.08-4-9.31,7.48,29.78,25.42,35.36,21.43S353.37,680.39,327.31,671.42Z" transform="translate(-116.33 -524.56)"/><path class="cls-13" d="M362.67,701.32s-5.12,1,.93,8.47,14.89,11.46,15.35,7.48S369.19,701.82,362.67,701.32Z" transform="translate(-116.33 -524.56)"/><path class="cls-7" d="M375.13,634.69a67.47,67.47,0,0,1-59-8.12c-.65-.43-1.24-.88-1.85-1.32,4.74,9.6,8.27,19.56,2.49,19.56-.76,0-1.65,0-2.62-.06,18.68,9.23,48.51,27.17,48.51,27.17l.08-.12c-5.54-8.56-9.9-16.89-8.42-20.07C356.29,647.54,366.2,640.65,375.13,634.69Z" transform="translate(-116.33 -524.56)"/><path class="cls-7" d="M221.29,635c-2.23.19-4.42.48-6.59.82,5,1.95,12.19,2,20-.76,6.94-2.48,22.07.07,30.27,1.76-6.25-4.22-15.11-10.77-18-15.87-1.87-3.26-.66-6.81,1.47-9.91-3.87,1.54-9,2-17.89-.39-11.78-3.16-18-7-20.7-9.07,3,6.41,7.61,11,12.59,13.17,5.81,3.74,9.86,6.87,9.27,11.24C231.34,628.76,225.49,632.58,221.29,635Z" transform="translate(-116.33 -524.56)"/><path class="cls-3" d="M249.63,609.43l.18-.22a59.24,59.24,0,0,0,5.45-3,18.53,18.53,0,0,1-7,1.92c-6,0-22.33,0-32.57-9-5.76-5-8.28-8.67-9.38-10.88a37.62,37.62,0,0,0,6.32,18,66.89,66.89,0,0,0,22.6,6.3C239.73,613,244.92,611.48,249.63,609.43Z" transform="translate(-116.33 -524.56)"/><path class="cls-3" d="M313.55,623.73l.34.68c22.08,18.08,48.8,13.86,60.7,10.65l6.27-4.16a54.29,54.29,0,0,0,5.41-3.22c6.33-6.26,15.26-15.13,9.9-10.07-7.91,7.48-24.66,15.95-31.64,14.45s-21.87-.5-43.27-17.94c-16.4-13.37-18.32-35.51-18.32-45.13a115.54,115.54,0,0,0-2.4,24.53C300.55,606.71,305.47,616.69,313.55,623.73Z" transform="translate(-116.33 -524.56)"/><path class="cls-3" d="M364.53,534.38s-20,6-15.35,13.46,24.66,35.88,29.31,43.85,18.61,9.47,23.26.5S402.22,547.83,364.53,534.38Z" transform="translate(-116.33 -524.56)"/><path class="cls-3" d="M251.95,565.77s-27-11.46-31.17,4,17.21,7,24.66,12.46,14,3.49,14.89-1S260.79,573.25,251.95,565.77Z" transform="translate(-116.33 -524.56)"/><ellipse class="cls-1" cx="291.65" cy="144.61" rx="25.07" ry="24.21"/><ellipse class="cls-2" cx="291.65" cy="144.61" rx="22.24" ry="21.48"/><path class="cls-6" d="M385.74,669.17c0,11.86,10,21.48,22.24,21.48a22.18,22.18,0,0,0,21.2-15c-4.14,4.43-10.3,8.85-14,6.59-6-3.65,0-16.86-7.23-21s-10.21,14.13-17,10.48c-3.08-1.65-3.72-6.27-3.5-10.85A20.75,20.75,0,0,0,385.74,669.17Z" transform="translate(-116.33 -524.56)"/><path class="cls-3" d="M399,684.07c-6.64-2.7-10.81-9-13.25-14.16.41,11.52,10.18,20.74,22.2,20.74a22.64,22.64,0,0,0,14.16-4.92C416.73,686.88,407.39,687.47,399,684.07Z" transform="translate(-116.33 -524.56)"/><path class="cls-3" d="M413.92,650.8s-14.46-1.37-19.14,4.1,10.21-1.37,16.16,4.56,6.38,13.21,11.49,13.67S430.93,655.82,413.92,650.8Z" transform="translate(-116.33 -524.56)"/><path class="cls-13" d="M413.92,650.8s-8.51,1.82-1.7,4.56,11.49,7.75,11.49,4.56S418.17,651.26,413.92,650.8Z" transform="translate(-116.33 -524.56)"/><path class="cls-14" d="M212.33,780.31c.25,6.49-7.5,11.76-17.31,11.76s-18-5.26-18.22-11.76,7.5-11.76,17.31-11.76S212.08,773.81,212.33,780.31Z" transform="translate(-116.33 -524.56)"/><path class="cls-14" d="M355.22,779.47c.25,6.49-7.5,11.76-17.31,11.76s-18-5.26-18.21-11.76,7.5-11.76,17.31-11.76S355,773,355.22,779.47Z" transform="translate(-116.33 -524.56)"/><path class="cls-13" d="M378.4,542.39s-20.69-9.75-27.32-3.55,16.56,5.32,24,12.41,11.59,13.3,13.25,12.41S393.3,550.37,378.4,542.39Z" transform="translate(-116.33 -524.56)"/><path class="cls-13" d="M393.6,562s-1.48,5.09,1.48,7.95,5.34,13.67,6.23,8.58S399.24,560.77,393.6,562Z" transform="translate(-116.33 -524.56)"/><path class="cls-13" d="M241.36,562.36s-11.28-2.23-15.43,2.86,16.62-.64,20.77,3.82S249.67,562.36,241.36,562.36Z" transform="translate(-116.33 -524.56)"/><path class="cls-13" d="M251.45,567.13s-1.19,2.22,2.67,5.4,5.93,7,4.45,2.23S256.8,569.67,251.45,567.13Z" transform="translate(-116.33 -524.56)"/><path class="cls-1" d="M143.87,638.53c-9.2-.18-27.53,9.31-19.69,30.25s24.41,27.93,39.83,7S165.1,639,143.87,638.53Z" transform="translate(-116.33 -524.56)"/><path class="cls-2" d="M144.29,642.72c-7.65-.15-22.9,7.74-16.38,25.17s20.31,23.23,33.13,5.81S162,643.07,144.29,642.72Z" transform="translate(-116.33 -524.56)"/><path class="cls-6" d="M166.42,660.18c-3.88,7.59-12.92,17.12-19.51,13-9.27-5.74-2.21-13.68-11-19-4-2.42-6.77-1.61-8.56,0-1.34,3.64-1.45,8.18.6,13.67,6.52,17.42,20.31,23.23,33.13,5.81C164.66,668.79,166.31,664.23,166.42,660.18Z" transform="translate(-116.33 -524.56)"/><path class="cls-3" d="M147.79,645.42s-14.12,1.32-7.06,7.94,9.27,13.24,15.45,9.71S160.15,647.19,147.79,645.42Z" transform="translate(-116.33 -524.56)"/><path class="cls-13" d="M152.69,646.95s-5.81-3.1-10.85-.39,8.91,6.2,11.62,8.52S160.83,652.76,152.69,646.95Z" transform="translate(-116.33 -524.56)"/><path class="cls-3" d="M159.52,675.65c-.21.12-.42.25-.63.35-7.75,3.87-13.56,5-23.25-1.94-5.79-4.17-8.25-10.54-9.29-15a22.29,22.29,0,0,0,1.57,8.82C134.18,684.62,147.14,690.63,159.52,675.65Z" transform="translate(-116.33 -524.56)"/></svg>