<svg id="_ÎÓÈ_3" data-name="—ÎÓÈ_3" xmlns="http://www.w3.org/2000/svg" viewBox="0 0 156.77 168.77"><defs><style>.cls-1{fill:#392453;}.cls-2{fill:#09011e;opacity:0.36;}.cls-3{fill:#5bc3ce;}.cls-4{fill:#65859f;}.cls-10,.cls-5,.cls-6{fill:#0c0c2d;}.cls-5{opacity:0.24;}.cls-16,.cls-6{opacity:0.31;}.cls-11,.cls-16,.cls-7{fill:#fff;}.cls-7{opacity:0.74;}.cls-8{fill:#618fc4;}.cls-9{fill:#0d91cc;}.cls-10{opacity:0.43;}.cls-11{opacity:0.78;}.cls-12{fill:#0e3a62;}.cls-13{fill:#7091a3;}.cls-14{fill:#d149ec;}.cls-15{fill:#a238ba;}.cls-17{fill:#5897ac;}</style></defs><title>clock</title><path class="cls-1" d="M710.61,105.39a55.83,55.83,0,0,1,2.47,27.17c-2.47,14.82,7.41.83,7.41.83s-8.23-7.41.82-27.18Z" transform="translate(-600.16 -87.81)"/><circle class="cls-2" cx="78.39" cy="90.39" r="78.39"/><circle class="cls-3" cx="78.39" cy="78.39" r="78.39"/><circle class="cls-4" cx="78.39" cy="78.39" r="73.22"/><path class="cls-5" d="M750.38,152c-3.56-1.66-7.6-.37-12,5.56-15.6,21.27-106.62,10.21-119.67-4.82-3.75-4.32-7.38-6.13-10.67-6.51A73.22,73.22,0,1,0,750.38,152Z" transform="translate(-600.16 -87.81)"/><circle class="cls-6" cx="78.39" cy="79.15" r="62.79"/><circle class="cls-3" cx="78.39" cy="78.39" r="60.75"/><path class="cls-7" d="M697.77,114.9s-12.91,0-9.75,10,24,24.23,34.25,21.86S719.11,116.22,697.77,114.9Z" transform="translate(-600.16 -87.81)"/><path class="cls-8" d="M739.3,166.29c-6.36,18.15-22.76,35.38-59.51,31.52-44.6-4.67-57.46-34.73-60.54-44.81A60.75,60.75,0,1,0,739.3,166.29Z" transform="translate(-600.16 -87.81)"/><ellipse class="cls-6" cx="78.88" cy="126.03" rx="4.94" ry="11.08"/><ellipse class="cls-9" cx="78.88" cy="125.07" rx="4.5" ry="10.09"/><path class="cls-10" d="M683.54,212.89a20.67,20.67,0,0,0-.54-4.78c.94,7-2,13.92-5.71,9-2.39-3.15-2.08-8-1.46-11.33a18.13,18.13,0,0,0-1.3,7.08c0,5.57,2,10.09,4.5,10.09S683.54,218.46,683.54,212.89Z" transform="translate(-600.16 -87.81)"/><path class="cls-11" d="M679.32,203.44a1.51,1.51,0,0,0-1.6,1.25c-.38,1.41,1.88,2.42,3.24,4.06s1.53.39,1.57-.39S681.41,203.83,679.32,203.44Z" transform="translate(-600.16 -87.81)"/><ellipse class="cls-6" cx="78.88" cy="33.94" rx="4.94" ry="11.08"/><ellipse class="cls-9" cx="78.88" cy="32.98" rx="4.5" ry="10.09"/><path class="cls-10" d="M683.54,120.8A20.67,20.67,0,0,0,683,116c.94,7-2,13.92-5.71,9-2.39-3.15-2.08-8-1.46-11.33a18.12,18.12,0,0,0-1.3,7.08c0,5.57,2,10.09,4.5,10.09S683.54,126.37,683.54,120.8Z" transform="translate(-600.16 -87.81)"/><path class="cls-11" d="M679.32,111.35a1.51,1.51,0,0,0-1.6,1.25c-.38,1.4,1.88,2.42,3.24,4.06s1.53.39,1.57-.39S681.41,111.74,679.32,111.35Z" transform="translate(-600.16 -87.81)"/><ellipse class="cls-6" cx="32.84" cy="79.99" rx="11.08" ry="4.94"/><ellipse class="cls-9" cx="33.79" cy="79.99" rx="10.09" ry="4.5"/><path class="cls-10" d="M634,163.3a20.69,20.69,0,0,1,4.78.54c-7-.94-13.92,2-9,5.71,3.15,2.39,8,2.08,11.33,1.46a18.12,18.12,0,0,1-7.08,1.3c-5.57,0-10.09-2-10.09-4.5S628.38,163.3,634,163.3Z" transform="translate(-600.16 -87.81)"/><path class="cls-11" d="M643.4,167.52a1.51,1.51,0,0,1-1.25,1.6c-1.4.38-2.42-1.88-4.06-3.24s-.39-1.53.39-1.57S643,165.43,643.4,167.52Z" transform="translate(-600.16 -87.81)"/><ellipse class="cls-6" cx="124.93" cy="79.99" rx="11.08" ry="4.94"/><ellipse class="cls-9" cx="125.88" cy="79.99" rx="10.09" ry="4.5"/><path class="cls-10" d="M726,163.3a20.69,20.69,0,0,1,4.78.54c-7-.94-13.92,2-9,5.71,3.15,2.39,8,2.08,11.33,1.46a18.12,18.12,0,0,1-7.08,1.3c-5.57,0-10.09-2-10.09-4.5S720.47,163.3,726,163.3Z" transform="translate(-600.16 -87.81)"/><path class="cls-11" d="M735.49,167.52a1.51,1.51,0,0,1-1.25,1.6c-1.4.38-2.42-1.88-4.06-3.24s-.39-1.53.39-1.57S735.1,165.43,735.49,167.52Z" transform="translate(-600.16 -87.81)"/><path class="cls-6" d="M681.38,150.11c0,16.14-2.62,11.84-5.85,11.84s-5.85,4.3-5.85-11.84,2.62-29.23,5.85-29.23S681.38,134,681.38,150.11Z" transform="translate(-600.16 -87.81)"/><path class="cls-12" d="M683.69,149.34c0,16.14-2.62,11.84-5.84,11.84s-5.85,4.3-5.85-11.84,2.62-29.23,5.85-29.23S683.69,133.2,683.69,149.34Z" transform="translate(-600.16 -87.81)"/><path class="cls-13" d="M677.38,121.8s-1-.21-.42,3.34,2.09,13.36,3.76,13.15S681.14,122.21,677.38,121.8Z" transform="translate(-600.16 -87.81)"/><path class="cls-6" d="M671.14,157.56c14,7.95,9,8.11,7.43,10.92s.86,7.2-13.18-.74-24.15-16.67-22.56-19.48S657.09,149.61,671.14,157.56Z" transform="translate(-600.16 -87.81)"/><path class="cls-12" d="M671.91,154.49c14,7.95,9,8.11,7.43,10.92s.86,7.2-13.18-.74S642,148,643.59,145.19,657.86,146.54,671.91,154.49Z" transform="translate(-600.16 -87.81)"/><path class="cls-13" d="M644.82,146.41s-.7.81,2.7,2,12.66,4.76,13.3,3.2S647,143.35,644.82,146.41Z" transform="translate(-600.16 -87.81)"/><circle class="cls-6" cx="78.39" cy="79.92" r="17.77"/><circle class="cls-14" cx="78.39" cy="78.39" r="16.19"/><path class="cls-15" d="M694.73,166.2a16.12,16.12,0,0,0-1.93-7.66c3.39,11.29-7.19,22.33-20.55,14.48-8.6-5-7.48-12.81-5.24-18.18a16.19,16.19,0,1,0,27.72,11.36Z" transform="translate(-600.16 -87.81)"/><path class="cls-11" d="M679.56,151s-4.38-.25-5.76,2,6.76,3.88,11.65,6.51,5.51.63,5.64-.63S687.08,151.67,679.56,151Z" transform="translate(-600.16 -87.81)"/><path class="cls-16" d="M648.53,101.39s-13,5.1-14.18,9.36,17-10.78,40.55-10.78,36.3,4.54,50.76,19.85,5.39-3.12-5.39-10.77S686.25,87.78,648.53,101.39Z" transform="translate(-600.16 -87.81)"/><path class="cls-17" d="M742.52,201.83a18.14,18.14,0,0,0-6.89,5.21c-3.86,5.34-17.8,21.36-41.82,27.59s-54.28-8.6-66.74-21.06c-4.86-4.86-7.73-6.51-9.43-6.72a73.23,73.23,0,0,0,124.88-5Z" transform="translate(-600.16 -87.81)"/></svg>