<?xml version="1.0" encoding="utf-8"?>
<!-- Generator: Adobe Illustrator 21.1.0, SVG Export Plug-In . SVG Version: 6.00 Build 0)  -->
<svg version="1.1" id="_x2014_ÎÓÈ_x5F_1" xmlns="http://www.w3.org/2000/svg" xmlns:xlink="http://www.w3.org/1999/xlink"
	 x="0px" y="0px" viewBox="0 0 93 93" style="enable-background:new 0 0 93 93;" xml:space="preserve">
<style type="text/css">
	.st0{display:none;}
	.st1{display:inline;fill:#0A4377;}
	.st2{display:inline;fill:#2D84E2;}
	.st3{display:inline;fill:#3BADF2;}
	.st4{display:inline;opacity:0.27;}
	.st5{fill:#19328E;}
	.st6{display:inline;opacity:0.27;fill:#19328E;}
	.st7{display:inline;opacity:0.5;fill:#19328E;}
	.st8{display:inline;opacity:0.13;fill:#C5FFFF;}
	.st9{display:inline;opacity:0.62;fill:#C5FFFF;}
	.st10{display:inline;}
	.st11{opacity:0.22;fill:#C5FFFF;}
	.st12{fill:#0E3B63;}
	.st13{display:inline;opacity:0.22;fill:#C5FFFF;}
	.st14{display:inline;fill:#EF48A0;}
	.st15{display:inline;fill:#0E3B63;}
	.st16{display:inline;fill:#FFFFFF;}
	.st17{fill:#0A4377;}
	.st18{fill:#2D84E2;}
	.st19{opacity:0.27;fill:#19328E;}
	.st20{fill:#3BADF2;}
	.st21{fill:#FFFFFF;}
	.st22{opacity:0.78;fill:#FF88CC;}
	.st23{fill:#045B4F;}
	.st24{fill:#0BA8A0;}
	.st25{opacity:0.22;fill:#052D28;}
	.st26{fill:#19CCBE;}
	.st27{fill:#00D8A4;}
	.st28{opacity:0.22;fill:#10FFC0;}
	.st29{opacity:0.29;fill:#052D28;}
	.st30{opacity:0.55;fill:#06332E;}
	.st31{fill:#083F37;}
	.st32{opacity:0.43;fill:#0BA8A0;}
	.st33{fill:#EF48A0;}
	.st34{fill:#FF88CC;}
	.st35{opacity:0.9;fill:#8FFFDF;}
</style>
<g class="st0">
	<path class="st1" d="M73.1,42.2c-4.3-5.5-5.7-8.5-5.7-9.2c0.5-1,3.9-3.2,5.8-4.5l0.5-0.4c4.9-2.5,7.9-7.5,7.9-13
		c0-7.9-6.4-14.4-14.6-14.7c-0.3,0-0.6,0-0.8,0c-9.2,0-14.1,6-14.1,17.4c0,3.4,1.2,6.2,3.5,8.3c1.2,2.4,1.4,3.4,1.4,3.7
		c-1.9,0-6.1-0.5-9.1-0.9c-0.9-0.2-1.9-0.4-2.8-0.6c-2.5-1.6-4.3-3.1-4.8-4.1c-0.3-0.5,0.1-1.1,0.5-1.7c2.3-1.2,3.8-2.6,4.7-4.3
		c0.8-1.6,0.8-3.7-0.1-5.6C44.2,10.5,42,9,39.5,8.7c-0.2,0-1.3-0.2-2.7-0.2c-5.2,0-8.2,2.1-8.5,5.8c-0.4,5.2,2,8.7,4.6,9.9
		c1.1,0.7,1.9,1.3,1.9,1.8c-0.1,0.1-0.5,0.6-2,1.5c-7,0.6-13.2,4.2-18,10.3c-4.6,5.8-7.5,13.7-8.1,22.1C5.9,69.1,8.2,77.1,13.2,83
		c5.2,6.1,13.1,9.5,21.8,9.5l1.1,0c0,0,0,0,0,0c15.1,0,46.4,0,47-25.5C83.2,57.3,79.9,49,73.1,42.2z"/>
	<path class="st2" d="M72.5,42.9c-1.8-2.3-6.6-8.7-5.8-10.2c0.6-1.3,4.2-3.6,6.7-5.3c4.4-2.3,7.5-6.9,7.5-12.2
		c0-7.6-6.2-13.4-13.7-13.7C55.2,1,53,10.4,53,17.9c0,3.3,1.2,5.9,3.3,7.6c1.3,2.5,2.4,5.3,0.8,5.3c-1.8,0-6.2-0.4-9.4-0.9
		c-1-0.2-2-0.5-3-0.7c-1.5-1-4.4-3-5.3-4.5c-0.6-1,0-2.1,0.7-3c1.9-0.9,3.6-2.1,4.5-4c1.5-3-0.7-7.8-5.3-8.3c0,0-9.6-1.6-10.2,4.7
		c-0.4,4.6,1.7,7.9,4.1,8.9c1.5,0.9,2.5,1.7,2.3,2.8c-0.1,0.7-1.6,1.7-2.6,2.3C18.9,29.6,8.8,43.3,7.5,59.9
		C5.9,80.6,19.8,91.5,35,91.5c15.2,0,46.6,0.3,47.2-24.5C82.4,56.6,78.4,48.7,72.5,42.9z"/>
	<path class="st3" d="M58.1,35.3c0,0-5.2-1.7-9.5-1.3C43.3,34.4,39,37.2,43,42c7.4,8.8,23,26.4,28.7,25.2c5.7-1.2,7.4-10.8,3.8-16.1
		C72.1,45.8,71.2,41.3,58.1,35.3z"/>
	<g class="st4">
		<path class="st5" d="M57.1,30.9c-1.5,0-4.8-0.3-7.7-0.7c0.2,0.6,0.3,1.3-0.1,2c-1.2,2.6,1.9,6.2,3.9,4.7c2-1.5,7.5-0.6,11.1,0.6
			c3.5,1.3,4.8,0.9,4.8,0.9s0,0,0.1-0.1c-1.6-2.4-2.9-4.8-2.5-5.7c0.6-1.3,4.2-3.6,6.7-5.3c3.3-1.7,5.8-4.6,6.9-8.2
			c-1.7,3.7-7,6.4-10.4,3.8c-4.1-3.1-1.1-8.1-6.2-11c-5.2-2.9-3.3,4.7-5.5,0.5c-1.8-3.3-0.2-7.5,0.5-9C54.1,6.7,53,12.7,53,17.9
			c0,3.3,1.2,5.9,3.3,7.6C57.6,28.1,58.7,30.9,57.1,30.9z"/>
		<path class="st5" d="M44.8,29.3c-1.5-1-4.4-3-5.3-4.5c-0.6-1,0-2.1,0.7-3c1.9-0.9,3.6-2.1,4.5-4c0.8-1.6,0.6-3.7-0.6-5.4
			c0.5,2.2,0.1,5.1-1.5,5.5c-2.4,0.5-4-0.3-6.5-1.9c-2.5-1.6-3.6,2.1-4.8,1.5c-0.8-0.4-1.7-2.3-2.1-3.3c0,0,0,0.1,0,0.1
			c-0.4,4.6,1.7,7.9,4.1,8.9c1.5,0.9,2.5,1.7,2.3,2.8c-0.1,0.7-1.6,1.7-2.6,2.3c-1.2,0.1-2.4,0.3-3.5,0.6c-0.4,0.9-0.8,1.9-1.2,2.7
			c-0.8,1.8,8.4,2.3,10.2,1.1C40.4,31.7,44.8,29.3,44.8,29.3z"/>
		<path class="st5" d="M80.3,18.9c0.2-0.8,0.4-1.6,0.5-2.5C80.7,14.7,80.6,16.3,80.3,18.9z"/>
	</g>
	<path class="st6" d="M82.1,67c0-0.6,0-1.3,0-1.9c-2.4,13.4-17.3,22.2-22.4,14.3c-5.8-8.9-9.7-0.6-15.8-2.9
		c-6.1-2.3-4-31.5-18.8-37.3c-4.1-1.6-7.7-1-10.9,0.8c-3.7,5.4-6.1,12.4-6.7,19.9C5.9,80.6,19.8,91.5,35,91.5
		C50.2,91.5,81.6,91.8,82.1,67z"/>
	<path class="st7" d="M12.9,40.6c0,0-1.1,3,0.4,4.7c1.5,1.7,3.2-1.1,4.5-2.9c1.3-1.8,2.3-5.7,2.1-7.4C19.8,33.4,13.3,39.2,12.9,40.6
		z"/>
	<path class="st3" d="M77.5,80.4c-5.8,4.9-23.2,9.1-32.8,8.5C34.3,88.3,23.6,86,15.6,77.6C9.1,70.7,9,56.1,9.1,50.9
		c-0.8,2.9-1.4,5.9-1.6,9C5.9,80.6,19.8,91.5,35,91.5C46.7,91.5,68.1,91.7,77.5,80.4z"/>
	<path class="st8" d="M72.5,42.9c-0.1-0.1-0.1-0.2-0.2-0.3c2.6,5.5,4.3,12-2.5,12.6c-11.4,1-26.3-16.8-32.5-17.6
		C31,36.8,15.5,24.7,22.1,52.3c3.5,14.6,2.4,29.7-7.3,23.5c-2.9-1.8-5.2-4.2-7-6.6c2.6,14.5,14.2,22.2,26.9,22.3
		c-4.6-3-11.3-8.2-8.8-11.4c3.7-4.8,7-10.5,2.7-21.8c-4.3-11.3-3.4-20.5,7-17c10.4,3.5,22.7,33,26.3,37.7c6.5,8.5,13.5-9.7,16-13.8
		c2.5-4.1-0.3-11,3.4-6.5c0,0,0,0,0,0.1C79.9,52.3,76.7,47.1,72.5,42.9z"/>
	<path class="st9" d="M38.9,89.9c-0.1,0.9-3.7,1-8.1,0.1c-4.3-0.8-7.8-2.2-7.7-3.1c0.1-0.9,3.7-1,8.1-0.1
		C35.6,87.5,39,88.9,38.9,89.9z"/>
	<path class="st9" d="M22.2,85.7c-0.2,0.6-1.1,0.7-1.9,0.3c-0.8-0.4-1.3-1.2-1-1.8c0.2-0.6,1.1-0.7,1.9-0.3
		C22,84.4,22.4,85.2,22.2,85.7z"/>
	<g class="st10">
		<path class="st11" d="M32.1,61.6c-0.3,0.2-3.6-3.8-6.8-2.4c-3.1,1.4-5.4,2.9-5.4,2.9s0.5-3,3.2-4.6c2.7-1.6,4.9-0.2,4.9-0.2
			l3.6,2.4L32.1,61.6z"/>
		<path class="st12" d="M26.3,55.5c-3.9,0-7,2.9-7,6.6c0,0.5,0.4,1,0.8,1c0.5,0,0.8-0.4,0.8-1c0-2.6,2.4-4.6,5.3-4.6
			s5.3,2.1,5.3,4.6c0,0.5,0.4,1,0.8,1c0.5,0,0.8-0.4,0.8-1C33.2,58.4,30.1,55.5,26.3,55.5z"/>
		<path class="st12" d="M23.1,49.1c0,0,2.1-3.3,3.2-2.7C27.3,47.1,25.6,48.8,23.1,49.1z"/>
	</g>
	<g class="st10">
		<path class="st11" d="M56.5,61.6c0.3,0.2,3.6-3.8,6.8-2.4c3.1,1.4,5.4,2.9,5.4,2.9s-0.5-3-3.2-4.6c-2.7-1.6-4.9-0.2-4.9-0.2
			l-3.6,2.4L56.5,61.6z"/>
		<path class="st12" d="M62.3,55.5c3.9,0,7,2.9,7,6.6c0,0.5-0.4,1-0.8,1c-0.5,0-0.8-0.4-0.8-1c0-2.6-2.4-4.6-5.3-4.6S57,59.5,57,62
			c0,0.5-0.4,1-0.8,1c-0.5,0-0.8-0.4-0.8-1C55.4,58.4,58.5,55.5,62.3,55.5z"/>
		<path class="st12" d="M65.5,49.1c0,0-2.1-3.3-3.2-2.7C61.3,47.1,63,48.8,65.5,49.1z"/>
	</g>
	<ellipse class="st13" cx="40.4" cy="66.7" rx="3.9" ry="3.2"/>
	<ellipse class="st13" cx="50.1" cy="67" rx="3.9" ry="3.2"/>
	<path class="st14" d="M42.2,70.7c0,0,2.4,6.6,4,5.5c1.6-1.1,2.7-5.9,2.7-5.9l-2.9-3.4L42.2,70.7z"/>
	<path class="st15" d="M54.3,63.5c-0.3-0.4-0.8-0.4-1.1-0.1c-0.3,0.3-0.4,0.8-0.1,1.2c0,0,0.8,1,0.7,2.2c-0.1,0.7-0.4,1.4-1.1,2
		c-1.1,0.9-2.5,1.1-3.8,0.5c-1.5-0.7-2.5-2.2-2.6-4.1c0-0.5-0.4-0.8-0.8-0.8c0,0-0.1,0-0.1,0c0,0-0.1,0-0.1,0
		c-0.4,0-0.8,0.3-0.8,0.8c-0.1,1.8-1,3.3-2.6,4.1c-1.3,0.6-2.8,0.5-3.8-0.5c-0.7-0.6-1.1-1.2-1.1-1.9c-0.1-1.2,0.7-2.2,0.7-2.3
		c0.3-0.4,0.2-0.9-0.1-1.2c-0.3-0.3-0.8-0.3-1.1,0.1c0,0.1-1.2,1.6-1,3.5c0.1,1.2,0.7,2.2,1.7,3.1c0.9,0.8,2,1.2,3.2,1.2
		c0.8,0,1.5-0.2,2.2-0.5c1.2-0.6,2.2-1.6,2.8-2.9c0.6,1.3,1.6,2.3,2.8,2.9c0.7,0.3,1.5,0.5,2.2,0.5c1.2,0,2.3-0.4,3.2-1.2
		c1-0.9,1.6-1.9,1.7-3.1C55.6,65.1,54.4,63.6,54.3,63.5z"/>
	<path class="st16" d="M59.8,37.6c0,0-4.8-1-2.4,1.9c2.5,2.9,7.5,6.4,8.9,5.4C67.8,43.9,66.4,39.9,59.8,37.6z"/>
	<path class="st16" d="M68.7,45.2c0,0-1.3,0.3,0.2,2.1c1.5,1.9,3.8,2.9,3.9,1.9C73,48.2,70.4,45.3,68.7,45.2z"/>
	<path class="st7" d="M71.9,28.3c-3.6,1.2-9.3,1.7-14.9-2.1c-0.2-0.1-0.3-0.2-0.5-0.3c1.2,2.4,2.1,4.9,0.6,4.9c-0.2,0-0.4,0-0.7,0
		c4.7,2.3,12.3,6.9,12.3,6.9s0,0,0,0c-1.4-2.2-2.5-4.3-2.1-5.1C67.1,31.6,69.6,29.8,71.9,28.3z"/>
	<path class="st7" d="M33,28.4c-0.6,0-1.1,0.1-1.7,0.2c1.3,0.5,3.1,0.5,5.1-0.2c1.8-0.6,5.6,0,7.7,0.4c-1.6-1.1-3.8-2.7-4.6-4
		c-0.5-0.8-0.2-1.7,0.4-2.5c-1,0.4-2.3,0.5-4.5-0.1c-3-0.8-4.6-1.8-5.2-2.3c0.8,1.6,1.9,2.8,3.2,3.3c1.5,0.9,2.5,1.7,2.3,2.8
		C35.5,26.8,34.1,27.8,33,28.4z"/>
	<path class="st3" d="M40.2,22C40.2,21.9,40.2,21.9,40.2,22c0.5-0.3,1-0.5,1.4-0.8c-0.6,0.3-1.2,0.5-1.8,0.5c-1.5,0-5.6,0-8.2-2.3
		c-1.5-1.3-2.1-2.2-2.4-2.8c0.2,1.8,0.8,3.4,1.6,4.6c1.9,0.9,3.9,1.4,5.7,1.6C37.7,22.9,39,22.5,40.2,22z"/>
	<path class="st3" d="M56.3,25.6c0,0.1,0.1,0.1,0.1,0.2c5.6,4.6,12.3,3.5,15.3,2.7c0.6-0.4,1.1-0.7,1.6-1.1c0.5-0.2,0.9-0.5,1.4-0.8
		c1.6-1.6,3.9-3.8,2.5-2.5c-2,1.9-6.2,4-8,3.7c-1.8-0.4-5.5-0.1-10.9-4.5c-4.1-3.4-4.6-9-4.6-11.4c-0.4,2-0.6,4.2-0.6,6.2
		C53,21.3,54.3,23.8,56.3,25.6z"/>
	<path class="st3" d="M69.2,3c0,0-5.1,1.5-3.9,3.4c1.2,1.9,6.2,9.1,7.4,11.1c1.2,2,4.7,2.4,5.9,0.1C79.8,15.3,78.7,6.4,69.2,3z"/>
	<path class="st3" d="M40.7,10.9c0,0-6.8-2.9-7.9,1c-1.1,3.9,4.4,1.8,6.2,3.1c1.9,1.4,3.5,0.9,3.8-0.3C43.1,13.7,43,12.8,40.7,10.9z
		"/>
	<g class="st10">
		<ellipse class="st17" cx="80.2" cy="37.1" rx="6.3" ry="6.1"/>
		<ellipse class="st18" cx="80.2" cy="37.1" rx="5.6" ry="5.4"/>
		<path class="st19" d="M74.6,37.1c0,3,2.5,5.4,5.6,5.4c2.5,0,4.6-1.6,5.4-3.8c-1,1.1-2.6,2.2-3.5,1.7c-1.5-0.9,0-4.3-1.8-5.3
			c-1.8-1-2.6,3.6-4.3,2.6c-0.8-0.4-0.9-1.6-0.9-2.7C74.7,35.6,74.6,36.3,74.6,37.1z"/>
		<path class="st20" d="M77.9,40.8c-1.7-0.7-2.7-2.3-3.3-3.6c0.1,2.9,2.6,5.2,5.6,5.2c1.4,0,2.6-0.5,3.6-1.2
			C82.4,41.5,80,41.7,77.9,40.8z"/>
		<path class="st20" d="M81.7,32.4c0,0-3.7-0.3-4.8,1c-1.2,1.4,2.6-0.3,4.1,1.2c1.5,1.5,1.6,3.3,2.9,3.5
			C85.1,38.2,86,33.7,81.7,32.4z"/>
		<path class="st21" d="M81.7,32.4c0,0-2.2,0.5-0.4,1.2c1.7,0.7,2.9,2,2.9,1.2C84.2,33.9,82.8,32.5,81.7,32.4z"/>
	</g>
	<g class="st10">
		<path class="st22" d="M30.7,65.1c0.1,1.6-1.9,3-4.4,3c-2.5,0-4.5-1.3-4.6-3c-0.1-1.6,1.9-3,4.4-3C28.6,62.2,30.7,63.5,30.7,65.1z"
			/>
		<path class="st22" d="M66.9,64.9c0.1,1.6-1.9,3-4.4,3c-2.5,0-4.5-1.3-4.6-3c-0.1-1.6,1.9-3,4.4-3C64.7,62,66.8,63.3,66.9,64.9z"/>
	</g>
	<path class="st16" d="M72.7,5c0,0-5.2-2.5-6.9-0.9c-1.7,1.6,4.2,1.3,6.1,3.1c1.9,1.8,2.9,3.4,3.3,3.1C75.6,10.2,76.5,7,72.7,5z"/>
	<path class="st16" d="M76.6,10c0,0-0.4,1.3,0.4,2c0.8,0.7,1.4,3.5,1.6,2.2C78.7,12.9,78,9.7,76.6,10z"/>
	<path class="st16" d="M38.1,10.1c0,0-2.9-0.6-3.9,0.7c-1.1,1.3,4.2-0.2,5.3,1C40.5,12.9,40.2,10.1,38.1,10.1z"/>
	<path class="st16" d="M40.6,11.3c0,0-0.3,0.6,0.7,1.4c1,0.8,1.5,1.8,1.1,0.6C42.1,12,42,11.9,40.6,11.3z"/>
	<g class="st10">
		<path class="st17" d="M13.4,29.3c-2.3,0-7,2.4-5,7.6c2,5.3,6.2,7.1,10.1,1.8C22.4,33.4,18.8,29.4,13.4,29.3z"/>
		<path class="st18" d="M13.5,30.4c-1.9,0-5.8,2-4.1,6.4c1.6,4.4,5.1,5.9,8.4,1.5C21,33.8,18,30.5,13.5,30.4z"/>
		<path class="st19" d="M19.1,34.8c-1,1.9-3.3,4.3-4.9,3.3c-2.3-1.5-0.6-3.5-2.8-4.8c-1-0.6-1.7-0.4-2.2,0c-0.3,0.9-0.4,2.1,0.2,3.5
			c1.6,4.4,5.1,5.9,8.4,1.5C18.7,37,19.1,35.8,19.1,34.8z"/>
		<path class="st20" d="M14.4,31.1c0,0-3.6,0.3-1.8,2c1.8,1.7,2.3,3.3,3.9,2.5C18.1,34.6,17.5,31.5,14.4,31.1z"/>
		<path class="st21" d="M15.7,31.4c0,0-1.5-0.8-2.7-0.1c-1.3,0.7,2.3,1.6,2.9,2.2C16.5,34.1,17.7,32.9,15.7,31.4z"/>
		<path class="st20" d="M17.4,38.7c-0.1,0-0.1,0.1-0.2,0.1c-2,1-3.4,1.3-5.9-0.5c-1.5-1.1-2.1-2.7-2.3-3.8c0,0.7,0.1,1.4,0.4,2.2
			C11,41,14.3,42.5,17.4,38.7z"/>
	</g>
</g>
<g>
	<path class="st23" d="M71.4,35.2c-1.1-3.5-1-4.4-1-4.6c0.3-0.5,1.1-1.2,2-1.9c0.6-0.5,1.2-1,1.8-1.5c3-1.3,4.3-3.8,4-7.9
		c-0.3-5-5-8.7-10.8-8.7c-6,0-10.8,3.9-10.8,8.8c0,3.4,2.4,6.5,6.2,7.9C63,27.7,63,27.9,63,28c0,0-0.1,0-0.1,0
		c-5.2-3.3-10.6-5-16.1-5c-5.1,0-10.1,1.3-15,3.8c0-0.4,0.1-1.4,0.8-3.2c2.1-2.5,3.2-5.2,3.2-7.7c0-6.2-7.1-9-13.7-9
		C15.7,7,9.9,15,9.9,21.2c0,4.2,2.7,6.8,7.9,7.6c1,0.4,3.4,1.3,3.8,2.2c0,0.1,0.3,1.2-1.7,5C12.7,43.9,8.3,54.2,8.3,63.5
		c0,9.1,4,16.6,11.7,21.8c6.8,4.7,16.3,7.2,26.8,7.2c24.4,0,37.9-9.3,37.9-26.1C84.7,56,79.6,44.1,71.4,35.2z"/>
	<path class="st24" d="M70.5,35.8c-0.7-2.2-1.4-4.8-1-5.5c0.5-1.1,2.6-2.3,4.1-3.8c2.3-0.9,3.8-2.9,3.6-6.9
		c-0.3-4.3-4.4-7.8-9.8-7.8c-5.4,0-9.8,3.5-9.8,7.8c0,3.2,2.4,5.9,5.9,7.1c0.3,0.6,0.5,1.1,0.4,1.7c-0.1,0.7-0.7,0.9-1.4,0.8
		c-4.8-3.1-10.2-5-15.8-5c-5.4,0-10.5,1.5-15.3,4c-0.2-0.1-0.4-0.2-0.6-0.5c-0.5-0.7,0-2.7,0.7-4.5c1.9-2.2,3.1-4.7,3.1-7.1
		c0-5.5-6.6-8-12.7-8c-6.1,0-11.3,7.7-11.3,13.2c0,4.2,3,6,7.2,6.6c1.9,0.7,4,1.6,4.4,2.8c0.5,1.2-0.7,3.8-1.8,5.9
		c-7,7.5-11.4,17.5-11.4,26.9c0,18.6,17.4,28,37.5,28c20.1,0,36.9-6.4,36.9-25C83.7,56.2,78.5,44.3,70.5,35.8z"/>
	<path class="st25" d="M70.5,35.8c-0.7-2.2-1.4-4.8-1-5.5c0.5-1.1,2.6-2.3,4.1-3.8c2.3-0.9,3.8-2.9,3.6-6.9c0-0.6-0.2-1.2-0.3-1.7
		c-0.1,2.2-0.7,5-3.3,5.5c-4.4,0.7-3-2.1-6.7-4.4c-3.7-2.3-2.8,4.8-5.5,1.8c-1.4-1.6-1.6-4-1.4-6c-1.4,1.3-2.2,3.1-2.2,4.9
		c0,3.2,2.4,5.9,5.9,7.1c0.3,0.6,0.5,1.1,0.4,1.7c-0.1,0.7-0.7,0.9-1.4,0.8c-2.6-1.6-5.3-2.9-8.1-3.8c0.8,5.6,6.1,4.2,9,6.6
		c2,1.7,5.2,3.2,7.3,4.1C70.7,35.9,70.6,35.8,70.5,35.8z"/>
	<path class="st26" d="M59.3,30.1c0,0-13.1-5-20.9,0.5c-7.8,5.5,7.6,12.6,14.2,21.1c6.6,8.5,16.7,15.1,21.5,13.1
		c4.8-2,2.3-15.3,0.2-19.2C72.1,41.8,68.2,32.8,59.3,30.1z"/>
	<path class="st25" d="M81.7,61c-0.2,8.5-13.7,21.7-27,17.9c-13.3-3.7-12.6-19.5-21.5-25.2c-8.9-5.7-13.5,12.4-18.5,5.1
		c-1.6-2.4-2.3-5.7-2.6-9.1c-1.9,4.5-2.9,9.2-2.9,13.7c0,18.6,17.4,28,37.5,28c20.1,0,36.9-6.4,36.9-25c0-4.8-1.1-10-3.2-15.1
		C81.2,54.4,81.8,57.8,81.7,61z"/>
	<path class="st27" d="M80.9,78c-1.8,2.8-6.4,7.8-18.1,9.4c-16.2,2.3-29.1,0.7-40.5-5c-7.6-3.8-11.2-15-12.8-22c-0.1,1-0.2,2-0.2,3
		c0,18.6,17.4,28,37.5,28C61.9,91.5,75.3,87.8,80.9,78z"/>
	<path class="st28" d="M46.3,89.5c-0.4-4.1,11.8-2.7,11-11c-0.8-8.3-5.8-8.5-15.9-12.8c-10.1-4.3-13.9-14.5-8.1-15.5
		c5.8-1,21.5,6.4,26.1,1.9c4.5-4.5,4.5-16.2,0-21.9c-1.1-1.4-2.1-2.8-3-4.2c-3.1-1.2-6.3-1.8-9.6-1.8c-0.4,0-0.8,0-1.3,0
		c4.1,3.5,8.6,8.8,6.8,14.7c-3.1,10.3-6.4,4.3-16.5,7.4c-10.1,3.1-14.9,9.5-9.9,17.2c5,7.7,19.6,7.2,15.9,17.8
		c-1.8,5.2-9.5,6.2-16.8,5.8c6.2,3,13.8,4.5,21.8,4.5c1.3,0,2.5,0,3.8-0.1C48.1,91.1,46.4,90.6,46.3,89.5z"/>
	<path class="st25" d="M31.5,28.1c-0.2-0.1-0.4-0.2-0.6-0.5c-0.5-0.7,0-2.7,0.7-4.5c1.9-2.2,3.1-4.7,3.1-7.1c0-0.2,0-0.4,0-0.6
		c-2.9,3.8-9.1,4.6-14.3,3.7c-6.2-1.1-3,5.3-6.7,2.7c-2.4-1.7-1.4-5.4-0.4-7.9c-1.5,2.3-2.4,5-2.4,7.3c0,4.2,3,6,7.2,6.6
		c1.9,0.7,4,1.6,4.4,2.8c0.5,1.2-0.7,3.8-1.8,5.9c-1.4,1.5-2.7,3.1-3.9,4.8c1.9,1.3,3.1,1,5.2-0.8c3-2.5,4.6-6.6,9.2-11.5
		c0.5-0.6,1.1-1.1,1.7-1.6C32.5,27.6,32,27.9,31.5,28.1z"/>
	<path class="st29" d="M18.7,28.1c1.7,0.7,3.4,1.5,3.8,2.6c0.2,0.6,0,1.6-0.3,2.7c1.8-1.2,4-2.4,5.9-3.5c1-0.6,2-1.3,2.9-2.2
		c0,0,0,0,0-0.1c-0.5-0.7-0.1-2.4,0.6-4.2C28.9,25.5,23.7,28.3,18.7,28.1z"/>
	<path class="st21" d="M59.2,31.2c0,0-10.5-2.8-12.1-0.5c-1.6,2.3,12.1,3.2,16.3,5.7c4.3,2.5,5.7,4.6,6,3
		C69.8,37.7,67.2,34.2,59.2,31.2z"/>
	<path class="st21" d="M71.6,42.7c0,0-1.4,0.2-0.4,1.8c1.1,1.6,2.3,5.5,3.7,5.5C76.4,50,73.4,43.4,71.6,42.7z"/>
	<path class="st27" d="M18.1,27.9c0.6,0.2,1.2,0.5,1.8,0.7c2.7-0.3,5.4-1.3,8.1-2.6c1.4-0.7,2.6-1.6,3.7-2.7c0-0.1,0.1-0.1,0.1-0.2
		c0.6-0.7,1.1-1.4,1.6-2.2c-1.9,1.4-4.1,2.7-4.5,2.9c-0.7,0.4-8.9,4.3-13.5,2.3c-2-0.8-3.3-2-4.2-3.1C11.9,26,14.6,27.3,18.1,27.9z"
		/>
	<g>
		<g>
			<g>
				<ellipse class="st30" cx="26.1" cy="58.9" rx="5.1" ry="11.2"/>
				<ellipse class="st31" cx="26.1" cy="58.9" rx="4.1" ry="9.9"/>
				<path class="st32" d="M26.5,66.1c-1.9,0-3.4-3.7-3.4-8.3c0-1.4,0.2-2.8,0.4-4c-0.5,1.4-0.8,3.3-0.8,5.4c0,4.6,1.5,8.3,3.4,8.3
					c1.3,0,2.4-1.7,3-4.3C28.4,65,27.5,66.1,26.5,66.1z"/>
				<ellipse class="st21" cx="27.1" cy="54.7" rx="1.8" ry="2.8"/>
				<ellipse class="st21" cx="25.1" cy="66.1" rx="0.8" ry="0.9"/>
				<path class="st31" d="M23.7,41.6c0,0,2.6-3.5,3.9-2.8C28.8,39.6,26.7,41.4,23.7,41.6z"/>
			</g>
			<g>
				<ellipse class="st30" cx="66.3" cy="58.9" rx="5.1" ry="11.2"/>
				<ellipse class="st31" cx="66.3" cy="58.9" rx="4.1" ry="9.9"/>
				<path class="st32" d="M65.9,66.1c1.9,0,3.4-3.7,3.4-8.3c0-1.4-0.2-2.8-0.4-4c0.5,1.4,0.8,3.3,0.8,5.4c0,4.6-1.5,8.3-3.4,8.3
					c-1.3,0-2.4-1.7-3-4.3C63.9,65,64.8,66.1,65.9,66.1z"/>
				<ellipse class="st21" cx="65.3" cy="54.7" rx="1.8" ry="2.8"/>
				<ellipse class="st21" cx="67.3" cy="66.1" rx="0.8" ry="0.9"/>
				<path class="st31" d="M68.7,41.6c0,0-2.6-3.5-3.9-2.8C63.6,39.6,65.7,41.4,68.7,41.6z"/>
			</g>
			<path class="st30" d="M37.9,63.5c0,0,1.1,4.4,7.4,5.2c6.3,0.7,8.8-3.8,9.2-4.7c0.4-0.9,0.8,5.3-4.1,6.3c-4.9,1-9-0.5-9-0.5
				S38.7,69.2,37.9,63.5z"/>
			<path class="st30" d="M48.7,70.7c0,0,2.4,3,2.6,4c0.2,1,0.7,4,2.3,4.7c1.6,0.7,3.6-1.1,3.4-2.3c-0.2-1.2-0.2-4.9-0.2-4.9
				l-3.3-3.5L48.7,70.7z"/>
			<path class="st33" d="M48.7,70.7c0,0,3.3,1.9,4.6,4.1c1.3,2.2,1.8,3.7,4.3,3.5c2.6-0.2,3.6-3.4,2.5-6.6c-1.2-3.2-4.9-5.9-4.9-5.9
				S52.1,71.1,48.7,70.7z"/>
			<path class="st31" d="M46.5,71.7c-5.2,0-9.4-3.3-9.4-7.4c0-0.4,0.4-0.8,0.8-0.8c0.4,0,0.8,0.4,0.8,0.8c0,3.2,3.5,5.8,7.8,5.8
				c4.3,0,7.8-2.6,7.8-5.8c0-0.4,0.4-0.8,0.8-0.8c0.4,0,0.8,0.4,0.8,0.8C55.8,68.4,51.6,71.7,46.5,71.7z"/>
		</g>
		<g>
			<path class="st24" d="M35,67.6c0.1,2.8-3.5,5.1-8.1,5.1c-4.6,0-8.4-2.3-8.5-5.1c-0.1-2.8,3.5-5.1,8.1-5.1
				C31.1,62.5,34.9,64.8,35,67.6z"/>
			<path class="st25" d="M35,67.6c0.1,2.8-3.5,5.1-8.1,5.1c-4.6,0-8.4-2.3-8.5-5.1c-0.1-2.8,3.5-5.1,8.1-5.1
				C31.1,62.5,34.9,64.8,35,67.6z"/>
			<path class="st28" d="M25.4,62.5c0.2,0.3,0.3,0.6,0.5,0.9c1.9,2.9,5.3,4.7,8.5,6.3c0.5-0.7,0.7-1.4,0.7-2.1
				c-0.1-2.8-3.9-5.1-8.5-5.1C26.1,62.5,25.7,62.5,25.4,62.5z"/>
			<path class="st22" d="M31.7,68.4c0.1,1.7-2.1,3.1-4.9,3.1c-2.8,0-5.1-1.4-5.1-3.1c-0.1-1.7,2.1-3.1,4.9-3.1
				C29.4,65.3,31.7,66.7,31.7,68.4z"/>
		</g>
		<g>
			<path class="st24" d="M74.8,67.6c0.1,2.8-3.5,5.1-8.1,5.1c-4.6,0-8.4-2.3-8.5-5.1c-0.1-2.8,3.5-5.1,8.1-5.1
				C70.8,62.5,74.6,64.8,74.8,67.6z"/>
			<path class="st22" d="M71.5,68.4c0.1,1.7-2.1,3.1-4.9,3.1c-2.8,0-5.1-1.4-5.1-3.1c-0.1-1.7,2.1-3.1,4.9-3.1
				C69.1,65.3,71.4,66.7,71.5,68.4z"/>
		</g>
		<path class="st22" d="M54.4,70.5c0,0-2.5-0.2-1.2,1.7c1.3,1.8,2.3,4.7,3.4,4.3C57.7,76.1,57.5,71.3,54.4,70.5z"/>
		<path class="st34" d="M56.8,69.2c0,0-0.6,0.7,0.3,2.3c0.9,1.7,0.9,4.9,1.9,4.1C60.1,74.8,59.6,70,56.8,69.2z"/>
	</g>
	<path class="st26" d="M23.9,9c0,0-4.7-1-7.6,3.3c-2.9,4.3,6.7,1.9,9,3.7c2.3,1.9,6.8,1.1,7.4-0.7C33.3,13.5,31,9.5,23.9,9z"/>
	<path class="st21" d="M22.9,9.6c0,0-2.1-0.3-0.3,1.1c1.9,1.4,3.1,1.9,4.3,1.6c1.1-0.3,2.6-0.7,1-1.6C26.3,9.9,25.7,9.8,22.9,9.6z"
		/>
	<path class="st35" d="M43.2,89.4c-0.1,0.9-3.9,1-8.4,0.1c-4.5-0.9-8.1-2.3-8-3.3c0.1-0.9,3.9-1,8.4-0.1
		C39.7,87,43.3,88.5,43.2,89.4z"/>
	<path class="st35" d="M25.8,85.1c-0.3,0.6-1.1,0.7-2,0.3c-0.8-0.4-1.3-1.3-1.1-1.9c0.3-0.6,1.1-0.7,2-0.3
		C25.5,83.7,26,84.5,25.8,85.1z"/>
	<path class="st29" d="M63.6,26.7c0.3,0.5,0.4,1,0.4,1.5c-0.1,0.5-0.4,0.7-0.8,0.8c2,1.3,4.9,3.3,6.8,4.7c-0.4-1.6-0.7-3-0.4-3.5
		c0.5-1.1,2.6-2.3,4.1-3.8c0.3-0.1,0.5-0.2,0.8-0.4C71.7,27,67.7,28.1,63.6,26.7z"/>
	<path class="st26" d="M69.1,12.4c0,0-5.2-1.1-6.3,1.6c-1.1,2.7,6.7,2,8.2,3.5c1.5,1.5,3,3.1,4.5,1.6C77,17.7,75.5,14.7,69.1,12.4z"
		/>
	<path class="st27" d="M57.6,19.4c0,3.2,2.4,5.9,5.9,7.1c0,0,0,0.1,0.1,0.1c1.7,0.6,3.6,1,5.6,1.1c1.2,0.1,2.2,0,3-0.2
		c0.5-0.4,0.9-0.8,1.4-1.2c1-0.4,1.9-1,2.5-1.9c-1.1,0.8-2.6,1.9-3.3,1.9c-1.2,0-6.8,0.8-10.2-2c-2.8-2.3-4.3-5.5-4.7-6.6
		C57.7,18.4,57.6,18.9,57.6,19.4z"/>
	<path class="st21" d="M69.1,12.4c0,0-3-0.8-0.1,1.6c2.9,2.5,4.1,3.4,5.2,3.3C75.2,17.2,74.6,14.6,69.1,12.4z"/>
	<g>
		<path class="st23" d="M51.6,7.9c0,3.5-2.7,5.5-7.2,5.5c-4.5,0-6.6-1.5-6.6-5c0-3.5,2.1-7.8,6.6-7.8C48.9,0.5,51.6,4.3,51.6,7.9z"
			/>
		<path class="st24" d="M50.4,7.7c0,3-2.3,4.6-6,4.6c-3.8,0-5.5-1.2-5.5-4.2c0-3,1.8-6.5,5.5-6.5C48.2,1.6,50.4,4.8,50.4,7.7z"/>
		<path class="st25" d="M44.4,12.3c3.2,0,5.3-1.2,5.9-3.3c-2,0.9-5.2,1.4-6.8,0.9c-2.5-0.8,0.1-3.1-2.6-3.7C40,6,39.4,6.2,39,6.6
			c-0.1,0.5-0.2,1-0.2,1.5C38.8,11.1,40.6,12.3,44.4,12.3z"/>
		<path class="st26" d="M45.3,2.2c0,0-2.5-0.4-3.8,1.5c-1.4,1.9,4.5,1.8,4.9,2.6c0.4,0.8,1.2,1.5,2.6,1.4
			C50.3,7.5,49.4,2.6,45.3,2.2z"/>
		<path class="st21" d="M45.3,2.2c0,0-1.9,0.7-0.4,1.9c1.5,1.2,4.5,3.8,4.2,2.3C48.8,4.9,48.1,1.9,45.3,2.2z"/>
		<path class="st27" d="M41.4,10.9c-1.2-0.9-2-2.5-2.5-3.8c0,0.3-0.1,0.6-0.1,0.9c0,3,1.8,4.2,5.5,4.2c1.8,0,3.3-0.4,4.3-1.1
			C46.6,11.6,42.8,12,41.4,10.9z"/>
	</g>
</g>
</svg>
