<?xml version="1.0" encoding="utf-8"?>
<!-- Generator: Adobe Illustrator 21.0.0, SVG Export Plug-In . SVG Version: 6.00 Build 0)  -->
<svg version="1.1" id="_x2014_ÎÓÈ_x5F_1" xmlns="http://www.w3.org/2000/svg" xmlns:xlink="http://www.w3.org/1999/xlink"
	 x="0px" y="0px" viewBox="0 0 93 93" style="enable-background:new 0 0 93 93;" xml:space="preserve">
<style type="text/css">
	.st0{display:none;}
	.st1{display:inline;fill:#0A4377;}
	.st2{display:inline;fill:#2D84E2;}
	.st3{display:inline;fill:#3BADF2;}
	.st4{display:inline;opacity:0.27;}
	.st5{fill:#19328E;}
	.st6{display:inline;opacity:0.27;fill:#19328E;enable-background:new    ;}
	.st7{display:inline;opacity:0.5;fill:#19328E;enable-background:new    ;}
	.st8{display:inline;opacity:0.13;fill:#C5FFFF;enable-background:new    ;}
	.st9{display:inline;opacity:0.62;fill:#C5FFFF;enable-background:new    ;}
	.st10{display:inline;}
	.st11{opacity:0.22;fill:#C5FFFF;enable-background:new    ;}
	.st12{fill:#0E3B63;}
	.st13{display:inline;opacity:0.22;fill:#C5FFFF;enable-background:new    ;}
	.st14{display:inline;fill:#EF48A0;}
	.st15{display:inline;fill:#0E3B63;}
	.st16{display:inline;fill:#FFFFFF;}
	.st17{fill:#0A4377;}
	.st18{fill:#2D84E2;}
	.st19{opacity:0.27;fill:#19328E;enable-background:new    ;}
	.st20{fill:#3BADF2;}
	.st21{fill:#FFFFFF;}
	.st22{opacity:0.78;fill:#FF88CC;enable-background:new    ;}
	.st23{display:inline;fill:#045B4F;}
	.st24{display:inline;fill:#0BA8A0;}
	.st25{display:inline;opacity:0.22;fill:#052D28;enable-background:new    ;}
	.st26{display:inline;fill:#19CCBE;}
	.st27{display:inline;fill:#00D8A4;}
	.st28{display:inline;opacity:0.22;fill:#10FFC0;enable-background:new    ;}
	.st29{display:inline;opacity:0.29;fill:#052D28;enable-background:new    ;}
	.st30{opacity:0.55;fill:#06332E;enable-background:new    ;}
	.st31{fill:#083F37;}
	.st32{opacity:0.43;fill:#0BA8A0;enable-background:new    ;}
	.st33{fill:#EF48A0;}
	.st34{fill:#0BA8A0;}
	.st35{opacity:0.22;fill:#052D28;enable-background:new    ;}
	.st36{opacity:0.22;fill:#10FFC0;enable-background:new    ;}
	.st37{fill:#FF88CC;}
	.st38{display:inline;opacity:0.9;fill:#8FFFDF;enable-background:new    ;}
	.st39{fill:#045B4F;}
	.st40{fill:#19CCBE;}
	.st41{fill:#00D8A4;}
	.st42{display:inline;fill:#892563;}
	.st43{display:inline;opacity:0.35;fill:#FF88CC;enable-background:new    ;}
	.st44{display:inline;opacity:0.29;fill:#56153A;enable-background:new    ;}
	.st45{display:inline;fill:#FF6CC0;}
	.st46{display:inline;opacity:0.3;fill:#FFA37B;enable-background:new    ;}
	.st47{display:inline;fill:#FFC2E8;}
	.st48{display:inline;fill:#FF88CC;}
	.st49{opacity:0.55;fill:#56153A;enable-background:new    ;}
	.st50{fill:#56153A;}
	.st51{opacity:0.5;fill:#EF48A0;enable-background:new    ;}
	.st52{display:inline;opacity:0.44;fill:#FF88CC;enable-background:new    ;}
	.st53{display:inline;opacity:0.38;fill:#56153A;enable-background:new    ;}
	.st54{fill:#892563;}
	.st55{opacity:0.29;fill:#56153A;enable-background:new    ;}
	.st56{opacity:0.44;fill:#FF88CC;enable-background:new    ;}
	.st57{fill:#FF6CC0;}
	.st58{fill:#771515;}
	.st59{fill:#FF3E3E;}
	.st60{opacity:0.42;fill:#FFCE00;enable-background:new    ;}
	.st61{opacity:0.43;}
	.st62{opacity:0.61;fill:#F97906;enable-background:new    ;}
	.st63{opacity:0.22;fill:#FEFFF5;enable-background:new    ;}
	.st64{fill:#560C09;}
	.st65{opacity:0.46;fill:#470A04;enable-background:new    ;}
	.st66{fill:#5AB8FF;}
	.st67{fill:#28081C;}
	.st68{fill:#F97906;}
</style>
<g class="st0">
	<path class="st1" d="M73.1,42.2c-4.3-5.5-5.7-8.5-5.7-9.2c0.5-1,3.9-3.2,5.8-4.5l0.5-0.4c4.9-2.5,7.9-7.5,7.9-13
		c0-7.9-6.4-14.4-14.6-14.7c-0.3,0-0.6,0-0.8,0c-9.2,0-14.1,6-14.1,17.4c0,3.4,1.2,6.2,3.5,8.3c1.2,2.4,1.4,3.4,1.4,3.7
		c-1.9,0-6.1-0.5-9.1-0.9c-0.9-0.2-1.9-0.4-2.8-0.6c-2.5-1.6-4.3-3.1-4.8-4.1c-0.3-0.5,0.1-1.1,0.5-1.7c2.3-1.2,3.8-2.6,4.7-4.3
		c0.8-1.6,0.8-3.7-0.1-5.6C44.2,10.5,42,9,39.5,8.7c-0.2,0-1.3-0.2-2.7-0.2c-5.2,0-8.2,2.1-8.5,5.8c-0.4,5.2,2,8.7,4.6,9.9
		c1.1,0.7,1.9,1.3,1.9,1.8c-0.1,0.1-0.5,0.6-2,1.5c-7,0.6-13.2,4.2-18,10.3c-4.6,5.8-7.5,13.7-8.1,22.1C5.9,69.1,8.2,77.1,13.2,83
		c5.2,6.1,13.1,9.5,21.8,9.5h1.1l0,0c15.1,0,46.4,0,47-25.5C83.2,57.3,79.9,49,73.1,42.2z"/>
	<path class="st2" d="M72.5,42.9c-1.8-2.3-6.6-8.7-5.8-10.2c0.6-1.3,4.2-3.6,6.7-5.3c4.4-2.3,7.5-6.9,7.5-12.2
		c0-7.6-6.2-13.4-13.7-13.7C55.2,1,53,10.4,53,17.9c0,3.3,1.2,5.9,3.3,7.6c1.3,2.5,2.4,5.3,0.8,5.3c-1.8,0-6.2-0.4-9.4-0.9
		c-1-0.2-2-0.5-3-0.7c-1.5-1-4.4-3-5.3-4.5c-0.6-1,0-2.1,0.7-3c1.9-0.9,3.6-2.1,4.5-4c1.5-3-0.7-7.8-5.3-8.3c0,0-9.6-1.6-10.2,4.7
		c-0.4,4.6,1.7,7.9,4.1,8.9c1.5,0.9,2.5,1.7,2.3,2.8c-0.1,0.7-1.6,1.7-2.6,2.3c-14,1.5-24.1,15.2-25.4,31.8
		C5.9,80.6,19.8,91.5,35,91.5S81.6,91.8,82.2,67C82.4,56.6,78.4,48.7,72.5,42.9z"/>
	<path class="st3" d="M58.1,35.3c0,0-5.2-1.7-9.5-1.3c-5.3,0.4-9.6,3.2-5.6,8c7.4,8.8,23,26.4,28.7,25.2c5.7-1.2,7.4-10.8,3.8-16.1
		C72.1,45.8,71.2,41.3,58.1,35.3z"/>
	<g class="st4">
		<path class="st5" d="M57.1,30.9c-1.5,0-4.8-0.3-7.7-0.7c0.2,0.6,0.3,1.3-0.1,2c-1.2,2.6,1.9,6.2,3.9,4.7s7.5-0.6,11.1,0.6
			c3.5,1.3,4.8,0.9,4.8,0.9s0,0,0.1-0.1c-1.6-2.4-2.9-4.8-2.5-5.7c0.6-1.3,4.2-3.6,6.7-5.3c3.3-1.7,5.8-4.6,6.9-8.2
			c-1.7,3.7-7,6.4-10.4,3.8c-4.1-3.1-1.1-8.1-6.2-11c-5.2-2.9-3.3,4.7-5.5,0.5c-1.8-3.3-0.2-7.5,0.5-9C54.1,6.7,53,12.7,53,17.9
			c0,3.3,1.2,5.9,3.3,7.6C57.6,28.1,58.7,30.9,57.1,30.9z"/>
		<path class="st5" d="M44.8,29.3c-1.5-1-4.4-3-5.3-4.5c-0.6-1,0-2.1,0.7-3c1.9-0.9,3.6-2.1,4.5-4c0.8-1.6,0.6-3.7-0.6-5.4
			c0.5,2.2,0.1,5.1-1.5,5.5c-2.4,0.5-4-0.3-6.5-1.9s-3.6,2.1-4.8,1.5c-0.8-0.4-1.7-2.3-2.1-3.3v0.1c-0.4,4.6,1.7,7.9,4.1,8.9
			c1.5,0.9,2.5,1.7,2.3,2.8c-0.1,0.7-1.6,1.7-2.6,2.3c-1.2,0.1-2.4,0.3-3.5,0.6c-0.4,0.9-0.8,1.9-1.2,2.7c-0.8,1.8,8.4,2.3,10.2,1.1
			C40.4,31.7,44.8,29.3,44.8,29.3z"/>
		<path class="st5" d="M80.3,18.9c0.2-0.8,0.4-1.6,0.5-2.5C80.7,14.7,80.6,16.3,80.3,18.9z"/>
	</g>
	<path class="st6" d="M82.1,67c0-0.6,0-1.3,0-1.9c-2.4,13.4-17.3,22.2-22.4,14.3c-5.8-8.9-9.7-0.6-15.8-2.9s-4-31.5-18.8-37.3
		c-4.1-1.6-7.7-1-10.9,0.8c-3.7,5.4-6.1,12.4-6.7,19.9C5.9,80.6,19.8,91.5,35,91.5S81.6,91.8,82.1,67z"/>
	<path class="st7" d="M12.9,40.6c0,0-1.1,3,0.4,4.7s3.2-1.1,4.5-2.9c1.3-1.8,2.3-5.7,2.1-7.4C19.8,33.4,13.3,39.2,12.9,40.6z"/>
	<path class="st3" d="M77.5,80.4c-5.8,4.9-23.2,9.1-32.8,8.5C34.3,88.3,23.6,86,15.6,77.6C9.1,70.7,9,56.1,9.1,50.9
		c-0.8,2.9-1.4,5.9-1.6,9C5.9,80.6,19.8,91.5,35,91.5C46.7,91.5,68.1,91.7,77.5,80.4z"/>
	<path class="st8" d="M72.5,42.9c-0.1-0.1-0.1-0.2-0.2-0.3c2.6,5.5,4.3,12-2.5,12.6c-11.4,1-26.3-16.8-32.5-17.6
		C31,36.8,15.5,24.7,22.1,52.3c3.5,14.6,2.4,29.7-7.3,23.5c-2.9-1.8-5.2-4.2-7-6.6C10.4,83.7,22,91.4,34.7,91.5
		c-4.6-3-11.3-8.2-8.8-11.4c3.7-4.8,7-10.5,2.7-21.8s-3.4-20.5,7-17s22.7,33,26.3,37.7c6.5,8.5,13.5-9.7,16-13.8
		c2.5-4.1-0.3-11,3.4-6.5c0,0,0,0,0,0.1C79.9,52.3,76.7,47.1,72.5,42.9z"/>
	<path class="st9" d="M38.9,89.9c-0.1,0.9-3.7,1-8.1,0.1c-4.3-0.8-7.8-2.2-7.7-3.1c0.1-0.9,3.7-1,8.1-0.1
		C35.6,87.5,39,88.9,38.9,89.9z"/>
	<path class="st9" d="M22.2,85.7c-0.2,0.6-1.1,0.7-1.9,0.3c-0.8-0.4-1.3-1.2-1-1.8c0.2-0.6,1.1-0.7,1.9-0.3
		C22,84.4,22.4,85.2,22.2,85.7z"/>
	<g class="st10">
		<path class="st11" d="M32.1,61.6c-0.3,0.2-3.6-3.8-6.8-2.4c-3.1,1.4-5.4,2.9-5.4,2.9s0.5-3,3.2-4.6s4.9-0.2,4.9-0.2l3.6,2.4
			L32.1,61.6z"/>
		<path class="st12" d="M26.3,55.5c-3.9,0-7,2.9-7,6.6c0,0.5,0.4,1,0.8,1c0.5,0,0.8-0.4,0.8-1c0-2.6,2.4-4.6,5.3-4.6
			s5.3,2.1,5.3,4.6c0,0.5,0.4,1,0.8,1c0.5,0,0.8-0.4,0.8-1C33.2,58.4,30.1,55.5,26.3,55.5z"/>
		<path class="st12" d="M23.1,49.1c0,0,2.1-3.3,3.2-2.7C27.3,47.1,25.6,48.8,23.1,49.1z"/>
	</g>
	<g class="st10">
		<path class="st11" d="M56.5,61.6c0.3,0.2,3.6-3.8,6.8-2.4c3.1,1.4,5.4,2.9,5.4,2.9s-0.5-3-3.2-4.6c-2.7-1.6-4.9-0.2-4.9-0.2
			L57,59.7L56.5,61.6z"/>
		<path class="st12" d="M62.3,55.5c3.9,0,7,2.9,7,6.6c0,0.5-0.4,1-0.8,1c-0.5,0-0.8-0.4-0.8-1c0-2.6-2.4-4.6-5.3-4.6S57,59.5,57,62
			c0,0.5-0.4,1-0.8,1c-0.5,0-0.8-0.4-0.8-1C55.4,58.4,58.5,55.5,62.3,55.5z"/>
		<path class="st12" d="M65.5,49.1c0,0-2.1-3.3-3.2-2.7C61.3,47.1,63,48.8,65.5,49.1z"/>
	</g>
	<ellipse class="st13" cx="40.4" cy="66.7" rx="3.9" ry="3.2"/>
	<ellipse class="st13" cx="50.1" cy="67" rx="3.9" ry="3.2"/>
	<path class="st14" d="M42.2,70.7c0,0,2.4,6.6,4,5.5s2.7-5.9,2.7-5.9L46,66.9L42.2,70.7z"/>
	<path class="st15" d="M54.3,63.5c-0.3-0.4-0.8-0.4-1.1-0.1c-0.3,0.3-0.4,0.8-0.1,1.2c0,0,0.8,1,0.7,2.2c-0.1,0.7-0.4,1.4-1.1,2
		c-1.1,0.9-2.5,1.1-3.8,0.5c-1.5-0.7-2.5-2.2-2.6-4.1c0-0.5-0.4-0.8-0.8-0.8h-0.1h-0.1c-0.4,0-0.8,0.3-0.8,0.8
		c-0.1,1.8-1,3.3-2.6,4.1c-1.3,0.6-2.8,0.5-3.8-0.5c-0.7-0.6-1.1-1.2-1.1-1.9c-0.1-1.2,0.7-2.2,0.7-2.3c0.3-0.4,0.2-0.9-0.1-1.2
		s-0.8-0.3-1.1,0.1c0,0.1-1.2,1.6-1,3.5c0.1,1.2,0.7,2.2,1.7,3.1c0.9,0.8,2,1.2,3.2,1.2c0.8,0,1.5-0.2,2.2-0.5
		c1.2-0.6,2.2-1.6,2.8-2.9c0.6,1.3,1.6,2.3,2.8,2.9c0.7,0.3,1.5,0.5,2.2,0.5c1.2,0,2.3-0.4,3.2-1.2c1-0.9,1.6-1.9,1.7-3.1
		C55.6,65.1,54.4,63.6,54.3,63.5z"/>
	<path class="st16" d="M59.8,37.6c0,0-4.8-1-2.4,1.9c2.5,2.9,7.5,6.4,8.9,5.4C67.8,43.9,66.4,39.9,59.8,37.6z"/>
	<path class="st16" d="M68.7,45.2c0,0-1.3,0.3,0.2,2.1c1.5,1.9,3.8,2.9,3.9,1.9C73,48.2,70.4,45.3,68.7,45.2z"/>
	<path class="st7" d="M71.9,28.3c-3.6,1.2-9.3,1.7-14.9-2.1c-0.2-0.1-0.3-0.2-0.5-0.3c1.2,2.4,2.1,4.9,0.6,4.9c-0.2,0-0.4,0-0.7,0
		c4.7,2.3,12.3,6.9,12.3,6.9l0,0c-1.4-2.2-2.5-4.3-2.1-5.1C67.1,31.6,69.6,29.8,71.9,28.3z"/>
	<path class="st7" d="M33,28.4c-0.6,0-1.1,0.1-1.7,0.2c1.3,0.5,3.1,0.5,5.1-0.2c1.8-0.6,5.6,0,7.7,0.4c-1.6-1.1-3.8-2.7-4.6-4
		c-0.5-0.8-0.2-1.7,0.4-2.5c-1,0.4-2.3,0.5-4.5-0.1c-3-0.8-4.6-1.8-5.2-2.3c0.8,1.6,1.9,2.8,3.2,3.3c1.5,0.9,2.5,1.7,2.3,2.8
		C35.5,26.8,34.1,27.8,33,28.4z"/>
	<path class="st3" d="M40.2,22C40.2,21.9,40.2,21.9,40.2,22c0.5-0.3,1-0.5,1.4-0.8c-0.6,0.3-1.2,0.5-1.8,0.5c-1.5,0-5.6,0-8.2-2.3
		c-1.5-1.3-2.1-2.2-2.4-2.8c0.2,1.8,0.8,3.4,1.6,4.6c1.9,0.9,3.9,1.4,5.7,1.6C37.7,22.9,39,22.5,40.2,22z"/>
	<path class="st3" d="M56.3,25.6c0,0.1,0.1,0.1,0.1,0.2c5.6,4.6,12.3,3.5,15.3,2.7c0.6-0.4,1.1-0.7,1.6-1.1c0.5-0.2,0.9-0.5,1.4-0.8
		c1.6-1.6,3.9-3.8,2.5-2.5c-2,1.9-6.2,4-8,3.7c-1.8-0.4-5.5-0.1-10.9-4.5c-4.1-3.4-4.6-9-4.6-11.4c-0.4,2-0.6,4.2-0.6,6.2
		C53,21.3,54.3,23.8,56.3,25.6z"/>
	<path class="st3" d="M69.2,3c0,0-5.1,1.5-3.9,3.4s6.2,9.1,7.4,11.1c1.2,2,4.7,2.4,5.9,0.1S78.7,6.4,69.2,3z"/>
	<path class="st3" d="M40.7,10.9c0,0-6.8-2.9-7.9,1c-1.1,3.9,4.4,1.8,6.2,3.1c1.9,1.4,3.5,0.9,3.8-0.3C43.1,13.7,43,12.8,40.7,10.9z
		"/>
	<g class="st10">
		<ellipse class="st17" cx="80.2" cy="37.1" rx="6.3" ry="6.1"/>
		<ellipse class="st18" cx="80.2" cy="37.1" rx="5.6" ry="5.4"/>
		<path class="st19" d="M74.6,37.1c0,3,2.5,5.4,5.6,5.4c2.5,0,4.6-1.6,5.4-3.8c-1,1.1-2.6,2.2-3.5,1.7c-1.5-0.9,0-4.3-1.8-5.3
			s-2.6,3.6-4.3,2.6c-0.8-0.4-0.9-1.6-0.9-2.7C74.7,35.6,74.6,36.3,74.6,37.1z"/>
		<path class="st20" d="M77.9,40.8c-1.7-0.7-2.7-2.3-3.3-3.6c0.1,2.9,2.6,5.2,5.6,5.2c1.4,0,2.6-0.5,3.6-1.2
			C82.4,41.5,80,41.7,77.9,40.8z"/>
		<path class="st20" d="M81.7,32.4c0,0-3.7-0.3-4.8,1c-1.2,1.4,2.6-0.3,4.1,1.2s1.6,3.3,2.9,3.5C85.1,38.2,86,33.7,81.7,32.4z"/>
		<path class="st21" d="M81.7,32.4c0,0-2.2,0.5-0.4,1.2c1.7,0.7,2.9,2,2.9,1.2C84.2,33.9,82.8,32.5,81.7,32.4z"/>
	</g>
	<g class="st10">
		<path class="st22" d="M30.7,65.1c0.1,1.6-1.9,3-4.4,3s-4.5-1.3-4.6-3c-0.1-1.6,1.9-3,4.4-3C28.6,62.2,30.7,63.5,30.7,65.1z"/>
		<path class="st22" d="M66.9,64.9c0.1,1.6-1.9,3-4.4,3s-4.5-1.3-4.6-3c-0.1-1.6,1.9-3,4.4-3C64.7,62,66.8,63.3,66.9,64.9z"/>
	</g>
	<path class="st16" d="M72.7,5c0,0-5.2-2.5-6.9-0.9c-1.7,1.6,4.2,1.3,6.1,3.1s2.9,3.4,3.3,3.1C75.6,10.2,76.5,7,72.7,5z"/>
	<path class="st16" d="M76.6,10c0,0-0.4,1.3,0.4,2s1.4,3.5,1.6,2.2C78.7,12.9,78,9.7,76.6,10z"/>
	<path class="st16" d="M38.1,10.1c0,0-2.9-0.6-3.9,0.7c-1.1,1.3,4.2-0.2,5.3,1C40.5,12.9,40.2,10.1,38.1,10.1z"/>
	<path class="st16" d="M40.6,11.3c0,0-0.3,0.6,0.7,1.4c1,0.8,1.5,1.8,1.1,0.6C42.1,12,42,11.9,40.6,11.3z"/>
	<g class="st10">
		<path class="st17" d="M13.4,29.3c-2.3,0-7,2.4-5,7.6c2,5.3,6.2,7.1,10.1,1.8S18.8,29.4,13.4,29.3z"/>
		<path class="st18" d="M13.5,30.4c-1.9,0-5.8,2-4.1,6.4c1.6,4.4,5.1,5.9,8.4,1.5C21,33.8,18,30.5,13.5,30.4z"/>
		<path class="st19" d="M19.1,34.8c-1,1.9-3.3,4.3-4.9,3.3c-2.3-1.5-0.6-3.5-2.8-4.8c-1-0.6-1.7-0.4-2.2,0c-0.3,0.9-0.4,2.1,0.2,3.5
			c1.6,4.4,5.1,5.9,8.4,1.5C18.7,37,19.1,35.8,19.1,34.8z"/>
		<path class="st20" d="M14.4,31.1c0,0-3.6,0.3-1.8,2c1.8,1.7,2.3,3.3,3.9,2.5C18.1,34.6,17.5,31.5,14.4,31.1z"/>
		<path class="st21" d="M15.7,31.4c0,0-1.5-0.8-2.7-0.1c-1.3,0.7,2.3,1.6,2.9,2.2C16.5,34.1,17.7,32.9,15.7,31.4z"/>
		<path class="st20" d="M17.4,38.7c-0.1,0-0.1,0.1-0.2,0.1c-2,1-3.4,1.3-5.9-0.5c-1.5-1.1-2.1-2.7-2.3-3.8c0,0.7,0.1,1.4,0.4,2.2
			C11,41,14.3,42.5,17.4,38.7z"/>
	</g>
</g>
<g class="st0">
	<path class="st23" d="M71.4,35.2c-1.1-3.5-1-4.4-1-4.6c0.3-0.5,1.1-1.2,2-1.9c0.6-0.5,1.2-1,1.8-1.5c3-1.3,4.3-3.8,4-7.9
		c-0.3-5-5-8.7-10.8-8.7c-6,0-10.8,3.9-10.8,8.8c0,3.4,2.4,6.5,6.2,7.9C63,27.7,63,27.9,63,28h-0.1c-5.2-3.3-10.6-5-16.1-5
		c-5.1,0-10.1,1.3-15,3.8c0-0.4,0.1-1.4,0.8-3.2c2.1-2.5,3.2-5.2,3.2-7.7c0-6.2-7.1-9-13.7-9C15.7,7,9.9,15,9.9,21.2
		c0,4.2,2.7,6.8,7.9,7.6c1,0.4,3.4,1.3,3.8,2.2c0,0.1,0.3,1.2-1.7,5C12.7,43.9,8.3,54.2,8.3,63.5c0,9.1,4,16.6,11.7,21.8
		c6.8,4.7,16.3,7.2,26.8,7.2c24.4,0,37.9-9.3,37.9-26.1C84.7,56,79.6,44.1,71.4,35.2z"/>
	<path class="st24" d="M70.5,35.8c-0.7-2.2-1.4-4.8-1-5.5c0.5-1.1,2.6-2.3,4.1-3.8c2.3-0.9,3.8-2.9,3.6-6.9
		c-0.3-4.3-4.4-7.8-9.8-7.8s-9.8,3.5-9.8,7.8c0,3.2,2.4,5.9,5.9,7.1c0.3,0.6,0.5,1.1,0.4,1.7c-0.1,0.7-0.7,0.9-1.4,0.8
		c-4.8-3.1-10.2-5-15.8-5c-5.4,0-10.5,1.5-15.3,4c-0.2-0.1-0.4-0.2-0.6-0.5c-0.5-0.7,0-2.7,0.7-4.5c1.9-2.2,3.1-4.7,3.1-7.1
		c0-5.5-6.6-8-12.7-8s-11.3,7.7-11.3,13.2c0,4.2,3,6,7.2,6.6c1.9,0.7,4,1.6,4.4,2.8c0.5,1.2-0.7,3.8-1.8,5.9
		C13.4,44.1,9,54.1,9,63.5c0,18.6,17.4,28,37.5,28s36.9-6.4,36.9-25C83.7,56.2,78.5,44.3,70.5,35.8z"/>
	<path class="st25" d="M70.5,35.8c-0.7-2.2-1.4-4.8-1-5.5c0.5-1.1,2.6-2.3,4.1-3.8c2.3-0.9,3.8-2.9,3.6-6.9c0-0.6-0.2-1.2-0.3-1.7
		c-0.1,2.2-0.7,5-3.3,5.5c-4.4,0.7-3-2.1-6.7-4.4c-3.7-2.3-2.8,4.8-5.5,1.8c-1.4-1.6-1.6-4-1.4-6c-1.4,1.3-2.2,3.1-2.2,4.9
		c0,3.2,2.4,5.9,5.9,7.1c0.3,0.6,0.5,1.1,0.4,1.7c-0.1,0.7-0.7,0.9-1.4,0.8c-2.6-1.6-5.3-2.9-8.1-3.8c0.8,5.6,6.1,4.2,9,6.6
		c2,1.7,5.2,3.2,7.3,4.1C70.7,35.9,70.6,35.8,70.5,35.8z"/>
	<path class="st26" d="M59.3,30.1c0,0-13.1-5-20.9,0.5S46,43.2,52.6,51.7s16.7,15.1,21.5,13.1s2.3-15.3,0.2-19.2
		C72.1,41.8,68.2,32.8,59.3,30.1z"/>
	<path class="st25" d="M81.7,61c-0.2,8.5-13.7,21.7-27,17.9c-13.3-3.7-12.6-19.5-21.5-25.2s-13.5,12.4-18.5,5.1
		c-1.6-2.4-2.3-5.7-2.6-9.1c-1.9,4.5-2.9,9.2-2.9,13.7c0,18.6,17.4,28,37.5,28s36.9-6.4,36.9-25c0-4.8-1.1-10-3.2-15.1
		C81.2,54.4,81.8,57.8,81.7,61z"/>
	<path class="st27" d="M80.9,78c-1.8,2.8-6.4,7.8-18.1,9.4c-16.2,2.3-29.1,0.7-40.5-5c-7.6-3.8-11.2-15-12.8-22c-0.1,1-0.2,2-0.2,3
		c0,18.6,17.4,28,37.5,28C61.9,91.5,75.3,87.8,80.9,78z"/>
	<path class="st28" d="M46.3,89.5c-0.4-4.1,11.8-2.7,11-11S51.5,70,41.4,65.7s-13.9-14.5-8.1-15.5s21.5,6.4,26.1,1.9
		c4.5-4.5,4.5-16.2,0-21.9c-1.1-1.4-2.1-2.8-3-4.2c-3.1-1.2-6.3-1.8-9.6-1.8c-0.4,0-0.8,0-1.3,0c4.1,3.5,8.6,8.8,6.8,14.7
		c-3.1,10.3-6.4,4.3-16.5,7.4c-10.1,3.1-14.9,9.5-9.9,17.2s19.6,7.2,15.9,17.8c-1.8,5.2-9.5,6.2-16.8,5.8c6.2,3,13.8,4.5,21.8,4.5
		c1.3,0,2.5,0,3.8-0.1C48.1,91.1,46.4,90.6,46.3,89.5z"/>
	<path class="st25" d="M31.5,28.1c-0.2-0.1-0.4-0.2-0.6-0.5c-0.5-0.7,0-2.7,0.7-4.5c1.9-2.2,3.1-4.7,3.1-7.1c0-0.2,0-0.4,0-0.6
		c-2.9,3.8-9.1,4.6-14.3,3.7c-6.2-1.1-3,5.3-6.7,2.7c-2.4-1.7-1.4-5.4-0.4-7.9c-1.5,2.3-2.4,5-2.4,7.3c0,4.2,3,6,7.2,6.6
		c1.9,0.7,4,1.6,4.4,2.8c0.5,1.2-0.7,3.8-1.8,5.9c-1.4,1.5-2.7,3.1-3.9,4.8c1.9,1.3,3.1,1,5.2-0.8c3-2.5,4.6-6.6,9.2-11.5
		c0.5-0.6,1.1-1.1,1.7-1.6C32.5,27.6,32,27.9,31.5,28.1z"/>
	<path class="st29" d="M18.7,28.1c1.7,0.7,3.4,1.5,3.8,2.6c0.2,0.6,0,1.6-0.3,2.7c1.8-1.2,4-2.4,5.9-3.5c1-0.6,2-1.3,2.9-2.2
		c0,0,0,0,0-0.1c-0.5-0.7-0.1-2.4,0.6-4.2C28.9,25.5,23.7,28.3,18.7,28.1z"/>
	<path class="st16" d="M59.2,31.2c0,0-10.5-2.8-12.1-0.5c-1.6,2.3,12.1,3.2,16.3,5.7c4.3,2.5,5.7,4.6,6,3
		C69.8,37.7,67.2,34.2,59.2,31.2z"/>
	<path class="st16" d="M71.6,42.7c0,0-1.4,0.2-0.4,1.8c1.1,1.6,2.3,5.5,3.7,5.5C76.4,50,73.4,43.4,71.6,42.7z"/>
	<path class="st27" d="M18.1,27.9c0.6,0.2,1.2,0.5,1.8,0.7c2.7-0.3,5.4-1.3,8.1-2.6c1.4-0.7,2.6-1.6,3.7-2.7c0-0.1,0.1-0.1,0.1-0.2
		c0.6-0.7,1.1-1.4,1.6-2.2c-1.9,1.4-4.1,2.7-4.5,2.9c-0.7,0.4-8.9,4.3-13.5,2.3c-2-0.8-3.3-2-4.2-3.1C11.9,26,14.6,27.3,18.1,27.9z"
		/>
	<g class="st10">
		<g>
			<g>
				<ellipse class="st30" cx="26.1" cy="58.9" rx="5.1" ry="11.2"/>
				<ellipse class="st31" cx="26.1" cy="58.9" rx="4.1" ry="9.9"/>
				<path class="st32" d="M26.5,66.1c-1.9,0-3.4-3.7-3.4-8.3c0-1.4,0.2-2.8,0.4-4c-0.5,1.4-0.8,3.3-0.8,5.4c0,4.6,1.5,8.3,3.4,8.3
					c1.3,0,2.4-1.7,3-4.3C28.4,65,27.5,66.1,26.5,66.1z"/>
				<ellipse class="st21" cx="27.1" cy="54.7" rx="1.8" ry="2.8"/>
				<ellipse class="st21" cx="25.1" cy="66.1" rx="0.8" ry="0.9"/>
				<path class="st31" d="M23.7,41.6c0,0,2.6-3.5,3.9-2.8C28.8,39.6,26.7,41.4,23.7,41.6z"/>
			</g>
			<g>
				<ellipse class="st30" cx="66.3" cy="58.9" rx="5.1" ry="11.2"/>
				<ellipse class="st31" cx="66.3" cy="58.9" rx="4.1" ry="9.9"/>
				<path class="st32" d="M65.9,66.1c1.9,0,3.4-3.7,3.4-8.3c0-1.4-0.2-2.8-0.4-4c0.5,1.4,0.8,3.3,0.8,5.4c0,4.6-1.5,8.3-3.4,8.3
					c-1.3,0-2.4-1.7-3-4.3C63.9,65,64.8,66.1,65.9,66.1z"/>
				<ellipse class="st21" cx="65.3" cy="54.7" rx="1.8" ry="2.8"/>
				<ellipse class="st21" cx="67.3" cy="66.1" rx="0.8" ry="0.9"/>
				<path class="st31" d="M68.7,41.6c0,0-2.6-3.5-3.9-2.8C63.6,39.6,65.7,41.4,68.7,41.6z"/>
			</g>
			<path class="st30" d="M37.9,63.5c0,0,1.1,4.4,7.4,5.2c6.3,0.7,8.8-3.8,9.2-4.7c0.4-0.9,0.8,5.3-4.1,6.3s-9-0.5-9-0.5
				S38.7,69.2,37.9,63.5z"/>
			<path class="st30" d="M48.7,70.7c0,0,2.4,3,2.6,4c0.2,1,0.7,4,2.3,4.7s3.6-1.1,3.4-2.3c-0.2-1.2-0.2-4.9-0.2-4.9l-3.3-3.5
				L48.7,70.7z"/>
			<path class="st33" d="M48.7,70.7c0,0,3.3,1.9,4.6,4.1s1.8,3.7,4.3,3.5c2.6-0.2,3.6-3.4,2.5-6.6c-1.2-3.2-4.9-5.9-4.9-5.9
				S52.1,71.1,48.7,70.7z"/>
			<path class="st31" d="M46.5,71.7c-5.2,0-9.4-3.3-9.4-7.4c0-0.4,0.4-0.8,0.8-0.8c0.4,0,0.8,0.4,0.8,0.8c0,3.2,3.5,5.8,7.8,5.8
				s7.8-2.6,7.8-5.8c0-0.4,0.4-0.8,0.8-0.8c0.4,0,0.8,0.4,0.8,0.8C55.8,68.4,51.6,71.7,46.5,71.7z"/>
		</g>
		<g>
			<path class="st34" d="M35,67.6c0.1,2.8-3.5,5.1-8.1,5.1s-8.4-2.3-8.5-5.1c-0.1-2.8,3.5-5.1,8.1-5.1S34.9,64.8,35,67.6z"/>
			<path class="st35" d="M35,67.6c0.1,2.8-3.5,5.1-8.1,5.1s-8.4-2.3-8.5-5.1c-0.1-2.8,3.5-5.1,8.1-5.1S34.9,64.8,35,67.6z"/>
			<path class="st36" d="M25.4,62.5c0.2,0.3,0.3,0.6,0.5,0.9c1.9,2.9,5.3,4.7,8.5,6.3c0.5-0.7,0.7-1.4,0.7-2.1
				c-0.1-2.8-3.9-5.1-8.5-5.1C26.1,62.5,25.7,62.5,25.4,62.5z"/>
			<path class="st22" d="M31.7,68.4c0.1,1.7-2.1,3.1-4.9,3.1s-5.1-1.4-5.1-3.1c-0.1-1.7,2.1-3.1,4.9-3.1S31.7,66.7,31.7,68.4z"/>
		</g>
		<g>
			<path class="st34" d="M74.8,67.6c0.1,2.8-3.5,5.1-8.1,5.1s-8.4-2.3-8.5-5.1c-0.1-2.8,3.5-5.1,8.1-5.1
				C70.8,62.5,74.6,64.8,74.8,67.6z"/>
			<path class="st22" d="M71.5,68.4c0.1,1.7-2.1,3.1-4.9,3.1c-2.8,0-5.1-1.4-5.1-3.1c-0.1-1.7,2.1-3.1,4.9-3.1
				C69.1,65.3,71.4,66.7,71.5,68.4z"/>
		</g>
		<path class="st22" d="M54.4,70.5c0,0-2.5-0.2-1.2,1.7c1.3,1.8,2.3,4.7,3.4,4.3C57.7,76.1,57.5,71.3,54.4,70.5z"/>
		<path class="st37" d="M56.8,69.2c0,0-0.6,0.7,0.3,2.3c0.9,1.7,0.9,4.9,1.9,4.1C60.1,74.8,59.6,70,56.8,69.2z"/>
	</g>
	<path class="st26" d="M23.9,9c0,0-4.7-1-7.6,3.3s6.7,1.9,9,3.7c2.3,1.9,6.8,1.1,7.4-0.7C33.3,13.5,31,9.5,23.9,9z"/>
	<path class="st16" d="M22.9,9.6c0,0-2.1-0.3-0.3,1.1c1.9,1.4,3.1,1.9,4.3,1.6c1.1-0.3,2.6-0.7,1-1.6C26.3,9.9,25.7,9.8,22.9,9.6z"
		/>
	<path class="st38" d="M43.2,89.4c-0.1,0.9-3.9,1-8.4,0.1s-8.1-2.3-8-3.3c0.1-0.9,3.9-1,8.4-0.1C39.7,87,43.3,88.5,43.2,89.4z"/>
	<path class="st38" d="M25.8,85.1c-0.3,0.6-1.1,0.7-2,0.3c-0.8-0.4-1.3-1.3-1.1-1.9c0.3-0.6,1.1-0.7,2-0.3
		C25.5,83.7,26,84.5,25.8,85.1z"/>
	<path class="st29" d="M63.6,26.7c0.3,0.5,0.4,1,0.4,1.5c-0.1,0.5-0.4,0.7-0.8,0.8c2,1.3,4.9,3.3,6.8,4.7c-0.4-1.6-0.7-3-0.4-3.5
		c0.5-1.1,2.6-2.3,4.1-3.8c0.3-0.1,0.5-0.2,0.8-0.4C71.7,27,67.7,28.1,63.6,26.7z"/>
	<path class="st26" d="M69.1,12.4c0,0-5.2-1.1-6.3,1.6s6.7,2,8.2,3.5s3,3.1,4.5,1.6C77,17.7,75.5,14.7,69.1,12.4z"/>
	<path class="st27" d="M57.6,19.4c0,3.2,2.4,5.9,5.9,7.1c0,0,0,0.1,0.1,0.1c1.7,0.6,3.6,1,5.6,1.1c1.2,0.1,2.2,0,3-0.2
		c0.5-0.4,0.9-0.8,1.4-1.2c1-0.4,1.9-1,2.5-1.9c-1.1,0.8-2.6,1.9-3.3,1.9c-1.2,0-6.8,0.8-10.2-2c-2.8-2.3-4.3-5.5-4.7-6.6
		C57.7,18.4,57.6,18.9,57.6,19.4z"/>
	<path class="st16" d="M69.1,12.4c0,0-3-0.8-0.1,1.6c2.9,2.5,4.1,3.4,5.2,3.3C75.2,17.2,74.6,14.6,69.1,12.4z"/>
	<g class="st10">
		<path class="st39" d="M51.6,7.9c0,3.5-2.7,5.5-7.2,5.5s-6.6-1.5-6.6-5s2.1-7.8,6.6-7.8C48.9,0.5,51.6,4.3,51.6,7.9z"/>
		<path class="st34" d="M50.4,7.7c0,3-2.3,4.6-6,4.6c-3.8,0-5.5-1.2-5.5-4.2s1.8-6.5,5.5-6.5C48.2,1.6,50.4,4.8,50.4,7.7z"/>
		<path class="st35" d="M44.4,12.3c3.2,0,5.3-1.2,5.9-3.3c-2,0.9-5.2,1.4-6.8,0.9c-2.5-0.8,0.1-3.1-2.6-3.7C40,6,39.4,6.2,39,6.6
			c-0.1,0.5-0.2,1-0.2,1.5C38.8,11.1,40.6,12.3,44.4,12.3z"/>
		<path class="st40" d="M45.3,2.2c0,0-2.5-0.4-3.8,1.5c-1.4,1.9,4.5,1.8,4.9,2.6s1.2,1.5,2.6,1.4C50.3,7.5,49.4,2.6,45.3,2.2z"/>
		<path class="st21" d="M45.3,2.2c0,0-1.9,0.7-0.4,1.9s4.5,3.8,4.2,2.3S48.1,1.9,45.3,2.2z"/>
		<path class="st41" d="M41.4,10.9c-1.2-0.9-2-2.5-2.5-3.8c0,0.3-0.1,0.6-0.1,0.9c0,3,1.8,4.2,5.5,4.2c1.8,0,3.3-0.4,4.3-1.1
			C46.6,11.6,42.8,12,41.4,10.9z"/>
	</g>
</g>
<g class="st0">
	<path class="st42" d="M82.8,63.5c-0.4-9.3-5.4-18.1-13.7-24.2c-2.2-1.8-7.6-6-11.6-7.6c-1.2-0.5-1.8-1.1-1.9-1.7
		c-0.2-1,0.6-2.4,2.1-3.8c5.1-2.4,8.1-7,7.9-12.1C65.2,6.6,57.8,0.5,49.1,0.5c-4.6,0-9,1.7-11.9,4.8c-2.4,2.5-3.6,5.7-3.5,8.9
		c0.2,4.2,2.5,8.1,6.5,10.7c1.6,1.9,2.1,2.9,2.3,3.5c0.4,1.2,0.1,1.5-4.1,2.7c-1,0.3-2.2,0.7-3.5,1.1c-1.8,0.6-3.7,1.5-5.7,2.6
		c-6,2.6-11,6.6-14.4,11.5c-3.6,5.1-5.3,11.1-5.1,17.2c0.4,8.5,4.4,15.8,11.6,21.1c6.8,5,16.1,7.8,26,7.8c11.7,0,22-3.8,28.4-10.5
		C80.7,77,83.1,70.6,82.8,63.5z"/>
	<path class="st14" d="M68.5,40.1c-2.1-1.7-7.5-5.9-11.4-7.5C53,31,54.5,27.9,57,25.4c4.6-2.1,7.7-6.4,7.5-11.2
		C64.2,7.2,57.3,1.5,49,1.5S34.3,7.2,34.6,14.2c0.2,4.1,2.6,7.7,6.2,10c1.2,1.4,2.3,2.8,2.6,3.9c0.8,2.8-1.8,2.8-8.2,5
		c-2,0.7-3.9,1.6-5.6,2.5c-11.7,5-19.5,15.6-19,27.9c0.7,17.1,17.1,28,36.7,28s35.1-10.9,34.4-28C81.5,54.2,76.4,45.7,68.5,40.1z"/>
	<path class="st43" d="M58.4,37.2C57.8,37,47,35.6,41.5,45.3s4.6,13.7,14,17.8s18,4,17.8-3.7C73.1,51.6,70.7,39.8,58.4,37.2z"/>
	<path class="st44" d="M77.5,63.8c-2,8.3-11.5,21.8-32.9,14.8S33.6,46,27.2,40.9c-1.2-1-2.7-1.3-4.4-1.2
		C15,45.4,10.3,53.9,10.7,63.6c0.7,17.1,17.1,28,36.7,28s35.1-10.9,34.4-28c-0.3-7.4-3.6-14.3-8.9-19.6C76.1,49.5,78.9,58,77.5,63.8
		z"/>
	<path class="st45" d="M80.6,72.7c-8.5,15.5-19.4,15.7-27.7,16.8c-10.2,1.2-25.6-2.1-33.5-11.6c-6.6-8-7.4-20-7.1-24.7
		c-1.2,3.2-1.8,6.7-1.6,10.3c0.7,17.1,17.1,28,36.7,28C63.3,91.6,76.5,84.5,80.6,72.7z"/>
	<path class="st46" d="M45.9,85.9c-5.4-4.8,1.5-17.5,5.1-23.2s14.7-7.2,24.2-1.5c7,4.2,0.5,16.8-2.9,22.7c6.2-4.9,9.8-11.8,9.5-20.3
		c-0.3-7-3.2-13.5-8-18.7c-2.7,7.6-13.6,8.3-23.2,6.7C39.3,49.7,42.5,76,25.7,76c-7.7,0-12.3-5.7-15-11.9
		c1,16.8,17.3,27.5,36.7,27.5c2.9,0,5.7-0.2,8.4-0.7C52.1,89.6,48.2,87.9,45.9,85.9z"/>
	<path class="st47" d="M46.7,90.3c-0.1,0.9-3.8,0.9-8.3,0.1s-8-2.1-7.9-3s3.8-0.9,8.3-0.1C43.3,88.1,46.8,89.4,46.7,90.3z"/>
	<path class="st47" d="M29.5,86.4c-0.3,0.5-1.1,0.7-2,0.2c-0.8-0.4-1.3-1.2-1.1-1.7c0.3-0.5,1.1-0.7,2-0.2
		C29.3,85,29.7,85.8,29.5,86.4z"/>
	<path class="st44" d="M55.1,33.8c3.6,1.1,6.8,2.3,7.9,2.1c-2-1.3-4.1-2.6-5.8-3.3c-4.1-1.6-2.6-4.7-0.1-7.2
		c4.6-2.1,7.7-6.4,7.5-11.2c-0.1-2.2-0.8-4.2-2-6c1,3.1,2,7.7,0.4,10.3c-2.6,4.1-15.8,8.6-23.3,0c-4-4.5-3.8-8.6-2.7-11.6
		c-1.6,2.1-2.5,4.5-2.3,7.2c0.2,4.1,2.6,7.7,6.2,10c1.2,1.4,2.3,2.8,2.6,3.9c0.8,2.6-1.4,2.8-6.6,4.5c-0.7,2-2.9,4-0.7,6.1
		C39.3,41.7,50.9,32.6,55.1,33.8z"/>
	<path class="st48" d="M56.4,37.4c-0.6,0-7.6-0.8-15.2,4c-7.5,4.8,15.9-5.5,24.8,1.7s7.2,16.3,7.2,16.3S75,55,72.7,48.9
		C70.4,42.8,64.1,38,56.4,37.4z"/>
	<g class="st10">
		<g>
			<ellipse class="st49" cx="26.2" cy="62.3" rx="4.7" ry="10.3"/>
			<ellipse class="st50" cx="26.2" cy="62.3" rx="3.8" ry="9.1"/>
			<path class="st51" d="M26.6,68.9c-1.7,0-3.2-3.4-3.2-7.6c0-1.3,0.1-2.6,0.4-3.7c-0.5,1.3-0.8,3.1-0.8,4.9c0,4.2,1.4,7.6,3.2,7.6
				c1.2,0,2.2-1.6,2.8-4C28.4,67.8,27.5,68.9,26.6,68.9z"/>
			<ellipse class="st21" cx="27.1" cy="58.4" rx="1.7" ry="2.6"/>
			<ellipse class="st21" cx="25.3" cy="68.9" rx="0.8" ry="0.8"/>
			<path class="st50" d="M24,46.4c0,0,2.4-3.2,3.6-2.5C28.7,44.5,26.7,46.1,24,46.4z"/>
		</g>
		<g>
			<ellipse class="st49" cx="63.2" cy="62.3" rx="4.7" ry="10.3"/>
			<ellipse class="st50" cx="63.2" cy="62.3" rx="3.8" ry="9.1"/>
			<path class="st51" d="M62.9,68.9c1.7,0,3.2-3.4,3.2-7.6c0-1.3-0.1-2.6-0.4-3.7c0.5,1.3,0.8,3.1,0.8,4.9c0,4.2-1.4,7.6-3.2,7.6
				c-1.2,0-2.2-1.6-2.8-4C61,67.8,61.9,68.9,62.9,68.9z"/>
			<ellipse class="st21" cx="62.3" cy="58.4" rx="1.7" ry="2.6"/>
			<ellipse class="st21" cx="64.1" cy="68.9" rx="0.8" ry="0.8"/>
			<path class="st50" d="M65.4,46.4c0,0-2.4-3.2-3.6-2.5C60.7,44.5,62.7,46.1,65.4,46.4z"/>
		</g>
		<ellipse class="st22" cx="44" cy="73.5" rx="4.5" ry="1.8"/>
		<path class="st50" d="M38.2,72.6c0,0,5.3,4.1,13.1,0.8c0,0-1.2,3.7-5.7,4.5C41.1,78.7,38.6,75.8,38.2,72.6z"/>
	</g>
	<path class="st52" d="M51.4,3c0,0-8.8-1.5-10.3,4.1c-1.6,5.7,9.6,2.8,12.2,4.8c2.6,2.1,5.2,6.1,7.5,4.3C63,14.5,63.2,5.3,51.4,3z"
		/>
	<path class="st46" d="M46.3,15.6c8.7-1.2,8.6,4.1,12.2,1.9C62,15.4,48.2,1.3,59.2,4.6c-2.7-2-6.3-3.2-10.1-3.2
		c-1.3,0-2.5,0.1-3.7,0.4c3.7,1.6,7,4.1,7.8,7.9c1.9,9.3-6.7-3.1-12.4,2.2c-2.2,2-3.7,4.8-4.7,7.4c1.1,1.9,2.7,3.6,4.7,4.9
		c0.9,1.1,1.8,2.2,2.3,3.2l2.2,0.7C45.3,28.1,37.7,16.9,46.3,15.6z"/>
	<g class="st10">
		<path class="st22" d="M31.4,76.2c0.1,1.6-1.9,2.8-4.5,2.8c-2.5,0-4.7-1.3-4.7-2.8c-0.1-1.6,1.9-2.8,4.5-2.8
			C29.2,73.3,31.4,74.6,31.4,76.2z"/>
		<path class="st22" d="M67.2,76.2c0.1,1.6-1.9,2.8-4.5,2.8c-2.5,0-4.7-1.3-4.7-2.8c-0.1-1.6,1.9-2.8,4.5-2.8
			C65,73.3,67.2,74.6,67.2,76.2z"/>
	</g>
	<path class="st16" d="M51.5,3.9c0,0-5.1,0.9-1.8,2.5s4.5,3.3,6.5,2.2S55.9,3.7,51.5,3.9z"/>
	<path class="st16" d="M58.6,9.1c0,0-1.6,0.2-0.4,1.8s2,2.5,3.1,1.8C62.4,12,61.7,9.1,58.6,9.1z"/>
	<path class="st16" d="M59.4,37.9c0,0-4.8-0.8-6.4,0c-1.6,0.8,7.2,3,9.1,4.1c1.8,1.1,3.8,2.6,4.5,1.6C67.2,42.6,64.7,38.4,59.4,37.9
		z"/>
	<path class="st16" d="M68.4,43.8c0,0-0.1,0-0.3,0.1c-0.5,0.1-1.3,0.6,0,1.8c1.7,1.6,2.2,2.9,2.9,1.5C71.6,45.8,70.6,44,68.4,43.8z"
		/>
	<path class="st45" d="M37.3,19c0,0,3,4.9,9.7,5.9c6.8,1,10.9-0.6,10.9-0.6s-3.6,2.6-9.2,2.7C43.3,27.1,37,21.5,37.3,19z"/>
	<path class="st53" d="M55.1,31.2c-1.3-1.7,0-4,2-5.8c0,0-1.9,1.6-6.9,2.5c-3,0.6-5.7-0.4-7.5-1.5c0.4,0.6,0.7,1.2,0.8,1.6
		c0.7,2.3-1,2.7-5,4c0.3,0.4,0.7,0.8,1.3,1.1c2.4,1.1,4.7-1,7.6-2.1C49.2,30.3,52.8,30.8,55.1,31.2z"/>
	<g class="st10">
		<path class="st54" d="M16.5,22.2c-1.7,0.6-4.8,2-1.9,7.5s7.8,4.5,11.4-0.4S24.6,19.2,16.5,22.2z"/>
		<path class="st33" d="M17,22.9c-1.5,0.5-4.2,1.7-1.6,6.4c2.5,4.7,6.7,3.9,9.8-0.3C28.3,24.8,24,20.4,17,22.9z"/>
		<path class="st55" d="M15.4,29.4c2.4,4.4,6.2,4,9.3,0.4c-0.3,0.1-0.6,0.3-0.9,0.4c-3.8,1-5.3-3.6-7.5-5.9
			c-0.3-0.3-0.5-0.4-0.7-0.5C14.4,24.5,13.6,26.1,15.4,29.4z"/>
		<path class="st56" d="M19.6,23c0,0-1.5,0.5-0.3,1.6s2.7,4.1,5,2.9S24.7,21.9,19.6,23z"/>
		<path class="st21" d="M21,23.5c0,0-1.9,1.1,0.6,1.3c2.6,0.2,2.9,1.4,2.7,0.3C24.1,24,23.2,23.2,21,23.5z"/>
		<path class="st57" d="M18.1,31c-1.8-0.7-3.1-2.7-3.6-3.8c0.2,0.6,0.4,1.4,0.9,2.2c2,3.6,4.9,4,7.6,2C21.9,31.6,20,31.7,18.1,31z"
			/>
	</g>
	<g class="st10">
		<path class="st54" d="M76.8,31.3c-2.2,0-6.7,2.3-4.8,7.3c1.9,5.1,5.9,6.8,9.6,1.7C85.4,35.2,81.9,31.4,76.8,31.3z"/>
		<path class="st33" d="M76.9,32.3c-1.9,0-5.5,1.9-4,6.1c1.6,4.2,4.9,5.6,8,1.4S81.2,32.4,76.9,32.3z"/>
		<path class="st55" d="M82.2,36.5c-0.9,1.8-3.1,4.1-4.7,3.2c-2.2-1.4-0.5-3.3-2.7-4.6c-1-0.6-1.6-0.4-2.1,0c-0.3,0.9-0.4,2,0.1,3.3
			c1.6,4.2,4.9,5.6,8,1.4C81.8,38.6,82.2,37.5,82.2,36.5z"/>
		<path class="st56" d="M77.7,33c0,0-3.4,0.3-1.7,1.9c1.7,1.6,2.2,3.2,3.7,2.4C81.3,36.4,80.7,33.4,77.7,33z"/>
		<path class="st21" d="M78.9,33.3c0,0-1.4-0.8-2.6-0.1s2.2,1.5,2.8,2.1C79.8,35.9,80.9,34.7,78.9,33.3z"/>
		<path class="st57" d="M80.6,40.3c-0.1,0-0.1,0.1-0.2,0.1c-1.9,0.9-3.3,1.2-5.6-0.5c-1.4-1-2-2.6-2.3-3.6c0,0.6,0.1,1.3,0.4,2.1
			C74.4,42.5,77.6,43.9,80.6,40.3z"/>
	</g>
</g>
<g>
	<path class="st58" d="M67.2,34.3c-0.2-0.3-0.5-0.7-0.8-1c-0.3-0.4-0.4-0.6-0.5-0.8c0.2,0,0.5-0.1,1-0.1c0.2,0,0.4,0,0.7,0
		c0.2,0,0.4,0,0.5,0c1.6,0,7-0.5,8-6.8c0.2-1.5-0.3-3-1.4-4.4c-1.9-2.3-5.7-3.9-9.1-3.9c-2,0-3.7,0.5-4.9,1.5
		c-3.2,2.5-2.8,4.6-2.3,6.4c0.2,1,0.5,1.9,0.1,3c-0.2,0.5-0.5,1.1-2,1.1c-0.1,0-0.3,0-0.4,0c-0.6-0.2-1.1-0.3-1.6-0.5
		c-4.4-1.3-4.6-1.6-4.3-2.9c0.2-0.6,0.7-1.7,2.4-3.6c4.1-2.7,6.6-6.7,6.8-11.1c0.1-2.7-0.7-5-2.4-6.8c-2.6-2.7-7.2-4-13.7-4
		c-10.7,0-16.7,3.8-17,10.7c-0.2,5.2,2.9,10,8.2,12.5c1.6,1.5,2.4,2.9,2.2,4c-0.1,0.7-0.8,1.3-2,1.8c-0.8,0.3-1.7,0.7-2.7,1.3
		c-0.1-0.2-0.1-0.6-0.1-1c0.1-1.2-0.4-2.3-1.3-3.2c-1.2-1.3-3.3-2.1-5.6-2.1c-0.6,0-1.2,0.1-1.7,0.2c-1.9,0.3-3.7,1.9-4.9,4.2
		c-0.8,1.6-1.5,4-0.7,5.5c0.5,1,1.7,1.8,2.8,2.5c0.1,0.1,0.2,0.1,0.3,0.2c-9.6,6.1-12,17-12.3,25.2c-0.3,7.3,2.2,13.9,7.2,19.1
		c6.6,7,17.4,11,29.5,11.2c0.2,0,0.4,0,0.6,0l0,0c10.2,0,19.7-2.8,26.7-7.9c7.5-5.5,11.6-13,12-21.7C85,51.3,78.4,40.3,67.2,34.3z"
		/>
	<path class="st59" d="M66.5,35c-0.2-0.3-0.5-0.7-0.9-1.2c-1.6-2-0.5-2.6,2-2.4c2.6,0.1,6.7-0.8,7.6-6c0.8-5.2-9.4-9.3-13.9-5.8
		c-4.4,3.5-0.8,5.4-1.9,9c-0.5,1.6-2,1.9-3.5,1.8c-5.2-1.7-7.4-1.9-6.6-4.6c0.3-1.1,1.4-2.6,2.7-4.1c3.8-2.4,6.3-6.2,6.4-10.4
		C58.7,4,52,1.5,43.3,1.5c-8.6,0-15.8,2.5-16.1,9.8c-0.2,5.1,3,9.5,7.8,11.7c2.7,2.5,4.2,5.8,0,7.5c-1,0.4-2.1,1-3.2,1.6
		c-0.5-0.2-1-0.8-0.9-2.2c0.1-3.1-3.8-4.8-7.5-4.2c-3.7,0.7-5.9,6.4-4.9,8.3c0.6,1.2,2.8,2.2,4,3.3c-9.6,5.2-12.6,15.5-13,25
		c-0.6,17.6,15.4,29,35.7,29.2c20.5,0.2,37.6-11,38.3-28.7C84,51,77.2,40.7,66.5,35z"/>
	<path class="st60" d="M51.5,34.5c0,0-7.7-1.5-13.2,5.4s6.3,8.7,13.9,10.5s16.5,5.6,19.1,8.4c2.5,2.8,7.9,6.2,10.2,2.1
		C83.8,56.9,72.3,34.2,51.5,34.5z"/>
	<g class="st61">
		<path class="st58" d="M82.7,68.6c-2,5-5.8,10.3-12.7,12.5c-14.8,4.9-22,0.1-29.2-18S23.1,48.9,18.2,45.6s10.6-9.8,12.6-11.2
			c1.9-1.3,4.6-1.8,5,0s6.5,0.2,8.9-1.2c2.2-1.3,4.6-4,5.8-4.6c-1.2-0.6-1.6-1.4-1.2-2.7c0.3-1.1,1.4-2.6,2.7-4.1
			c3.3-2.1,5.6-5.2,6.2-8.7c-0.5,1.2-1.1,2.4-1.7,3.3c-1.5,2.2-17,6-19.2,1.8c-2.1-4.2,3-3.6,2-9.3c-0.7-3.8-4.3-5-6.6-5.5
			c-3.2,1.5-5.3,4-5.5,7.9c-0.2,5.1,3,9.5,7.8,11.7c2.7,2.5,4.2,5.8,0,7.5c-1,0.4-2.1,1-3.2,1.6c-0.5-0.2-1-0.8-0.9-2.2
			c0.1-3.1-3.8-4.8-7.5-4.2c-3.7,0.7-5.9,6.4-4.9,8.3c0.6,1.2,2.8,2.2,4,3.3c-9.6,5.2-12.6,15.5-13,25c-0.6,17.6,15.4,29,35.7,29.2
			C63.4,91.7,78.9,83,82.7,68.6z"/>
		<path class="st62" d="M77.4,44.1c0.8,3.3,0.4,6.8-3.5,9.2c-9.2,5.6-19.7,5.5-26.2-1.4s-14.1-9.6-18.6-9
			c-4.5,0.6-17.1,6.8-11.2,16.4S31,77.1,26,80.6c-1.7,1.2-4.3,2-6.8,2.6c6.5,5.3,15.7,8.3,26.1,8.4c0.6,0,1.1,0,1.7,0
			c-1.7-1.9-3.8-4.9-3.8-8.4c0.1-5.5-4.5-9.7-10.9-18.4s0.6-18.3,6.2-16c5.6,2.2,8.4,8.6,13.1,12.3c4.6,3.8,14.6,12.7,29.8,8.8
			c0.4-0.1,0.8-0.2,1.2-0.3c0.6-2.1,1-4.3,1.1-6.7C83.8,55.8,81.5,49.4,77.4,44.1z"/>
		<path class="st58" d="M59.4,28.6c-0.5,1.6-2,1.9-3.5,1.8c-0.4-0.1-0.9-0.3-1.2-0.4c0.1,0.3,0.2,0.6,0.2,1c-0.1,2.2,6.6,5,8.4,4
			c0.7-0.4,2.5,0.1,4.4,0.7c-0.4-0.2-0.8-0.4-1.2-0.7c-0.2-0.3-0.5-0.7-0.9-1.2c-1.6-2-0.5-2.6,2-2.4c1.9,0.1,4.7-0.4,6.4-2.8
			c-1.3,0.8-3,1.4-4.3,1.3c-2.8-0.2-5.3-2.6-4.7-4.9c0.5-1.8-1.1-4.7-2.9-6c-0.3,0.1-0.6,0.3-0.8,0.5C56.9,23.1,60.5,25,59.4,28.6z"
			/>
	</g>
	<g>
		<g>
			<path class="st63" d="M34.5,54.1c-0.3,0.2-3.6-3.8-6.7-2.4c-3.1,1.4-5.4,2.9-5.4,2.9s0.5-3,3.2-4.6s4.9-0.2,4.9-0.2l3.6,2.4
				L34.5,54.1z"/>
			<path class="st64" d="M28.7,48c-3.8,0-7,2.9-7,6.5c0,0.5,0.4,1,0.8,1c0.5,0,0.8-0.4,0.8-1c0-2.5,2.4-4.6,5.3-4.6s5.3,2.1,5.3,4.6
				c0,0.5,0.4,1,0.8,1c0.5,0,0.8-0.4,0.8-1C35.6,50.9,32.5,48,28.7,48z"/>
			<path class="st64" d="M25.3,42.3c0,0,2.1-3.3,3.2-2.7C29.5,40.4,27.7,42.1,25.3,42.3z"/>
		</g>
		<g>
			<path class="st63" d="M58.8,54.1c0.3,0.2,3.6-3.8,6.7-2.4c3.1,1.4,5.4,2.9,5.4,2.9s-0.5-3-3.2-4.6s-4.9-0.2-4.9-0.2l-3.6,2.4
				L58.8,54.1z"/>
			<path class="st64" d="M64.7,48c3.8,0,7,2.9,7,6.5c0,0.5-0.4,1-0.8,1c-0.5,0-0.8-0.4-0.8-1c0-2.5-2.4-4.6-5.3-4.6
				s-5.3,2.1-5.3,4.6c0,0.5-0.4,1-0.8,1c-0.5,0-0.8-0.4-0.8-1C57.7,50.9,60.8,48,64.7,48z"/>
			<path class="st64" d="M68,43c0,0-2.1-3.3-3.2-2.7C63.8,41,65.5,42.8,68,43z"/>
		</g>
	</g>
	<g>
		<path class="st65" d="M16.2,54c0,0-6.9,0.2-6,3.3s9.8-1.8,9.8-1.8S21.5,53.8,16.2,54z"/>
		<path class="st66" d="M21.1,54.9c0,0-10.7-6.9-13.8-3.8C4.3,54.2,14.8,54.9,21.1,54.9z"/>
		<path class="st21" d="M12,51c-0.5-0.1-2-0.6-3.1,0.5s3.2,0.2,5.3,1.4C16.3,54,17.9,52.7,12,51z"/>
	</g>
	<g>
		<path class="st65" d="M76.8,54c0,0,6.9,0.2,6,3.3S73,55.5,73,55.5S71.5,53.8,76.8,54z"/>
		<path class="st66" d="M71.9,54.9c0,0,10.7-6.9,13.8-3.8C88.7,54.2,78.2,54.9,71.9,54.9z"/>
		<path class="st21" d="M81,51c0.5-0.1,2-0.6,3.1,0.5s-3.2,0.2-5.3,1.4C76.7,54,75.1,52.7,81,51z"/>
	</g>
	<g>
		<path class="st65" d="M76.2,57.4c4.8,10.7-7.9,27.9-29.6,27.9C24.9,85.2,12.2,68.1,17,57.4C36,65.7,57.1,65.7,76.2,57.4z"/>
		<path class="st50" d="M74.6,59.3c4,9.7-8.2,24.8-28,24.8c-19.9,0-32.1-15.1-28-24.8C36.6,66.6,56.5,66.6,74.6,59.3z"/>
		<path class="st67" d="M39.5,79.1c0,0-5.6-7.1-3.1-10.7c2.6-3.6,6-3.1,6.8-0.1s-0.4,3.6,1.5,4.6c1.9,0.9,3.9-0.3,3.6-2
			c-0.3-1.7-0.8-3.1,1.5-3.2s6.3,2.8,5.8,6s-2,5-2.8,5.6S41.3,80.6,39.5,79.1z"/>
		<path class="st33" d="M46.6,75.5c-7,0-13.4,1.5-16.7,4.5c4.5,2.5,10.2,4.1,16.7,4.1s12.1-1.6,16.7-4.1
			C59.9,77,53.5,75.6,46.6,75.5z"/>
		<path class="st21" d="M59.6,63.6c-9.1,1.6-18.4,1.5-27.5-0.3c2,3.4,7.3,6.3,13.7,6.4C52.2,69.8,57.5,67,59.6,63.6z"/>
	</g>
	<path class="st59" d="M29.2,31.7c0.8-1.7,1-3.3,0.6-4.8c-1.4-1.2-3.8-1.8-6.2-1.4c-2.6,0.5-4.4,3.3-5,5.7c0.3,0.7,0.7,1.4,1.6,1.9
		C23,34.8,27.9,34.2,29.2,31.7z"/>
	<path class="st58" d="M43.5,86.8c0,0,5.8,1.6,9.2-0.4c0,0-1.1,2.2-4.2,2.3C45.4,88.9,44,88.2,43.5,86.8z"/>
	<path class="st60" d="M25,26.2c0,0-3.8,0-4.4,2.6C20,31.5,24.9,32.1,27,32c2.1-0.1,1.8-3.5,1.9-4.3C29.1,27,27,26,25,26.2z"/>
	<path class="st60" d="M49.7,2.6c-0.3-0.1-8.8-1.7-8.8,0.9s5.2,3.1,5.8,5.2c0.6,2,0.2,5.8,4.9,6s6-3.1,5.7-4.9
		C56.9,8.1,56.4,4.4,49.7,2.6z"/>
	<path class="st60" d="M67,19.1c0,0-3,0.1-1.1,2.3c1.8,2,3.4,5.5,5.6,5.8c2.1,0.2,3.4-1.6,3-3.1C74.1,22.5,71.3,19.5,67,19.1z"/>
	<path class="st68" d="M51.9,21.4C49.4,22,41.1,23,34.1,20.7c-4-1.3-5.9-5.4-6.8-8.6c0.1,4.1,2.5,7.7,6.1,10
		C44,25.4,54.2,20.8,51.9,21.4z"/>
	<path class="st68" d="M20.8,35.7c0.7,0.5,1.4,0.9,1.9,1.3c-0.1,0-0.1,0.1-0.2,0.1c5.8-0.8,8.7-4.5,8.7-4.5s-1.4,1.5-5.6,3
		C23.8,36.3,22.1,36.1,20.8,35.7z"/>
	<path class="st21" d="M62.6,37c0,0-8-3.4-13.1-1.7s8.6,1.5,11.8,3.3C64.4,40.4,66,38.7,62.6,37z"/>
	<path class="st68" d="M26.6,85.9c-8.2-3.9-14.5-14.5-16.9-19c2,15,16.9,24.4,35.5,24.6c5.1,0.1,10.1-0.6,14.6-1.9
		C50.5,91.2,35.6,90.2,26.6,85.9z"/>
	<path class="st21" d="M24.1,26.2c0,0-1.5,0.1-2.7,1.7s2.2-0.2,3.9-0.5C26.8,27.1,27.2,26.3,24.1,26.2z"/>
	<path class="st21" d="M45.9,2.8c0,0-3.7,0.5-1.8,1.4C46,5.1,46,5.1,49.7,6.1c3.7,1.1,5.1,1.4,5.1,0S52.3,3.3,45.9,2.8z"/>
	<path class="st21" d="M55.4,7.7c0,0-0.2,2.5,0.5,2.5C56.6,10.1,58.2,7.8,55.4,7.7z"/>
	<path class="st21" d="M70.1,20c0,0-0.5-0.2-1.2-0.5c-1.1-0.4-2.7-0.7-3.4,0.1c-1.2,1.3,2.7,0.1,4.6,1.9s1.5,1,2.1,0.7
		C72.8,21.9,71.6,21.2,70.1,20z"/>
	<path class="st21" d="M72.7,22.9c0,0-0.3,0.3,0.4,0.9c0.7,0.7,0.6,1,0.8,0.4C74,23.5,73.2,22.7,72.7,22.9z"/>
	<path class="st21" d="M66.4,39c0,0-1.2-0.2,0.6,1.7c1.8,1.8,3.5,4.6,4.5,3.5C72.5,43.2,69.6,40.7,66.4,39z"/>
</g>
</svg>
