<?xml version="1.0" encoding="utf-8"?>
<!-- Generator: Adobe Illustrator 21.0.0, SVG Export Plug-In . SVG Version: 6.00 Build 0)  -->
<svg version="1.1" id="_x2014_ÎÓÈ_x5F_1" xmlns="http://www.w3.org/2000/svg" xmlns:xlink="http://www.w3.org/1999/xlink"
	 x="0px" y="0px" viewBox="0 0 93 93" style="enable-background:new 0 0 93 93;" xml:space="preserve">
<style type="text/css">
	.st0{fill:#0A4377;}
	.st1{fill:#2D84E2;}
	.st2{fill:#3BADF2;}
	.st3{opacity:0.27;}
	.st4{fill:#19328E;}
	.st5{opacity:0.27;fill:#19328E;enable-background:new    ;}
	.st6{opacity:0.5;fill:#19328E;enable-background:new    ;}
	.st7{opacity:0.13;fill:#C5FFFF;enable-background:new    ;}
	.st8{opacity:0.62;fill:#C5FFFF;enable-background:new    ;}
	.st9{opacity:0.22;fill:#C5FFFF;enable-background:new    ;}
	.st10{fill:#0E3B63;}
	.st11{fill:#EF48A0;}
	.st12{fill:#FFFFFF;}
	.st13{opacity:0.78;fill:#FF88CC;enable-background:new    ;}
</style>
<g>
	<path class="st0" d="M73.1,42.2c-4.3-5.5-5.7-8.5-5.7-9.2c0.5-1,3.9-3.2,5.8-4.5l0.5-0.4c4.9-2.5,7.9-7.5,7.9-13
		c0-7.9-6.4-14.4-14.6-14.7c-0.3,0-0.6,0-0.8,0c-9.2,0-14.1,6-14.1,17.4c0,3.4,1.2,6.2,3.5,8.3c1.2,2.4,1.4,3.4,1.4,3.7
		c-1.9,0-6.1-0.5-9.1-0.9c-0.9-0.2-1.9-0.4-2.8-0.6c-2.5-1.6-4.3-3.1-4.8-4.1c-0.3-0.5,0.1-1.1,0.5-1.7c2.3-1.2,3.8-2.6,4.7-4.3
		c0.8-1.6,0.8-3.7-0.1-5.6C44.2,10.5,42,9,39.5,8.7c-0.2,0-1.3-0.2-2.7-0.2c-5.2,0-8.2,2.1-8.5,5.8c-0.4,5.2,2,8.7,4.6,9.9
		c1.1,0.7,1.9,1.3,1.9,1.8c-0.1,0.1-0.5,0.6-2,1.5c-7,0.6-13.2,4.2-18,10.3c-4.6,5.8-7.5,13.7-8.1,22.1C5.9,69.1,8.2,77.1,13.2,83
		c5.2,6.1,13.1,9.5,21.8,9.5h1.1l0,0c15.1,0,46.4,0,47-25.5C83.2,57.3,79.9,49,73.1,42.2z"/>
	<path class="st1" d="M72.5,42.9c-1.8-2.3-6.6-8.7-5.8-10.2c0.6-1.3,4.2-3.6,6.7-5.3c4.4-2.3,7.5-6.9,7.5-12.2
		c0-7.6-6.2-13.4-13.7-13.7C55.2,1,53,10.4,53,17.9c0,3.3,1.2,5.9,3.3,7.6c1.3,2.5,2.4,5.3,0.8,5.3c-1.8,0-6.2-0.4-9.4-0.9
		c-1-0.2-2-0.5-3-0.7c-1.5-1-4.4-3-5.3-4.5c-0.6-1,0-2.1,0.7-3c1.9-0.9,3.6-2.1,4.5-4c1.5-3-0.7-7.8-5.3-8.3c0,0-9.6-1.6-10.2,4.7
		c-0.4,4.6,1.7,7.9,4.1,8.9c1.5,0.9,2.5,1.7,2.3,2.8c-0.1,0.7-1.6,1.7-2.6,2.3c-14,1.5-24.1,15.2-25.4,31.8
		C5.9,80.6,19.8,91.5,35,91.5S81.6,91.8,82.2,67C82.4,56.6,78.4,48.7,72.5,42.9z"/>
	<path class="st2" d="M58.1,35.3c0,0-5.2-1.7-9.5-1.3c-5.3,0.4-9.6,3.2-5.6,8c7.4,8.8,23,26.4,28.7,25.2c5.7-1.2,7.4-10.8,3.8-16.1
		C72.1,45.8,71.2,41.3,58.1,35.3z"/>
	<g class="st3">
		<path class="st4" d="M57.1,30.9c-1.5,0-4.8-0.3-7.7-0.7c0.2,0.6,0.3,1.3-0.1,2c-1.2,2.6,1.9,6.2,3.9,4.7s7.5-0.6,11.1,0.6
			c3.5,1.3,4.8,0.9,4.8,0.9s0,0,0.1-0.1c-1.6-2.4-2.9-4.8-2.5-5.7c0.6-1.3,4.2-3.6,6.7-5.3c3.3-1.7,5.8-4.6,6.9-8.2
			c-1.7,3.7-7,6.4-10.4,3.8c-4.1-3.1-1.1-8.1-6.2-11c-5.2-2.9-3.3,4.7-5.5,0.5c-1.8-3.3-0.2-7.5,0.5-9C54.1,6.7,53,12.7,53,17.9
			c0,3.3,1.2,5.9,3.3,7.6C57.6,28.1,58.7,30.9,57.1,30.9z"/>
		<path class="st4" d="M44.8,29.3c-1.5-1-4.4-3-5.3-4.5c-0.6-1,0-2.1,0.7-3c1.9-0.9,3.6-2.1,4.5-4c0.8-1.6,0.6-3.7-0.6-5.4
			c0.5,2.2,0.1,5.1-1.5,5.5c-2.4,0.5-4-0.3-6.5-1.9s-3.6,2.1-4.8,1.5c-0.8-0.4-1.7-2.3-2.1-3.3v0.1c-0.4,4.6,1.7,7.9,4.1,8.9
			c1.5,0.9,2.5,1.7,2.3,2.8c-0.1,0.7-1.6,1.7-2.6,2.3c-1.2,0.1-2.4,0.3-3.5,0.6c-0.4,0.9-0.8,1.9-1.2,2.7c-0.8,1.8,8.4,2.3,10.2,1.1
			C40.4,31.7,44.8,29.3,44.8,29.3z"/>
		<path class="st4" d="M80.3,18.9c0.2-0.8,0.4-1.6,0.5-2.5C80.7,14.7,80.6,16.3,80.3,18.9z"/>
	</g>
	<path class="st5" d="M82.1,67c0-0.6,0-1.3,0-1.9c-2.4,13.4-17.3,22.2-22.4,14.3c-5.8-8.9-9.7-0.6-15.8-2.9s-4-31.5-18.8-37.3
		c-4.1-1.6-7.7-1-10.9,0.8c-3.7,5.4-6.1,12.4-6.7,19.9C5.9,80.6,19.8,91.5,35,91.5S81.6,91.8,82.1,67z"/>
	<path class="st6" d="M12.9,40.6c0,0-1.1,3,0.4,4.7s3.2-1.1,4.5-2.9c1.3-1.8,2.3-5.7,2.1-7.4C19.8,33.4,13.3,39.2,12.9,40.6z"/>
	<path class="st2" d="M77.5,80.4c-5.8,4.9-23.2,9.1-32.8,8.5C34.3,88.3,23.6,86,15.6,77.6C9.1,70.7,9,56.1,9.1,50.9
		c-0.8,2.9-1.4,5.9-1.6,9C5.9,80.6,19.8,91.5,35,91.5C46.7,91.5,68.1,91.7,77.5,80.4z"/>
	<path class="st7" d="M72.5,42.9c-0.1-0.1-0.1-0.2-0.2-0.3c2.6,5.5,4.3,12-2.5,12.6c-11.4,1-26.3-16.8-32.5-17.6
		C31,36.8,15.5,24.7,22.1,52.3c3.5,14.6,2.4,29.7-7.3,23.5c-2.9-1.8-5.2-4.2-7-6.6C10.4,83.7,22,91.4,34.7,91.5
		c-4.6-3-11.3-8.2-8.8-11.4c3.7-4.8,7-10.5,2.7-21.8s-3.4-20.5,7-17s22.7,33,26.3,37.7c6.5,8.5,13.5-9.7,16-13.8
		c2.5-4.1-0.3-11,3.4-6.5c0,0,0,0,0,0.1C79.9,52.3,76.7,47.1,72.5,42.9z"/>
	<path class="st8" d="M38.9,89.9c-0.1,0.9-3.7,1-8.1,0.1c-4.3-0.8-7.8-2.2-7.7-3.1c0.1-0.9,3.7-1,8.1-0.1
		C35.6,87.5,39,88.9,38.9,89.9z"/>
	<path class="st8" d="M22.2,85.7c-0.2,0.6-1.1,0.7-1.9,0.3c-0.8-0.4-1.3-1.2-1-1.8c0.2-0.6,1.1-0.7,1.9-0.3
		C22,84.4,22.4,85.2,22.2,85.7z"/>
	<g>
		<path class="st9" d="M32.1,61.6c-0.3,0.2-3.6-3.8-6.8-2.4c-3.1,1.4-5.4,2.9-5.4,2.9s0.5-3,3.2-4.6s4.9-0.2,4.9-0.2l3.6,2.4
			L32.1,61.6z"/>
		<path class="st10" d="M26.3,55.5c-3.9,0-7,2.9-7,6.6c0,0.5,0.4,1,0.8,1c0.5,0,0.8-0.4,0.8-1c0-2.6,2.4-4.6,5.3-4.6
			s5.3,2.1,5.3,4.6c0,0.5,0.4,1,0.8,1c0.5,0,0.8-0.4,0.8-1C33.2,58.4,30.1,55.5,26.3,55.5z"/>
		<path class="st10" d="M23.1,49.1c0,0,2.1-3.3,3.2-2.7C27.3,47.1,25.6,48.8,23.1,49.1z"/>
	</g>
	<g>
		<path class="st9" d="M56.5,61.6c0.3,0.2,3.6-3.8,6.8-2.4c3.1,1.4,5.4,2.9,5.4,2.9s-0.5-3-3.2-4.6c-2.7-1.6-4.9-0.2-4.9-0.2
			L57,59.7L56.5,61.6z"/>
		<path class="st10" d="M62.3,55.5c3.9,0,7,2.9,7,6.6c0,0.5-0.4,1-0.8,1c-0.5,0-0.8-0.4-0.8-1c0-2.6-2.4-4.6-5.3-4.6S57,59.5,57,62
			c0,0.5-0.4,1-0.8,1c-0.5,0-0.8-0.4-0.8-1C55.4,58.4,58.5,55.5,62.3,55.5z"/>
		<path class="st10" d="M65.5,49.1c0,0-2.1-3.3-3.2-2.7C61.3,47.1,63,48.8,65.5,49.1z"/>
	</g>
	<ellipse class="st9" cx="40.4" cy="66.7" rx="3.9" ry="3.2"/>
	<ellipse class="st9" cx="50.1" cy="67" rx="3.9" ry="3.2"/>
	<path class="st11" d="M42.2,70.7c0,0,2.4,6.6,4,5.5s2.7-5.9,2.7-5.9L46,66.9L42.2,70.7z"/>
	<path class="st10" d="M54.3,63.5c-0.3-0.4-0.8-0.4-1.1-0.1c-0.3,0.3-0.4,0.8-0.1,1.2c0,0,0.8,1,0.7,2.2c-0.1,0.7-0.4,1.4-1.1,2
		c-1.1,0.9-2.5,1.1-3.8,0.5c-1.5-0.7-2.5-2.2-2.6-4.1c0-0.5-0.4-0.8-0.8-0.8h-0.1h-0.1c-0.4,0-0.8,0.3-0.8,0.8
		c-0.1,1.8-1,3.3-2.6,4.1c-1.3,0.6-2.8,0.5-3.8-0.5c-0.7-0.6-1.1-1.2-1.1-1.9c-0.1-1.2,0.7-2.2,0.7-2.3c0.3-0.4,0.2-0.9-0.1-1.2
		s-0.8-0.3-1.1,0.1c0,0.1-1.2,1.6-1,3.5c0.1,1.2,0.7,2.2,1.7,3.1c0.9,0.8,2,1.2,3.2,1.2c0.8,0,1.5-0.2,2.2-0.5
		c1.2-0.6,2.2-1.6,2.8-2.9c0.6,1.3,1.6,2.3,2.8,2.9c0.7,0.3,1.5,0.5,2.2,0.5c1.2,0,2.3-0.4,3.2-1.2c1-0.9,1.6-1.9,1.7-3.1
		C55.6,65.1,54.4,63.6,54.3,63.5z"/>
	<path class="st12" d="M59.8,37.6c0,0-4.8-1-2.4,1.9c2.5,2.9,7.5,6.4,8.9,5.4C67.8,43.9,66.4,39.9,59.8,37.6z"/>
	<path class="st12" d="M68.7,45.2c0,0-1.3,0.3,0.2,2.1c1.5,1.9,3.8,2.9,3.9,1.9C73,48.2,70.4,45.3,68.7,45.2z"/>
	<path class="st6" d="M71.9,28.3c-3.6,1.2-9.3,1.7-14.9-2.1c-0.2-0.1-0.3-0.2-0.5-0.3c1.2,2.4,2.1,4.9,0.6,4.9c-0.2,0-0.4,0-0.7,0
		c4.7,2.3,12.3,6.9,12.3,6.9l0,0c-1.4-2.2-2.5-4.3-2.1-5.1C67.1,31.6,69.6,29.8,71.9,28.3z"/>
	<path class="st6" d="M33,28.4c-0.6,0-1.1,0.1-1.7,0.2c1.3,0.5,3.1,0.5,5.1-0.2c1.8-0.6,5.6,0,7.7,0.4c-1.6-1.1-3.8-2.7-4.6-4
		c-0.5-0.8-0.2-1.7,0.4-2.5c-1,0.4-2.3,0.5-4.5-0.1c-3-0.8-4.6-1.8-5.2-2.3c0.8,1.6,1.9,2.8,3.2,3.3c1.5,0.9,2.5,1.7,2.3,2.8
		C35.5,26.8,34.1,27.8,33,28.4z"/>
	<path class="st2" d="M40.2,22C40.2,21.9,40.2,21.9,40.2,22c0.5-0.3,1-0.5,1.4-0.8c-0.6,0.3-1.2,0.5-1.8,0.5c-1.5,0-5.6,0-8.2-2.3
		c-1.5-1.3-2.1-2.2-2.4-2.8c0.2,1.8,0.8,3.4,1.6,4.6c1.9,0.9,3.9,1.4,5.7,1.6C37.7,22.9,39,22.5,40.2,22z"/>
	<path class="st2" d="M56.3,25.6c0,0.1,0.1,0.1,0.1,0.2c5.6,4.6,12.3,3.5,15.3,2.7c0.6-0.4,1.1-0.7,1.6-1.1c0.5-0.2,0.9-0.5,1.4-0.8
		c1.6-1.6,3.9-3.8,2.5-2.5c-2,1.9-6.2,4-8,3.7c-1.8-0.4-5.5-0.1-10.9-4.5c-4.1-3.4-4.6-9-4.6-11.4c-0.4,2-0.6,4.2-0.6,6.2
		C53,21.3,54.3,23.8,56.3,25.6z"/>
	<path class="st2" d="M69.2,3c0,0-5.1,1.5-3.9,3.4s6.2,9.1,7.4,11.1c1.2,2,4.7,2.4,5.9,0.1S78.7,6.4,69.2,3z"/>
	<path class="st2" d="M40.7,10.9c0,0-6.8-2.9-7.9,1c-1.1,3.9,4.4,1.8,6.2,3.1c1.9,1.4,3.5,0.9,3.8-0.3C43.1,13.7,43,12.8,40.7,10.9z
		"/>
	<g>
		<ellipse class="st0" cx="80.2" cy="37.1" rx="6.3" ry="6.1"/>
		<ellipse class="st1" cx="80.2" cy="37.1" rx="5.6" ry="5.4"/>
		<path class="st5" d="M74.6,37.1c0,3,2.5,5.4,5.6,5.4c2.5,0,4.6-1.6,5.4-3.8c-1,1.1-2.6,2.2-3.5,1.7c-1.5-0.9,0-4.3-1.8-5.3
			s-2.6,3.6-4.3,2.6c-0.8-0.4-0.9-1.6-0.9-2.7C74.7,35.6,74.6,36.3,74.6,37.1z"/>
		<path class="st2" d="M77.9,40.8c-1.7-0.7-2.7-2.3-3.3-3.6c0.1,2.9,2.6,5.2,5.6,5.2c1.4,0,2.6-0.5,3.6-1.2
			C82.4,41.5,80,41.7,77.9,40.8z"/>
		<path class="st2" d="M81.7,32.4c0,0-3.7-0.3-4.8,1c-1.2,1.4,2.6-0.3,4.1,1.2s1.6,3.3,2.9,3.5C85.1,38.2,86,33.7,81.7,32.4z"/>
		<path class="st12" d="M81.7,32.4c0,0-2.2,0.5-0.4,1.2c1.7,0.7,2.9,2,2.9,1.2C84.2,33.9,82.8,32.5,81.7,32.4z"/>
	</g>
	<g>
		<path class="st13" d="M30.7,65.1c0.1,1.6-1.9,3-4.4,3s-4.5-1.3-4.6-3c-0.1-1.6,1.9-3,4.4-3C28.6,62.2,30.7,63.5,30.7,65.1z"/>
		<path class="st13" d="M66.9,64.9c0.1,1.6-1.9,3-4.4,3s-4.5-1.3-4.6-3c-0.1-1.6,1.9-3,4.4-3C64.7,62,66.8,63.3,66.9,64.9z"/>
	</g>
	<path class="st12" d="M72.7,5c0,0-5.2-2.5-6.9-0.9c-1.7,1.6,4.2,1.3,6.1,3.1s2.9,3.4,3.3,3.1C75.6,10.2,76.5,7,72.7,5z"/>
	<path class="st12" d="M76.6,10c0,0-0.4,1.3,0.4,2s1.4,3.5,1.6,2.2C78.7,12.9,78,9.7,76.6,10z"/>
	<path class="st12" d="M38.1,10.1c0,0-2.9-0.6-3.9,0.7c-1.1,1.3,4.2-0.2,5.3,1C40.5,12.9,40.2,10.1,38.1,10.1z"/>
	<path class="st12" d="M40.6,11.3c0,0-0.3,0.6,0.7,1.4c1,0.8,1.5,1.8,1.1,0.6C42.1,12,42,11.9,40.6,11.3z"/>
	<g>
		<path class="st0" d="M13.4,29.3c-2.3,0-7,2.4-5,7.6c2,5.3,6.2,7.1,10.1,1.8S18.8,29.4,13.4,29.3z"/>
		<path class="st1" d="M13.5,30.4c-1.9,0-5.8,2-4.1,6.4c1.6,4.4,5.1,5.9,8.4,1.5C21,33.8,18,30.5,13.5,30.4z"/>
		<path class="st5" d="M19.1,34.8c-1,1.9-3.3,4.3-4.9,3.3c-2.3-1.5-0.6-3.5-2.8-4.8c-1-0.6-1.7-0.4-2.2,0c-0.3,0.9-0.4,2.1,0.2,3.5
			c1.6,4.4,5.1,5.9,8.4,1.5C18.7,37,19.1,35.8,19.1,34.8z"/>
		<path class="st2" d="M14.4,31.1c0,0-3.6,0.3-1.8,2c1.8,1.7,2.3,3.3,3.9,2.5C18.1,34.6,17.5,31.5,14.4,31.1z"/>
		<path class="st12" d="M15.7,31.4c0,0-1.5-0.8-2.7-0.1c-1.3,0.7,2.3,1.6,2.9,2.2C16.5,34.1,17.7,32.9,15.7,31.4z"/>
		<path class="st2" d="M17.4,38.7c-0.1,0-0.1,0.1-0.2,0.1c-2,1-3.4,1.3-5.9-0.5c-1.5-1.1-2.1-2.7-2.3-3.8c0,0.7,0.1,1.4,0.4,2.2
			C11,41,14.3,42.5,17.4,38.7z"/>
	</g>
</g>
</svg>
