<svg id="_ÎÓÈ_1" data-name="—ÎÓÈ_1" xmlns="http://www.w3.org/2000/svg" viewBox="0 0 303.29 379.96"><defs><style>.cls-1{fill:#892563;}.cls-11,.cls-2{fill:#ef48a0;}.cls-13,.cls-14,.cls-3,.cls-8{fill:#f8c;}.cls-3{opacity:0.35;}.cls-10,.cls-15,.cls-4,.cls-9{fill:#56153a;}.cls-4{opacity:0.29;}.cls-5{fill:#ff6cc0;}.cls-6{fill:#ffa37b;opacity:0.3;}.cls-7{fill:#ffc2e8;}.cls-9{opacity:0.55;}.cls-11{opacity:0.5;}.cls-12{fill:#fff;}.cls-13{opacity:0.78;}.cls-14{opacity:0.44;}.cls-15{opacity:0.38;}</style></defs><title>PinkGuy</title><path class="cls-1" d="M424.73,355.3c-1.59-38.47-22.26-74.89-56.73-99.93-9-7.3-31.59-24.82-47.95-31.38-4.78-1.92-7.48-4.35-8-7.22-.76-4,2.35-9.73,8.56-15.69,20.94-9.9,33.38-28.92,32.52-49.79-1.28-31-31.65-56.23-67.71-56.23-19.14,0-37,7.17-49,19.66A50.06,50.06,0,0,0,222,151.59c.72,17.41,10.49,33.5,26.84,44.24,6.64,7.76,8.83,12.1,9.5,14.39,1.45,5,.52,6-16.83,11.33-4.19,1.28-8.95,2.72-14.42,4.57a141.09,141.09,0,0,0-23.55,10.69c-24.66,10.61-45.23,27.07-59.48,47.61a115.67,115.67,0,0,0-20.93,71.2c1.45,35.11,18.08,65.29,48.09,87.28C199.49,463.6,237.66,475,278.71,475c48.17,0,91-15.82,117.44-43.4C416,410.88,425.93,384.49,424.73,355.3Z" transform="translate(-123.05 -95.05)"/><path class="cls-2" d="M365.68,258.4c-8.63-7-31.06-24.46-47-30.87-16.81-6.74-10.91-19.6-.22-29.65,19.15-8.83,31.72-26.31,30.89-46.44-1.2-29-29.81-52.57-63.9-52.57s-60.76,23.54-59.56,52.57c.7,16.87,10.66,31.88,25.56,41.49,4.92,5.71,9.31,11.72,10.62,16.22,3.42,11.76-7.6,11.76-33.69,20.59a138.19,138.19,0,0,0-23.08,10.5C157,260.93,124.87,304.75,127,355.46c2.92,70.65,70.58,115.73,151.75,115.73s145.12-45.08,142.2-115.73C419.31,316.64,398,281.86,365.68,258.4Z" transform="translate(-123.05 -95.05)"/><path class="cls-3" d="M323.92,246.42c-2.51-.54-47-6.27-69.86,33.64s18.86,56.46,57.76,73.56,74.21,16.54,73.46-15.4S374.52,257.25,323.92,246.42Z" transform="translate(-123.05 -95.05)"/><path class="cls-4" d="M402.56,356.47c-8.28,34.22-47.58,90.1-136,61s-45.45-134.58-72-155.68c-5-4-11.31-5.35-18.31-5-31.64,23.46-51,58.94-49.32,98.64,2.92,70.65,70.58,115.73,151.75,115.73s145.12-45.08,142.2-115.73c-1.27-30.75-14.91-59-36.6-81C397.08,297.52,408.39,332.37,402.56,356.47Z" transform="translate(-123.05 -95.05)"/><path class="cls-5" d="M415.48,393.34c-35,64.06-80.29,65-114.57,69.2-42,5.13-105.8-8.55-138.21-47.9-27.14-33-30.51-82.63-29.12-101.82A110.54,110.54,0,0,0,127,355.46c2.92,70.65,70.58,115.73,151.75,115.73C344.23,471.19,398.51,441.82,415.48,393.34Z" transform="translate(-123.05 -95.05)"/><path class="cls-6" d="M272.37,447.71c-22.48-20,6.13-72.42,21.13-95.8s60.91-29.65,100.06-6.27c29.12,17.39,2,69.45-11.78,93.83,25.5-20.09,40.58-48.89,39.13-84-1.2-29-13.42-55.81-33-77.28-11.33,31.2-56.19,34.33-95.72,27.54-46.5-8-33.46,100.93-103,100.93-32,0-50.93-23.62-62.09-49.14,4.13,69.47,71.25,113.68,151.64,113.68a204.9,204.9,0,0,0,34.49-2.86C297.88,463.17,281.89,456.16,272.37,447.71Z" transform="translate(-123.05 -95.05)"/><path class="cls-7" d="M275.44,465.93c-.49,3.56-15.82,3.79-34.24.49s-32.94-8.85-32.45-12.41,15.82-3.79,34.24-.5S275.94,462.37,275.44,465.93Z" transform="translate(-123.05 -95.05)"/><path class="cls-7" d="M204.46,449.65c-1,2.25-4.67,2.7-8.12,1s-5.39-4.9-4.35-7.15,4.67-2.7,8.12-1S205.5,447.4,204.46,449.65Z" transform="translate(-123.05 -95.05)"/><path class="cls-4" d="M310.24,232.73c14.85,4.4,28,9.63,32.46,8.51-8.08-5.51-16.75-10.77-24.07-13.7-16.81-6.74-10.91-19.6-.22-29.65,19.15-8.83,31.72-26.31,30.89-46.44a48,48,0,0,0-8.39-24.92c4,12.7,8.16,31.64,1.47,42.34-10.69,17.11-65.23,35.36-96.33,0-15.83-18-15.07-35-10.52-47.28a45.44,45.44,0,0,0-9.69,29.85c.7,16.87,10.66,31.88,25.56,41.49,4.92,5.71,9.31,11.72,10.62,16.22,3.13,10.76-5.84,11.68-27.37,18.52-2.82,8.17-11.86,16.32-2.81,25C244.89,265.23,292.93,227.6,310.24,232.73Z" transform="translate(-123.05 -95.05)"/><path class="cls-8" d="M315.41,247.55c-2.35-.17-31.49-3.42-62.59,16.54s65.75-22.81,102.31,6.84,29.57,67.29,29.57,67.29,7.8-18.25-1.79-43.34S347.43,249.84,315.41,247.55Z" transform="translate(-123.05 -95.05)"/><ellipse class="cls-9" cx="67.92" cy="255.04" rx="19.27" ry="42.54"/><ellipse class="cls-10" cx="67.92" cy="255.04" rx="15.64" ry="37.73"/><path class="cls-11" d="M192.32,377.46c-7.23,0-13.08-14.13-13.08-31.55a69.1,69.1,0,0,1,1.6-15.13,63,63,0,0,0-3.11,20.41c0,17.43,5.86,31.55,13.08,31.55,5,0,9.26-6.64,11.48-16.42C199.9,373.13,196.32,377.46,192.32,377.46Z" transform="translate(-123.05 -95.05)"/><ellipse class="cls-12" cx="71.55" cy="239.21" rx="6.9" ry="10.58"/><ellipse class="cls-12" cx="64.05" cy="282.55" rx="3.16" ry="3.31"/><path class="cls-10" d="M181.69,284.44s9.92-13.22,14.73-10.52S193.11,283.54,181.69,284.44Z" transform="translate(-123.05 -95.05)"/><ellipse class="cls-9" cx="220.57" cy="255.04" rx="19.27" ry="42.54"/><ellipse class="cls-10" cx="220.57" cy="255.04" rx="15.64" ry="37.73"/><path class="cls-11" d="M342.27,377.46c7.22,0,13.08-14.13,13.08-31.55a69.1,69.1,0,0,0-1.6-15.13,63,63,0,0,1,3.11,20.41c0,17.43-5.86,31.55-13.08,31.55-5,0-9.26-6.64-11.48-16.42C334.7,373.13,338.27,377.46,342.27,377.46Z" transform="translate(-123.05 -95.05)"/><ellipse class="cls-12" cx="216.95" cy="239.21" rx="6.9" ry="10.58"/><ellipse class="cls-12" cx="224.45" cy="282.55" rx="3.16" ry="3.31"/><path class="cls-10" d="M352.9,284.44s-9.92-13.22-14.73-10.52S341.48,283.54,352.9,284.44Z" transform="translate(-123.05 -95.05)"/><ellipse class="cls-13" cx="141.16" cy="301.3" rx="18.59" ry="7.59"/><path class="cls-10" d="M240.38,392.63s22.05,17,54.27,3.39c0,0-5.09,15.26-23.74,18.65S242.08,406.19,240.38,392.63Z" transform="translate(-123.05 -95.05)"/><path class="cls-14" d="M294.73,105.56s-36.17-6.27-42.61,17.11,39.8,11.4,50.41,20,21.55,25.09,30.94,17.68S343.56,114.69,294.73,105.56Z" transform="translate(-123.05 -95.05)"/><path class="cls-6" d="M274,157.51c35.8-5.15,35.42,16.73,50.48,7.72,14.29-8.54-42.89-66.86,2.49-53.07A70.34,70.34,0,0,0,285.4,98.87a71.12,71.12,0,0,0-15.23,1.63c15.23,6.53,29.11,16.73,32.4,32.57,8,38.6-27.54-12.87-51.08,9-9,8.36-15.24,19.74-19.51,30.6a58.42,58.42,0,0,0,19.42,20.26c3.86,4.48,7.38,9.14,9.35,13.12l8.93,2.94S238.19,162.66,274,157.51Z" transform="translate(-123.05 -95.05)"/><path class="cls-13" d="M212.4,407.63c.27,6.49-8,11.76-18.54,11.76s-19.25-5.26-19.51-11.76,8-11.76,18.54-11.76S212.13,401.14,212.4,407.63Z" transform="translate(-123.05 -95.05)"/><path class="cls-13" d="M360.25,407.63c.27,6.49-8,11.76-18.54,11.76s-19.24-5.26-19.51-11.76,8-11.76,18.54-11.76S360,401.14,360.25,407.63Z" transform="translate(-123.05 -95.05)"/><path class="cls-12" d="M295.29,109.3s-21.18,3.68-7.37,10.13,18.42,13.81,26.7,9.21S313.71,108.38,295.29,109.3Z" transform="translate(-123.05 -95.05)"/><path class="cls-12" d="M324.75,130.48s-6.45.92-1.84,7.37,8.29,10.13,12.89,7.37S337.65,130.48,324.75,130.48Z" transform="translate(-123.05 -95.05)"/><path class="cls-12" d="M328.17,249.33s-19.87-3.31-26.5,0,29.81,12.3,37.38,17,15.61,10.88,18.45,6.62S349.94,251.7,328.17,249.33Z" transform="translate(-123.05 -95.05)"/><path class="cls-12" d="M365.08,273.94a8.52,8.52,0,0,0-1.22.25c-2.06.58-5.52,2.35-.2,7.32,7.1,6.62,9,11.83,11.83,6.15S374.07,274.88,365.08,273.94Z" transform="translate(-123.05 -95.05)"/><path class="cls-5" d="M236.86,171.5s12.28,20.08,40.21,24.27,45.17-2.68,45.17-2.68-14.85,10.54-37.89,11.23S235.46,182,236.86,171.5Z" transform="translate(-123.05 -95.05)"/><path class="cls-15" d="M310.33,221.89c-5.47-7-.11-16.32,8.08-24,0,0-7.88,6.56-28.62,10.53-12.31,2.36-23.52-1.81-31.14-6a27.32,27.32,0,0,1,3.38,6.75c2.77,9.53-3.94,11.34-20.46,16.38A11.87,11.87,0,0,0,247,230c9.71,4.41,19.42-4,31.33-8.83C285.85,218.13,300.55,220.06,310.33,221.89Z" transform="translate(-123.05 -95.05)"/><path class="cls-1" d="M150.69,184.74c-6.95,2.59-19.85,8.39-7.74,30.92s32.15,18.65,47-1.63S184.08,172.3,150.69,184.74Z" transform="translate(-123.05 -95.05)"/><path class="cls-2" d="M152.81,187.73c-6,2.22-17.17,7.21-6.69,26.57s27.8,16,40.63-1.4S181.69,177,152.81,187.73Z" transform="translate(-123.05 -95.05)"/><path class="cls-4" d="M146.12,214.3c9.85,18.2,25.75,16.34,38.28,1.57a19.72,19.72,0,0,1-3.82,1.45c-15.86,4.17-21.7-15-30.88-24.21a11.19,11.19,0,0,0-3.06-2.24C142,194.34,138.84,200.84,146.12,214.3Z" transform="translate(-123.05 -95.05)"/><path class="cls-14" d="M163.57,188.1s-6.18,2.21-1.32,6.62,11,16.77,20.74,11.92S184.76,183.25,163.57,188.1Z" transform="translate(-123.05 -95.05)"/><path class="cls-12" d="M169.31,189.87s-7.94,4.41,2.65,5.3,11.92,5.74,11,1.32S178.58,189,169.31,189.87Z" transform="translate(-123.05 -95.05)"/><path class="cls-5" d="M157.51,221c-7.37-3-12.61-11.18-15.07-15.76a38.77,38.77,0,0,0,3.69,9.07c8.09,14.95,20.26,16.35,31.29,8.2A33.06,33.06,0,0,1,157.51,221Z" transform="translate(-123.05 -95.05)"/><path class="cls-1" d="M399.73,222.25c-9.2-.18-27.53,9.31-19.69,30.25s24.41,27.93,39.83,7S421,222.67,399.73,222.25Z" transform="translate(-123.05 -95.05)"/><path class="cls-2" d="M400.15,226.45c-7.65-.15-22.9,7.74-16.38,25.17s20.31,23.23,33.13,5.81S417.81,226.8,400.15,226.45Z" transform="translate(-123.05 -95.05)"/><path class="cls-4" d="M422.28,243.9c-3.88,7.59-12.92,17.12-19.51,13-9.27-5.74-2.21-13.68-11-19-4-2.42-6.77-1.61-8.56,0-1.34,3.64-1.45,8.18.6,13.66,6.52,17.42,20.31,23.23,33.13,5.81C420.52,252.52,422.17,247.95,422.28,243.9Z" transform="translate(-123.05 -95.05)"/><path class="cls-14" d="M403.65,229.15s-14.12,1.32-7.06,7.94,9.27,13.24,15.45,9.71S416,230.91,403.65,229.15Z" transform="translate(-123.05 -95.05)"/><path class="cls-12" d="M408.55,230.67s-5.81-3.1-10.85-.39,8.91,6.2,11.62,8.52S416.69,236.48,408.55,230.67Z" transform="translate(-123.05 -95.05)"/><path class="cls-5" d="M415.38,259.37c-.21.12-.42.25-.63.35-7.75,3.87-13.56,5-23.24-1.94-5.79-4.17-8.25-10.54-9.29-15a22.29,22.29,0,0,0,1.57,8.82C390,268.34,403,274.35,415.38,259.37Z" transform="translate(-123.05 -95.05)"/></svg>