<svg id="_ÎÓÈ_3" data-name="—ÎÓÈ_3" xmlns="http://www.w3.org/2000/svg" xmlns:xlink="http://www.w3.org/1999/xlink" viewBox="0 0 1047.55 119"><defs><style>.cls-1,.cls-7{fill:#392453;}.cls-2{fill:#633b79;}.cls-3{fill:#755695;}.cls-4{fill:#f892fc;opacity:0.46;}.cls-5{fill:#502158;}.cls-6{fill:url(#linear-gradient);}.cls-7{opacity:0.63;}</style><linearGradient id="linear-gradient" x1="-177.14" y1="2014.18" x2="-177.14" y2="2079.18" gradientUnits="userSpaceOnUse"><stop offset="0.19" stop-color="#382158"/><stop offset="1" stop-color="#502158"/></linearGradient></defs><title>progress_bar_frame</title><path class="cls-1" d="M293.21,1987.31H-650.48c-28.59,0-51.86,23.55-51.86,52.5v16c0,28.32,22.78,50.5,51.86,50.5H293.21c29.08,0,51.86-22.18,51.86-50.5v-16C345.07,2010.86,321.8,1987.31,293.21,1987.31Z" transform="translate(702.34 -1987.31)"/><path class="cls-2" d="M340.07,2055.81c0,26.23-21,45.5-46.8,45.5H-648c-25.85,0-46.8-19.27-46.8-45.5v-16c0-26.23,21-47.5,46.8-47.5H293.27c25.85,0,46.8,21.27,46.8,47.5Z" transform="translate(702.34 -1987.31)"/><path class="cls-3" d="M294,1996.82s-124.25-2.46-176.52-2-98.62,3-75.44,5.92,216,2.46,234.7,4.44S310.73,1998.79,294,1996.82Z" transform="translate(702.34 -1987.31)"/><ellipse class="cls-4" cx="950.74" cy="11.6" rx="9.34" ry="3.37"/><path class="cls-3" d="M317.6,2053.55s-.5,15.48-13,22.47-36,6-90.9,7-110.38,3.5-92.9,4,105.88,2.5,136.35,0,45,3.5,57.44-9.49S323.59,2054.55,317.6,2053.55Z" transform="translate(702.34 -1987.31)"/><ellipse class="cls-4" cx="975.35" cy="96.99" rx="14.7" ry="2.54"/><path class="cls-1" d="M308,2042.28s20.6-3.81,29.75,1.53,7.34,12,7.34,12v-16S317.89,2031.6,308,2042.28Z" transform="translate(702.34 -1987.31)"/><path class="cls-3" d="M-58.81,2083.35s-50.71-3.07-82-1.54-38.41,1.54-16.9,5.63,64-.51,78.88,1,21,7.17,24.07,3.58S-51.64,2084.89-58.81,2083.35Z" transform="translate(702.34 -1987.31)"/><ellipse class="cls-4" cx="636.1" cy="97.11" rx="13.06" ry="2.33"/><path class="cls-5" d="M313.28,2052.18c0,15.65-12.68,27.13-28.33,27.13H-639.23c-15.64,0-28.33-11.49-28.33-27.13v-9.54a28.33,28.33,0,0,1,28.33-28.33H285a28.32,28.32,0,0,1,28.33,28.33Z" transform="translate(702.34 -1987.31)"/><path class="cls-1" d="M1.53,1988.5A55.82,55.82,0,0,1,4,2015.67c-2.47,14.82,9.18.83,9.18.83s-8.23-7.41.82-27.18Z" transform="translate(702.34 -1987.31)"/><path class="cls-1" d="M-502.67,1988.5a55.83,55.83,0,0,1,2.47,27.17c-2.47,14.82,7.41.83,7.41.83s-8.23-7.41.82-27.18Z" transform="translate(702.34 -1987.31)"/><path class="cls-6" d="M313.28,2052.18c0,15.65-12.68,27.13-28.33,27.13H-639.23c-15.64,0-28.33-11.49-28.33-27.13v-9.54a28.33,28.33,0,0,1,28.33-28.33H285a28.32,28.32,0,0,1,28.33,28.33Z" transform="translate(702.34 -1987.31)"/><path class="cls-7" d="M-662.47,2048.11a28,28,0,0,1,28-28h914.5A28,28,0,0,1,302,2030.67a10.23,10.23,0,0,1-8.67,16.54c-125.28-7.53-256-12.37-391.74-13.73C-297.06,2031.48-485.47,2037.14-662.47,2048.11Z" transform="translate(702.34 -1987.31)"/><path class="cls-3" d="M-517.05,1994.12s-107.47-3.49-95.61,1.4,62.81,6.28,74.67,6.28S-487.74,1999-517.05,1994.12Z" transform="translate(702.34 -1987.31)"/><ellipse class="cls-4" cx="178" cy="10.15" rx="17.62" ry="2.3"/><path class="cls-3" d="M-164.71,1996.1s-266-4.94-236.6,2,155.43,8.89,184.79,8.89S-92.18,2003-164.71,1996.1Z" transform="translate(702.34 -1987.31)"/><ellipse class="cls-4" cx="519.61" cy="13.51" rx="43.6" ry="3.25"/><ellipse class="cls-4" cx="983.55" cy="11.79" rx="17.62" ry="3.4"/><path class="cls-3" d="M-388.81,2083.35s-50.71-3.07-82-1.54-38.42,1.54-16.9,5.63,64-.51,78.88,1,21,7.17,24.07,3.58S-381.64,2084.89-388.81,2083.35Z" transform="translate(702.34 -1987.31)"/><ellipse class="cls-4" cx="306.1" cy="97.11" rx="13.06" ry="2.33"/><path class="cls-3" d="M306.78,2002.74s-4.44,3.45,3,7.4,8.38,14,17.26,16.84S327,2001.75,306.78,2002.74Z" transform="translate(702.34 -1987.31)"/><ellipse class="cls-4" cx="997.5" cy="96.27" rx="3.81" ry="2.54"/><path class="cls-1" d="M-380.14,2079.31a36,36,0,0,1,2.47,21.59c-2.47,11.78,9.18.66,9.18.66s-8.23-5.89.82-21.59Z" transform="translate(702.34 -1987.31)"/><path class="cls-1" d="M-49.29,2079.31a36,36,0,0,1,2.47,21.59c-2.47,11.78,9.18.66,9.18.66s-8.23-5.89.82-21.59Z" transform="translate(702.34 -1987.31)"/><path class="cls-1" d="M-662.47,2051.38s-20.49,4.38-29.78-.71-7.66-11.8-7.66-11.8l.44,16S-672.09,2062.33-662.47,2051.38Z" transform="translate(702.34 -1987.31)"/></svg>