<svg id="_ÎÓÈ_1" data-name="—ÎÓÈ_1" xmlns="http://www.w3.org/2000/svg" viewBox="0 0 302.93 381.28"><defs><style>.cls-1{fill:#57056b;}.cls-2{fill:#d14aed;}.cls-14,.cls-3{fill:#ed82f9;}.cls-3{opacity:0.52;}.cls-4{opacity:0.33;}.cls-13,.cls-5,.cls-8{fill:#421554;}.cls-6{fill:#e84df4;}.cls-7{fill:#d183ff;opacity:0.45;}.cls-8{opacity:0.55;}.cls-9{fill:#440254;}.cls-10{fill:#be4aed;opacity:0.5;}.cls-11{fill:#fff;}.cls-12{fill:#ef48a0;}.cls-13{opacity:0.39;}.cls-15{fill:#ff6cc0;}.cls-16{opacity:0.37;}.cls-17{fill:#ffc2e8;}.cls-18{fill:#f8c;opacity:0.78;}</style></defs><title>PurpleGuy</title><path class="cls-1" d="M786.8,239.43c-9.32-8.07-10.19-11.14-10.12-12.09,0-.18.23-.41.64-.68,5.22-3.39,11.18-6.88,17.7-10.38,28.21-8.44,45-27.66,45-51.49,0-35.87-36.75-71.07-74.19-71.07-38.2,0-69.28,28.43-69.28,63.36a58.36,58.36,0,0,0,3.24,19.17,9,9,0,0,0,.73,2.59,36.43,36.43,0,0,0,1.67,3.31,64.88,64.88,0,0,0,24.34,27.11,17.44,17.44,0,0,1,.57,9,40.38,40.38,0,0,1-8.46,1.72,190.91,190.91,0,0,0-35.31.49c-5.62-.64-7.92-1.52-8.8-2a5.61,5.61,0,0,1-2.85-4,32.34,32.34,0,0,0,10-23.23c0-19-17.18-34.46-38.29-34.46S605.59,180.45,605.59,200c0,8.9,3.8,20.3,21.85,24.27a28.35,28.35,0,0,0,10,2.23,11.9,11.9,0,0,1,3.37.49,17,17,0,0,1-3.62,4.78c-24.89,9.79-46,24.87-61,43.65-15.71,19.63-24,42.42-24,65.9,0,32.58,17.39,66.22,47.71,92.29,30.61,26.32,70.71,41.42,110,41.42s76.2-14.76,103.92-41.57c26.23-25.37,41.27-58.95,41.27-92.14C855.09,300.12,829.57,262.07,786.8,239.43Z" transform="translate(-552.16 -93.72)"/><path class="cls-2" d="M784.64,242.61c-8.47-7.29-15.68-15.06-9.4-19.14s12.77-7.76,18.33-10.73c24.17-7.12,42.69-23.76,42.69-47.94,0-32.89-34.22-67.25-70.37-67.25s-65.47,26.66-65.47,59.55a54.58,54.58,0,0,0,3.19,18.38,4.73,4.73,0,0,0,.45,1.84,33.09,33.09,0,0,0,1.56,3.09,61.48,61.48,0,0,0,24,26.27c1.64,3.59,2.21,7.93,1,13.66-.3,1.46-5.11,2.7-11.87,3.54q-7.47-.61-15.15-.61a185.87,185.87,0,0,0-20.26,1.11c-4.65-.51-8.45-1.31-10.6-2.47-3.41-1.84-4.79-5.16-5.13-8.78a29,29,0,0,0,10.27-21.82c0-16.92-15.43-30.64-34.47-30.64s-34,22.41-34,39.33c0,12.18,7.76,18.19,19.2,20.61a24.6,24.6,0,0,0,9,2.07c11,.41,7.56,6.55,1.75,12.34C590,254.13,556,294.54,556,341.3c0,65.2,72.37,129.89,153.92,129.89S851.27,406.5,851.27,341.3C851.27,300,824.77,263.71,784.64,242.61Z" transform="translate(-552.16 -93.72)"/><path class="cls-3" d="M763.21,262.84c-3.9-1.23-51.56-.82-54,23.73s54,27,64.66,36.83,9,63.84,35.19,53.2,18.83-47.47,9-63.84S791.85,271.85,763.21,262.84Z" transform="translate(-552.16 -93.72)"/><g class="cls-4"><path class="cls-5" d="M826.23,302.95c7.75,6,13.91,4.81,18,2.3-6.55-16.33-17.42-31.11-31.55-43.49a11.55,11.55,0,0,1-1.2,1.09C800.86,271,811.5,291.49,826.23,302.95Z" transform="translate(-552.16 -93.72)"/><path class="cls-5" d="M719.74,393.68c-16.46-41-19.55-95.64-83.39-99.73S597.88,351.24,584,323.41c-5.74-11.48-11.34-21.29-15.94-28.85A97.83,97.83,0,0,0,556,341.3c0,65.2,72.37,129.89,153.92,129.89,60.54,0,109.1-35.66,130.11-80.7C802.1,433,731.46,422.91,719.74,393.68Z" transform="translate(-552.16 -93.72)"/></g><path class="cls-6" d="M822.35,418.52c-29.84,25.13-67,41.79-98.43,42.39-42.56.82-94.94-17.19-132.59-58.93-21.17-23.47-30.18-54.19-34-76.58A95.6,95.6,0,0,0,556,341.3c0,65.2,72.37,129.89,153.92,129.89C757.14,471.19,797.1,449.47,822.35,418.52Z" transform="translate(-552.16 -93.72)"/><path class="cls-7" d="M848,316.51c-7.48-28-27.37-52.29-54.84-69.06,3.72,13.33,7.88,34.93.34,47.31C782,313.59,741.93,335.69,709.19,307S593,278.39,585.6,309.49,606.88,355.33,593,393c-2.23,6-6.62,10.87-12.42,14.74,24.68,32.23,65.45,56.93,110.76,62.36-26.16-18.36-76.21-56.29-73.79-76.28,3.27-27,31.1-27,24.55-47.47s39.29-50.74,60.57-36,46.65,42.56,70.39,40.92C794.47,349.76,819.26,306.19,848,316.51Z" transform="translate(-552.16 -93.72)"/><ellipse class="cls-8" cx="73.62" cy="259.48" rx="19.27" ry="42.54"/><ellipse class="cls-9" cx="73.62" cy="259.48" rx="15.64" ry="37.73"/><path class="cls-10" d="M627.13,380.57C619.9,380.57,614,366.44,614,349a69.1,69.1,0,0,1,1.6-15.13,63,63,0,0,0-3.11,20.41c0,17.42,5.86,31.55,13.08,31.55,5,0,9.26-6.64,11.48-16.42C634.7,376.24,631.12,380.57,627.13,380.57Z" transform="translate(-552.16 -93.72)"/><ellipse class="cls-11" cx="77.24" cy="243.65" rx="6.9" ry="10.58"/><ellipse class="cls-11" cx="69.74" cy="286.99" rx="3.16" ry="3.31"/><path class="cls-9" d="M616.49,287.55s9.92-13.22,14.73-10.52S627.91,286.65,616.49,287.55Z" transform="translate(-552.16 -93.72)"/><ellipse class="cls-8" cx="226.27" cy="259.48" rx="19.27" ry="42.54"/><ellipse class="cls-9" cx="226.27" cy="259.48" rx="15.64" ry="37.73"/><path class="cls-10" d="M777.07,380.57c7.22,0,13.08-14.13,13.08-31.55a69.1,69.1,0,0,0-1.6-15.13,63,63,0,0,1,3.11,20.41c0,17.42-5.86,31.55-13.08,31.55-5,0-9.26-6.64-11.48-16.42C769.5,376.24,773.08,380.57,777.07,380.57Z" transform="translate(-552.16 -93.72)"/><ellipse class="cls-11" cx="222.64" cy="243.65" rx="6.9" ry="10.58"/><ellipse class="cls-11" cx="230.14" cy="286.99" rx="3.16" ry="3.31"/><path class="cls-9" d="M787.71,287.55S777.79,274.33,773,277,776.29,286.65,787.71,287.55Z" transform="translate(-552.16 -93.72)"/><path class="cls-8" d="M738.64,374.34c0,14.2-16,37.34-35.75,37.34s-35.75-23.14-35.75-37.34,16-.55,35.75-.55S738.64,360.13,738.64,374.34Z" transform="translate(-552.16 -93.72)"/><path class="cls-9" d="M733.66,376.49c0,12.22-13.77,32.13-30.76,32.13s-30.76-19.91-30.76-32.13,13.77-.47,30.76-.47S733.66,364.27,733.66,376.49Z" transform="translate(-552.16 -93.72)"/><path class="cls-11" d="M727.47,371.08c-5.61.83-14.53,4.94-24.58,4.94s-19-4.1-24.57-4.94c5.07,6.19,14.18,10.33,24.57,10.33S722.4,377.27,727.47,371.08Z" transform="translate(-552.16 -93.72)"/><path class="cls-12" d="M721.8,400.13c-2.68-6.93-10.12-7.34-18.91-7.34s-16.23.41-18.91,7.34c5.22,5,11.78,8.49,18.91,8.49S716.59,405.11,721.8,400.13Z" transform="translate(-552.16 -93.72)"/><path class="cls-1" d="M816.39,245.45c-5.24,1.93-15.45,6.52-5.15,28.31,13.67,28.93,33.69,23.26,42-1.51C859.56,253.23,839.46,236.93,816.39,245.45Z" transform="translate(-552.16 -93.72)"/><path class="cls-2" d="M818.19,247.8c-4.57,1.72-13.4,5.76-4.11,24.5,11.81,23.84,28.62,19.28,36-1.26C856,254.64,838.53,240.16,818.19,247.8Z" transform="translate(-552.16 -93.72)"/><path class="cls-13" d="M814.08,272.3c11,22.24,26.67,19.7,34.72,1.91a12,12,0,0,1-3.06,1.58c-13.75,4.72-21.48-15.44-29.68-23.64a9.84,9.84,0,0,0-2.53-1.89C809.94,253.11,807.41,258.84,814.08,272.3Z" transform="translate(-552.16 -93.72)"/><path class="cls-14" d="M826.53,248.21s-4.59,1.71-.32,5.43c4.47,3.9,11.74,15.86,19.07,11C852.16,260.17,841.85,244.7,826.53,248.21Z" transform="translate(-552.16 -93.72)"/><path class="cls-11" d="M831.18,249.68s-5.72,3.57,2.84,4.43,10.7,5.17,9,1.24C841.49,251.61,838.2,249.07,831.18,249.68Z" transform="translate(-552.16 -93.72)"/><path class="cls-15" d="M825.14,279.89C818,276.4,812.79,267.57,810.51,263a45.18,45.18,0,0,0,3.57,9.3c8.85,17.86,21.2,19.73,30,9.45C840.4,283.17,832.84,283.64,825.14,279.89Z" transform="translate(-552.16 -93.72)"/><path class="cls-1" d="M691.18,414.91s14.5,9.92,25.19.76C716.36,415.68,706.44,435.52,691.18,414.91Z" transform="translate(-552.16 -93.72)"/><g class="cls-16"><path class="cls-5" d="M599.12,257.94c14,8.12,37.24,8.84,44.59.82,9-9.82,1.64-14.73,12.28-24.55,9.93-9.17,14.87-11.2,18.62-11.53a12.27,12.27,0,0,1-1.84-.78c-3.41-1.84-4.79-5.16-5.13-8.78a29,29,0,0,0,10.27-21.82c0-11.61-7.26-21.7-18-26.91,9.37,9.09,15.35,21.49,8.32,29.7-9.82,11.46-27.83,10.64-42.56,5.73-6.76-2.25-11.27-7.09-14.18-11.66A37.07,37.07,0,0,0,609.4,200c0,12.18,7.76,18.19,19.2,20.61a24.6,24.6,0,0,0,9,2.07c11,.41,7.56,6.55,1.75,12.34A152.19,152.19,0,0,0,599.12,257.94Z" transform="translate(-552.16 -93.72)"/><path class="cls-5" d="M753.39,248.93c.51-8.19,13.84-11.9,23.75-13.53-4.24-4.8-6.11-9.2-1.89-11.94,6.26-4.07,12.77-7.76,18.33-10.73,24.17-7.12,42.69-23.76,42.69-47.94,0-.22,0-.44,0-.67-4.33,13.94-14.24,25.76-23.1,26.69-15.55,1.64-17.19-17.19-36-27s-35.19,29.46-63-4.09c-6.93-8.36-9.44-16.51-9.31-24a54.51,54.51,0,0,0-1.19,39.8,4.73,4.73,0,0,0,.45,1.84,33.09,33.09,0,0,0,1.56,3.09,61.48,61.48,0,0,0,24,26.27c1.64,3.59,2.21,7.93,1,13.66-.3,1.46-5.11,2.7-11.87,3.54q-7.47-.61-15.15-.61a185.87,185.87,0,0,0-20.26,1.11l-1.73-.21c-1.09.68-2.65,1.55-4.82,2.66-14.36,7.36-8.55,19.65,23.37,27.84S752.57,262,753.39,248.93Z" transform="translate(-552.16 -93.72)"/></g><path class="cls-14" d="M781.21,104.88s-43.38-9-49.93,18.82,49.93,8.19,59.75,16.37,13.1,19.64,23.74,19.64S830.32,125.34,781.21,104.88Z" transform="translate(-552.16 -93.72)"/><path class="cls-17" d="M713.77,464.1c-.5,3.56-15.82,3.79-34.24.49s-32.94-8.85-32.45-12.41,15.82-3.79,34.24-.5S714.26,460.53,713.77,464.1Z" transform="translate(-552.16 -93.72)"/><path class="cls-17" d="M642.79,447.82c-1,2.25-4.67,2.7-8.12,1s-5.39-4.9-4.35-7.15,4.67-2.7,8.12-1S643.83,445.57,642.79,447.82Z" transform="translate(-552.16 -93.72)"/><path class="cls-18" d="M648.24,408.93c.27,6.49-8,11.76-18.54,11.76s-19.25-5.26-19.51-11.76,8-11.76,18.54-11.76S648,402.43,648.24,408.93Z" transform="translate(-552.16 -93.72)"/><path class="cls-18" d="M796.09,408.93c.27,6.49-8,11.76-18.54,11.76S758.3,415.42,758,408.93s8-11.76,18.54-11.76S795.82,402.43,796.09,408.93Z" transform="translate(-552.16 -93.72)"/><path class="cls-6" d="M609.49,202.19c.89,10.71,8.38,16.14,19.11,18.41a24.6,24.6,0,0,0,9,2.07c.27,0,.5,0,.75.06a77.87,77.87,0,0,1,7.85-1.63c16.37-2.46,27.83-17.19,27.83-17.19s-27.83,14.73-43,13C623,216.05,615.15,208.82,609.49,202.19Z" transform="translate(-552.16 -93.72)"/><path class="cls-11" d="M759.12,255.48S737,253,746.84,263.66s35.19,12.28,45,18.82,16.37,9.82,12.28-.82S777.12,261.21,759.12,255.48Z" transform="translate(-552.16 -93.72)"/><path class="cls-11" d="M815.59,297.22c-2.38-.6-10.64,2.46-2.46,11.46S825.41,321,827,316,822.14,298.85,815.59,297.22Z" transform="translate(-552.16 -93.72)"/><path class="cls-11" d="M774.82,106.61s-24,.92-23.11,7.86,16.18.92,25.42,5.08,17.56,15.71,23.11,11.09S798.85,110.77,774.82,106.61Z" transform="translate(-552.16 -93.72)"/><path class="cls-11" d="M805.79,126s2.77,8.32-.46,9.71,4.16,6,7.86,9.24,8.32,1.39,5.54-5.08S812.26,126,805.79,126Z" transform="translate(-552.16 -93.72)"/><path class="cls-14" d="M633.86,166.23s-12.94,6.47-9.24,12.94,4.16,4.62,20.8,7.4,18.95-7.86,13.4-14.33A22.43,22.43,0,0,0,633.86,166.23Z" transform="translate(-552.16 -93.72)"/><path class="cls-6" d="M703.6,175.47a4.73,4.73,0,0,0,.45,1.84,33.09,33.09,0,0,0,1.56,3.09,61.48,61.48,0,0,0,24,26.27,18.13,18.13,0,0,1,.75,2,104.6,104.6,0,0,0,13.95,6.13c10.49,3.58,26.5,4,39.88,3.2,3.27-1.91,6.45-3.67,9.37-5.22,12.24-3.6,23-9.65,30.69-17.88-7.84,5.17-15.78,10.22-17.54,10.66-3.7.92-41.13,8.32-66.09,1.85-15.92-4.13-30.51-24.6-39-38.9A55.36,55.36,0,0,0,703.6,175.47Z" transform="translate(-552.16 -93.72)"/><path class="cls-11" d="M648.65,163c-1.33.4-18,.46-20.8,6s14.33.46,18.49,1.39S653.27,161.61,648.65,163Z" transform="translate(-552.16 -93.72)"/><path class="cls-11" d="M655.58,167.62s-4.16,5.08-.46,6.47,8.32,6,7.86.92S658.82,166.7,655.58,167.62Z" transform="translate(-552.16 -93.72)"/></svg>