<svg xmlns="http://www.w3.org/2000/svg" xmlns:xlink="http://www.w3.org/1999/xlink" viewBox="0 0 138 138"><defs><style>.cls-1{fill:none;}.cls-2{clip-path:url(#clip-path);}.cls-3{fill:#0a4377;}.cls-4{fill:#2d84e2;}.cls-31,.cls-5{fill:#3badf2;}.cls-6{opacity:0.27;}.cls-7{clip-path:url(#clip-path-3);}.cls-8{fill:#19328e;}.cls-9{clip-path:url(#clip-path-4);}.cls-10{opacity:0.5;}.cls-11{clip-path:url(#clip-path-5);}.cls-12{opacity:0.13;}.cls-13{clip-path:url(#clip-path-6);}.cls-14{fill:#c5ffff;}.cls-15{opacity:0.62;}.cls-16{clip-path:url(#clip-path-7);}.cls-17{clip-path:url(#clip-path-8);}.cls-18{opacity:0.22;}.cls-19{clip-path:url(#clip-path-9);}.cls-20{fill:#0e3b63;}.cls-21{clip-path:url(#clip-path-10);}.cls-22{clip-path:url(#clip-path-11);}.cls-23{clip-path:url(#clip-path-12);}.cls-24{fill:#ef48a0;}.cls-25{fill:#fff;}.cls-26{clip-path:url(#clip-path-13);}.cls-27{clip-path:url(#clip-path-14);}.cls-28{clip-path:url(#clip-path-15);}.cls-29{opacity:0.78;}.cls-30{clip-path:url(#clip-path-16);}.cls-31{opacity:0.43;}.cls-32{clip-path:url(#clip-path-17);}.cls-33{clip-path:url(#clip-path-18);}.cls-34{fill:#85d2f9;opacity:0.21;}.cls-35{fill:#f5ff76;}</style><clipPath id="clip-path"><rect class="cls-1" x="37.19" y="32.45" width="63.62" height="73.1"/></clipPath><clipPath id="clip-path-3"><rect class="cls-1" x="54.48" y="34.88" width="41.71" height="27.71"/></clipPath><clipPath id="clip-path-4"><rect class="cls-1" x="37.91" y="62.5" width="59.42" height="42.29"/></clipPath><clipPath id="clip-path-5"><rect class="cls-1" x="41.98" y="59.67" width="5.93" height="8.82"/></clipPath><clipPath id="clip-path-6"><rect class="cls-1" x="38.32" y="59.27" width="58.38" height="45.51"/></clipPath><clipPath id="clip-path-7"><rect class="cls-1" x="50.47" y="100.49" width="12.51" height="3.53"/></clipPath><clipPath id="clip-path-8"><rect class="cls-1" x="47.28" y="98.53" width="2.44" height="2.05"/></clipPath><clipPath id="clip-path-9"><rect class="cls-1" x="47.89" y="77.14" width="9.66" height="4.26"/></clipPath><clipPath id="clip-path-10"><rect class="cls-1" x="76.95" y="77.14" width="9.66" height="4.26"/></clipPath><clipPath id="clip-path-11"><rect class="cls-1" x="60.99" y="82.49" width="6.27" height="5.1"/></clipPath><clipPath id="clip-path-12"><rect class="cls-1" x="68.76" y="82.73" width="6.27" height="5.1"/></clipPath><clipPath id="clip-path-13"><rect class="cls-1" x="76.93" y="52.67" width="12.25" height="9.38"/></clipPath><clipPath id="clip-path-14"><rect class="cls-1" x="55.97" y="47.91" width="11.08" height="7.16"/></clipPath><clipPath id="clip-path-15"><rect class="cls-1" x="91.31" y="59.79" width="8.73" height="6.02"/></clipPath><clipPath id="clip-path-16"><rect class="cls-1" x="49.34" y="81.46" width="7.14" height="4.72"/></clipPath><clipPath id="clip-path-17"><rect class="cls-1" x="78.04" y="81.29" width="7.14" height="4.72"/></clipPath><clipPath id="clip-path-18"><rect class="cls-1" x="39.2" y="58.19" width="8.05" height="6.33"/></clipPath></defs><title>sprite</title><g id="_ÎÓÈ_2" data-name="—ÎÓÈ_2"><g class="cls-2"><g class="cls-2"><path class="cls-3" d="M90.15,65.6c-3.38-4.37-4.54-6.74-4.5-7.3.41-.77,3.12-2.57,4.59-3.54l.43-.28A11.62,11.62,0,0,0,97,44.12,11.83,11.83,0,0,0,85.35,32.46h-.67c-7.33,0-11.21,4.79-11.21,13.85a8.57,8.57,0,0,0,2.76,6.56,8.66,8.66,0,0,1,1.1,3c-1.48,0-4.84-.37-7.21-.7-.73-.18-1.49-.34-2.25-.49A13.86,13.86,0,0,1,64,51.4c-.22-.38.08-.91.4-1.33a8,8,0,0,0,3.74-3.41,5,5,0,0,0-.09-4.44,6,6,0,0,0-4.69-3.3,14.48,14.48,0,0,0-2.15-.16c-4.1,0-6.48,1.64-6.73,4.61-.34,4.14,1.58,6.92,3.65,7.86.89.58,1.49,1,1.48,1.42a4.91,4.91,0,0,1-1.6,1.21,20.39,20.39,0,0,0-14.3,8.17,32.71,32.71,0,0,0-6.47,17.55C36.72,86.95,38.54,93.3,42.56,98a22.6,22.6,0,0,0,17.28,7.57h.84c12,0,36.9,0,37.34-20.24A26,26,0,0,0,90.15,65.6"/><path class="cls-4" d="M89.63,66.13C88.19,64.26,84.42,59.22,85,58c.48-1,3.35-2.87,5.33-4.18a10.89,10.89,0,0,0,5.92-9.69A11.06,11.06,0,0,0,85.33,33.23c-9.4-.36-11.13,7.06-11.13,13.07a7.71,7.71,0,0,0,2.61,6.07c1,2,1.87,4.23.65,4.23A74.19,74.19,0,0,1,70,55.89q-1.21-.29-2.38-.52c-1.21-.78-3.51-2.37-4.19-3.56A2.1,2.1,0,0,1,64,49.45a7.42,7.42,0,0,0,3.56-3.15c1.23-2.42-.55-6.18-4.24-6.62,0,0-7.66-1.3-8.07,3.76-.3,3.65,1.33,6.26,3.26,7.11,1.17.75,2,1.38,1.86,2.26-.08.56-1.25,1.33-2.09,1.81C47,55.57,39,66.46,38,79.67c-1.28,16.4,9.78,25.11,21.84,25.11s37,.23,37.47-19.5a25.28,25.28,0,0,0-7.68-19.16"/><path class="cls-5" d="M78.21,60.1A23.56,23.56,0,0,0,70.69,59c-4.23.33-7.69,2.54-4.44,6.41,5.87,7,18.26,21,22.83,20s5.87-8.62,3-12.81S88.63,64.85,78.21,60.1"/><g class="cls-6"><g class="cls-7"><path class="cls-8" d="M77.46,56.6c-1.19,0-3.83-.25-6.16-.54a2,2,0,0,1,0,1.58c-.93,2.1,1.5,4.91,3.08,3.7s6-.5,8.78.5,3.83.7,3.83.7l0,0c-1.25-1.88-2.33-3.81-2-4.51.48-1,3.35-2.87,5.33-4.18a10.93,10.93,0,0,0,5.44-6.5c-1.35,2.95-5.56,5.09-8.26,3-3.27-2.5-.84-6.41-5-8.71s-2.62,3.7-4.39.4c-1.43-2.65-.14-6,.42-7.15-3.58,2.48-4.4,7.28-4.4,11.42a7.71,7.71,0,0,0,2.61,6.07c1,2,1.87,4.23.65,4.23"/><path class="cls-8" d="M67.62,55.37c-1.21-.78-3.51-2.37-4.19-3.56A2.1,2.1,0,0,1,64,49.45a7.42,7.42,0,0,0,3.56-3.15A4.36,4.36,0,0,0,67.12,42c.37,1.71.11,4.06-1.19,4.34-1.87.4-3.18-.2-5.14-1.5S57.89,46.53,57,46a6.51,6.51,0,0,1-1.7-2.65v.07c-.3,3.65,1.33,6.26,3.26,7.11,1.17.75,2,1.38,1.86,2.26-.08.56-1.25,1.33-2.09,1.81a18.34,18.34,0,0,0-2.8.46c-.29.69-.63,1.47-1,2.16-.65,1.4,6.64,1.8,8.13.9s5-2.77,5-2.77"/><path class="cls-8" d="M95.84,47.08a10.84,10.84,0,0,0,.36-2c0-1.34-.13-.08-.36,2"/></g></g><g class="cls-6"><g class="cls-9"><path class="cls-8" d="M97.32,85.29c0-.5,0-1,0-1.49-1.94,10.68-13.73,17.67-17.83,11.36-4.58-7.05-7.71-.49-12.58-2.33S63.71,67.83,52,63.23a9.66,9.66,0,0,0-8.64.65A32.46,32.46,0,0,0,38,79.67c-1.28,16.4,9.78,25.11,21.84,25.11s37,.23,37.47-19.5"/></g></g><g class="cls-10"><g class="cls-11"><path class="cls-8" d="M42.29,64.33s-.87,2.37.31,3.74,2.56-.87,3.61-2.31A11.39,11.39,0,0,0,47.9,59.9c-.12-1.31-5.3,3.3-5.61,4.42"/></g></g><path class="cls-5" d="M93.63,95.91c-4.61,3.91-18.43,7.24-26.08,6.77-8.25-.5-16.73-2.27-23.1-9-5.18-5.45-5.28-17.09-5.14-21.23A35.46,35.46,0,0,0,38,79.67c-1.28,16.4,9.78,25.11,21.84,25.11,9.31,0,26.31.13,33.78-8.87"/><g class="cls-12"><g class="cls-13"><path class="cls-14" d="M89.63,66.13l-.17-.22c2.06,4.35,3.4,9.56-2,10-9.07.76-20.86-13.38-25.81-14s-17.28-10.26-12,11.74c2.77,11.6,1.89,23.61-5.77,18.68a21.83,21.83,0,0,1-5.55-5.26c2,11.54,11.32,17.64,21.35,17.71-3.66-2.4-8.94-6.5-7-9,2.95-3.79,5.54-8.33,2.12-17.29s-2.71-16.28,5.54-13.51,18,26.2,20.89,29.93c5.17,6.74,10.7-7.71,12.7-11s-.24-8.71,2.71-5.18l0,0a25.2,25.2,0,0,0-7.07-12.61"/></g></g><g class="cls-15"><g class="cls-16"><path class="cls-14" d="M63,103.45c-.09.72-3,.76-6.42.1s-6.18-1.78-6.08-2.49,3-.76,6.42-.1,6.18,1.78,6.08,2.49"/></g></g><g class="cls-15"><g class="cls-17"><path class="cls-14" d="M49.67,100.18c-.2.45-.88.54-1.52.2s-1-1-.82-1.44.88-.54,1.52-.2,1,1,.82,1.44"/></g></g><g class="cls-18"><g class="cls-19"><path class="cls-14" d="M57.55,81c-.21.13-2.9-3-5.37-1.89a43.09,43.09,0,0,0-4.29,2.27,5.81,5.81,0,0,1,2.58-3.66,3.74,3.74,0,0,1,3.86-.13l2.9,1.89Z"/></g></g><path class="cls-20" d="M52.91,76.13a5.39,5.39,0,0,0-5.55,5.21.66.66,0,1,0,1.3,0,4.29,4.29,0,0,1,8.49,0,.66.66,0,1,0,1.3,0,5.39,5.39,0,0,0-5.55-5.21"/><path class="cls-20" d="M50.42,71s1.69-2.66,2.52-2.11-.56,1.93-2.52,2.11"/><g class="cls-18"><g class="cls-21"><path class="cls-14" d="M77,81c.21.13,2.9-3,5.37-1.89a43.06,43.06,0,0,1,4.29,2.27A5.81,5.81,0,0,0,84,77.74a3.74,3.74,0,0,0-3.86-.13l-2.9,1.89Z"/></g></g><path class="cls-20" d="M81.59,76.13a5.4,5.4,0,0,1,5.55,5.21.66.66,0,1,1-1.3,0,4.29,4.29,0,0,0-8.49,0,.66.66,0,1,1-1.3,0,5.39,5.39,0,0,1,5.55-5.21"/><path class="cls-20" d="M84.08,71s-1.69-2.66-2.52-2.11.56,1.93,2.52,2.11"/><g class="cls-18"><g class="cls-22"><path class="cls-14" d="M67.25,85a3.2,3.2,0,1,1-3.13-2.55A2.89,2.89,0,0,1,67.25,85"/></g></g><g class="cls-18"><g class="cls-23"><path class="cls-14" d="M75,85.28a3.2,3.2,0,1,1-3.13-2.55A2.89,2.89,0,0,1,75,85.28"/></g></g><path class="cls-24" d="M65.57,88.26s1.92,5.23,3.16,4.37,2.13-4.71,2.13-4.71L68.52,85.2Z"/><path class="cls-20" d="M75.23,82.51a.59.59,0,0,0-.87-.08.69.69,0,0,0-.08.93,2.88,2.88,0,0,1,.54,1.78,2.35,2.35,0,0,1-.89,1.56,2.74,2.74,0,0,1-3.05.36,3.68,3.68,0,0,1-2-3.23.63.63,0,0,0-.65-.63h-.14a.63.63,0,0,0-.65.63,3.68,3.68,0,0,1-2,3.23,2.74,2.74,0,0,1-3.05-.36,2.35,2.35,0,0,1-.89-1.55,2.88,2.88,0,0,1,.54-1.8.7.7,0,0,0-.08-.93.59.59,0,0,0-.87.08,4.27,4.27,0,0,0-.83,2.76,3.65,3.65,0,0,0,1.35,2.46,3.87,3.87,0,0,0,2.55,1,4.14,4.14,0,0,0,1.78-.41A4.78,4.78,0,0,0,68.14,86a4.78,4.78,0,0,0,2.24,2.29,4.13,4.13,0,0,0,1.78.41,3.87,3.87,0,0,0,2.55-1,3.65,3.65,0,0,0,1.35-2.46,4.27,4.27,0,0,0-.83-2.76"/><path class="cls-25" d="M79.57,61.95s-3.83-.8-1.87,1.5,6,5.11,7.1,4.3,0-4-5.23-5.81"/><path class="cls-25" d="M86.67,68s-1,.2.19,1.7,3,2.3,3.08,1.5-2-3.1-3.27-3.2"/><g class="cls-10"><g class="cls-26"><path class="cls-8" d="M89.17,54.57a13.55,13.55,0,0,1-11.85-1.63L77,52.67c1,1.93,1.66,3.93.5,3.93h-.53C80.68,58.44,86.67,62,86.67,62l0,0c-1.11-1.72-2-3.39-1.69-4,.39-.84,2.38-2.23,4.18-3.42"/></g></g><g class="cls-10"><g class="cls-27"><path class="cls-8" d="M58.27,54.63c-.45,0-.89.1-1.32.16a5.91,5.91,0,0,0,4-.15c1.39-.5,4.43,0,6.08.35a13.59,13.59,0,0,1-3.62-3.19,1.84,1.84,0,0,1,.29-2,5.51,5.51,0,0,1-3.59-.08A12,12,0,0,1,56,47.91a5.28,5.28,0,0,0,2.53,2.65c1.17.75,2,1.38,1.86,2.26-.08.56-1.25,1.33-2.09,1.81"/></g></g><path class="cls-5" d="M64,49.5l0,0a11.9,11.9,0,0,0,1.09-.6,3.72,3.72,0,0,1-1.41.39c-1.21,0-4.49,0-6.54-1.8a7.73,7.73,0,0,1-1.88-2.19,7.56,7.56,0,0,0,1.27,3.62,13.43,13.43,0,0,0,4.54,1.27A6.38,6.38,0,0,0,64,49.5"/><path class="cls-5" d="M76.8,52.37l.07.14c4.44,3.63,9.8,2.78,12.19,2.14l1.26-.84a10.9,10.9,0,0,0,1.09-.65c1.27-1.26,3.06-3,2-2-1.59,1.5-5,3.2-6.35,2.9a14.83,14.83,0,0,1-8.69-3.6c-3.3-2.69-3.68-7.13-3.68-9.06a23.21,23.21,0,0,0-.48,4.93,7.71,7.71,0,0,0,2.61,6.07"/><path class="cls-5" d="M87,34.42s-4,1.2-3.08,2.7,5,7.21,5.89,8.81,3.74,1.9,4.67.1.09-8.91-7.48-11.61"/><path class="cls-5" d="M64.43,40.73s-5.42-2.3-6.26.8,3.46,1.4,5,2.5,2.8.7,3-.2.09-1.6-1.68-3.1"/><path class="cls-3" d="M100.81,61.5a5,5,0,1,1-5-4.86,5,5,0,0,1,5,4.86"/><path class="cls-4" d="M100.24,61.5a4.47,4.47,0,1,1-4.47-4.31,4.39,4.39,0,0,1,4.47,4.31"/><g class="cls-6"><g class="cls-28"><path class="cls-8" d="M91.31,61.5a4.39,4.39,0,0,0,4.47,4.31,4.45,4.45,0,0,0,4.26-3c-.83.89-2.07,1.78-2.81,1.32-1.2-.73,0-3.39-1.45-4.21S93.72,62.75,92.35,62c-.62-.33-.75-1.26-.7-2.18a4.17,4.17,0,0,0-.34,1.66"/></g></g><path class="cls-5" d="M94,64.49a5.44,5.44,0,0,1-2.66-2.84,4.4,4.4,0,0,0,4.46,4.17,4.55,4.55,0,0,0,2.85-1A8.38,8.38,0,0,1,94,64.49"/><path class="cls-5" d="M97,57.81s-2.9-.27-3.85.82,2.05-.27,3.25.92,1.28,2.65,2.31,2.75,1.71-3.48-1.71-4.48"/><path class="cls-25" d="M97,57.81s-1.71.37-.34.92,2.31,1.56,2.31.92a2.62,2.62,0,0,0-2-1.83"/><g class="cls-29"><g class="cls-30"><path class="cls-31" d="M56.47,83.82c.05,1.3-1.51,2.36-3.48,2.36s-3.61-1.06-3.66-2.36,1.51-2.36,3.48-2.36,3.61,1.06,3.66,2.36"/></g></g><g class="cls-29"><g class="cls-32"><path class="cls-31" d="M85.17,83.65C85.22,85,83.67,86,81.7,86S78.09,85,78,83.65s1.51-2.36,3.48-2.36,3.61,1.06,3.66,2.36"/></g></g><path class="cls-25" d="M89.83,36s-4.16-2-5.49-.71,3.33,1.07,4.82,2.49,2.33,2.67,2.66,2.49,1-2.67-2-4.27"/><path class="cls-25" d="M92.88,40a1.76,1.76,0,0,0,.3,1.6c.6.57,1.07,2.75,1.25,1.72S94,39.72,92.88,40"/><path class="cls-25" d="M62.31,40s-2.26-.45-3.1.57,3.34-.13,4.17.77S64,40,62.31,40"/><path class="cls-25" d="M64.33,41s-.24.45.54,1.09,1.19,1.4.89.45-.36-1-1.43-1.53"/><path class="cls-3" d="M42.72,55.34a4.3,4.3,0,0,0-4,6.08c1.58,4.21,4.9,5.61,8,1.4s.22-7.4-4-7.48"/><path class="cls-4" d="M42.81,56.18a3.57,3.57,0,0,0-3.29,5.06c1.31,3.5,4.08,4.67,6.66,1.17s.18-6.15-3.37-6.22"/><g class="cls-6"><g class="cls-33"><path class="cls-8" d="M47.25,59.69c-.78,1.53-2.6,3.44-3.92,2.62-1.86-1.15-.44-2.75-2.22-3.81a1.34,1.34,0,0,0-1.72,0,3.86,3.86,0,0,0,.12,2.74c1.31,3.5,4.08,4.67,6.66,1.17a4.89,4.89,0,0,0,1.08-2.72"/></g></g><path class="cls-5" d="M43.51,56.73s-2.84.27-1.42,1.6,1.86,2.66,3.1,2,.8-3.19-1.68-3.55"/><path class="cls-25" d="M44.49,57A2.55,2.55,0,0,0,42.31,57c-1,.54,1.79,1.25,2.33,1.71s1.48-.47-.16-1.63"/><path class="cls-5" d="M45.87,62.8l-.13.07a3.8,3.8,0,0,1-4.67-.39,5.1,5.1,0,0,1-1.87-3,4.48,4.48,0,0,0,.31,1.77c1.26,3.36,3.86,4.57,6.35,1.56"/></g></g><path class="cls-34" d="M70.49,39.69s-3.78,25-23.72,29.83c0,0,23.63,4.52,24.18,33.55,0,0,3.71-29,23.74-33.71C94.68,69.36,71.52,67.56,70.49,39.69Z"/><path class="cls-35" d="M61.46,63.25s14,2.2,20.07-5.68c0,0-8,16.82-3,23.08,0,0-11.48-4.29-18.91,4.29C59.61,84.93,66.1,71.48,61.46,63.25Z"/></g></svg>