<svg xmlns="http://www.w3.org/2000/svg" xmlns:xlink="http://www.w3.org/1999/xlink" viewBox="0 0 138 138"><defs><style>.cls-1{fill:none;}.cls-2{clip-path:url(#clip-path);}.cls-3{fill:#0a4377;}.cls-4{fill:#2d84e2;}.cls-31,.cls-5{fill:#3badf2;}.cls-6{opacity:0.27;}.cls-7{clip-path:url(#clip-path-3);}.cls-8{fill:#19328e;}.cls-9{clip-path:url(#clip-path-4);}.cls-10,.cls-34{opacity:0.5;}.cls-11{clip-path:url(#clip-path-5);}.cls-12{opacity:0.13;}.cls-13{clip-path:url(#clip-path-6);}.cls-14,.cls-34{fill:#c5ffff;}.cls-15{opacity:0.62;}.cls-16{clip-path:url(#clip-path-7);}.cls-17{clip-path:url(#clip-path-8);}.cls-18{opacity:0.22;}.cls-19{clip-path:url(#clip-path-9);}.cls-20{fill:#0e3b63;}.cls-21{clip-path:url(#clip-path-10);}.cls-22{clip-path:url(#clip-path-11);}.cls-23{clip-path:url(#clip-path-12);}.cls-24{fill:#ef48a0;}.cls-25{fill:#fff;}.cls-26{clip-path:url(#clip-path-13);}.cls-27{clip-path:url(#clip-path-14);}.cls-28{clip-path:url(#clip-path-15);}.cls-29{opacity:0.78;}.cls-30{clip-path:url(#clip-path-16);}.cls-31{opacity:0.43;}.cls-32{clip-path:url(#clip-path-17);}.cls-33{clip-path:url(#clip-path-18);}.cls-35{opacity:0.37;}</style><clipPath id="clip-path"><rect class="cls-1" x="41.41" y="34.76" width="57.01" height="65.51"/></clipPath><clipPath id="clip-path-3"><rect class="cls-1" x="56.9" y="36.94" width="37.38" height="24.83"/></clipPath><clipPath id="clip-path-4"><rect class="cls-1" x="42.05" y="61.69" width="53.24" height="37.89"/></clipPath><clipPath id="clip-path-5"><rect class="cls-1" x="45.7" y="59.15" width="5.31" height="7.91"/></clipPath><clipPath id="clip-path-6"><rect class="cls-1" x="42.42" y="58.8" width="52.32" height="40.78"/></clipPath><clipPath id="clip-path-7"><rect class="cls-1" x="53.31" y="95.73" width="11.21" height="3.16"/></clipPath><clipPath id="clip-path-8"><rect class="cls-1" x="50.45" y="93.98" width="2.19" height="1.84"/></clipPath><clipPath id="clip-path-9"><rect class="cls-1" x="50.99" y="74.81" width="8.66" height="3.81"/></clipPath><clipPath id="clip-path-10"><rect class="cls-1" x="77.04" y="74.81" width="8.66" height="3.81"/></clipPath><clipPath id="clip-path-11"><rect class="cls-1" x="62.73" y="79.6" width="5.62" height="4.57"/></clipPath><clipPath id="clip-path-12"><rect class="cls-1" x="69.7" y="79.82" width="5.62" height="4.57"/></clipPath><clipPath id="clip-path-13"><rect class="cls-1" x="77.02" y="52.88" width="10.97" height="8.4"/></clipPath><clipPath id="clip-path-14"><rect class="cls-1" x="58.24" y="48.62" width="9.93" height="6.42"/></clipPath><clipPath id="clip-path-15"><rect class="cls-1" x="89.9" y="59.26" width="7.82" height="5.39"/></clipPath><clipPath id="clip-path-16"><rect class="cls-1" x="52.29" y="78.68" width="6.4" height="4.23"/></clipPath><clipPath id="clip-path-17"><rect class="cls-1" x="78.01" y="78.53" width="6.4" height="4.23"/></clipPath><clipPath id="clip-path-18"><rect class="cls-1" x="43.21" y="57.83" width="7.22" height="5.67"/></clipPath></defs><title>sprite</title><g id="_ÎÓÈ_2" data-name="—ÎÓÈ_2"><g class="cls-2"><g class="cls-2"><path class="cls-3" d="M88.87,64.47c-3-3.91-4.07-6-4-6.54.37-.69,2.8-2.3,4.11-3.17l.38-.25A10.42,10.42,0,0,0,95,45.22a10.6,10.6,0,0,0-10.4-10.45H84c-6.57,0-10,4.29-10,12.41a7.68,7.68,0,0,0,2.48,5.88,7.76,7.76,0,0,1,1,2.66c-1.32,0-4.34-.33-6.46-.63-.66-.16-1.33-.31-2-.44a12.42,12.42,0,0,1-3.44-2.9c-.2-.34.07-.82.36-1.19a7.14,7.14,0,0,0,3.36-3.05,4.5,4.5,0,0,0-.08-4,5.35,5.35,0,0,0-4.2-3A13,13,0,0,0,63,40.43c-3.67,0-5.81,1.47-6,4.13-.3,3.71,1.42,6.2,3.27,7,.8.52,1.33.94,1.33,1.27A4.4,4.4,0,0,1,60.11,54,18.27,18.27,0,0,0,47.3,61.29,29.31,29.31,0,0,0,41.5,77c-.52,6.58,1.12,12.27,4.72,16.47a20.25,20.25,0,0,0,15.49,6.78h.75c10.73,0,33.07,0,33.46-18.14a23.3,23.3,0,0,0-7.06-17.66"/><path class="cls-4" d="M88.4,64.94c-1.3-1.67-4.67-6.19-4.15-7.29.43-.92,3-2.57,4.77-3.75a9.76,9.76,0,0,0,5.31-8.68,9.91,9.91,0,0,0-9.79-9.76c-8.43-.32-10,6.32-10,11.71a6.91,6.91,0,0,0,2.34,5.44c.92,1.81,1.68,3.79.58,3.79a66.48,66.48,0,0,1-6.67-.64q-1.09-.26-2.14-.46c-1.08-.7-3.14-2.13-3.76-3.19A1.88,1.88,0,0,1,65.43,50a6.65,6.65,0,0,0,3.19-2.82c1.1-2.17-.49-5.54-3.8-5.93,0,0-6.86-1.16-7.23,3.37-.27,3.27,1.19,5.61,2.92,6.37,1,.67,1.77,1.24,1.67,2-.07.5-1.12,1.19-1.88,1.63-10.07.84-17.23,10.6-18.16,22.44C41,91.77,50.9,99.58,61.71,99.58s33.19.21,33.58-17.47A22.65,22.65,0,0,0,88.4,64.94"/><path class="cls-5" d="M78.17,59.54a21.11,21.11,0,0,0-6.74-.94c-3.79.29-6.89,2.28-4,5.74,5.26,6.26,16.37,18.78,20.46,17.95s5.26-7.72,2.73-11.48-3.13-7-12.47-11.27"/><g class="cls-6"><g class="cls-7"><path class="cls-8" d="M77.49,56.4c-1.07,0-3.43-.23-5.52-.49a1.81,1.81,0,0,1,0,1.42c-.84,1.88,1.34,4.4,2.76,3.32s5.36-.45,7.87.45,3.43.63,3.43.63l0,0c-1.12-1.68-2.09-3.41-1.8-4,.43-.92,3-2.57,4.77-3.75a9.79,9.79,0,0,0,4.88-5.83c-1.21,2.64-5,4.56-7.4,2.72-2.93-2.24-.75-5.74-4.44-7.8s-2.35,3.32-3.94.36C76.85,41,78,38,78.51,36.94c-3.21,2.22-3.94,6.52-3.94,10.23a6.91,6.91,0,0,0,2.34,5.44c.92,1.81,1.68,3.79.58,3.79"/><path class="cls-8" d="M68.68,55.3c-1.08-.7-3.14-2.13-3.76-3.19A1.88,1.88,0,0,1,65.43,50a6.65,6.65,0,0,0,3.19-2.82,3.91,3.91,0,0,0-.4-3.87c.33,1.54.1,3.64-1.07,3.89-1.67.36-2.85-.18-4.61-1.35s-2.6,1.53-3.43,1.08a5.83,5.83,0,0,1-1.53-2.38v.06c-.27,3.27,1.19,5.61,2.92,6.37,1,.67,1.77,1.24,1.67,2-.07.5-1.12,1.19-1.88,1.63a16.44,16.44,0,0,0-2.51.41c-.26.62-.57,1.32-.85,1.93-.59,1.26,5.95,1.61,7.29.81s4.45-2.49,4.45-2.49"/><path class="cls-8" d="M94,47.88a9.71,9.71,0,0,0,.32-1.77c0-1.2-.11-.07-.32,1.77"/></g></g><g class="cls-6"><g class="cls-9"><path class="cls-8" d="M95.29,82.11c0-.45,0-.89,0-1.33C93.54,90.35,83,96.61,79.3,91c-4.1-6.32-6.91-.44-11.27-2.09S65.17,66.46,54.66,62.34a8.65,8.65,0,0,0-7.74.58,29.09,29.09,0,0,0-4.78,14.15C41,91.77,50.9,99.58,61.71,99.58s33.19.21,33.58-17.47"/></g></g><g class="cls-10"><g class="cls-11"><path class="cls-8" d="M46,63.33s-.78,2.12.28,3.35,2.29-.78,3.24-2.07A10.21,10.21,0,0,0,51,59.36c-.11-1.17-4.75,3-5,4"/></g></g><path class="cls-5" d="M92,91.63c-4.13,3.5-16.51,6.48-23.37,6.06-7.39-.45-15-2-20.7-8-4.64-4.88-4.74-15.32-4.61-19a31.77,31.77,0,0,0-1.17,6.44C41,91.77,50.9,99.58,61.71,99.58c8.34,0,23.58.12,30.27-8"/><g class="cls-12"><g class="cls-13"><path class="cls-14" d="M88.4,64.94l-.15-.2c1.84,3.89,3,8.57-1.78,9-8.13.68-18.69-12-23.13-12.56S47.85,52,52.57,71.68c2.48,10.39,1.69,21.15-5.17,16.74a19.56,19.56,0,0,1-5-4.71C44.23,94,52.56,99.51,61.55,99.58c-3.28-2.15-8-5.82-6.24-8.11,2.64-3.39,5-7.47,1.9-15.5s-2.43-14.59,5-12.1S78.33,87.35,80.89,90.69c4.63,6,9.58-6.91,11.38-9.85S92.06,73,94.7,76.2l0,0a22.58,22.58,0,0,0-6.33-11.3"/></g></g><g class="cls-15"><g class="cls-16"><path class="cls-14" d="M64.52,98.38c-.08.64-2.66.68-5.75.09s-5.54-1.59-5.45-2.23,2.66-.68,5.75-.09,5.54,1.59,5.45,2.23"/></g></g><g class="cls-15"><g class="cls-17"><path class="cls-14" d="M52.59,95.45c-.17.4-.79.49-1.36.18s-.91-.88-.73-1.29.79-.49,1.36-.18.91.88.73,1.29"/></g></g><g class="cls-18"><g class="cls-19"><path class="cls-14" d="M59.65,78.29c-.19.11-2.6-2.72-4.81-1.7a38.61,38.61,0,0,0-3.85,2,5.2,5.2,0,0,1,2.31-3.28,3.35,3.35,0,0,1,3.46-.11l2.6,1.7Z"/></g></g><path class="cls-20" d="M55.5,73.9a4.83,4.83,0,0,0-5,4.67.59.59,0,1,0,1.17,0,3.84,3.84,0,0,1,7.61,0,.59.59,0,1,0,1.17,0,4.83,4.83,0,0,0-5-4.67"/><path class="cls-20" d="M53.26,69.33s1.52-2.38,2.25-1.89-.51,1.73-2.25,1.89"/><g class="cls-18"><g class="cls-21"><path class="cls-14" d="M77,78.29c.19.11,2.6-2.72,4.81-1.7a38.58,38.58,0,0,1,3.85,2,5.2,5.2,0,0,0-2.31-3.28,3.35,3.35,0,0,0-3.46-.11l-2.6,1.7Z"/></g></g><path class="cls-20" d="M81.19,73.9a4.83,4.83,0,0,1,5,4.67.59.59,0,1,1-1.17,0,3.84,3.84,0,0,0-7.61,0,.59.59,0,1,1-1.17,0,4.83,4.83,0,0,1,5-4.67"/><path class="cls-20" d="M83.43,69.33S81.91,67,81.17,67.44s.51,1.73,2.25,1.89"/><g class="cls-18"><g class="cls-22"><path class="cls-14" d="M68.35,81.88a2.87,2.87,0,1,1-2.81-2.28,2.59,2.59,0,0,1,2.81,2.28"/></g></g><g class="cls-18"><g class="cls-23"><path class="cls-14" d="M75.32,82.1a2.87,2.87,0,1,1-2.81-2.28,2.59,2.59,0,0,1,2.81,2.28"/></g></g><path class="cls-24" d="M66.84,84.77s1.72,4.69,2.83,3.92,1.91-4.22,1.91-4.22L69.49,82Z"/><path class="cls-20" d="M75.5,79.62a.53.53,0,0,0-.78-.07.62.62,0,0,0-.07.84,2.58,2.58,0,0,1,.49,1.6,2.1,2.1,0,0,1-.8,1.4,2.45,2.45,0,0,1-2.73.32,3.3,3.3,0,0,1-1.82-2.9.57.57,0,0,0-.58-.56h-.12a.56.56,0,0,0-.58.56,3.3,3.3,0,0,1-1.82,2.9,2.45,2.45,0,0,1-2.73-.32,2.11,2.11,0,0,1-.8-1.39,2.58,2.58,0,0,1,.49-1.61.62.62,0,0,0-.07-.83.53.53,0,0,0-.78.07A3.83,3.83,0,0,0,62,82.1a3.27,3.27,0,0,0,1.21,2.21,3.47,3.47,0,0,0,2.28.85,3.71,3.71,0,0,0,1.6-.37,4.28,4.28,0,0,0,2-2.06,4.28,4.28,0,0,0,2,2.06,3.7,3.7,0,0,0,1.6.37A3.47,3.47,0,0,0,75,84.3a3.27,3.27,0,0,0,1.21-2.21,3.83,3.83,0,0,0-.74-2.48"/><path class="cls-25" d="M79.38,61.19s-3.43-.72-1.68,1.35,5.36,4.57,6.36,3.86,0-3.59-4.69-5.2"/><path class="cls-25" d="M85.75,66.58s-.92.18.17,1.53,2.68,2.06,2.76,1.35-1.76-2.78-2.93-2.87"/><g class="cls-10"><g class="cls-26"><path class="cls-8" d="M88,54.58a12.14,12.14,0,0,1-10.62-1.46L77,52.88c.85,1.73,1.49,3.52.45,3.52H77c3.36,1.66,8.73,4.89,8.73,4.89l0,0c-1-1.54-1.78-3-1.52-3.61.35-.75,2.13-2,3.74-3.07"/></g></g><g class="cls-10"><g class="cls-27"><path class="cls-8" d="M60.3,54.64c-.4,0-.8.09-1.19.15a5.3,5.3,0,0,0,3.61-.14c1.25-.45,4,0,5.45.32a12.18,12.18,0,0,1-3.25-2.86,1.65,1.65,0,0,1,.26-1.78A4.93,4.93,0,0,1,62,50.25a10.77,10.77,0,0,1-3.73-1.63A4.73,4.73,0,0,0,60.51,51c1,.67,1.77,1.24,1.67,2-.07.5-1.12,1.19-1.88,1.63"/></g></g><path class="cls-5" d="M65.4,50l0,0a10.66,10.66,0,0,0,1-.54,3.34,3.34,0,0,1-1.27.35c-1.09,0-4,0-5.86-1.61a6.92,6.92,0,0,1-1.69-2,6.77,6.77,0,0,0,1.14,3.25,12,12,0,0,0,4.07,1.13A5.72,5.72,0,0,0,65.4,50"/><path class="cls-5" d="M76.91,52.61l.06.12c4,3.25,8.78,2.49,10.92,1.92L89,53.9a9.77,9.77,0,0,0,1-.58c1.14-1.13,2.75-2.72,1.78-1.81-1.42,1.35-4.44,2.87-5.69,2.6a13.29,13.29,0,0,1-7.79-3.23c-3-2.41-3.3-6.39-3.3-8.12a20.8,20.8,0,0,0-.43,4.42,6.91,6.91,0,0,0,2.34,5.44"/><path class="cls-5" d="M86.08,36.53s-3.6,1.08-2.76,2.42,4.44,6.46,5.28,7.89,3.35,1.7,4.19.09.08-8-6.7-10.41"/><path class="cls-5" d="M65.82,42.18s-4.86-2.06-5.61.72,3.1,1.26,4.44,2.24,2.51.63,2.68-.18.08-1.44-1.51-2.78"/><path class="cls-3" d="M98.42,60.79a4.52,4.52,0,1,1-4.51-4.36,4.44,4.44,0,0,1,4.51,4.36"/><path class="cls-4" d="M97.91,60.79a4,4,0,1,1-4-3.87,3.94,3.94,0,0,1,4,3.87"/><g class="cls-6"><g class="cls-28"><path class="cls-8" d="M89.9,60.79a3.94,3.94,0,0,0,4,3.87A4,4,0,0,0,97.72,62c-.74.8-1.85,1.59-2.52,1.19-1.07-.66,0-3-1.3-3.77s-1.84,2.54-3.06,1.89c-.55-.3-.67-1.13-.63-2a3.73,3.73,0,0,0-.31,1.49"/></g></g><path class="cls-5" d="M92.29,63.47a4.88,4.88,0,0,1-2.38-2.55,3.94,3.94,0,0,0,4,3.73,4.07,4.07,0,0,0,2.55-.89,7.51,7.51,0,0,1-4.16-.3"/><path class="cls-5" d="M95,57.48s-2.6-.25-3.45.74,1.84-.25,2.91.82,1.15,2.38,2.07,2.46,1.53-3.12-1.53-4"/><path class="cls-25" d="M95,57.48s-1.53.33-.31.82,2.07,1.39,2.07.82A2.35,2.35,0,0,0,95,57.48"/><g class="cls-29"><g class="cls-30"><path class="cls-31" d="M58.69,80.79c0,1.17-1.35,2.12-3.12,2.12s-3.23-.95-3.28-2.12,1.35-2.12,3.12-2.12,3.23.95,3.28,2.12"/></g></g><g class="cls-29"><g class="cls-32"><path class="cls-31" d="M84.41,80.64c0,1.17-1.35,2.12-3.12,2.12s-3.23-.95-3.28-2.12,1.35-2.12,3.12-2.12,3.23.95,3.28,2.12"/></g></g><path class="cls-25" d="M88.58,38s-3.72-1.76-4.92-.64,3,1,4.32,2.23S90.07,42,90.37,41.8s.89-2.39-1.79-3.83"/><path class="cls-25" d="M91.32,41.51a1.58,1.58,0,0,0,.27,1.43c.53.51,1,2.46,1.12,1.54s-.37-3.2-1.39-3"/><path class="cls-25" d="M63.91,41.56s-2-.4-2.78.51,3-.11,3.74.69.53-1.2-1-1.2"/><path class="cls-25" d="M65.73,42.42s-.21.4.48,1,1.07,1.26.8.4-.32-.92-1.28-1.37"/><path class="cls-3" d="M46.36,55.27a3.85,3.85,0,0,0-3.54,5.45c1.41,3.77,4.39,5,7.17,1.26s.19-6.63-3.63-6.7"/><path class="cls-4" d="M46.44,56a3.2,3.2,0,0,0-2.95,4.53c1.17,3.14,3.66,4.18,6,1s.16-5.51-3-5.58"/><g class="cls-6"><g class="cls-33"><path class="cls-8" d="M50.42,59.17c-.7,1.37-2.33,3.08-3.51,2.35-1.67-1-.4-2.46-2-3.42a1.2,1.2,0,0,0-1.54,0,3.46,3.46,0,0,0,.11,2.46c1.17,3.14,3.66,4.18,6,1a4.38,4.38,0,0,0,1-2.43"/></g></g><path class="cls-5" d="M47.07,56.51s-2.54.24-1.27,1.43,1.67,2.38,2.78,1.75.71-2.86-1.51-3.18"/><path class="cls-25" d="M48,56.79a2.28,2.28,0,0,0-2-.07c-.91.49,1.6,1.12,2.09,1.53s1.32-.42-.14-1.46"/><path class="cls-5" d="M49.18,62l-.11.06a3.4,3.4,0,0,1-4.18-.35A4.57,4.57,0,0,1,43.21,59a4,4,0,0,0,.28,1.59c1.13,3,3.46,4.09,5.69,1.4"/></g></g><path class="cls-34" d="M68.68,26.42S63.6,60,36.82,66.5c0,0,31.75,6.07,32.48,45.07,0,0,5-38.91,31.89-45.29C101.18,66.29,70.07,63.87,68.68,26.42Z"/><path class="cls-14" d="M93.18,66.54a8.2,8.2,0,0,0,3-8.55c-1.38-6.45-7.16-8.91-11.79-7.56-1.2-4-4.66-8.72-14.56-6.29,0,0-5.32-3.73-9.58-1.07S57,50.8,57,50.8a9.25,9.25,0,0,0-10.91,3.73C42.51,59.94,44,66,48,67c0,0-7.19,4.52-2.13,14.64S60,88.07,60,88.07s8,6.65,17.3-.8c0,0,4.31,4.89,14.11-.8C99.62,81.68,98.34,72.36,93.18,66.54Z"/><g class="cls-35"><path class="cls-8" d="M89.63,65.57a5,5,0,0,0,.65.07A1.26,1.26,0,0,0,89.63,65.57Z"/><path class="cls-8" d="M77.26,87.27s4.31,4.89,14.11-.8c8.25-4.79,7-14.11,1.82-19.93a8.13,8.13,0,0,0,3.19-6.79,5,5,0,0,0-.29,1c-.76,4.65-4.33,5-5.81,4.88.63.2,1.72.84,3.2,2.81,2.47,3.3,2.61,12.09-3.3,15.25S80,84.25,80,84.25c1.92-.41,2.34-3,2.34-3A7.93,7.93,0,0,1,77,83c.14,2.06-4.12,6.46-9.48,4.4S64.08,81,64.08,81a6,6,0,0,0,4.26-1.79C63.53,81,58,78.62,58,78.62A5.74,5.74,0,0,0,61.19,81c-.27,4.26-7.28,7-10.85,2.47s-1.24-10-1.24-10a10.5,10.5,0,0,1,1.79-9.62c-4.3-.59-5.12-5.62-5.24-8.48C42.66,60.5,44.17,66,48,67c0,0-7.19,4.52-2.13,14.64S60,88.07,60,88.07,67.94,94.72,77.26,87.27Z"/></g><path class="cls-31" d="M93.75,56.09a15.12,15.12,0,0,1,2.56,5.12A9.29,9.29,0,0,0,96.16,58c-1.38-6.45-7.16-8.91-11.79-7.56-1.2-4-4.66-8.72-14.56-6.29,0,0-5.32-3.73-9.58-1.07S57,50.8,57,50.8a10,10,0,0,0-5.85-.16l.4.23s-3,1.24-3.85,3.43c0,0,6.87-3,10-.41a3.39,3.39,0,0,0-2.34,2.75s4.81-4,8.79-1.37c0,0-.82-3.57-3.43-3.71,0,0,.41-6.59,5.5-5.91s4.95,5.08,4.95,5.08,0-4.4,4.26-4.67a6.35,6.35,0,0,1,6.59,7.83,4.36,4.36,0,0,0-3.57-.41s4.12.69,4.67,2.88l-.55-2.2S90,51.28,93.75,56.09Z"/><path class="cls-31" d="M67.1,61.86s4.67-5.77,11.54-2.2c0,0-5.5-2.06-8.38,2.2,0,0,4.26,0,5.63,2.75,0,0-7.14-2.88-10.17-.55A6.32,6.32,0,0,1,67.1,61.86Z"/><path class="cls-34" d="M93.59,39.44s-6.8,6.22-8.36,9.92C85.23,49.35,97.47,38.08,93.59,39.44Z"/><path class="cls-34" d="M47.54,50.23S42.45,45.08,42.07,47,47.54,50.23,47.54,50.23Z"/><path class="cls-34" d="M47.88,88.92s-7.12,8.29-5.4,9.13S46.83,91,47.88,88.92Z"/><path class="cls-34" d="M89.95,89.68s5.64,3.09,4.61,3.82S89.95,89.68,89.95,89.68Z"/></g></svg>