<svg xmlns="http://www.w3.org/2000/svg" xmlns:xlink="http://www.w3.org/1999/xlink" viewBox="0 0 138 138"><defs><style>.cls-1{fill:none;}.cls-2{clip-path:url(#clip-path);}.cls-3{fill:#0a4377;}.cls-4{fill:#2d84e2;}.cls-31,.cls-5{fill:#3badf2;}.cls-6{opacity:0.27;}.cls-7{clip-path:url(#clip-path-3);}.cls-34,.cls-8{fill:#19328e;}.cls-9{clip-path:url(#clip-path-4);}.cls-10{opacity:0.5;}.cls-11{clip-path:url(#clip-path-5);}.cls-12{opacity:0.13;}.cls-13{clip-path:url(#clip-path-6);}.cls-14{fill:#c5ffff;}.cls-15{opacity:0.62;}.cls-16{clip-path:url(#clip-path-7);}.cls-17{clip-path:url(#clip-path-8);}.cls-18{opacity:0.22;}.cls-19{clip-path:url(#clip-path-9);}.cls-20{fill:#0e3b63;}.cls-21{clip-path:url(#clip-path-10);}.cls-22{clip-path:url(#clip-path-11);}.cls-23{clip-path:url(#clip-path-12);}.cls-24{fill:#ef48a0;}.cls-25{fill:#fff;}.cls-26{clip-path:url(#clip-path-13);}.cls-27{clip-path:url(#clip-path-14);}.cls-28{clip-path:url(#clip-path-15);}.cls-29{opacity:0.78;}.cls-30{clip-path:url(#clip-path-16);}.cls-31{opacity:0.43;}.cls-32{clip-path:url(#clip-path-17);}.cls-33{clip-path:url(#clip-path-18);}.cls-34{opacity:0.37;}</style><clipPath id="clip-path"><rect class="cls-1" x="65.21" y="64.35" width="8.11" height="9.32"/></clipPath><clipPath id="clip-path-3"><rect class="cls-1" x="67.41" y="64.66" width="5.32" height="3.53"/></clipPath><clipPath id="clip-path-4"><rect class="cls-1" x="65.3" y="68.18" width="7.57" height="5.39"/></clipPath><clipPath id="clip-path-5"><rect class="cls-1" x="65.82" y="67.82" width="0.76" height="1.12"/></clipPath><clipPath id="clip-path-6"><rect class="cls-1" x="65.35" y="67.77" width="7.44" height="5.8"/></clipPath><clipPath id="clip-path-7"><rect class="cls-1" x="66.9" y="73.02" width="1.59" height="0.45"/></clipPath><clipPath id="clip-path-8"><rect class="cls-1" x="66.5" y="72.77" width="0.31" height="0.26"/></clipPath><clipPath id="clip-path-9"><rect class="cls-1" x="66.57" y="70.05" width="1.23" height="0.54"/></clipPath><clipPath id="clip-path-10"><rect class="cls-1" x="70.28" y="70.05" width="1.23" height="0.54"/></clipPath><clipPath id="clip-path-11"><rect class="cls-1" x="68.24" y="70.73" width="0.8" height="0.65"/></clipPath><clipPath id="clip-path-12"><rect class="cls-1" x="69.23" y="70.76" width="0.8" height="0.65"/></clipPath><clipPath id="clip-path-13"><rect class="cls-1" x="70.27" y="66.93" width="1.56" height="1.19"/></clipPath><clipPath id="clip-path-14"><rect class="cls-1" x="67.6" y="66.32" width="1.41" height="0.91"/></clipPath><clipPath id="clip-path-15"><rect class="cls-1" x="72.11" y="67.83" width="1.11" height="0.77"/></clipPath><clipPath id="clip-path-16"><rect class="cls-1" x="66.76" y="70.6" width="0.91" height="0.6"/></clipPath><clipPath id="clip-path-17"><rect class="cls-1" x="70.42" y="70.57" width="0.91" height="0.6"/></clipPath><clipPath id="clip-path-18"><rect class="cls-1" x="65.47" y="67.63" width="1.03" height="0.81"/></clipPath></defs><title>sprite</title><g id="_ÎÓÈ_2" data-name="—ÎÓÈ_2"><g class="cls-2"><g class="cls-2"><path class="cls-3" d="M72,68.57a2.8,2.8,0,0,1-.57-.93,2.89,2.89,0,0,1,.58-.45l.05,0a1.48,1.48,0,0,0,.8-1.32,1.51,1.51,0,0,0-1.48-1.49h-.09c-.93,0-1.43.61-1.43,1.77a1.09,1.09,0,0,0,.35.84,1.1,1.1,0,0,1,.14.38c-.19,0-.62,0-.92-.09l-.29-.06a1.77,1.77,0,0,1-.49-.41s0-.12.05-.17a1,1,0,0,0,.48-.43.64.64,0,0,0,0-.57.76.76,0,0,0-.6-.42,1.85,1.85,0,0,0-.27,0c-.52,0-.83.21-.86.59a1,1,0,0,0,.47,1c.11.07.19.13.19.18a.63.63,0,0,1-.2.15,2.6,2.6,0,0,0-1.82,1,4.17,4.17,0,0,0-.82,2.24,3.13,3.13,0,0,0,.67,2.34,2.88,2.88,0,0,0,2.2,1h.11c1.53,0,4.7,0,4.76-2.58a3.31,3.31,0,0,0-1-2.51"/><path class="cls-4" d="M71.89,68.64c-.18-.24-.66-.88-.59-1a2.74,2.74,0,0,1,.68-.53,1.39,1.39,0,0,0,.75-1.23,1.41,1.41,0,0,0-1.39-1.39c-1.2,0-1.42.9-1.42,1.67a1,1,0,0,0,.33.77c.13.26.24.54.08.54a9.45,9.45,0,0,1-.95-.09l-.3-.07a2,2,0,0,1-.53-.45.27.27,0,0,1,.07-.3,1,1,0,0,0,.45-.4.63.63,0,0,0-.54-.84s-1-.17-1,.48a.87.87,0,0,0,.42.91c.15.1.25.18.24.29s-.16.17-.27.23c-1.43.12-2.45,1.51-2.58,3.19a2.75,2.75,0,0,0,2.78,3.2c1.54,0,4.72,0,4.77-2.48a3.22,3.22,0,0,0-1-2.44"/><path class="cls-5" d="M70.44,67.87a3,3,0,0,0-1-.13c-.54,0-1,.32-.57.82.75.89,2.33,2.67,2.91,2.55s.75-1.1.39-1.63a3.14,3.14,0,0,0-1.77-1.6"/><g class="cls-6"><g class="cls-7"><path class="cls-8" d="M70.34,67.43c-.15,0-.49,0-.78-.07a.26.26,0,0,1,0,.2c-.12.27.19.63.39.47s.76-.06,1.12.06a.93.93,0,0,0,.49.09h0c-.16-.24-.3-.49-.26-.57a2.74,2.74,0,0,1,.68-.53,1.39,1.39,0,0,0,.69-.83c-.17.38-.71.65-1.05.39s-.11-.82-.63-1.11-.33.47-.56.05a1.08,1.08,0,0,1,.05-.91,1.71,1.71,0,0,0-.56,1.46,1,1,0,0,0,.33.77c.13.26.24.54.08.54"/><path class="cls-8" d="M69.09,67.27a2,2,0,0,1-.53-.45.27.27,0,0,1,.07-.3,1,1,0,0,0,.45-.4.56.56,0,0,0-.06-.55c0,.22,0,.52-.15.55a.79.79,0,0,1-.65-.19c-.25-.17-.37.22-.49.15a.83.83,0,0,1-.22-.34h0a.87.87,0,0,0,.42.91c.15.1.25.18.24.29s-.16.17-.27.23l-.36.06-.12.27c-.08.18.85.23,1,.11l.63-.35"/><path class="cls-8" d="M72.68,66.21a1.38,1.38,0,0,0,0-.25c0-.17,0,0,0,.25"/></g></g><g class="cls-6"><g class="cls-9"><path class="cls-8" d="M72.87,71.08c0-.06,0-.13,0-.19-.25,1.36-1.75,2.25-2.27,1.45s-1-.06-1.6-.3-.41-3.19-1.9-3.77a1.23,1.23,0,0,0-1.1.08,4.14,4.14,0,0,0-.68,2,2.75,2.75,0,0,0,2.78,3.2c1.54,0,4.72,0,4.77-2.48"/></g></g><g class="cls-10"><g class="cls-11"><path class="cls-8" d="M65.86,68.41a.54.54,0,0,0,0,.48c.15.17.33-.11.46-.29a1.45,1.45,0,0,0,.21-.75c0-.17-.67.42-.71.56"/></g></g><path class="cls-5" d="M72.4,72.44a6.27,6.27,0,0,1-3.32.86,4.2,4.2,0,0,1-2.94-1.14,4.25,4.25,0,0,1-.66-2.71,4.52,4.52,0,0,0-.17.92,2.75,2.75,0,0,0,2.78,3.2c1.19,0,3.35,0,4.31-1.13"/><g class="cls-12"><g class="cls-13"><path class="cls-14" d="M71.89,68.64l0,0c.26.55.43,1.22-.25,1.28-1.16.1-2.66-1.71-3.29-1.79s-2.2-1.31-1.53,1.5c.35,1.48.24,3-.74,2.38a2.78,2.78,0,0,1-.71-.67,2.68,2.68,0,0,0,2.72,2.26c-.47-.31-1.14-.83-.89-1.15a2,2,0,0,0,.27-2.2c-.44-1.14-.35-2.08.71-1.72s2.3,3.34,2.66,3.81c.66.86,1.36-1,1.62-1.4s0-1.11.35-.66h0a3.21,3.21,0,0,0-.9-1.61"/></g></g><g class="cls-15"><g class="cls-16"><path class="cls-14" d="M68.5,73.4c0,.09-.38.1-.82,0s-.79-.23-.78-.32.38-.1.82,0,.79.23.78.32"/></g></g><g class="cls-15"><g class="cls-17"><path class="cls-14" d="M66.8,73c0,.06-.11.07-.19,0s-.13-.13-.1-.18.11-.07.19,0,.13.13.1.18"/></g></g><g class="cls-18"><g class="cls-19"><path class="cls-14" d="M67.8,70.54s-.37-.39-.68-.24a5.49,5.49,0,0,0-.55.29.74.74,0,0,1,.33-.47.48.48,0,0,1,.49,0l.37.24Z"/></g></g><path class="cls-20" d="M67.21,69.92a.69.69,0,0,0-.71.66.08.08,0,1,0,.17,0,.55.55,0,0,1,1.08,0,.08.08,0,1,0,.17,0,.69.69,0,0,0-.71-.66"/><path class="cls-20" d="M66.9,69.27s.22-.34.32-.27-.07.25-.32.27"/><g class="cls-18"><g class="cls-21"><path class="cls-14" d="M70.28,70.54s.37-.39.68-.24a5.49,5.49,0,0,1,.55.29.74.74,0,0,0-.33-.47.48.48,0,0,0-.49,0l-.37.24Z"/></g></g><path class="cls-20" d="M70.87,69.92a.69.69,0,0,1,.71.66.08.08,0,1,1-.17,0,.55.55,0,0,0-1.08,0,.08.08,0,1,1-.17,0,.69.69,0,0,1,.71-.66"/><path class="cls-20" d="M71.19,69.27s-.22-.34-.32-.27.07.25.32.27"/><g class="cls-18"><g class="cls-22"><path class="cls-14" d="M69,71.05a.41.41,0,1,1-.4-.32.37.37,0,0,1,.4.32"/></g></g><g class="cls-18"><g class="cls-23"><path class="cls-14" d="M70,71.08a.41.41,0,1,1-.4-.32.37.37,0,0,1,.4.32"/></g></g><path class="cls-24" d="M68.83,71.46s.24.67.4.56.27-.6.27-.6l-.3-.35Z"/><path class="cls-20" d="M70.06,70.73a.08.08,0,0,0-.11,0,.09.09,0,0,0,0,.12.37.37,0,0,1,.07.23.3.3,0,0,1-.11.2.35.35,0,0,1-.39,0,.47.47,0,0,1-.26-.41.08.08,0,0,0-.08-.08h0a.08.08,0,0,0-.08.08.47.47,0,0,1-.26.41.35.35,0,0,1-.39,0,.3.3,0,0,1-.11-.2.37.37,0,0,1,.07-.23.09.09,0,0,0,0-.12.08.08,0,0,0-.11,0,.54.54,0,0,0-.11.35.46.46,0,0,0,.17.31.49.49,0,0,0,.32.12.53.53,0,0,0,.23-.05.61.61,0,0,0,.29-.29.61.61,0,0,0,.29.29.53.53,0,0,0,.23.05A.49.49,0,0,0,70,71.4a.46.46,0,0,0,.17-.31.54.54,0,0,0-.11-.35"/><path class="cls-25" d="M70.61,68.11s-.49-.1-.24.19.76.65.91.55,0-.51-.67-.74"/><path class="cls-25" d="M71.52,68.87s-.13,0,0,.22.38.29.39.19-.25-.4-.42-.41"/><g class="cls-10"><g class="cls-26"><path class="cls-8" d="M71.83,67.17A1.73,1.73,0,0,1,70.33,67l0,0c.12.25.21.5.06.5h-.07c.48.24,1.24.7,1.24.7h0c-.14-.22-.25-.43-.22-.51a2,2,0,0,1,.53-.44"/></g></g><g class="cls-10"><g class="cls-27"><path class="cls-8" d="M67.9,67.18l-.17,0a.75.75,0,0,0,.51,0,1.94,1.94,0,0,1,.77,0,1.73,1.73,0,0,1-.46-.41.23.23,0,0,1,0-.25.7.7,0,0,1-.46,0,1.53,1.53,0,0,1-.53-.23.67.67,0,0,0,.32.34c.15.1.25.18.24.29s-.16.17-.27.23"/></g></g><path class="cls-5" d="M68.62,66.52h0l.14-.08a.47.47,0,0,1-.18,0,1.3,1.3,0,0,1-.83-.23,1,1,0,0,1-.24-.28,1,1,0,0,0,.16.46,1.71,1.71,0,0,0,.58.16.81.81,0,0,0,.37-.08"/><path class="cls-5" d="M70.26,66.89v0a1.74,1.74,0,0,0,1.55.27l.16-.11.14-.08.25-.26a1.35,1.35,0,0,1-.81.37,1.89,1.89,0,0,1-1.11-.46A1.5,1.5,0,0,1,70,65.49a3,3,0,0,0-.06.63,1,1,0,0,0,.33.77"/><path class="cls-5" d="M71.56,64.6s-.51.15-.39.34.63.92.75,1.12a.35.35,0,0,0,.6,0,1.3,1.3,0,0,0-1-1.48"/><path class="cls-5" d="M68.68,65.4s-.69-.29-.8.1.44.18.63.32.36.09.38,0,0-.2-.21-.4"/><path class="cls-3" d="M73.32,68.05a.64.64,0,1,1-.64-.62.63.63,0,0,1,.64.62"/><path class="cls-4" d="M73.25,68.05a.57.57,0,1,1-.57-.55.56.56,0,0,1,.57.55"/><g class="cls-6"><g class="cls-28"><path class="cls-8" d="M72.11,68.05a.56.56,0,0,0,.57.55.57.57,0,0,0,.54-.38c-.11.11-.26.23-.36.17s0-.43-.19-.54-.26.36-.44.27-.1-.16-.09-.28a.53.53,0,0,0,0,.21"/></g></g><path class="cls-5" d="M72.45,68.43a.69.69,0,0,1-.34-.36.56.56,0,0,0,.57.53.58.58,0,0,0,.36-.13,1.07,1.07,0,0,1-.59,0"/><path class="cls-5" d="M72.83,67.58s-.37,0-.49.1.26,0,.41.12.16.34.29.35.22-.44-.22-.57"/><path class="cls-25" d="M72.83,67.58s-.22,0,0,.12.29.2.29.12a.33.33,0,0,0-.25-.23"/><g class="cls-29"><g class="cls-30"><path class="cls-31" d="M67.67,70.9c0,.17-.19.3-.44.3s-.46-.13-.47-.3.19-.3.44-.3.46.13.47.3"/></g></g><g class="cls-29"><g class="cls-32"><path class="cls-31" d="M71.33,70.87c0,.17-.19.3-.44.3s-.46-.13-.47-.3.19-.3.44-.3.46.13.47.3"/></g></g><path class="cls-25" d="M71.92,64.81s-.53-.25-.7-.09.42.14.61.32.3.34.34.32.13-.34-.25-.54"/><path class="cls-25" d="M72.31,65.31a.22.22,0,0,0,0,.2c.08.07.14.35.16.22s-.05-.46-.2-.42"/><path class="cls-25" d="M68.41,65.32s-.29-.06-.39.07.43,0,.53.1.08-.17-.14-.17"/><path class="cls-25" d="M68.67,65.44s0,.06.07.14.15.18.11.06,0-.13-.18-.2"/><path class="cls-3" d="M65.92,67.27a.55.55,0,0,0-.5.77c.2.54.62.71,1,.18s0-.94-.52-1"/><path class="cls-4" d="M65.93,67.37a.46.46,0,0,0-.42.64c.17.45.52.59.85.15s0-.78-.43-.79"/><g class="cls-6"><g class="cls-33"><path class="cls-8" d="M66.49,67.82c-.1.19-.33.44-.5.33s-.06-.35-.28-.49a.17.17,0,0,0-.22,0,.49.49,0,0,0,0,.35c.17.45.52.59.85.15a.62.62,0,0,0,.14-.35"/></g></g><path class="cls-5" d="M66,67.44s-.36,0-.18.2.24.34.4.25.1-.41-.21-.45"/><path class="cls-25" d="M66.14,67.48a.32.32,0,0,0-.28,0c-.13.07.23.16.3.22s.19-.06,0-.21"/><path class="cls-5" d="M66.32,68.22h0a.48.48,0,0,1-.6,0,.65.65,0,0,1-.24-.38.57.57,0,0,0,0,.23c.16.43.49.58.81.2"/></g></g><path class="cls-14" d="M74,38.94c-.33-2.11-3.55-1.76-5.16-1.22a4.24,4.24,0,0,0-2-1.5s-2.43-2.29-5.58.57c0,0-6.29-2.14-8.58,2.43,0,0-4.57.43-4.15,4.29s5.58,1.57,5.58,1.57S53,49.52,56.56,49.95a5.94,5.94,0,0,0,5.81-3.43,3.92,3.92,0,0,0,4.05-.86,5.4,5.4,0,0,0,1.6-3l.41,0C70.86,42.65,74.43,41.65,74,38.94Z"/><path class="cls-14" d="M49,48.76s-2,1.83-.61,3.2,3.65,2.13,5.33.15C53.67,52.11,48.8,52.42,49,48.76Z"/><path class="cls-14" d="M103.45,55.84c-.58-2.48-2-4.24-3.51-4.09h0a4.41,4.41,0,0,0-1.45-3.51c-2.34-2.19-3.8-1.9-4.38-2.92,0,0-2.34-3.65-5.11-1.61s1.71,5.69,3.27,6.11a7.2,7.2,0,0,0-.93,4.55,5.72,5.72,0,0,0,2.16,4.23,3,3,0,0,0,.76,3.66c2.19,1.9,3.36.44,3.36.44s1.46,4.67,4.09,3.36c2-1,2.22-5,1.13-7.42A3.12,3.12,0,0,0,103.45,55.84Z"/><path class="cls-14" d="M96.59,66.21s3.51,4.24,6.28,1.31c0,0-.58,4.68-3.94,5.41S94.83,70,94.83,70,98.78,72.2,96.59,66.21Z"/><path class="cls-14" d="M52.83,85.2c0-2.29-1.3-3.35-2.45-3.49a2.6,2.6,0,0,0-.89-2.9,5.21,5.21,0,0,0-3.81-.91c.56-.24,1.11-.81.61-2.14-.77-2-3.1-5.54-5.23-3.81-1.88-.47-4.54-.34-6.11,3.23-1.36,3.1.31,4.59,2.22,5.3-.91,1.23-1.5,3.27-.19,6.47,1.45,3.54,3.92,3,5.84,1.86A3.64,3.64,0,0,0,45,91.74c2.47.87,5.67,1.31,6.11-2a10.13,10.13,0,0,0,.09-1.12A3.63,3.63,0,0,0,52.83,85.2Z"/><path class="cls-14" d="M47.79,61.8s-2,.06-1,.91,2.4,1.17,2.6,1S49.67,62.12,47.79,61.8Z"/><path class="cls-14" d="M41.65,67.73s-2-.25-2.54,1.3L39,70.14s1.8-.87,2.3-.12a1.59,1.59,0,0,1,2-.56,2.91,2.91,0,0,1,1.24,2.23S45.68,67.66,41.65,67.73Z"/><path class="cls-14" d="M86.08,91.67c0-3.18-3.55-3.37-4.35-2.08a2.31,2.31,0,0,0-.21.43A2.06,2.06,0,0,0,79.46,90c-1.3.65-2.35,1.49-2.47,2.32a3.59,3.59,0,0,0-1.7-.48,2,2,0,0,0-2,1.43,3.44,3.44,0,0,0-4,.84,3.25,3.25,0,0,0-.8,2.1A3.34,3.34,0,0,0,65,97.79c-1.1,2.33,1.84,4.47,6.19,3.92A8.36,8.36,0,0,0,73,101.3c-.11.59.22,1.1,1.55,1.28,3.5.46,6.19-1.28,6.27-3.07a2.36,2.36,0,0,0,.84,0c2-.34,4.73-3.53,3.7-5.2A4.2,4.2,0,0,0,86.08,91.67Z"/><path class="cls-14" d="M85,88.24s2.94-.06,2.45,1.72-.74,1.84-.74,1.84a2.51,2.51,0,0,0,2-1.53c.55-1.41.06-2.7-1.84-3.31,0,0,1,1,.31,1.16S85.83,87.81,85,88.24Z"/><path class="cls-14" d="M97.16,81.48s1.36,1.95.19,3.44-3.51-.65-3.51-.65-.19,3.12,1.17,4.42,4.87-2.14,4.29-5.2S97.16,81.48,97.16,81.48Z"/><path class="cls-14" d="M63.25,54.07s-1.69,1.1-.65,1.82,1.23-.84,1.75-1.36S64.1,53.55,63.25,54.07Z"/><path class="cls-31" d="M74,38.94c-.33-2.11-3.55-1.76-5.16-1.22a4.24,4.24,0,0,0-2-1.5s-2.43-2.29-5.58.57c0,0-6.29-2.14-8.58,2.43,0,0-4.57.43-4.15,4.29a2.73,2.73,0,0,0,.46,1.3l.09,0S51,41,53.59,41.49a5.82,5.82,0,0,1,3.47,1.74s-.92-4.39,2.15-4.6S63.1,40,63.1,40s.82-3.68,2.66-3.06a3,3,0,0,1,2,2.35S73,37.3,74,39.75A2.53,2.53,0,0,0,74,38.94Z"/><path class="cls-34" d="M47.86,84.64c2.91,1.66,2.49,7.06-.93,5.5s-3-4.05-3-4.05c-1.56,1.56-5.61.21-4.88-2.91s2.7-1.77,2.7-1.77c-.62-.62-.73-4.05-.73-4.05s-1.14,1.87-3.95-.31c-1.73-1.35-.77-3.36.22-4.71a5.79,5.79,0,0,0-2.32,2.83c-1.36,3.1.31,4.59,2.22,5.3-.91,1.23-1.5,3.27-.19,6.47,1.45,3.54,3.92,3,5.84,1.86A3.64,3.64,0,0,0,45,91.74c2.47.87,5.67,1.31,6.11-2a10.13,10.13,0,0,0,.09-1.12,2.86,2.86,0,0,0,.78-.66C52.26,85.18,47.86,84.64,47.86,84.64Z"/><path class="cls-31" d="M103.45,55.84c-.58-2.48-2-4.24-3.51-4.09h0a4.41,4.41,0,0,0-1.45-3.51c-2.34-2.19-3.8-1.9-4.38-2.92,0,0-2.34-3.65-5.11-1.61-1.52,1.12-.81,2.76.39,4.07.15-1.41.67-3.08,2.35-2,2.71,1.67,2.71,3.76,2.71,3.76s1.67-1.57,3.44.63a3.21,3.21,0,0,1,0,4.18s3.65-1.46,4.59,1.88-2.82,4.28-2.82,4.28,4.07,3.27,1.12,5.84a2,2,0,0,0,.92-.23c2-1,2.22-5,1.13-7.42A3.12,3.12,0,0,0,103.45,55.84Z"/><path class="cls-34" d="M84.14,88.94c1.5,2.73,1.07,6.88-.6,7.91-2.15,1.33-4.31-.82-4.31-.82s1.13,2.46-2.46,3.49A3.85,3.85,0,0,1,72,97.26s.1,2.26-3.69,1.74c-2.11-.28-2.41-1.39-2.26-2.32a2.61,2.61,0,0,0-1,1.11c-1.1,2.33,1.84,4.47,6.19,3.92A8.36,8.36,0,0,0,73,101.3c-.11.59.22,1.1,1.55,1.28,3.5.46,6.19-1.28,6.27-3.07a2.36,2.36,0,0,0,.84,0c2-.34,4.73-3.53,3.7-5.2a4.2,4.2,0,0,0,.71-2.64A2.6,2.6,0,0,0,84.14,88.94Z"/><path class="cls-14" d="M49.44,93s3.44-1,3-2.91a2,2,0,0,0,1.68-2s1.59,2.38,0,4.24A3.29,3.29,0,0,1,49.44,93Z"/><path class="cls-14" d="M75.18,36.64s3,2.38.48,5.08c0,0,2.7.48,3.81-.79S78.51,36.16,75.18,36.64Z"/></g></svg>