<svg xmlns="http://www.w3.org/2000/svg" viewBox="0 0 138 138"><defs><style>.cls-1{fill:#19328e;opacity:0.37;}</style></defs><title>sprite</title><g id="_ÎÓÈ_2" data-name="—ÎÓÈ_2"><path class="cls-1" d="M63.94,37.44s-3.6-2.35-5.25-.55-1.11.55-2.9,1.11-6.22,3.6-4,4.84,5-.69,5-.69-.69,3.73,2.63,3.6,4.7-5.25,4.7-5.25S65.46,43,66.43,42,68,38,63.94,37.44Z"/><path class="cls-1" d="M46.6,78.69a2.06,2.06,0,0,0,.06-1.56c-.74-2.11-3.72-5.54-6.32-4.23-1.22-.54-3.33-1.09-4.47.91-1,1.72.07,2.95,1.09,3.67a4.85,4.85,0,0,0-.68,4.08A7.36,7.36,0,0,0,41,86.26c.49,1.42,1.5,3.11,3.46,2.34,2.28-.89,2-2.85,1.51-4,.58.49,1.46.63,2.09-1.55A3.68,3.68,0,0,0,46.6,78.69Z"/><path class="cls-1" d="M83.72,93.86a2.75,2.75,0,0,0-4.14.51c-.41-.78-1.24-1.41-2.91-.79-1.89.71-2.16,1.68-1.85,2.47-1.9-.26-4.92-.29-5.48,2-.71,2.86,2.47,2.13,3.8,1.69.06.8.56,1.74,2.42,2a3.37,3.37,0,0,0,3.79-2.23c1.08.23,2.84.32,3.4-1.36A3.52,3.52,0,0,0,83,96.52C84,96.14,85.35,95.3,83.72,93.86Z"/><path class="cls-1" d="M96,48.36s-2.35-1.38-3,0a2.33,2.33,0,0,0,0,2.35,3.47,3.47,0,0,0-.69,3.46c.69,2.07,2.63.41,2.63.41l-.83-.69s-1.66,5,1.38,6.22,3.6-1.94,3.6-1.94-1.94.14-1.52.55.14,4.43,2.49,4.84,2.9-3.18,1.8-4.7-1,1.24-1,1.24,1.66-.28,1.66-2.77-1.11-3.6-1.94-3.46-.55,1.66-.55,1.66,1.52-2.63.41-4.42-2.21-.55-2.21-.55A3.9,3.9,0,0,0,96,48.36Z"/><path class="cls-1" d="M90.77,44.49s-2.49.14-1.52,1.66,1.24,1.38,2.07,1S91.6,44.91,90.77,44.49Z"/><path class="cls-1" d="M99.34,69.24s-1.94-1.11-1.94-.14,1.52,3.6,2.07,3.18S100.31,69.8,99.34,69.24Z"/><path class="cls-1" d="M97.68,85.42s-2.35,1.38-1.8,2.35S98.1,87.08,97.68,85.42Z"/><path class="cls-1" d="M49.28,87.63s-2.63.14-2.21,2.21a1.67,1.67,0,0,0,2.63,1.24c.55-.28-1.24-1.66-.14-1.94S50.67,87.77,49.28,87.63Z"/><path class="cls-1" d="M50.53,83.62s-.69.42.14,1.24,0,1,.83.83.69.83.83-.14S50.8,82.66,50.53,83.62Z"/><path class="cls-1" d="M55.64,45.6a1.05,1.05,0,0,0-.83,1.11c0,1,.55,1.24,1.52.83S56.75,45.18,55.64,45.6Z"/><path class="cls-1" d="M48.59,49.74,47.21,51.4S48.45,52.23,48.59,49.74Z"/><path class="cls-1" d="M77.63,38.13s-2.21-.83-1.52.41,2.19,2.95,3.1,2.58S79.84,38.41,77.63,38.13Z"/><path class="cls-1" d="M70.86,38.82s-2.9-.14-2.77.42a1.77,1.77,0,0,0,1.52,1.38C70.44,40.62,72.65,39.51,70.86,38.82Z"/><path class="cls-1" d="M67.26,96.9s-3.46.55-2.9,2.35,2.35,2.07,2.49.83S68.5,98.14,67.26,96.9Z"/><path class="cls-1" d="M54.4,90.81s-1.52,1.66-.55,2.49,1.8.69,1.94.28S54,91.64,54.4,90.81Z"/></g></svg>