<svg xmlns="http://www.w3.org/2000/svg" xmlns:xlink="http://www.w3.org/1999/xlink" viewBox="0 0 138 138"><defs><style>.cls-1{fill:none;}.cls-2{clip-path:url(#clip-path);}.cls-3{fill:#0a4377;}.cls-4{fill:#2d84e2;}.cls-31,.cls-5{fill:#3badf2;}.cls-6{opacity:0.27;}.cls-7{clip-path:url(#clip-path-3);}.cls-35,.cls-8{fill:#19328e;}.cls-9{clip-path:url(#clip-path-4);}.cls-10,.cls-36{opacity:0.5;}.cls-11{clip-path:url(#clip-path-5);}.cls-12{opacity:0.13;}.cls-13{clip-path:url(#clip-path-6);}.cls-14,.cls-36{fill:#c5ffff;}.cls-15{opacity:0.62;}.cls-16{clip-path:url(#clip-path-7);}.cls-17{clip-path:url(#clip-path-8);}.cls-18{opacity:0.22;}.cls-19{clip-path:url(#clip-path-9);}.cls-20{fill:#0e3b63;}.cls-21{clip-path:url(#clip-path-10);}.cls-22{clip-path:url(#clip-path-11);}.cls-23{clip-path:url(#clip-path-12);}.cls-24{fill:#ef48a0;}.cls-25{fill:#fff;}.cls-26{clip-path:url(#clip-path-13);}.cls-27{clip-path:url(#clip-path-14);}.cls-28{clip-path:url(#clip-path-15);}.cls-29{opacity:0.78;}.cls-30{clip-path:url(#clip-path-16);}.cls-31{opacity:0.43;}.cls-32{clip-path:url(#clip-path-17);}.cls-33{clip-path:url(#clip-path-18);}.cls-34{opacity:0.62;}.cls-35{opacity:0.37;}</style><clipPath id="clip-path"><rect class="cls-1" x="52.5" y="50.52" width="32.44" height="37.27"/></clipPath><clipPath id="clip-path-3"><rect class="cls-1" x="61.32" y="51.76" width="21.27" height="14.13"/></clipPath><clipPath id="clip-path-4"><rect class="cls-1" x="52.86" y="65.85" width="30.3" height="21.56"/></clipPath><clipPath id="clip-path-5"><rect class="cls-1" x="54.94" y="64.4" width="3.02" height="4.5"/></clipPath><clipPath id="clip-path-6"><rect class="cls-1" x="53.07" y="64.2" width="29.77" height="23.21"/></clipPath><clipPath id="clip-path-7"><rect class="cls-1" x="59.27" y="85.22" width="6.38" height="1.8"/></clipPath><clipPath id="clip-path-8"><rect class="cls-1" x="57.64" y="84.22" width="1.25" height="1.05"/></clipPath><clipPath id="clip-path-9"><rect class="cls-1" x="57.95" y="73.31" width="4.93" height="2.17"/></clipPath><clipPath id="clip-path-10"><rect class="cls-1" x="72.77" y="73.31" width="4.93" height="2.17"/></clipPath><clipPath id="clip-path-11"><rect class="cls-1" x="64.63" y="76.04" width="3.2" height="2.6"/></clipPath><clipPath id="clip-path-12"><rect class="cls-1" x="68.6" y="76.16" width="3.2" height="2.6"/></clipPath><clipPath id="clip-path-13"><rect class="cls-1" x="72.76" y="60.84" width="6.24" height="4.78"/></clipPath><clipPath id="clip-path-14"><rect class="cls-1" x="62.08" y="58.41" width="5.65" height="3.65"/></clipPath><clipPath id="clip-path-15"><rect class="cls-1" x="80.09" y="64.47" width="4.45" height="3.07"/></clipPath><clipPath id="clip-path-16"><rect class="cls-1" x="58.69" y="75.51" width="3.64" height="2.41"/></clipPath><clipPath id="clip-path-17"><rect class="cls-1" x="73.33" y="75.43" width="3.64" height="2.41"/></clipPath><clipPath id="clip-path-18"><rect class="cls-1" x="53.52" y="63.65" width="4.11" height="3.23"/></clipPath></defs><title>sprite</title><g id="_ÎÓÈ_2" data-name="—ÎÓÈ_2"><g class="cls-2"><g class="cls-2"><path class="cls-3" d="M79.5,67.43c-1.72-2.23-2.31-3.44-2.29-3.72a11.55,11.55,0,0,1,2.34-1.81l.22-.14A5.93,5.93,0,0,0,83,56.48a6,6,0,0,0-5.92-5.95h-.34C73,50.52,71,53,71,57.59a4.37,4.37,0,0,0,1.41,3.35A4.42,4.42,0,0,1,73,62.45c-.75,0-2.47-.19-3.68-.36l-1.15-.25a7.06,7.06,0,0,1-2-1.65c-.11-.19,0-.46.2-.68a4.06,4.06,0,0,0,1.91-1.74,2.56,2.56,0,0,0,0-2.27,3,3,0,0,0-2.39-1.68,7.38,7.38,0,0,0-1.1-.08c-2.09,0-3.31.83-3.43,2.35a3.88,3.88,0,0,0,1.86,4c.46.3.76.53.76.73a2.5,2.5,0,0,1-.81.62,10.39,10.39,0,0,0-7.29,4.17,16.68,16.68,0,0,0-3.3,9,12.53,12.53,0,0,0,2.69,9.37,11.52,11.52,0,0,0,8.81,3.86h.43c6.11,0,18.82,0,19-10.32a13.26,13.26,0,0,0-4-10"/><path class="cls-4" d="M79.24,67.7c-.74-1-2.66-3.52-2.36-4.15a11,11,0,0,1,2.72-2.13,5.55,5.55,0,0,0,3-4.94A5.64,5.64,0,0,0,77,50.92c-4.79-.18-5.68,3.6-5.68,6.67a3.93,3.93,0,0,0,1.33,3.09c.52,1,1,2.16.33,2.16a37.83,37.83,0,0,1-3.8-.36q-.62-.15-1.22-.26a8,8,0,0,1-2.14-1.82,1.07,1.07,0,0,1,.29-1.2A3.79,3.79,0,0,0,68,57.59a2.5,2.5,0,0,0-2.16-3.37s-3.91-.66-4.11,1.92a3.5,3.5,0,0,0,1.66,3.63c.59.38,1,.7.95,1.15,0,.29-.64.68-1.07.92-5.73.48-9.81,6-10.33,12.77-.66,8.36,5,12.81,11.14,12.81s18.89.12,19.11-9.94a12.89,12.89,0,0,0-3.92-9.77"/><path class="cls-5" d="M73.42,64.62a12,12,0,0,0-3.84-.54c-2.16.17-3.92,1.3-2.26,3.27C70.31,70.92,76.63,78,79,77.57s3-4.39,1.55-6.53-1.78-4-7.1-6.41"/><g class="cls-6"><g class="cls-7"><path class="cls-8" d="M73,62.84c-.61,0-2-.13-3.14-.28a1,1,0,0,1,0,.81c-.48,1.07.76,2.5,1.57,1.89s3-.26,4.48.26a3.74,3.74,0,0,0,2,.36l0,0c-.64-1-1.19-1.94-1-2.3a11,11,0,0,1,2.72-2.13,5.57,5.57,0,0,0,2.78-3.32c-.69,1.5-2.84,2.6-4.21,1.55-1.67-1.28-.43-3.27-2.53-4.44s-1.33,1.89-2.24.2a4.33,4.33,0,0,1,.22-3.64c-1.82,1.26-2.24,3.71-2.24,5.82a3.93,3.93,0,0,0,1.33,3.09c.52,1,1,2.16.33,2.16"/><path class="cls-8" d="M68,62.21a8,8,0,0,1-2.14-1.82,1.07,1.07,0,0,1,.29-1.2A3.78,3.78,0,0,0,68,57.59a2.22,2.22,0,0,0-.22-2.2c.19.87.05,2.07-.61,2.21a3.17,3.17,0,0,1-2.62-.77c-1-.66-1.48.87-2,.61a3.32,3.32,0,0,1-.87-1.35v0a3.5,3.5,0,0,0,1.66,3.63c.59.38,1,.7.95,1.15,0,.29-.64.68-1.07.92a9.35,9.35,0,0,0-1.43.23c-.15.35-.32.75-.48,1.1-.33.71,3.38.92,4.15.46S68,62.21,68,62.21"/><path class="cls-8" d="M82.4,58a5.53,5.53,0,0,0,.18-1c0-.68-.06,0-.18,1"/></g></g><g class="cls-6"><g class="cls-9"><path class="cls-8" d="M83.16,77.47c0-.26,0-.51,0-.76-1,5.44-7,9-9.09,5.79-2.34-3.6-3.93-.25-6.41-1.19S66,68.56,60,66.22a4.92,4.92,0,0,0-4.41.33,16.55,16.55,0,0,0-2.72,8.05c-.66,8.36,5,12.81,11.14,12.81s18.89.12,19.11-9.94"/></g></g><g class="cls-10"><g class="cls-11"><path class="cls-8" d="M55.1,66.78a2.17,2.17,0,0,0,.16,1.91c.6.7,1.3-.44,1.84-1.18a5.81,5.81,0,0,0,.86-3c-.06-.67-2.7,1.68-2.86,2.26"/></g></g><path class="cls-5" d="M81.28,82.88c-2.35,2-9.4,3.69-13.3,3.45-4.21-.26-8.53-1.16-11.78-4.57C53.56,79,53.51,73,53.58,70.94a18.08,18.08,0,0,0-.67,3.66c-.66,8.36,5,12.81,11.14,12.81,4.75,0,13.42.07,17.23-4.52"/><g class="cls-12"><g class="cls-13"><path class="cls-14" d="M79.24,67.7l-.09-.11c1,2.22,1.73,4.88-1,5.1-4.63.39-10.64-6.82-13.16-7.14s-8.81-5.23-6.13,6c1.41,5.91,1,12-2.94,9.53a11.13,11.13,0,0,1-2.83-2.68,10.71,10.71,0,0,0,10.89,9c-1.87-1.23-4.56-3.31-3.55-4.61,1.5-1.93,2.82-4.25,1.08-8.82s-1.38-8.3,2.82-6.89S73.51,80.45,75,82.35c2.64,3.43,5.45-3.93,6.48-5.61s-.12-4.44,1.38-2.64l0,0a12.85,12.85,0,0,0-3.6-6.43"/></g></g><g class="cls-15"><g class="cls-16"><path class="cls-14" d="M65.65,86.73c0,.36-1.51.39-3.27.05s-3.15-.91-3.1-1.27,1.51-.39,3.27-.05,3.15.91,3.1,1.27"/></g></g><g class="cls-15"><g class="cls-17"><path class="cls-14" d="M58.86,85.06c-.1.23-.45.28-.78.1s-.52-.5-.42-.73.45-.28.78-.1.52.5.42.73"/></g></g><g class="cls-18"><g class="cls-19"><path class="cls-14" d="M62.88,75.29c-.11.06-1.48-1.54-2.74-1A22,22,0,0,0,58,75.48a3,3,0,0,1,1.31-1.87,1.91,1.91,0,0,1,2-.06l1.48,1Z"/></g></g><path class="cls-20" d="M60.52,72.8a2.75,2.75,0,0,0-2.83,2.66.34.34,0,1,0,.66,0,2.19,2.19,0,0,1,4.33,0,.34.34,0,1,0,.66,0,2.75,2.75,0,0,0-2.83-2.66"/><path class="cls-20" d="M59.24,70.2s.86-1.35,1.28-1.08-.29,1-1.28,1.08"/><g class="cls-18"><g class="cls-21"><path class="cls-14" d="M72.77,75.29c.11.06,1.48-1.54,2.74-1a22,22,0,0,1,2.19,1.16,3,3,0,0,0-1.31-1.87,1.91,1.91,0,0,0-2-.06l-1.48,1Z"/></g></g><path class="cls-20" d="M75.14,72.8A2.75,2.75,0,0,1,78,75.45a.34.34,0,1,1-.66,0,2.19,2.19,0,0,0-4.33,0,.34.34,0,1,1-.66,0,2.75,2.75,0,0,1,2.83-2.66"/><path class="cls-20" d="M76.41,70.2s-.86-1.35-1.28-1.08.29,1,1.28,1.08"/><g class="cls-18"><g class="cls-22"><path class="cls-14" d="M67.83,77.34a1.63,1.63,0,1,1-1.6-1.3,1.47,1.47,0,0,1,1.6,1.3"/></g></g><g class="cls-18"><g class="cls-23"><path class="cls-14" d="M71.79,77.46a1.63,1.63,0,1,1-1.6-1.3,1.47,1.47,0,0,1,1.6,1.3"/></g></g><path class="cls-24" d="M67,79s1,2.67,1.61,2.23,1.09-2.4,1.09-2.4l-1.19-1.39Z"/><path class="cls-20" d="M71.9,76.05a.3.3,0,0,0-.44,0,.35.35,0,0,0,0,.48,1.47,1.47,0,0,1,.28.91,1.2,1.2,0,0,1-.46.79,1.39,1.39,0,0,1-1.56.18,1.88,1.88,0,0,1-1-1.65.32.32,0,0,0-.33-.32h-.07a.32.32,0,0,0-.33.32,1.88,1.88,0,0,1-1,1.65,1.4,1.4,0,0,1-1.56-.18,1.2,1.2,0,0,1-.45-.79,1.47,1.47,0,0,1,.28-.92.35.35,0,0,0,0-.47.3.3,0,0,0-.44,0,2.18,2.18,0,0,0-.42,1.41,1.86,1.86,0,0,0,.69,1.25,2,2,0,0,0,1.3.49,2.11,2.11,0,0,0,.91-.21,2.44,2.44,0,0,0,1.14-1.17A2.44,2.44,0,0,0,69.42,79a2.11,2.11,0,0,0,.91.21,2,2,0,0,0,1.3-.49,1.86,1.86,0,0,0,.69-1.25,2.18,2.18,0,0,0-.42-1.41"/><path class="cls-25" d="M74.11,65.57s-2-.41-1,.77,3,2.6,3.62,2.19,0-2-2.67-3"/><path class="cls-25" d="M77.73,68.63s-.52.1.1.87,1.52,1.17,1.57.77-1-1.58-1.67-1.63"/><g class="cls-10"><g class="cls-26"><path class="cls-8" d="M79,61.8A6.91,6.91,0,0,1,73,61l-.19-.14c.49,1,.85,2,.25,2h-.27c1.91.95,5,2.78,5,2.78h0c-.57-.88-1-1.73-.86-2.06A7.87,7.87,0,0,1,79,61.8"/></g></g><g class="cls-10"><g class="cls-27"><path class="cls-8" d="M63.25,61.83l-.68.08a3,3,0,0,0,2.05-.08,7.76,7.76,0,0,1,3.1.18,6.93,6.93,0,0,1-1.85-1.63.94.94,0,0,1,.15-1,2.81,2.81,0,0,1-1.83,0,6.13,6.13,0,0,1-2.12-.93,2.69,2.69,0,0,0,1.29,1.35c.59.38,1,.7.95,1.15,0,.29-.64.68-1.07.92"/></g></g><path class="cls-5" d="M66.15,59.22l0,0a6.07,6.07,0,0,0,.56-.31,1.9,1.9,0,0,1-.72.2,5.21,5.21,0,0,1-3.34-.92,3.94,3.94,0,0,1-1-1.11,3.85,3.85,0,0,0,.65,1.85,6.85,6.85,0,0,0,2.31.65,3.25,3.25,0,0,0,1.48-.33"/><path class="cls-5" d="M72.7,60.68l0,.07a7,7,0,0,0,6.22,1.09l.64-.43a5.56,5.56,0,0,0,.55-.33c.65-.64,1.56-1.55,1-1-.81.77-2.53,1.63-3.24,1.48a7.56,7.56,0,0,1-4.43-1.84,6,6,0,0,1-1.88-4.62,11.84,11.84,0,0,0-.25,2.51,3.93,3.93,0,0,0,1.33,3.09"/><path class="cls-5" d="M77.92,51.53s-2,.61-1.57,1.38,2.53,3.67,3,4.49a1.42,1.42,0,0,0,2.38.05c.48-.92,0-4.54-3.81-5.92"/><path class="cls-5" d="M66.39,54.74s-2.76-1.17-3.19.41,1.76.71,2.53,1.28,1.43.36,1.52-.1,0-.82-.86-1.58"/><path class="cls-3" d="M84.94,65.33a2.57,2.57,0,1,1-2.57-2.48,2.53,2.53,0,0,1,2.57,2.48"/><path class="cls-4" d="M84.65,65.33a2.28,2.28,0,1,1-2.28-2.2,2.24,2.24,0,0,1,2.28,2.2"/><g class="cls-6"><g class="cls-28"><path class="cls-8" d="M80.09,65.33a2.24,2.24,0,0,0,2.28,2.2A2.27,2.27,0,0,0,84.54,66c-.42.45-1.05.91-1.43.67-.61-.37,0-1.73-.74-2.15s-1,1.45-1.74,1.07c-.32-.17-.38-.64-.36-1.11a2.12,2.12,0,0,0-.18.85"/></g></g><path class="cls-5" d="M81.45,66.86a2.77,2.77,0,0,1-1.36-1.45,2.24,2.24,0,0,0,2.27,2.12,2.32,2.32,0,0,0,1.45-.5,4.27,4.27,0,0,1-2.37-.17"/><path class="cls-5" d="M83,63.45s-1.48-.14-2,.42,1-.14,1.66.47.65,1.35,1.18,1.4S84.72,64,83,63.45"/><path class="cls-25" d="M83,63.45s-.87.19-.17.47,1.18.79,1.18.47a1.33,1.33,0,0,0-1-.93"/><g class="cls-29"><g class="cls-30"><path class="cls-31" d="M62.33,76.72c0,.67-.77,1.2-1.77,1.2s-1.84-.54-1.87-1.2.77-1.2,1.77-1.2,1.84.54,1.87,1.2"/></g></g><g class="cls-29"><g class="cls-32"><path class="cls-31" d="M77,76.63c0,.67-.77,1.2-1.77,1.2s-1.84-.54-1.87-1.2.77-1.2,1.77-1.2,1.84.54,1.87,1.2"/></g></g><path class="cls-25" d="M79.34,52.35s-2.12-1-2.8-.36,1.7.54,2.46,1.27,1.19,1.36,1.36,1.27.51-1.36-1-2.18"/><path class="cls-25" d="M80.9,54.36a.9.9,0,0,0,.15.81c.3.29.55,1.4.64.88s-.21-1.82-.79-1.69"/><path class="cls-25" d="M65.31,54.4s-1.15-.23-1.58.29,1.7-.07,2.13.39.3-.68-.55-.68"/><path class="cls-25" d="M66.34,54.88s-.12.23.27.55.61.72.46.23-.18-.52-.73-.78"/><path class="cls-3" d="M55.32,62.2a2.19,2.19,0,0,0-2,3.1c.8,2.15,2.5,2.86,4.08.72s.11-3.77-2.06-3.81"/><path class="cls-4" d="M55.36,62.63a1.82,1.82,0,0,0-1.68,2.58c.67,1.78,2.08,2.38,3.39.59s.09-3.14-1.72-3.17"/><g class="cls-6"><g class="cls-33"><path class="cls-8" d="M57.63,64.41c-.4.78-1.32,1.75-2,1.34-.95-.59-.23-1.4-1.13-1.94a.68.68,0,0,0-.88,0,2,2,0,0,0,.06,1.4c.67,1.78,2.08,2.38,3.39.59a2.49,2.49,0,0,0,.55-1.38"/></g></g><path class="cls-5" d="M55.72,62.9s-1.45.14-.72.81.95,1.36,1.58,1,.41-1.63-.86-1.81"/><path class="cls-25" d="M56.22,63.06a1.3,1.3,0,0,0-1.11,0c-.52.28.91.63,1.19.87s.75-.24-.08-.83"/><path class="cls-5" d="M56.92,66l-.06,0a1.94,1.94,0,0,1-2.38-.2,2.6,2.6,0,0,1-1-1.54,2.28,2.28,0,0,0,.16.9c.64,1.71,2,2.33,3.24.79"/></g></g><path class="cls-14" d="M77.39,34.88a4.91,4.91,0,0,0-3.51.57c-2.39-2.35-8.65-3.13-12.57.81a10.37,10.37,0,0,0-4.41-.34c-3.28.53-8.4,4.2-8.14,7.88,0,0-6.43,1.71-6.83,6.3s5.51,5,5.51,5-2.76,3.28.39,5.91c2.45,2,5.69.27,7.07-2.84.84.58,2.28.94,4.75.35l.29-.08a4.6,4.6,0,0,1,1,1.53,23.59,23.59,0,0,0,2.23,4.73s-1.83-6.13.72-5.89,3,3,3,3-1.31-8.27.79-7.35,1.84,4.73,1.84,4.73a41.37,41.37,0,0,1,2.79-6,6.32,6.32,0,0,0,5.56-3.69,9.66,9.66,0,0,0,1.22-5.91C83.88,40.5,81.19,35.57,77.39,34.88Z"/><path class="cls-14" d="M63.81,74.5s-2.57,4.09-5.19,3.57,0-2.76,0-2.76S55.07,76,54.94,74s6.69-3,6.69-3a57.24,57.24,0,0,0-6.56,0c-2.21,0-3.45-.45-4.14-1.1a6.74,6.74,0,0,0,.2-.87c.62-4-1-6.76-3.2-5.62-.3-.56-2-3.32-5.33-.95a4.68,4.68,0,0,0-2,2.89,2.65,2.65,0,0,0-2.71-.39c-2.4,1-5.05,9.1-1.6,12.62h0a12.47,12.47,0,0,0-1.56,2.74c-3,7.09,2.5,12.12,6.54,12.18a4.54,4.54,0,0,0,1.47,3.05c2.48,2.22,7.66,1.32,8.38-1.51a2.32,2.32,0,0,0,3.17.73,5.23,5.23,0,0,0,2.06-6.66,4.76,4.76,0,0,0,2.8-2.8A5.11,5.11,0,0,0,59.31,81,44.36,44.36,0,0,0,63.81,74.5Z"/><path class="cls-14" d="M42.6,55.35s-.53-1.84-2.63-.92-3.41,7-2.1,7.88,4.33-1.57,4.33-1.57-2.89,0-1.44-2.23,2.63-.39,2.63-.39A13.36,13.36,0,0,0,42.6,55.35Z"/><path class="cls-31" d="M81.19,41.39c1.48-2.81-.82-6-3.8-6.52a4.91,4.91,0,0,0-3.51.57c-2.39-2.35-8.65-3.13-12.57.81a10.37,10.37,0,0,0-4.41-.34c-3.28.53-8.4,4.2-8.14,7.88,0,0-6.43,1.71-6.83,6.3A4.38,4.38,0,0,0,42,51.5c.54-1,3.49-5.7,8.56-5.46,0,0-2.76,2.1-2.63,4.86,0,0,3.41-5.51,8.8-5.51a16,16,0,0,0-4.59-.66S51,39.47,56.12,38.29s5.78.66,5.78.66a6.3,6.3,0,0,0-2.23,2s4.33-2.36,8.53-.66A14.47,14.47,0,0,0,64,38.55s.66-3,4.46-3a5.86,5.86,0,0,1,5.25,3.15s0-2.63,3.28-2.49S82.51,38,81.33,41Z"/><g class="cls-34"><path class="cls-35" d="M54.12,53.51a1,1,0,0,0-.11-.13A.57.57,0,0,0,54.12,53.51Z"/><path class="cls-36" d="M77.86,49.47a13.2,13.2,0,0,0,.77-1.82A4.73,4.73,0,0,1,75.84,50c-3.23.83-4.73-1-4.73-1a3.89,3.89,0,0,1-3.45,2.63A3.62,3.62,0,0,1,64.14,49s.52,3.75-4.5,4.73c-4,.78-5.2.07-5.52-.24.29.43.91,1.91-1.83,4.59a5,5,0,0,1-5.72,1.15A4.13,4.13,0,0,0,47.85,61c2.45,2,5.69.27,7.07-2.84.84.58,2.28.94,4.75.35l.29-.08a4.6,4.6,0,0,1,1,1.53,23.59,23.59,0,0,0,2.23,4.73s-1.83-6.13.72-5.89,3,3,3,3-1.31-8.27.79-7.35,1.84,4.73,1.84,4.73a41.37,41.37,0,0,1,2.79-6A6.32,6.32,0,0,0,77.86,49.47Z"/></g><path class="cls-36" d="M58.62,78.06c-2.63-.53,0-2.76,0-2.76S55.07,76,54.94,74s6.69-3,6.69-3a57.24,57.24,0,0,0-6.56,0c-2.21,0-3.45-.45-4.14-1.1v0a2.63,2.63,0,0,1-.67,1.07,4.19,4.19,0,0,1,2.37,4c-.06,3-.59,3.44-.59,3.44a3.06,3.06,0,0,1,3.2-.47c1.9.77.36,3.5.36,3.5s1.66-1,3.32,1.72a3.52,3.52,0,0,1,.5,1.5A5,5,0,0,0,59.31,81a44.36,44.36,0,0,0,4.5-6.51S61.24,78.59,58.62,78.06Z"/><path class="cls-35" d="M58.31,86.64c-2.75.73-4.3-.06-3.44.49,1.26.8,2.4,5.26.11,5.94s-2.29-2.74-2.29-2.74c-1.14,2.06-3.43.46-3.43.46.46,2.29-.49,2.78-3.69,2.1A3,3,0,0,1,43,89.3l-2.29.11c-3.79.17-6-3.93-6.8-6-.51,5.39,4,9,7.37,9a4.54,4.54,0,0,0,1.47,3.05c2.48,2.22,7.66,1.32,8.38-1.51a2.32,2.32,0,0,0,3.17.73,5.23,5.23,0,0,0,2.06-6.66A4,4,0,0,0,58.31,86.64Z"/><path class="cls-31" d="M48,64.49s0-.45-.07-1.1h0c-.3-.56-2-3.32-5.33-.95a4.68,4.68,0,0,0-2,2.89,2.65,2.65,0,0,0-2.71-.39c-1.9.8-3.94,6-3,9.88,0-2.42.45-7.91,3.67-7.47a3.48,3.48,0,0,1,3.32,4.23s.91-2.4,2.63-2.52c0,0-3.09-2.86-.69-5A2.71,2.71,0,0,1,48,64.49Z"/><path class="cls-36" d="M59.61,61.25s-3.57-.74-5.42,1.36-.12,5.55,1.6,6a3.48,3.48,0,0,1,1.73-4.07S55.42,62,59.61,61.25Z"/><path class="cls-14" d="M99.48,60.37c1.27-1.51,2.27-4.51-1-8.82-2.49-3.32-5.15-4-7-4a8,8,0,0,0-5.77-5.35S83,40.78,81.46,44.59s2,7.88,2,7.88S78.31,51.68,78.7,56a8.92,8.92,0,0,0,1,3.41,7.34,7.34,0,0,1-.69,3.65,15.12,15.12,0,0,1-4.53,4.77s4.61-1.56,5.43-.41a3,3,0,0,1-1.15,4.12s5.43-.08,4.12,2.39-7.74.25-7.74.25a21.34,21.34,0,0,0,8.15,2.22,9.18,9.18,0,0,0,4.07-.61,3.85,3.85,0,0,0,1.55.08,3.19,3.19,0,0,0,.78,2.32c2.1,2.49,10.9-1.71,11.55-10.24A11,11,0,0,0,99.48,60.37Z"/><path class="cls-36" d="M101.28,68a14.74,14.74,0,0,0-.06-2.91c.12,7.27-5.28,10.43-8.43,9.88s-2.72-3-2.72-3c-.82.82-3.21,1.15-4.61-1.65s.41-5.93.41-5.93-3.13-1.73-4.12-3a3.85,3.85,0,0,1-.33-3.21c-1.75-1.62-1.32-4.15-1-5.27A2.85,2.85,0,0,0,78.7,56a8.92,8.92,0,0,0,1,3.41,7.34,7.34,0,0,1-.69,3.65,15.12,15.12,0,0,1-4.53,4.77s4.61-1.56,5.43-.41a3,3,0,0,1-1.15,4.12s5.43-.08,4.12,2.39-7.74.25-7.74.25a21.34,21.34,0,0,0,8.15,2.22,9.18,9.18,0,0,0,4.07-.61,3.85,3.85,0,0,0,1.55.08,3.19,3.19,0,0,0,.78,2.32C91.83,80.69,100.62,76.49,101.28,68Z"/><path class="cls-31" d="M40.12,80.11s.9-5.1,5-5c0,0-3.46,1.65-3.54,4.28,0,0,2.3-2.88,4.2-1.23A6,6,0,0,0,40.12,83,7.49,7.49,0,0,1,40.12,80.11Z"/><path class="cls-31" d="M99.48,60.37c1.27-1.51,2.27-4.51-1-8.82-2.49-3.32-5.15-4-7-4a8,8,0,0,0-5.77-5.35S83,40.78,81.46,44.59a5.19,5.19,0,0,0-.3,1l0,2a7.45,7.45,0,0,0,.16.78c.35-1.39,1.3-3.71,3.85-3.59,3.62.16,5.1,4.69,5.1,4.69a3.86,3.86,0,0,0-3.46-.16s4,.82,4.44,3a3.74,3.74,0,0,0-.49-2.22,4.87,4.87,0,0,1,5.43.91c2.72,2.39,4.2,6,3.46,7.9s-3.13-1.81-3.13-1.81.58,4,2.3,6.17c.8,1,1.61,1.22,2.24.62A9.42,9.42,0,0,0,99.48,60.37Z"/><path class="cls-31" d="M93.37,58.38a4.24,4.24,0,0,0-5-2.3C84.81,57.07,85.8,59,85.8,59S88.84,55,93.37,58.38Z"/><path class="cls-14" d="M92.64,80.51a9,9,0,0,0-2,2.86c0-1.17-.48-2.25-2.32-2.09a7.5,7.5,0,0,0-4,2c-.34-.37-.71-.75-1.11-1.13L83.17,82a3.28,3.28,0,0,0-1.71-1.4A51,51,0,0,0,73,75.22c1.43.88,2.86,5.72,1.21,5.94s-2.53-3-2.53-3,.44,6.16-.66,6.71-4-5.72-4-5.72a50.22,50.22,0,0,0,.66,6.16c.44,2.46-1.5,4.63-2.3,5.41a7.1,7.1,0,0,0-1.88.53s-8.25,1-6.38,7c1.18,3.82,5.55,4.13,8.81,3.07,1,1.45,3.3,2.91,7.92,3.09a10.07,10.07,0,0,0,10.24-8.11c1.95.33,5.75.6,7.59-1.8a5,5,0,0,0,1.09-2.5c1.33-.61,3.89-2.47,5.62-8C100.89,76.43,95.39,77.75,92.64,80.51Z"/><path class="cls-35" d="M98.76,79.36c-.39,2.14-1.58,5.29-3.83,6.64a6.93,6.93,0,0,1-6,.84s2.18,1.85-.5,5.87-8.9-.5-8.9-.5c1.18,3.53-1.18,6.55-5.71,6.55s-6.71-4.2-6.71-4.2.5,4.36-4.53,4c-4-.27-3.12-4.49-2.59-6.18-1.93,1-3.72,2.76-2.74,5.92,1.18,3.82,5.55,4.13,8.81,3.07,1,1.45,3.3,2.91,7.92,3.09a10.07,10.07,0,0,0,10.24-8.11c1.95.33,5.75.6,7.59-1.8a5,5,0,0,0,1.09-2.5c1.33-.61,3.89-2.47,5.62-8C99.22,81.76,99.21,80.25,98.76,79.36Z"/><path class="cls-36" d="M62.07,82.1s-.79,2.3.79,2.85S65,83,65,83s2.06,3.33,0,4.76S59,85.67,62.07,82.1Z"/><path class="cls-36" d="M80.63,86.86l-.14-.14Z"/><path class="cls-36" d="M81.58,80.91l.27-.1a3.3,3.3,0,0,0-.39-.17A51,51,0,0,0,73,75.22c1.43.88,2.86,5.72,1.21,5.94s-2.53-3-2.53-3,.44,6.16-.66,6.71-4-5.72-4-5.72a50.22,50.22,0,0,0,.66,6.16,5.78,5.78,0,0,1-1.45,4.46,6.07,6.07,0,0,1,5.27-.73s1.19-3.65,4.6-3.57c2.72.06,3.92.88,4.3,1.21C79.78,86,76.77,82.61,81.58,80.91Z"/><path class="cls-14" d="M102.18,71.71s0,3.14-1.52,3.9l-1.52.76s2.38.22,2.82,1.62a3.67,3.67,0,0,1-.54,2.82s2.49-.76,2.71-5.2S102.18,71.71,102.18,71.71Z"/></g></svg>