<svg xmlns="http://www.w3.org/2000/svg" xmlns:xlink="http://www.w3.org/1999/xlink" viewBox="0 0 138 138"><defs><style>.cls-1{fill:none;}.cls-2{clip-path:url(#clip-path);}.cls-3{fill:#0a4377;}.cls-4{fill:#2d84e2;}.cls-31,.cls-5{fill:#3badf2;}.cls-6{opacity:0.27;}.cls-7{clip-path:url(#clip-path-3);}.cls-35,.cls-8{fill:#19328e;}.cls-9{clip-path:url(#clip-path-4);}.cls-10,.cls-34{opacity:0.5;}.cls-11{clip-path:url(#clip-path-5);}.cls-12{opacity:0.13;}.cls-13{clip-path:url(#clip-path-6);}.cls-14,.cls-34{fill:#c5ffff;}.cls-15{opacity:0.62;}.cls-16{clip-path:url(#clip-path-7);}.cls-17{clip-path:url(#clip-path-8);}.cls-18{opacity:0.22;}.cls-19{clip-path:url(#clip-path-9);}.cls-20{fill:#0e3b63;}.cls-21{clip-path:url(#clip-path-10);}.cls-22{clip-path:url(#clip-path-11);}.cls-23{clip-path:url(#clip-path-12);}.cls-24{fill:#ef48a0;}.cls-25{fill:#fff;}.cls-26{clip-path:url(#clip-path-13);}.cls-27{clip-path:url(#clip-path-14);}.cls-28{clip-path:url(#clip-path-15);}.cls-29{opacity:0.78;}.cls-30{clip-path:url(#clip-path-16);}.cls-31{opacity:0.43;}.cls-32{clip-path:url(#clip-path-17);}.cls-33{clip-path:url(#clip-path-18);}.cls-35{opacity:0.37;}</style><clipPath id="clip-path"><rect class="cls-1" x="60.81" y="59.72" width="16.24" height="18.66"/></clipPath><clipPath id="clip-path-3"><rect class="cls-1" x="65.23" y="60.34" width="10.65" height="7.07"/></clipPath><clipPath id="clip-path-4"><rect class="cls-1" x="61" y="67.39" width="15.16" height="10.79"/></clipPath><clipPath id="clip-path-5"><rect class="cls-1" x="62.04" y="66.67" width="1.51" height="2.25"/></clipPath><clipPath id="clip-path-6"><rect class="cls-1" x="61.1" y="66.57" width="14.9" height="11.61"/></clipPath><clipPath id="clip-path-7"><rect class="cls-1" x="64.2" y="77.09" width="3.19" height="0.9"/></clipPath><clipPath id="clip-path-8"><rect class="cls-1" x="63.39" y="76.59" width="0.62" height="0.52"/></clipPath><clipPath id="clip-path-9"><rect class="cls-1" x="63.54" y="71.13" width="2.46" height="1.09"/></clipPath><clipPath id="clip-path-10"><rect class="cls-1" x="70.96" y="71.13" width="2.46" height="1.09"/></clipPath><clipPath id="clip-path-11"><rect class="cls-1" x="66.89" y="72.49" width="1.6" height="1.3"/></clipPath><clipPath id="clip-path-12"><rect class="cls-1" x="68.87" y="72.55" width="1.6" height="1.3"/></clipPath><clipPath id="clip-path-13"><rect class="cls-1" x="70.96" y="64.88" width="3.12" height="2.39"/></clipPath><clipPath id="clip-path-14"><rect class="cls-1" x="65.61" y="63.67" width="2.83" height="1.83"/></clipPath><clipPath id="clip-path-15"><rect class="cls-1" x="74.62" y="66.7" width="2.23" height="1.54"/></clipPath><clipPath id="clip-path-16"><rect class="cls-1" x="63.91" y="72.23" width="1.82" height="1.21"/></clipPath><clipPath id="clip-path-17"><rect class="cls-1" x="71.24" y="72.19" width="1.82" height="1.21"/></clipPath><clipPath id="clip-path-18"><rect class="cls-1" x="61.33" y="66.29" width="2.05" height="1.61"/></clipPath></defs><title>sprite</title><g id="_ÎÓÈ_2" data-name="—ÎÓÈ_2"><g class="cls-2"><g class="cls-2"><path class="cls-3" d="M74.33,68.18a5.61,5.61,0,0,1-1.15-1.86,5.78,5.78,0,0,1,1.17-.9l.11-.07a3,3,0,0,0,1.61-2.64,3,3,0,0,0-3-3h-.17c-1.87,0-2.86,1.22-2.86,3.53a2.19,2.19,0,0,0,.71,1.68,2.21,2.21,0,0,1,.28.76c-.38,0-1.24-.1-1.84-.18l-.57-.13a3.54,3.54,0,0,1-1-.83c-.06-.1,0-.23.1-.34a2,2,0,0,0,1-.87,1.28,1.28,0,0,0,0-1.13,1.52,1.52,0,0,0-1.2-.84,3.7,3.7,0,0,0-.55,0c-1,0-1.65.42-1.72,1.18a1.94,1.94,0,0,0,.93,2c.23.15.38.27.38.36a1.25,1.25,0,0,1-.41.31,5.2,5.2,0,0,0-3.65,2.09,8.35,8.35,0,0,0-1.65,4.48,6.27,6.27,0,0,0,1.34,4.69,5.77,5.77,0,0,0,4.41,1.93h.21c3.06,0,9.42,0,9.53-5.17a6.64,6.64,0,0,0-2-5"/><path class="cls-4" d="M74.2,68.32c-.37-.48-1.33-1.76-1.18-2.08a5.48,5.48,0,0,1,1.36-1.07,2.78,2.78,0,0,0,1.51-2.47,2.82,2.82,0,0,0-2.79-2.78c-2.4-.09-2.84,1.8-2.84,3.34a2,2,0,0,0,.67,1.55c.26.51.48,1.08.17,1.08a18.93,18.93,0,0,1-1.9-.18l-.61-.13a4,4,0,0,1-1.07-.91.53.53,0,0,1,.15-.6,1.89,1.89,0,0,0,.91-.8,1.25,1.25,0,0,0-1.08-1.69s-2-.33-2.06,1a1.75,1.75,0,0,0,.83,1.81c.3.19.51.35.48.58s-.32.34-.53.46c-2.87.24-4.91,3-5.17,6.39-.33,4.18,2.5,6.41,5.57,6.41s9.45.06,9.56-5a6.45,6.45,0,0,0-2-4.89"/><path class="cls-5" d="M71.28,66.78a6,6,0,0,0-1.92-.27c-1.08.08-2,.65-1.13,1.64,1.5,1.78,4.66,5.35,5.83,5.11s1.5-2.2.78-3.27a6.28,6.28,0,0,0-3.55-3.21"/><g class="cls-6"><g class="cls-7"><path class="cls-8" d="M71.09,65.89c-.3,0-1-.06-1.57-.14a.52.52,0,0,1,0,.4c-.24.54.38,1.25.79.95s1.53-.13,2.24.13a1.87,1.87,0,0,0,1,.18h0c-.32-.48-.59-1-.51-1.15a5.48,5.48,0,0,1,1.36-1.07,2.79,2.79,0,0,0,1.39-1.66c-.35.75-1.42,1.3-2.11.77s-.21-1.63-1.26-2.22-.67.95-1.12.1a2.17,2.17,0,0,1,.11-1.82,3.42,3.42,0,0,0-1.12,2.91,2,2,0,0,0,.67,1.55c.26.51.48,1.08.17,1.08"/><path class="cls-8" d="M68.58,65.57a4,4,0,0,1-1.07-.91.53.53,0,0,1,.15-.6,1.89,1.89,0,0,0,.91-.8,1.11,1.11,0,0,0-.11-1.1c.09.44,0,1-.3,1.11a1.59,1.59,0,0,1-1.31-.38c-.5-.33-.74.43-1,.31a1.66,1.66,0,0,1-.43-.68v0a1.75,1.75,0,0,0,.83,1.81c.3.19.51.35.48.58s-.32.34-.53.46a4.68,4.68,0,0,0-.71.12c-.07.18-.16.38-.24.55-.17.36,1.69.46,2.07.23s1.27-.71,1.27-.71"/><path class="cls-8" d="M75.78,63.46a2.77,2.77,0,0,0,.09-.5c0-.34,0,0-.09.5"/></g></g><g class="cls-6"><g class="cls-9"><path class="cls-8" d="M76.16,73.21c0-.13,0-.25,0-.38-.5,2.73-3.5,4.51-4.55,2.9-1.17-1.8-2-.12-3.21-.59s-.81-6.38-3.81-7.56a2.46,2.46,0,0,0-2.2.17,8.28,8.28,0,0,0-1.36,4c-.33,4.18,2.5,6.41,5.57,6.41s9.45.06,9.56-5"/></g></g><g class="cls-10"><g class="cls-11"><path class="cls-8" d="M62.12,67.86a1.09,1.09,0,0,0,.08,1c.3.35.65-.22.92-.59a2.91,2.91,0,0,0,.43-1.49c0-.33-1.35.84-1.43,1.13"/></g></g><path class="cls-5" d="M75.22,75.92c-1.18,1-4.7,1.85-6.65,1.73a8.4,8.4,0,0,1-5.89-2.29C61.35,74,61.32,71,61.36,69.94A9,9,0,0,0,61,71.77c-.33,4.18,2.5,6.41,5.57,6.41,2.38,0,6.71,0,8.62-2.26"/><g class="cls-12"><g class="cls-13"><path class="cls-14" d="M74.2,68.32l0-.06c.52,1.11.87,2.44-.51,2.55-2.32.19-5.32-3.41-6.59-3.58s-4.41-2.62-3.07,3c.71,3,.48,6-1.47,4.77a5.57,5.57,0,0,1-1.42-1.34,5.36,5.36,0,0,0,5.45,4.52c-.93-.61-2.28-1.66-1.78-2.31a3.94,3.94,0,0,0,.54-4.41c-.87-2.29-.69-4.16,1.41-3.45s4.6,6.69,5.33,7.64c1.32,1.72,2.73-2,3.24-2.81s-.06-2.22.69-1.32h0a6.43,6.43,0,0,0-1.8-3.22"/></g></g><g class="cls-15"><g class="cls-16"><path class="cls-14" d="M67.4,77.84c0,.18-.76.19-1.64,0s-1.58-.45-1.55-.64.76-.19,1.64,0,1.58.45,1.55.64"/></g></g><g class="cls-15"><g class="cls-17"><path class="cls-14" d="M64,77c0,.12-.22.14-.39.05s-.26-.25-.21-.37.22-.14.39-.05.26.25.21.37"/></g></g><g class="cls-18"><g class="cls-19"><path class="cls-14" d="M66,72.12c-.05,0-.74-.77-1.37-.48a11,11,0,0,0-1.1.58,1.48,1.48,0,0,1,.66-.93,1,1,0,0,1,1,0l.74.48Z"/></g></g><path class="cls-20" d="M64.83,70.87a1.38,1.38,0,0,0-1.42,1.33.17.17,0,1,0,.33,0,1.09,1.09,0,0,1,2.17,0,.17.17,0,1,0,.33,0,1.38,1.38,0,0,0-1.42-1.33"/><path class="cls-20" d="M64.19,69.57s.43-.68.64-.54-.14.49-.64.54"/><g class="cls-18"><g class="cls-21"><path class="cls-14" d="M71,72.12c.05,0,.74-.77,1.37-.48a11,11,0,0,1,1.1.58,1.48,1.48,0,0,0-.66-.93,1,1,0,0,0-1,0l-.74.48Z"/></g></g><path class="cls-20" d="M72.14,70.87a1.38,1.38,0,0,1,1.42,1.33.17.17,0,1,1-.33,0,1.09,1.09,0,0,0-2.17,0,.17.17,0,1,1-.33,0,1.38,1.38,0,0,1,1.42-1.33"/><path class="cls-20" d="M72.78,69.57s-.43-.68-.64-.54.14.49.64.54"/><g class="cls-18"><g class="cls-22"><path class="cls-14" d="M68.49,73.14a.82.82,0,1,1-.8-.65.74.74,0,0,1,.8.65"/></g></g><g class="cls-18"><g class="cls-23"><path class="cls-14" d="M70.47,73.2a.82.82,0,1,1-.8-.65.74.74,0,0,1,.8.65"/></g></g><path class="cls-24" d="M68.06,74s.49,1.34.81,1.12.54-1.2.54-1.2l-.6-.69Z"/><path class="cls-20" d="M70.52,72.5a.15.15,0,0,0-.22,0,.18.18,0,0,0,0,.24.74.74,0,0,1,.14.46.6.6,0,0,1-.23.4.7.7,0,0,1-.78.09.94.94,0,0,1-.52-.83.16.16,0,0,0-.17-.16h0a.16.16,0,0,0-.17.16.94.94,0,0,1-.52.83.7.7,0,0,1-.78-.09.6.6,0,0,1-.23-.4.74.74,0,0,1,.14-.46.18.18,0,0,0,0-.24.15.15,0,0,0-.22,0,1.09,1.09,0,0,0-.21.71.93.93,0,0,0,.34.63,1,1,0,0,0,.65.24,1.06,1.06,0,0,0,.46-.11,1.22,1.22,0,0,0,.57-.59,1.22,1.22,0,0,0,.57.59,1.06,1.06,0,0,0,.46.11,1,1,0,0,0,.65-.24.93.93,0,0,0,.34-.63,1.09,1.09,0,0,0-.21-.71"/><path class="cls-25" d="M71.63,67.25s-1-.2-.48.38,1.53,1.3,1.81,1.1,0-1-1.34-1.48"/><path class="cls-25" d="M73.44,68.78s-.26.05,0,.43.76.59.79.38-.5-.79-.83-.82"/><g class="cls-10"><g class="cls-26"><path class="cls-8" d="M74.08,65.37a3.46,3.46,0,0,1-3-.42L71,64.88c.24.49.42,1,.13,1H71c1,.47,2.49,1.39,2.49,1.39h0c-.28-.44-.51-.87-.43-1a3.94,3.94,0,0,1,1.07-.87"/></g></g><g class="cls-10"><g class="cls-27"><path class="cls-8" d="M66.2,65.38l-.34,0a1.51,1.51,0,0,0,1,0,3.88,3.88,0,0,1,1.55.09,3.47,3.47,0,0,1-.92-.81.47.47,0,0,1,.08-.51,1.41,1.41,0,0,1-.92,0,3.07,3.07,0,0,1-1.06-.47,1.35,1.35,0,0,0,.65.68c.3.19.51.35.48.58s-.32.34-.53.46"/></g></g><path class="cls-5" d="M67.65,64.07h0l.28-.15a1,1,0,0,1-.36.1,2.61,2.61,0,0,1-1.67-.46,2,2,0,0,1-.48-.56,1.93,1.93,0,0,0,.32.92,3.43,3.43,0,0,0,1.16.32,1.63,1.63,0,0,0,.74-.16"/><path class="cls-5" d="M70.92,64.81l0,0a3.48,3.48,0,0,0,3.11.55l.32-.21.28-.17c.32-.32.78-.78.51-.52a2.71,2.71,0,0,1-1.62.74,3.78,3.78,0,0,1-2.22-.92A3,3,0,0,1,70.38,62a5.92,5.92,0,0,0-.12,1.26,2,2,0,0,0,.67,1.55"/><path class="cls-5" d="M73.54,60.23s-1,.31-.79.69,1.26,1.84,1.5,2.25a.71.71,0,0,0,1.19,0,2.6,2.6,0,0,0-1.91-3"/><path class="cls-5" d="M67.77,61.84s-1.38-.59-1.6.2.88.36,1.26.64.72.18.76-.05,0-.41-.43-.79"/><path class="cls-3" d="M77,67.14a1.29,1.29,0,1,1-1.29-1.24A1.26,1.26,0,0,1,77,67.14"/><path class="cls-4" d="M76.9,67.14A1.14,1.14,0,1,1,75.76,66a1.12,1.12,0,0,1,1.14,1.1"/><g class="cls-6"><g class="cls-28"><path class="cls-8" d="M74.62,67.14a1.12,1.12,0,0,0,1.14,1.1,1.14,1.14,0,0,0,1.09-.77c-.21.23-.53.45-.72.34s0-.86-.37-1.07-.52.72-.87.54c-.16-.08-.19-.32-.18-.56a1.06,1.06,0,0,0-.09.42"/></g></g><path class="cls-5" d="M75.31,67.9a1.39,1.39,0,0,1-.68-.73,1.12,1.12,0,0,0,1.14,1.06,1.16,1.16,0,0,0,.73-.25,2.14,2.14,0,0,1-1.19-.09"/><path class="cls-5" d="M76.07,66.19s-.74-.07-1,.21.52-.07.83.23.33.68.59.7.44-.89-.44-1.14"/><path class="cls-25" d="M76.07,66.19s-.44.09-.09.23.59.4.59.23a.67.67,0,0,0-.5-.47"/><g class="cls-29"><g class="cls-30"><path class="cls-31" d="M65.74,72.83c0,.33-.38.6-.89.6s-.92-.27-.93-.6.38-.6.89-.6.92.27.93.6"/></g></g><g class="cls-29"><g class="cls-32"><path class="cls-31" d="M73.06,72.79c0,.33-.38.6-.89.6s-.92-.27-.93-.6.38-.6.89-.6.92.27.93.6"/></g></g><path class="cls-25" d="M74.25,60.64s-1.06-.5-1.4-.18.85.27,1.23.64.59.68.68.64.25-.68-.51-1.09"/><path class="cls-25" d="M75,61.64a.45.45,0,0,0,.08.41c.15.15.27.7.32.44s-.11-.91-.4-.85"/><path class="cls-25" d="M67.22,61.66s-.58-.11-.79.15.85,0,1.06.2.15-.34-.27-.34"/><path class="cls-25" d="M67.74,61.91s-.06.11.14.28.3.36.23.11-.09-.26-.37-.39"/><path class="cls-3" d="M62.23,65.57a1.1,1.1,0,0,0-1,1.55c.4,1.07,1.25,1.43,2,.36s.06-1.89-1-1.91"/><path class="cls-4" d="M62.25,65.78a.91.91,0,0,0-.84,1.29c.33.89,1,1.19,1.7.3s0-1.57-.86-1.59"/><g class="cls-6"><g class="cls-33"><path class="cls-8" d="M63.38,66.68c-.2.39-.66.88-1,.67s-.11-.7-.57-1a.34.34,0,0,0-.44,0,1,1,0,0,0,0,.7c.33.89,1,1.19,1.7.3a1.25,1.25,0,0,0,.28-.69"/></g></g><path class="cls-5" d="M62.43,65.92s-.72.07-.36.41.48.68.79.5.2-.81-.43-.9"/><path class="cls-25" d="M62.68,66a.65.65,0,0,0-.56,0c-.26.14.46.32.6.44s.38-.12,0-.42"/><path class="cls-5" d="M63,67.47l0,0a1,1,0,0,1-1.19-.1,1.3,1.3,0,0,1-.48-.77,1.14,1.14,0,0,0,.08.45c.32.86,1,1.17,1.62.4"/></g></g><path class="cls-14" d="M70,35.91a6.73,6.73,0,0,0-6-1.55c-2.72.74-3.68,1.75-4,2.35a5.86,5.86,0,0,0-4-.74,9.5,9.5,0,0,0-6.62,4.2,5.87,5.87,0,0,0-2.68.76c-3.44,1.67-2.15,4.39-1.2,5.36A3.91,3.91,0,0,0,42,50.49c.12,4.47,6.2,2.23,6.2,2.23s-1.86,2.11,1.61,3.47c3.09,1.22,8.35-.62,9.37-2.79a3.8,3.8,0,0,0,3.66-.18,4.4,4.4,0,0,0,2.4-3.06,11.85,11.85,0,0,0,3.43-.91,3.92,3.92,0,0,0,2.75-4.16,6.45,6.45,0,0,0,4.08-.31C81.41,42.73,78.57,33.21,70,35.91Z"/><path class="cls-14" d="M98.12,51.51c-.65-2.37-2.43-6.12-5.73-6.62l-.13,0a2,2,0,0,0-.65-1.29s-2.88-3.19-6.07-2.14-3.71,7.27-.05,10.46c.3.26.57.47.84.66a3,3,0,0,0-1.47,2.32A12.47,12.47,0,0,0,88.06,65a1.3,1.3,0,0,0-.75,1.34c.1,2.39,1.48,4.59,3.11,4.88a2.55,2.55,0,0,0,.45,2.33c1.67,2.46,8,2.51,9.57-1.78,1.25-3.43,1.4-5.88.64-7.45a7.62,7.62,0,0,0,1.35-4.16C102.86,55.89,100.25,51.72,98.12,51.51Z"/><path class="cls-14" d="M79.59,36.26s3.19,2.67,2.06,4.59c0,0,3.18-2.73,6.32-1.33C88,39.52,84.59,34.4,79.59,36.26Z"/><path class="cls-14" d="M40.93,54.66a4.36,4.36,0,0,0-3.61,4.08C36.85,62.46,39.88,55.71,40.93,54.66Z"/><path class="cls-34" d="M73.45,47s3-2.58,5.22.35-2.13,5.28-2.13,5.28,2.12-2.69-.47-3.12C76.07,49.47,76.38,46.5,73.45,47Z"/><path class="cls-14" d="M53,80.12a3.37,3.37,0,0,0-.86-2.87,9.16,9.16,0,0,0-2.62-2.32A3.72,3.72,0,0,0,49,72.36c-.7-1.08-1.91-.88-2.87-.47a1.83,1.83,0,0,0-.38-.47c.42-.89.54-2.22-.71-3.95,0,0-1-3.14-4.77-.82-3.11,1.94-2,4-1.55,4.58-.45-.5-1.86-1.61-4,.66s-.54,5.62,1,6.79c-.65.76-1.16,2.1-.84,4.5.64,4.82,3.75,8.55,7.33,7.21a5.28,5.28,0,0,0,1.52,2.11c1.5,1.31,3.41.71,4.79-.07a2.73,2.73,0,0,0,2.77,1.12c2.09-.45,2.45-2.76,2.08-4.58.89.29,2,0,2.69-2.17C57.15,83.1,55,80.43,53,80.12Z"/><path class="cls-34" d="M40.86,64.34s3.8-2.91,4.89-.52a5.32,5.32,0,0,1,.54,3.81s1-3.89,2.3-2.72,2.21-1.4.7-3-4.34-.31-4.34-.31S42.56,60.43,40.86,64.34Z"/><path class="cls-34" d="M66.93,54.31S63.52,53,61.67,55s.3,5.48.3,5.48S61.59,54.68,66.93,54.31Z"/><path class="cls-34" d="M81.52,63.57s3,1.63,2,3.33c0,0,3.11.22,2.3,4,0,0,2.07-2.37.37-4.3l-.67-.37S85,61.87,81.52,63.57Z"/><path class="cls-31" d="M70,35.91a6.73,6.73,0,0,0-6-1.55c-2.72.74-3.68,1.75-4,2.35a5.86,5.86,0,0,0-4-.74,9.5,9.5,0,0,0-6.62,4.2,5.87,5.87,0,0,0-2.68.76c-3.44,1.67-2.15,4.39-1.2,5.36A3.91,3.91,0,0,0,42,50.49c0,.09,0,.16,0,.24.76-1.2,2.6-3.47,5.33-2.66,0,0-1.58-4.73,1.87-6,0,0-.69,1.77,0,2.86a5.4,5.4,0,0,1,4-5.72c4.53-1.28,6.21,0,6.21,0l-.59,2.07s1.48-1.77,2.86-1.08c0,0-.59-1-1.08-1.08s1.28-3.75,4-3.35a8.83,8.83,0,0,1,4.83,3,3.74,3.74,0,0,1,4.63-1.18,5.66,5.66,0,0,1,3.52,5.76C80.33,40,77.17,33.64,70,35.91Z"/><path class="cls-34" d="M54.36,71.68s-1.93,2.43-.51,3.55a2.93,2.93,0,0,0,2.74.61s-2.13,2.23-3,1.62-.91-2.23-1.62-2.94S51.82,71.68,54.36,71.68Z"/><path class="cls-14" d="M98.46,79.89a2.21,2.21,0,0,0-3.55-.1c-1.93,2-4.66,1.12-5.07,4.46s1.11,7.71,5,6.19S99.58,81.51,98.46,79.89Z"/><path class="cls-14" d="M85.85,90.55a2.71,2.71,0,0,0,1.26-2.16c.19-2.81-.85-5.09-3.86-3.23a4.77,4.77,0,0,0-4.83-.26,5.33,5.33,0,0,0-3,4.1s-4.7-1.9-6.9.3-2.1,3.3-2.1,3.3-5.4-.6-6.69,2.2,2.3,7.29,6.5,6.1,3,2.3,6.3,2.9c2.76.5,6.21-2,7.26-4a2.76,2.76,0,0,0,1.33.31c2.5,0,7.49-5.7,5.6-8.59A3.58,3.58,0,0,0,85.85,90.55Z"/><path class="cls-34" d="M72.71,80.09s1.93,3.65,3.24,1.72a3.74,3.74,0,0,0,0-4S78.49,80.5,77.17,83,72.2,85.06,72.71,80.09Z"/><path class="cls-35" d="M54.43,80.76A9.25,9.25,0,0,1,55,83.24a3.76,3.76,0,0,1-3.14,4.06c.51,3.24-4.66,2.84-5.58,1.62s.1-1.72.1-1.72A8.43,8.43,0,0,1,44,84.76s.1,2.43-3.24,1.12-3.45-5.78-2.64-7.2,1.32-1.12-1.22-2.33c-1.89-.91-1.41-4-1-5.44a5.52,5.52,0,0,0-1.23,1c-2.21,2.3-.54,5.62,1,6.79-.65.76-1.16,2.1-.84,4.5.64,4.82,3.75,8.55,7.33,7.21a5.28,5.28,0,0,0,1.52,2.11c1.5,1.31,3.41.71,4.79-.07a2.73,2.73,0,0,0,2.77,1.12c2.09-.45,2.45-2.76,2.08-4.58.89.29,2,0,2.69-2.17C56.85,84,55.85,81.81,54.43,80.76Z"/><path class="cls-31" d="M101.08,64.36a7.62,7.62,0,0,0,1.35-4.16c.43-4.31-2.18-8.48-4.31-8.7-.65-2.37-2.43-6.12-5.73-6.62l-.13,0a2,2,0,0,0-.65-1.29s-2.88-3.19-6.07-2.14c-2.24.73-3.15,4-2.25,7,.35-1.4,1.48-4.58,4.43-4,3.75.71,3,3.35,3,3.35a3.4,3.4,0,0,1,4.77,1.42,4.55,4.55,0,0,1,0,5.37s3.55-.81,5.37,3.35-1.82,7.91-1.82,7.91,1.27,6.16-2.58,9.3a5.27,5.27,0,0,0,3.95-3.28C101.69,68.39,101.84,65.93,101.08,64.36Z"/><path class="cls-35" d="M86.71,91.49a3.58,3.58,0,0,0-.86-.94,2.71,2.71,0,0,0,1.26-2.16A4.68,4.68,0,0,0,86.33,85a4.11,4.11,0,0,1-3.48,5.45s2.64,2,.61,3.85-5.78.81-5.78.81c1.93,2.13-.1,5.88-3.55,5.27a3.2,3.2,0,0,1-2.94-3.65A3.5,3.5,0,0,1,68,96s.1,3-4.87,1.12c-2.76-1.07-2.83-2.51-2.35-3.59a3,3,0,0,0-1.11,1.24c-1.3,2.8,2.3,7.29,6.5,6.1s3,2.3,6.3,2.9c2.76.5,6.21-2,7.26-4a2.76,2.76,0,0,0,1.33.31C83.61,100.08,88.61,94.39,86.71,91.49Z"/><path class="cls-35" d="M94.81,90.44c3.85-1.52,4.77-8.92,3.65-10.55a2.59,2.59,0,0,0-1.82-1,1,1,0,0,0,.2.26c1.93,1.83.3,7.91-3.14,8.11a4.21,4.21,0,0,1-3.9-2.49C89.62,88.06,91.17,91.87,94.81,90.44Z"/><path class="cls-14" d="M103.74,73.81s-1-1.12-1.12.71-.2,2.74.71,2.74S105.05,75.43,103.74,73.81Z"/><path class="cls-34" d="M61.59,91.31s-3.37.1-3.78,3.07C57.8,94.38,56.68,89.57,61.59,91.31Z"/></g></svg>