<svg xmlns="http://www.w3.org/2000/svg" xmlns:xlink="http://www.w3.org/1999/xlink" viewBox="0 0 138 138"><defs><style>.cls-1{fill:none;}.cls-2{clip-path:url(#clip-path);}.cls-3{fill:#0a4377;}.cls-4{fill:#2d84e2;}.cls-31,.cls-5{fill:#3badf2;}.cls-6{opacity:0.27;}.cls-7{clip-path:url(#clip-path-3);}.cls-35,.cls-8{fill:#19328e;}.cls-9{clip-path:url(#clip-path-4);}.cls-10,.cls-34{opacity:0.5;}.cls-11{clip-path:url(#clip-path-5);}.cls-12{opacity:0.13;}.cls-13{clip-path:url(#clip-path-6);}.cls-14,.cls-34{fill:#c5ffff;}.cls-15{opacity:0.62;}.cls-16{clip-path:url(#clip-path-7);}.cls-17{clip-path:url(#clip-path-8);}.cls-18{opacity:0.22;}.cls-19{clip-path:url(#clip-path-9);}.cls-20{fill:#0e3b63;}.cls-21{clip-path:url(#clip-path-10);}.cls-22{clip-path:url(#clip-path-11);}.cls-23{clip-path:url(#clip-path-12);}.cls-24{fill:#ef48a0;}.cls-25{fill:#fff;}.cls-26{clip-path:url(#clip-path-13);}.cls-27{clip-path:url(#clip-path-14);}.cls-28{clip-path:url(#clip-path-15);}.cls-29{opacity:0.78;}.cls-30{clip-path:url(#clip-path-16);}.cls-31{opacity:0.43;}.cls-32{clip-path:url(#clip-path-17);}.cls-33{clip-path:url(#clip-path-18);}.cls-35{opacity:0.37;}</style><clipPath id="clip-path"><rect class="cls-1" x="45.4" y="43.36" width="46.66" height="53.62"/></clipPath><clipPath id="clip-path-3"><rect class="cls-1" x="58.08" y="45.15" width="30.6" height="20.32"/></clipPath><clipPath id="clip-path-4"><rect class="cls-1" x="45.92" y="65.41" width="43.58" height="31.01"/></clipPath><clipPath id="clip-path-5"><rect class="cls-1" x="48.91" y="63.33" width="4.35" height="6.47"/></clipPath><clipPath id="clip-path-6"><rect class="cls-1" x="46.23" y="63.04" width="42.82" height="33.38"/></clipPath><clipPath id="clip-path-7"><rect class="cls-1" x="55.14" y="93.27" width="9.18" height="2.59"/></clipPath><clipPath id="clip-path-8"><rect class="cls-1" x="52.8" y="91.83" width="1.79" height="1.5"/></clipPath><clipPath id="clip-path-9"><rect class="cls-1" x="53.25" y="76.15" width="7.08" height="3.12"/></clipPath><clipPath id="clip-path-10"><rect class="cls-1" x="74.56" y="76.15" width="7.08" height="3.12"/></clipPath><clipPath id="clip-path-11"><rect class="cls-1" x="62.85" y="80.06" width="4.6" height="3.74"/></clipPath><clipPath id="clip-path-12"><rect class="cls-1" x="68.56" y="80.24" width="4.6" height="3.74"/></clipPath><clipPath id="clip-path-13"><rect class="cls-1" x="74.55" y="58.2" width="8.98" height="6.88"/></clipPath><clipPath id="clip-path-14"><rect class="cls-1" x="59.18" y="54.71" width="8.13" height="5.25"/></clipPath><clipPath id="clip-path-15"><rect class="cls-1" x="85.09" y="63.42" width="6.4" height="4.42"/></clipPath><clipPath id="clip-path-16"><rect class="cls-1" x="54.31" y="79.31" width="5.24" height="3.46"/></clipPath><clipPath id="clip-path-17"><rect class="cls-1" x="75.36" y="79.19" width="5.24" height="3.46"/></clipPath><clipPath id="clip-path-18"><rect class="cls-1" x="46.87" y="62.24" width="5.91" height="4.64"/></clipPath></defs><title>sprite</title><g id="_ÎÓÈ_2" data-name="—ÎÓÈ_2"><g class="cls-2"><g class="cls-2"><path class="cls-3" d="M84.25,67.68c-2.48-3.2-3.33-4.94-3.3-5.35a16.62,16.62,0,0,1,3.37-2.6l.31-.21a8.53,8.53,0,0,0,4.62-7.6,8.68,8.68,0,0,0-8.52-8.55h-.49c-5.38,0-8.22,3.51-8.22,10.16a6.28,6.28,0,0,0,2,4.81,6.36,6.36,0,0,1,.81,2.18c-1.08,0-3.55-.27-5.29-.52-.54-.13-1.09-.25-1.65-.36a10.16,10.16,0,0,1-2.82-2.37c-.16-.28.06-.67.29-1a5.84,5.84,0,0,0,2.75-2.5,3.69,3.69,0,0,0-.07-3.26,4.38,4.38,0,0,0-3.44-2.42A10.62,10.62,0,0,0,63.05,48c-3,0-4.76,1.2-4.93,3.38-.25,3,1.16,5.08,2.68,5.77.66.42,1.09.77,1.09,1a3.6,3.6,0,0,1-1.17.89,15,15,0,0,0-10.49,6A24,24,0,0,0,45.48,78c-.42,5.38.91,10,3.86,13.48A16.58,16.58,0,0,0,62,97h.62C71.42,97,89.7,97,90,82.13a19.08,19.08,0,0,0-5.78-14.46"/><path class="cls-4" d="M83.86,68.07C82.8,66.7,80,63,80.46,62.1S82.92,60,84.37,59a8,8,0,0,0,4.34-7.1,8.11,8.11,0,0,0-8-8c-6.9-.26-8.17,5.18-8.17,9.59A5.65,5.65,0,0,0,74.45,58c.75,1.48,1.37,3.11.48,3.11a54.42,54.42,0,0,1-5.46-.52q-.89-.22-1.75-.38a11.45,11.45,0,0,1-3.08-2.61,1.54,1.54,0,0,1,.42-1.73,5.44,5.44,0,0,0,2.61-2.31c.9-1.77-.4-4.53-3.11-4.85,0,0-5.62-.95-5.92,2.76-.22,2.68,1,4.59,2.39,5.22.86.55,1.45,1,1.37,1.66-.06.41-.92,1-1.54,1.33C52.62,60.32,46.76,68.31,46,78c-.94,12,7.17,18.42,16,18.42s27.17.17,27.48-14.3a18.54,18.54,0,0,0-5.64-14.05"/><path class="cls-5" d="M75.49,63.64A17.28,17.28,0,0,0,70,62.87c-3.1.24-5.64,1.86-3.25,4.7C71,72.7,80.11,82.95,83.46,82.26s4.31-6.32,2.23-9.4-2.56-5.74-10.21-9.22"/><g class="cls-6"><g class="cls-7"><path class="cls-8" d="M74.93,61.08c-.88,0-2.81-.18-4.52-.4a1.48,1.48,0,0,1,0,1.16c-.69,1.54,1.1,3.6,2.26,2.72s4.39-.37,6.44.37a5.38,5.38,0,0,0,2.81.51l0,0C81,64,80.23,62.61,80.46,62.1c.35-.75,2.46-2.11,3.91-3.07a8,8,0,0,0,4-4.77c-1,2.16-4.08,3.73-6.05,2.22-2.4-1.84-.62-4.7-3.63-6.39s-1.92,2.72-3.22.29c-1-1.95-.1-4.37.31-5.24-2.62,1.82-3.23,5.34-3.23,8.38A5.65,5.65,0,0,0,74.45,58c.75,1.48,1.37,3.11.48,3.11"/><path class="cls-8" d="M67.72,60.18a11.46,11.46,0,0,1-3.08-2.61,1.54,1.54,0,0,1,.42-1.73,5.44,5.44,0,0,0,2.61-2.31,3.2,3.2,0,0,0-.32-3.17c.27,1.26.08,3-.87,3.19-1.37.29-2.33-.15-3.77-1.1s-2.12,1.25-2.81.88a4.77,4.77,0,0,1-1.25-1.95v.05c-.22,2.68,1,4.59,2.39,5.22.86.55,1.45,1,1.37,1.66-.06.41-.92,1-1.54,1.33a13.45,13.45,0,0,0-2.05.34c-.21.51-.46,1.08-.7,1.58-.48,1,4.87,1.32,6,.66s3.64-2,3.64-2"/><path class="cls-8" d="M88.41,54.1a8,8,0,0,0,.27-1.45c0-1-.09-.06-.27,1.45"/></g></g><g class="cls-6"><g class="cls-9"><path class="cls-8" d="M89.5,82.12c0-.37,0-.73,0-1.09-1.42,7.83-10.07,13-13.08,8.33-3.36-5.17-5.66-.36-9.23-1.71S64.85,69.31,56.25,65.94a7.08,7.08,0,0,0-6.34.48A23.81,23.81,0,0,0,46,78c-.94,12,7.17,18.42,16,18.42s27.17.17,27.48-14.3"/></g></g><g class="cls-10"><g class="cls-11"><path class="cls-8" d="M49.14,66.75s-.64,1.74.23,2.74,1.87-.64,2.65-1.69a8.36,8.36,0,0,0,1.23-4.3c-.09-1-3.88,2.42-4.11,3.25"/></g></g><path class="cls-5" d="M86.8,89.91c-3.38,2.87-13.52,5.31-19.13,5-6.05-.37-12.27-1.67-16.94-6.57-3.8-4-3.88-12.54-3.77-15.57A26,26,0,0,0,46,78c-.94,12,7.17,18.42,16,18.42,6.83,0,19.3.1,24.78-6.51"/><g class="cls-12"><g class="cls-13"><path class="cls-14" d="M83.86,68.07l-.13-.16c1.51,3.19,2.49,7-1.46,7.34C75.62,75.8,67,65.43,63.35,65s-12.67-7.52-8.82,8.61c2,8.51,1.38,17.31-4.24,13.7a16,16,0,0,1-4.07-3.86c1.49,8.46,8.3,12.94,15.66,13-2.69-1.76-6.56-4.77-5.1-6.64,2.16-2.78,4.06-6.11,1.56-12.68s-2-11.94,4.06-9.91,13.22,19.21,15.32,22c3.79,4.94,7.84-5.66,9.31-8.06s-.17-6.39,2-3.8l0,0a18.48,18.48,0,0,0-5.18-9.25"/></g></g><g class="cls-15"><g class="cls-16"><path class="cls-14" d="M64.32,95.44c-.07.52-2.18.56-4.71.07s-4.53-1.3-4.46-1.83,2.18-.56,4.71-.07,4.53,1.3,4.46,1.83"/></g></g><g class="cls-15"><g class="cls-17"><path class="cls-14" d="M54.55,93c-.14.33-.64.4-1.12.15s-.74-.72-.6-1.05.64-.4,1.12-.15.74.72.6,1.05"/></g></g><g class="cls-18"><g class="cls-19"><path class="cls-14" d="M60.33,79c-.16.09-2.13-2.22-3.94-1.39a31.6,31.6,0,0,0-3.15,1.67,4.26,4.26,0,0,1,1.89-2.69A2.75,2.75,0,0,1,58,76.49l2.13,1.39Z"/></g></g><path class="cls-20" d="M56.93,75.4a4,4,0,0,0-4.07,3.82.48.48,0,1,0,1,0,3.15,3.15,0,0,1,6.23,0,.48.48,0,1,0,1,0,4,4,0,0,0-4.07-3.82"/><path class="cls-20" d="M55.1,71.66s1.24-1.95,1.84-1.55-.41,1.42-1.84,1.55"/><g class="cls-18"><g class="cls-21"><path class="cls-14" d="M74.56,79c.16.09,2.13-2.22,3.94-1.39a31.58,31.58,0,0,1,3.15,1.67,4.26,4.26,0,0,0-1.89-2.69,2.75,2.75,0,0,0-2.83-.09L74.8,77.88Z"/></g></g><path class="cls-20" d="M78,75.4A4,4,0,0,1,82,79.22a.48.48,0,1,1-1,0,3.15,3.15,0,0,0-6.23,0,.48.48,0,1,1-1,0A4,4,0,0,1,78,75.4"/><path class="cls-20" d="M79.79,71.66s-1.24-1.95-1.84-1.55.41,1.42,1.84,1.55"/><g class="cls-18"><g class="cls-22"><path class="cls-14" d="M67.45,81.93a2.35,2.35,0,1,1-2.3-1.87,2.12,2.12,0,0,1,2.3,1.87"/></g></g><g class="cls-18"><g class="cls-23"><path class="cls-14" d="M73.15,82.11a2.35,2.35,0,1,1-2.3-1.87,2.12,2.12,0,0,1,2.3,1.87"/></g></g><path class="cls-24" d="M66.21,84.3s1.41,3.84,2.32,3.21S70.09,84,70.09,84l-1.71-2Z"/><path class="cls-20" d="M73.3,80.08a.43.43,0,0,0-.64-.06.51.51,0,0,0-.06.68A2.12,2.12,0,0,1,73,82a1.72,1.72,0,0,1-.66,1.14,2,2,0,0,1-2.24.27,2.7,2.7,0,0,1-1.49-2.37.46.46,0,0,0-.48-.46H68a.46.46,0,0,0-.48.46,2.7,2.7,0,0,1-1.49,2.37,2,2,0,0,1-2.24-.27A1.72,1.72,0,0,1,63.19,82a2.11,2.11,0,0,1,.4-1.32.51.51,0,0,0-.06-.68.43.43,0,0,0-.64.06,3.13,3.13,0,0,0-.61,2,2.67,2.67,0,0,0,1,1.81,2.84,2.84,0,0,0,1.87.7,3,3,0,0,0,1.31-.3,3.51,3.51,0,0,0,1.65-1.68,3.51,3.51,0,0,0,1.65,1.68,3,3,0,0,0,1.31.3,2.84,2.84,0,0,0,1.87-.7,2.67,2.67,0,0,0,1-1.81,3.13,3.13,0,0,0-.61-2"/><path class="cls-25" d="M76.48,65s-2.81-.59-1.37,1.1,4.39,3.74,5.21,3.16,0-2.94-3.84-4.26"/><path class="cls-25" d="M81.69,69.41s-.75.15.14,1.25,2.19,1.69,2.26,1.1-1.44-2.28-2.4-2.35"/><g class="cls-10"><g class="cls-26"><path class="cls-8" d="M83.53,59.59a9.94,9.94,0,0,1-8.69-1.2l-.27-.2c.7,1.41,1.22,2.88.37,2.88h-.39c2.75,1.36,7.15,4,7.15,4v0c-.82-1.26-1.46-2.49-1.24-3s1.75-1.63,3.06-2.51"/></g></g><g class="cls-10"><g class="cls-27"><path class="cls-8" d="M60.86,59.63c-.33,0-.65.07-1,.12a4.34,4.34,0,0,0,3-.11c1-.36,3.25,0,4.46.26a10,10,0,0,1-2.66-2.34,1.35,1.35,0,0,1,.22-1.46A4,4,0,0,1,62.23,56a8.81,8.81,0,0,1-3-1.34A3.87,3.87,0,0,0,61,56.65c.86.55,1.45,1,1.37,1.66-.06.41-.92,1-1.54,1.33"/></g></g><path class="cls-5" d="M65,55.87l0,0a8.73,8.73,0,0,0,.8-.44,2.73,2.73,0,0,1-1,.28c-.89,0-3.29,0-4.8-1.32a5.67,5.67,0,0,1-1.38-1.6,5.54,5.54,0,0,0,.93,2.66,9.85,9.85,0,0,0,3.33.93A4.68,4.68,0,0,0,65,55.87"/><path class="cls-5" d="M74.45,58l0,.1c3.25,2.66,7.19,2,8.94,1.57l.92-.61a8,8,0,0,0,.8-.48c.93-.92,2.25-2.23,1.46-1.48C85.46,58.17,83,59.42,82,59.2a10.88,10.88,0,0,1-6.37-2.64c-2.42-2-2.7-5.23-2.7-6.65a17,17,0,0,0-.35,3.61A5.65,5.65,0,0,0,74.45,58"/><path class="cls-5" d="M82,44.81s-2.95.88-2.26,2,3.63,5.29,4.32,6.46a2,2,0,0,0,3.43.07c.69-1.32.07-6.53-5.48-8.52"/><path class="cls-5" d="M65.38,49.44s-4-1.69-4.59.59,2.54,1,3.63,1.84,2.06.51,2.19-.15.07-1.17-1.23-2.28"/><path class="cls-3" d="M92.06,64.67a3.7,3.7,0,1,1-3.69-3.57,3.63,3.63,0,0,1,3.69,3.57"/><path class="cls-4" d="M91.64,64.67a3.28,3.28,0,1,1-3.28-3.16,3.22,3.22,0,0,1,3.28,3.16"/><g class="cls-6"><g class="cls-28"><path class="cls-8" d="M85.09,64.67a3.22,3.22,0,0,0,3.28,3.16,3.27,3.27,0,0,0,3.12-2.21c-.61.65-1.52,1.3-2.06,1-.88-.54,0-2.48-1.07-3.09s-1.5,2.08-2.51,1.54c-.45-.24-.55-.92-.52-1.6a3.06,3.06,0,0,0-.25,1.22"/></g></g><path class="cls-5" d="M87,66.86a4,4,0,0,1-2-2.09,3.22,3.22,0,0,0,3.27,3.06,3.34,3.34,0,0,0,2.09-.72A6.15,6.15,0,0,1,87,66.86"/><path class="cls-5" d="M89.24,62s-2.13-.2-2.82.6,1.5-.2,2.38.67.94,1.95,1.69,2S91.75,62.7,89.24,62"/><path class="cls-25" d="M89.24,62s-1.25.27-.25.67,1.69,1.14,1.69.67A1.92,1.92,0,0,0,89.24,62"/><g class="cls-29"><g class="cls-30"><path class="cls-31" d="M59.54,81c0,1-1.1,1.73-2.55,1.73S54.35,82,54.31,81s1.1-1.73,2.55-1.73,2.65.78,2.68,1.73"/></g></g><g class="cls-29"><g class="cls-32"><path class="cls-31" d="M80.59,80.92c0,1-1.1,1.73-2.55,1.73s-2.65-.78-2.68-1.73,1.1-1.73,2.55-1.73,2.65.78,2.68,1.73"/></g></g><path class="cls-25" d="M84,46s-3-1.44-4-.52,2.44.78,3.54,1.83,1.71,2,2,1.83.73-2-1.46-3.14"/><path class="cls-25" d="M86.25,48.89a1.29,1.29,0,0,0,.22,1.17c.44.42.79,2,.92,1.26s-.31-2.62-1.14-2.44"/><path class="cls-25" d="M63.82,48.93s-1.66-.33-2.27.42,2.45-.09,3.06.56.44-1-.79-1"/><path class="cls-25" d="M65.31,49.63s-.17.33.39.8.87,1,.66.33-.26-.75-1-1.12"/><path class="cls-3" d="M49.46,60.15a3.15,3.15,0,0,0-2.9,4.46c1.16,3.09,3.6,4.11,5.87,1s.16-5.42-3-5.49"/><path class="cls-4" d="M49.52,60.77a2.62,2.62,0,0,0-2.41,3.71c1,2.57,3,3.42,4.88.86s.13-4.51-2.47-4.56"/><g class="cls-6"><g class="cls-33"><path class="cls-8" d="M52.78,63.34c-.57,1.12-1.9,2.52-2.87,1.92-1.37-.85-.33-2-1.63-2.8a1,1,0,0,0-1.26,0,2.83,2.83,0,0,0,.09,2c1,2.57,3,3.42,4.88.86a3.58,3.58,0,0,0,.79-2"/></g></g><path class="cls-5" d="M50,61.17s-2.08.2-1,1.17,1.37,2,2.28,1.43.59-2.34-1.24-2.6"/><path class="cls-25" d="M50.76,61.39a1.87,1.87,0,0,0-1.6-.06c-.74.4,1.31.91,1.71,1.26s1.08-.34-.11-1.2"/><path class="cls-5" d="M51.76,65.62l-.09.05a2.79,2.79,0,0,1-3.42-.29,3.74,3.74,0,0,1-1.37-2.21,3.28,3.28,0,0,0,.23,1.3c.92,2.47,2.83,3.35,4.66,1.14"/></g></g><path class="cls-34" d="M69.43,24.5s-1-2.72-2.23.37.87,11.26.87,11.26S69.8,27.72,69.43,24.5Z"/><path class="cls-34" d="M68.69,97s-2,16.57-.12,17.56S69.55,105.26,68.69,97Z"/><path class="cls-34" d="M40.86,67.91s-8.29-1.61-8.66,0S39.38,67.91,40.86,67.91Z"/><path class="cls-34" d="M95.16,68.65s10.14,1.48,10.64-.12S96.64,68.28,95.16,68.65Z"/><path class="cls-14" d="M101.71,59.13c.65-7.57-6.43-12.52-13.55-12.07a13.45,13.45,0,0,0-9.82-9.57,15.3,15.3,0,0,0-12.61,2.05,11.46,11.46,0,0,0-10.52-.2c-4.93,2.35-5,6.72-4.31,9.62a4.75,4.75,0,0,0-1,0c-3.83.49-10.39,4.45-9.4,13.73a9.13,9.13,0,0,0,2.45,5.81c-1.3,1.83-2.64,5-2.82,10.4C39.75,89.8,48.9,96,54.34,95.62a5.66,5.66,0,0,0,2.43-.6,3.78,3.78,0,0,0,1,1.83c2.6,2.35,9.67,2.89,14.23-.56C73.1,97.24,74.9,98,78,98.09c4.82.08,6.94-3.73,7.13-7.26,3.84.21,9-.75,12.17-6.35,4-6.95,3-13.5.2-17.68A9.85,9.85,0,0,0,101.71,59.13ZM79.7,69.4c-1.11,5.19-6.8,2.47-6.8,2.47s2.84,2.35.37,5.94-4.82-3.34-4.7-4.21c0,0-.62,4.33-2.23,4.08s-2.1-2.72-1.11-5.57c0,0-4.7,2.72-6.43-.37S62.88,69,62.88,69s-4.7-3.46-3-5.69S65,64,65,64s-3-6.55.37-7.54C67,55.91,68.44,60,68.44,60s.87-6.56,3.83-6.43.74,6.31.74,6.31,3.8-3.7,6.06-1.11c2.6,3-5.07,7.05-5.07,7.05S80.81,64.2,79.7,69.4Z"/><path class="cls-35" d="M97.45,66.81A9.57,9.57,0,0,0,101.39,61C98.32,67.91,94,65.31,94,65.31c1,2.35-.74,6.31-.74,6.31A18.84,18.84,0,0,0,95.16,69C98.5,72.74,97.38,79.66,94,83.74s-8.78,3.34-8.78,3.34l1.36-1.73c1.36-1.73.62-4.45.62-4.45-1,4.58-7.92,5.44-7.92,5.44,4.21,3.22,3.59,7.92-.12,9.4s-7-2-7-2L69.55,95a7.54,7.54,0,0,1-9.34-5.23c1.67.21,4.14-1.08,4.14-1.08-3.83.62-6.93-4.33-6.93-4.33a6.09,6.09,0,0,0,1.73,3.59C53.6,91.54,47,87.45,44.69,80.28s1.36-11,1.36-11A5,5,0,0,0,49.39,71c-3.83-4.82-1.61-11.87-1.61-11.87-3.09,2-3,7.42-3,7.42-3.43-1-4.11-5.46-4.18-8.4a15.38,15.38,0,0,0-.15,4.56,9.13,9.13,0,0,0,2.45,5.81c-1.3,1.83-2.64,5-2.82,10.4C39.75,89.8,48.9,96,54.34,95.62a5.66,5.66,0,0,0,2.43-.6,3.78,3.78,0,0,0,1,1.83c2.6,2.35,9.67,2.89,14.23-.56C73.1,97.24,74.9,98,78,98.09c4.82.08,6.94-3.73,7.13-7.26,3.84.21,9-.75,12.17-6.35C101.25,77.54,100.3,71,97.45,66.81Z"/><path class="cls-31" d="M101.71,59.13c.65-7.57-6.43-12.52-13.55-12.07a13.45,13.45,0,0,0-9.82-9.57,15.3,15.3,0,0,0-12.61,2.05,11.46,11.46,0,0,0-10.52-.2,7.47,7.47,0,0,0-4.59,7.6,7.69,7.69,0,0,1,6.2-5.25c5.69-.87,7.42,2,7.42,2s-3.71,1.24-5.07,4.08,0,.37,0,.37,4.95-4.45,9.65-3a3.94,3.94,0,0,0-1.73-2,4.71,4.71,0,0,1,4.33-2.47c3.34-.12,12.62,2.85,13,7.92a5.94,5.94,0,0,0-4.2-.87,6,6,0,0,1,5.07,4.82l.37-1.48s6.93-3.34,11.13,1.61c3.88,4.57,4.28,8,4,10.12A11.36,11.36,0,0,0,101.71,59.13Z"/><path class="cls-34" d="M82.39,62.81c-1.8-2.66-.57-6.45-.57-6.45A9.9,9.9,0,0,1,78,55.41a3.72,3.72,0,0,1-2.47-3.6c-3.7,1-7-1.8-7-1.8a5.12,5.12,0,0,1-1.9,3.79c-1.9,1.42-4.74.28-4.74.28,2.56,5.31-3.41,9.1-3.41,9.1a5.77,5.77,0,0,1-2,5.69c1.71,1.52,1.9,6.54,1.9,6.54l2.94.95a6.9,6.9,0,0,1,4,4.08s.57-1,3.41-1.14a3.91,3.91,0,0,1,3.79,2,6.62,6.62,0,0,1,6.83-4.08s-.85-1.52.47-4.74,3.6-2,3.6-2c.47-4.74,2-4.84,2-4.84S84.19,65.46,82.39,62.81ZM79.7,69.4c-1.11,5.19-6.8,2.47-6.8,2.47s2.84,2.35.37,5.94-4.82-3.34-4.7-4.21c0,0-.62,4.33-2.23,4.08s-2.1-2.72-1.11-5.57c0,0-4.7,2.72-6.43-.37S62.88,69,62.88,69s-4.7-3.46-3-5.69S65,64,65,64s-3-6.55.37-7.54C67,55.91,68.44,60,68.44,60s.87-6.56,3.83-6.43.74,6.31.74,6.31,3.8-3.7,6.06-1.11c2.6,3-5.07,7.05-5.07,7.05S80.81,64.2,79.7,69.4Z"/></g></svg>