<svg xmlns="http://www.w3.org/2000/svg" xmlns:xlink="http://www.w3.org/1999/xlink" viewBox="0 0 138 138"><defs><style>.cls-1{fill:none;}.cls-2{clip-path:url(#clip-path);}.cls-3{fill:#0a4377;}.cls-4{fill:#2d84e2;}.cls-31,.cls-5{fill:#3badf2;}.cls-6{opacity:0.27;}.cls-7{clip-path:url(#clip-path-3);}.cls-8{fill:#19328e;}.cls-9{clip-path:url(#clip-path-4);}.cls-10{opacity:0.5;}.cls-11{clip-path:url(#clip-path-5);}.cls-12{opacity:0.13;}.cls-13{clip-path:url(#clip-path-6);}.cls-14{fill:#c5ffff;}.cls-15{opacity:0.62;}.cls-16{clip-path:url(#clip-path-7);}.cls-17{clip-path:url(#clip-path-8);}.cls-18{opacity:0.22;}.cls-19{clip-path:url(#clip-path-9);}.cls-20{fill:#0e3b63;}.cls-21{clip-path:url(#clip-path-10);}.cls-22{clip-path:url(#clip-path-11);}.cls-23{clip-path:url(#clip-path-12);}.cls-24{fill:#ef48a0;}.cls-25{fill:#fff;}.cls-26{clip-path:url(#clip-path-13);}.cls-27{clip-path:url(#clip-path-14);}.cls-28{clip-path:url(#clip-path-15);}.cls-29{opacity:0.78;}.cls-30{clip-path:url(#clip-path-16);}.cls-31{opacity:0.43;}.cls-32{clip-path:url(#clip-path-17);}.cls-33{clip-path:url(#clip-path-18);}.cls-34{fill:#f5ff76;}</style><clipPath id="clip-path"><rect class="cls-1" x="29.84" y="24" width="78.32" height="90"/></clipPath><clipPath id="clip-path-3"><rect class="cls-1" x="51.13" y="27" width="51.36" height="34.11"/></clipPath><clipPath id="clip-path-4"><rect class="cls-1" x="30.72" y="61" width="73.15" height="52.06"/></clipPath><clipPath id="clip-path-5"><rect class="cls-1" x="35.73" y="57.52" width="7.3" height="10.86"/></clipPath><clipPath id="clip-path-6"><rect class="cls-1" x="31.22" y="57.02" width="71.88" height="56.03"/></clipPath><clipPath id="clip-path-7"><rect class="cls-1" x="46.19" y="107.76" width="15.4" height="4.34"/></clipPath><clipPath id="clip-path-8"><rect class="cls-1" x="42.26" y="105.36" width="3.01" height="2.53"/></clipPath><clipPath id="clip-path-9"><rect class="cls-1" x="43.01" y="79.03" width="11.89" height="5.24"/></clipPath><clipPath id="clip-path-10"><rect class="cls-1" x="78.79" y="79.03" width="11.89" height="5.24"/></clipPath><clipPath id="clip-path-11"><rect class="cls-1" x="59.13" y="85.6" width="7.72" height="6.27"/></clipPath><clipPath id="clip-path-12"><rect class="cls-1" x="68.71" y="85.9" width="7.72" height="6.27"/></clipPath><clipPath id="clip-path-13"><rect class="cls-1" x="78.76" y="48.9" width="15.08" height="11.54"/></clipPath><clipPath id="clip-path-14"><rect class="cls-1" x="52.96" y="43.04" width="13.64" height="8.82"/></clipPath><clipPath id="clip-path-15"><rect class="cls-1" x="96.46" y="57.66" width="10.74" height="7.41"/></clipPath><clipPath id="clip-path-16"><rect class="cls-1" x="44.79" y="84.34" width="8.79" height="5.82"/></clipPath><clipPath id="clip-path-17"><rect class="cls-1" x="80.13" y="84.13" width="8.79" height="5.82"/></clipPath><clipPath id="clip-path-18"><rect class="cls-1" x="32.31" y="55.69" width="9.91" height="7.79"/></clipPath></defs><title>sprite</title><g id="_ÎÓÈ_2" data-name="—ÎÓÈ_2"><g class="cls-2"><g class="cls-2"><path class="cls-3" d="M95,64.81c-4.16-5.38-5.59-8.3-5.54-9,.51-1,3.85-3.16,5.65-4.36l.52-.35a14.31,14.31,0,0,0,7.75-12.75A14.56,14.56,0,0,0,89.13,24l-.82,0c-9,0-13.8,5.9-13.8,17.05a10.55,10.55,0,0,0,3.4,8.08,10.67,10.67,0,0,1,1.36,3.66c-1.82,0-6-.46-8.88-.87-.9-.22-1.83-.42-2.77-.6-2.45-1.6-4.21-3.08-4.73-4-.27-.47.09-1.12.49-1.63A9.81,9.81,0,0,0,68,41.51,6.19,6.19,0,0,0,67.88,36,7.35,7.35,0,0,0,62.11,32a17.83,17.83,0,0,0-2.65-.19c-5,0-8,2-8.28,5.68-.41,5.1,1.95,8.52,4.49,9.68,1.1.71,1.83,1.29,1.82,1.75a6,6,0,0,1-2,1.49c-6.83.62-12.91,4.1-17.6,10.06a40.27,40.27,0,0,0-8,21.61c-.71,9,1.54,16.86,6.49,22.63A27.82,27.82,0,0,0,57.73,114h1c14.75,0,45.43,0,46-24.92A32,32,0,0,0,95,64.81"/><path class="cls-4" d="M94.4,65.46c-1.78-2.3-6.41-8.51-5.71-10,.59-1.27,4.12-3.53,6.56-5.15a13.4,13.4,0,0,0,7.29-11.92c0-7.41-6-13.13-13.44-13.41-11.58-.44-13.71,8.69-13.71,16.09a9.49,9.49,0,0,0,3.22,7.47c1.26,2.48,2.31,5.21.8,5.21a91.34,91.34,0,0,1-9.17-.88q-1.49-.36-2.93-.64c-1.49-1-4.32-2.92-5.16-4.39-.56-1,0-2,.7-2.9a9.14,9.14,0,0,0,4.38-3.87c1.52-3-.68-7.61-5.23-8.15,0,0-9.43-1.59-9.94,4.63-.36,4.49,1.64,7.71,4,8.75,1.44.92,2.44,1.7,2.29,2.78-.09.69-1.54,1.64-2.58,2.23C42,52.46,32.12,65.87,30.84,82.14c-1.58,20.19,12,30.92,26.89,30.92s45.6.28,46.13-24A31.12,31.12,0,0,0,94.4,65.46"/><path class="cls-5" d="M80.34,58a29,29,0,0,0-9.26-1.29c-5.21.4-9.46,3.13-5.46,7.89,7.23,8.6,22.49,25.81,28.11,24.66S101,78.68,97.47,73.52,93.17,63.89,80.34,58"/><g class="cls-6"><g class="cls-7"><path class="cls-8" d="M79.41,53.74c-1.47,0-4.72-.31-7.58-.67a2.49,2.49,0,0,1-.06,2c-1.15,2.59,1.84,6,3.8,4.56s7.36-.62,10.81.62,4.72.86,4.72.86l.06-.06c-1.54-2.31-2.87-4.69-2.47-5.55.59-1.27,4.12-3.53,6.56-5.15a13.45,13.45,0,0,0,6.7-8c-1.67,3.63-6.85,6.27-10.16,3.73-4-3.08-1-7.89-6.1-10.72s-3.22,4.56-5.41.49c-1.76-3.27-.17-7.33.52-8.8-4.4,3-5.41,9-5.41,14.06a9.49,9.49,0,0,0,3.21,7.47c1.26,2.48,2.31,5.21.8,5.21"/><path class="cls-8" d="M67.31,52.22c-1.49-1-4.32-2.92-5.16-4.39-.56-1,0-2,.7-2.9a9.14,9.14,0,0,0,4.38-3.87,5.37,5.37,0,0,0-.54-5.31c.45,2.11.13,5-1.47,5.35-2.3.49-3.91-.25-6.33-1.85s-3.57,2.1-4.72,1.48c-.8-.43-1.65-2.21-2.1-3.27,0,0,0,.06,0,.09-.36,4.49,1.64,7.71,4,8.75,1.44.92,2.44,1.7,2.29,2.78-.09.69-1.54,1.64-2.58,2.23a22.58,22.58,0,0,0-3.45.56c-.35.85-.78,1.81-1.17,2.66-.81,1.73,8.17,2.22,10,1.11s6.12-3.41,6.12-3.41"/><path class="cls-8" d="M102,42a13.34,13.34,0,0,0,.45-2.44c-.05-1.65-.16-.09-.45,2.44"/></g></g><g class="cls-6"><g class="cls-9"><path class="cls-8" d="M103.86,89.06c0-.62,0-1.23,0-1.83-2.39,13.15-16.91,21.75-21.95,14-5.64-8.68-9.5-.6-15.49-2.87S62.49,67.56,48,61.89a11.89,11.89,0,0,0-10.64.8,40,40,0,0,0-6.56,19.44c-1.58,20.19,12,30.92,26.89,30.92s45.6.28,46.13-24"/></g></g><g class="cls-10"><g class="cls-11"><path class="cls-8" d="M36.11,63.25s-1.07,2.92.38,4.6,3.15-1.07,4.45-2.84A14,14,0,0,0,43,57.8c-.15-1.61-6.52,4.07-6.9,5.45"/></g></g><path class="cls-5" d="M99.32,102.13c-5.67,4.81-22.69,8.91-32.1,8.33-10.16-.62-20.6-2.8-28.44-11-6.38-6.71-6.51-21-6.33-26.13a43.65,43.65,0,0,0-1.61,8.84c-1.58,20.19,12,30.92,26.89,30.92,11.46,0,32.39.16,41.59-10.92"/><g class="cls-12"><g class="cls-13"><path class="cls-14" d="M94.4,65.46l-.21-.27c2.53,5.35,4.19,11.77-2.45,12.33C80.57,78.45,66.06,61,60,60.27S38.69,47.64,45.17,74.72c3.41,14.28,2.32,29.06-7.11,23a26.87,26.87,0,0,1-6.83-6.47c2.5,14.2,13.94,21.72,26.28,21.81-4.51-3-11-8-8.57-11.14,3.63-4.66,6.82-10.26,2.61-21.29s-3.34-20,6.82-16.63,22.19,32.25,25.72,36.85c6.36,8.29,13.17-9.49,15.63-13.53s-.29-10.72,3.34-6.37l0,0a31,31,0,0,0-8.7-15.52"/></g></g><g class="cls-15"><g class="cls-16"><path class="cls-14" d="M61.59,111.41c-.11.88-3.65.94-7.9.12s-7.61-2.19-7.49-3.07,3.65-.94,7.9-.12,7.61,2.19,7.49,3.07"/></g></g><g class="cls-15"><g class="cls-17"><path class="cls-14" d="M45.2,107.38c-.24.56-1.08.67-1.87.25s-1.25-1.21-1-1.77,1.08-.67,1.87-.25,1.24,1.21,1,1.77"/></g></g><g class="cls-18"><g class="cls-19"><path class="cls-14" d="M54.9,83.8c-.26.16-3.57-3.73-6.61-2.33A53,53,0,0,0,43,84.27a7.15,7.15,0,0,1,3.17-4.51,4.61,4.61,0,0,1,4.76-.16l3.57,2.33Z"/></g></g><path class="cls-20" d="M49.2,77.77a6.64,6.64,0,0,0-6.83,6.42.81.81,0,1,0,1.6,0c0-2.5,2.35-4.53,5.23-4.53s5.23,2,5.23,4.53a.81.81,0,1,0,1.6,0,6.64,6.64,0,0,0-6.83-6.42"/><path class="cls-20" d="M46.12,71.5s2.08-3.27,3.1-2.6-.7,2.38-3.1,2.6"/><g class="cls-18"><g class="cls-21"><path class="cls-14" d="M78.79,83.8c.26.16,3.57-3.73,6.61-2.33a53,53,0,0,1,5.29,2.8,7.15,7.15,0,0,0-3.17-4.51,4.61,4.61,0,0,0-4.76-.16l-3.57,2.33Z"/></g></g><path class="cls-20" d="M84.5,77.77a6.64,6.64,0,0,1,6.83,6.42.81.81,0,1,1-1.6,0c0-2.5-2.35-4.53-5.23-4.53s-5.23,2-5.23,4.53a.81.81,0,1,1-1.6,0,6.64,6.64,0,0,1,6.83-6.42"/><path class="cls-20" d="M87.57,71.5s-2.08-3.27-3.1-2.6.7,2.38,3.1,2.6"/><g class="cls-18"><g class="cls-22"><path class="cls-14" d="M66.85,88.74c0,1.73-1.73,3.14-3.86,3.14s-3.86-1.4-3.86-3.14S60.86,85.6,63,85.6s3.86,1.4,3.86,3.14"/></g></g><g class="cls-18"><g class="cls-23"><path class="cls-14" d="M76.42,89c0,1.73-1.73,3.14-3.86,3.14s-3.86-1.4-3.86-3.14,1.73-3.14,3.86-3.14,3.86,1.4,3.86,3.14"/></g></g><path class="cls-24" d="M64.77,92.71s2.36,6.44,3.89,5.38,2.62-5.8,2.62-5.8l-2.87-3.35Z"/><path class="cls-20" d="M76.67,85.63a.73.73,0,0,0-1.07-.1.86.86,0,0,0-.09,1.15,3.55,3.55,0,0,1,.67,2.2,2.89,2.89,0,0,1-1.1,1.92,3.37,3.37,0,0,1-3.76.45,4.53,4.53,0,0,1-2.5-4,.78.78,0,0,0-.8-.77h-.17a.78.78,0,0,0-.8.77,4.53,4.53,0,0,1-2.5,4,3.37,3.37,0,0,1-3.76-.45,2.89,2.89,0,0,1-1.1-1.91,3.55,3.55,0,0,1,.67-2.21.86.86,0,0,0-.1-1.15.73.73,0,0,0-1.07.1,5.26,5.26,0,0,0-1,3.4,4.49,4.49,0,0,0,1.66,3A4.77,4.77,0,0,0,63,93.24a5.09,5.09,0,0,0,2.2-.51,5.88,5.88,0,0,0,2.76-2.82,5.88,5.88,0,0,0,2.76,2.82,5.09,5.09,0,0,0,2.2.51A4.77,4.77,0,0,0,76,92.07a4.49,4.49,0,0,0,1.66-3,5.26,5.26,0,0,0-1-3.4"/><path class="cls-25" d="M82,60.32s-4.72-1-2.3,1.85,7.36,6.29,8.74,5.3,0-4.93-6.44-7.15"/><path class="cls-25" d="M90.76,67.71s-1.27.25.23,2.1,3.68,2.83,3.8,1.85-2.42-3.82-4-3.94"/><g class="cls-10"><g class="cls-26"><path class="cls-8" d="M93.84,51.24a16.68,16.68,0,0,1-14.58-2l-.46-.33c1.17,2.37,2,4.84.62,4.84l-.65,0c4.62,2.28,12,6.72,12,6.72l0,0c-1.37-2.12-2.45-4.18-2.08-5,.48-1,2.93-2.74,5.14-4.21"/></g></g><g class="cls-10"><g class="cls-27"><path class="cls-8" d="M55.79,51.31c-.55,0-1.09.12-1.63.2a7.28,7.28,0,0,0,5-.19c1.72-.61,5.46,0,7.49.43-1.55-1-3.74-2.66-4.46-3.92a2.26,2.26,0,0,1,.36-2.45c-1,.38-2.21.49-4.42-.1A14.79,14.79,0,0,1,53,43a6.5,6.5,0,0,0,3.11,3.26c1.44.92,2.44,1.7,2.29,2.78-.09.69-1.54,1.64-2.58,2.23"/></g></g><path class="cls-5" d="M62.8,45l0-.05a14.65,14.65,0,0,0,1.35-.74,4.58,4.58,0,0,1-1.74.48c-1.5,0-5.52,0-8.05-2.22a9.51,9.51,0,0,1-2.32-2.69,9.3,9.3,0,0,0,1.56,4.46,16.54,16.54,0,0,0,5.59,1.56A7.86,7.86,0,0,0,62.8,45"/><path class="cls-5" d="M78.61,48.53l.08.17c5.46,4.47,12.07,3.43,15,2.63l1.55-1a13.42,13.42,0,0,0,1.34-.8C98.16,48,100.36,45.76,99,47c-2,1.85-6.1,3.94-7.82,3.57s-5.41-.12-10.7-4.44C76.46,42.84,76,37.37,76,35a28.58,28.58,0,0,0-.59,6.07,9.49,9.49,0,0,0,3.21,7.47"/><path class="cls-5" d="M91.22,26.43s-4.95,1.48-3.8,3.33,6.1,8.87,7.25,10.84,4.6,2.34,5.75.12.11-11-9.2-14.3"/><path class="cls-5" d="M63.37,34.19s-6.67-2.83-7.71,1,4.26,1.72,6.1,3.08,3.45.86,3.68-.25.11-2-2.07-3.82"/><path class="cls-3" d="M108.16,59.76a6.2,6.2,0,1,1-6.2-6,6.1,6.1,0,0,1,6.2,6"/><path class="cls-4" d="M107.46,59.76a5.5,5.5,0,1,1-5.5-5.31,5.41,5.41,0,0,1,5.5,5.31"/><g class="cls-6"><g class="cls-28"><path class="cls-8" d="M96.46,59.76a5.41,5.41,0,0,0,5.5,5.31,5.48,5.48,0,0,0,5.24-3.71c-1,1.1-2.55,2.19-3.46,1.63-1.47-.9,0-4.17-1.79-5.18s-2.52,3.49-4.21,2.59c-.76-.41-.92-1.55-.86-2.68a5.13,5.13,0,0,0-.42,2"/></g></g><path class="cls-5" d="M99.75,63.45a6.7,6.7,0,0,1-3.28-3.5A5.41,5.41,0,0,0,102,65.07a5.6,5.6,0,0,0,3.5-1.22,10.32,10.32,0,0,1-5.72-.41"/><path class="cls-5" d="M103.43,55.22s-3.58-.34-4.73,1,2.52-.34,4,1.13,1.58,3.27,2.84,3.38,2.1-4.28-2.1-5.52"/><path class="cls-25" d="M103.43,55.22s-2.1.45-.42,1.13,2.84,1.92,2.84,1.13a3.22,3.22,0,0,0-2.42-2.25"/><g class="cls-29"><g class="cls-30"><path class="cls-31" d="M53.58,87.24c.06,1.61-1.85,2.91-4.28,2.91s-4.44-1.3-4.5-2.91,1.85-2.91,4.28-2.91,4.44,1.3,4.5,2.91"/></g></g><g class="cls-29"><g class="cls-32"><path class="cls-31" d="M88.91,87c.06,1.61-1.85,2.91-4.28,2.91s-4.44-1.3-4.5-2.91,1.85-2.91,4.28-2.91,4.44,1.3,4.5,2.91"/></g></g><path class="cls-25" d="M94.65,28.41s-5.12-2.41-6.75-.88S92,28.85,93.83,30.6s2.87,3.29,3.28,3.07,1.23-3.29-2.46-5.26"/><path class="cls-25" d="M98.41,33.27a2.17,2.17,0,0,0,.37,2c.73.71,1.32,3.38,1.54,2.12s-.51-4.4-1.91-4.09"/><path class="cls-25" d="M60.76,33.35s-2.79-.55-3.82.71,4.11-.16,5.14.94.73-1.65-1.32-1.65"/><path class="cls-25" d="M63.25,34.53s-.29.55.66,1.34,1.47,1.73,1.1.55-.44-1.26-1.76-1.89"/><path class="cls-3" d="M36.65,52.18c-2.28,0-6.81,2.3-4.87,7.48s6,6.91,9.85,1.73.27-9.1-5-9.21"/><path class="cls-4" d="M36.75,53.22a4.4,4.4,0,0,0-4,6.22c1.61,4.31,5,5.74,8.19,1.44s.22-7.57-4.14-7.66"/><g class="cls-6"><g class="cls-33"><path class="cls-8" d="M42.23,57.54c-1,1.88-3.2,4.23-4.83,3.23-2.29-1.42-.55-3.38-2.73-4.69a1.65,1.65,0,0,0-2.12,0,4.75,4.75,0,0,0,.15,3.38c1.61,4.31,5,5.74,8.19,1.44a6,6,0,0,0,1.33-3.34"/></g></g><path class="cls-5" d="M37.62,53.89s-3.49.33-1.75,2,2.29,3.27,3.82,2.4,1-3.93-2.07-4.37"/><path class="cls-25" d="M38.83,54.27a3.14,3.14,0,0,0-2.68-.1c-1.25.67,2.2,1.53,2.87,2.11s1.82-.57-.19-2"/><path class="cls-5" d="M40.52,61.36l-.16.09c-1.92,1-3.35,1.25-5.75-.48a6.28,6.28,0,0,1-2.3-3.71,5.51,5.51,0,0,0,.39,2.18c1.55,4.14,4.75,5.62,7.81,1.92"/></g></g><path class="cls-34" d="M68.43,53.58S67.48,69,55.05,69c0,0,13.86,1.91,13.38,15.29,0,0,.14-15.27,12.9-15.29C81.33,69,68.49,68.31,68.43,53.58Z"/></g></svg>