<svg id="Layer_1" data-name="Layer 1" xmlns="http://www.w3.org/2000/svg" viewBox="0 0 89.36 100"><title>StopWatch</title><path d="M66,54.25H47.87V36.17c0-2.66-.67-4.26-3.19-4.26-1.8,0-3.19.54-3.19,4.26V56.38c0,.24,0,.46,0,.68a3.36,3.36,0,0,0,0,.38,3.54,3.54,0,0,0,.38,1.17,2.89,2.89,0,0,0,2.81,2l.27,0a6.55,6.55,0,0,0,.8,0H66c2.66,0,4.25-.66,4.25-3.19C70.21,55.65,69.67,54.25,66,54.25Z"/><path d="M80.57,27.15l4.62-4.62a2.43,2.43,0,0,0,0-3.44l-6.87-6.87a2.43,2.43,0,0,0-3.44,0L70,17.1a44.45,44.45,0,0,0-17.87-6.93V4.25h4.26c2.17,0,3.19-.35,3.19-2.13S58.31,0,56.38,0H33c-1.83,0-3.19.3-3.19,2.13S31.25,4.25,33,4.25H38.3V10C16.21,13,0,31.16,0,54.25,0,79.52,19.41,100,44.68,100S89.36,79.52,89.36,54.25A45,45,0,0,0,80.57,27.15ZM44.68,93.62c-21.28,0-38.3-18.08-38.3-39.36a38.3,38.3,0,0,1,76.6,0C83,75.53,66,93.62,44.68,93.62Z"/></svg>