<?xml version="1.0" encoding="utf-8"?>
<!-- Generator: Adobe Illustrator 21.0.0, SVG Export Plug-In . SVG Version: 6.00 Build 0)  -->
<svg version="1.1" id="Layer_1" xmlns="http://www.w3.org/2000/svg" xmlns:xlink="http://www.w3.org/1999/xlink" x="0px" y="0px"
	 viewBox="0 0 314.8 364.7" style="enable-background:new 0 0 314.8 364.7;" xml:space="preserve">
<style type="text/css">
	.st0{fill:#771515;}
	.st1{fill:#FF3E3E;}
	.st2{opacity:0.42;fill:#FFCE00;enable-background:new    ;}
	.st3{opacity:0.43;}
	.st4{opacity:0.61;fill:#F97906;enable-background:new    ;}
	.st5{opacity:0.22;fill:#FEFFF5;enable-background:new    ;}
	.st6{fill:#560C09;}
	.st7{opacity:0.46;fill:#470A04;enable-background:new    ;}
	.st8{fill:#5AB8FF;}
	.st9{fill:#FFFFFF;}
	.st10{fill:#56153A;}
	.st11{fill:#28081C;}
	.st12{fill:#EF48A0;}
	.st13{fill:#F97906;}
</style>
<title>SVGtest1</title>
<g>
	<g id="_ÎÓÈ_1">
		<path class="st0" d="M239.4,134c-1-1.3-2-2.7-3.2-4.1c-0.8-0.9-1.5-1.9-2-3c1.4-0.3,2.7-0.4,4.1-0.4c0.8,0,1.7,0,2.7,0.1
			c0.7,0,1.4,0.1,2.2,0.1c6.5,0,27.9-2,31.8-27.1c0.9-6-1-12-5.6-17.3c-7.7-9-22.5-15.3-36-15.3c-7.8,0-14.6,2.1-19.5,6
			c-12.9,10.1-10.9,18.3-9.2,25.5c0.9,3.9,1.8,7.6,0.5,12c-0.6,2-2,4.4-7.8,4.4c-0.5,0-1.1,0-1.7-0.1c-2.3-0.7-4.4-1.4-6.4-2
			c-17.4-5.3-18.3-6.4-16.9-11.4c0.7-2.3,2.8-6.6,9.5-14.3c16.4-10.7,26.1-26.7,26.8-44.1C209,32,205.9,23,199.2,16
			C189,5.4,170.8,0,145.1,0c-42.4,0-66.4,15-67.5,42.3C76.8,63.1,89.2,82.1,110.1,92c6.2,6,9.3,11.7,8.6,15.7
			c-0.5,2.8-3.2,5.2-8,7.1c-3.6,1.5-7.1,3.2-10.5,5.1c-0.4-1.3-0.5-2.7-0.4-4c0.2-4.8-1.6-9.4-5-12.8c-5-5.2-13.3-8.2-22.3-8.2
			c-2.3,0-4.6,0.2-6.9,0.6c-7.7,1.4-14.8,7.4-19.4,16.6c-3.2,6.3-5.8,15.7-2.8,21.6c2,3.9,6.7,7,11.2,10.1l1.2,0.8
			C17.8,168.8,8.2,212,6.9,244.7c-1.1,28.8,8.7,55,28.4,75.7c26.3,27.6,68.9,43.7,116.8,44.2h2.3c40.5,0,78.2-11.2,106-31.5
			c29.6-21.6,46-51.4,47.4-86.1C309.9,201.2,283.7,158,239.4,134z"/>
		<path class="st1" d="M236.9,136.9c-1-1.4-2.2-2.9-3.6-4.7c-6.4-8-2.1-10.1,8-9.5s26.7-3.1,29.9-23.8s-37.4-36.8-55-23
			s-3.2,21.3-7.4,35.6c-1.9,6.3-7.8,7.5-13.9,7c-20.7-6.5-29.2-7.7-26.2-18.2c1.3-4.5,5.7-10.5,10.6-16.2
			c14.9-9.6,24.9-24.5,25.6-41.4c1.2-29-25.6-38.8-59.7-38.8s-62.5,9.7-63.6,38.7c-0.8,20,11.8,37.5,30.8,46.3
			c10.7,10,16.6,22.9-0.2,29.5c-4.3,1.8-8.5,3.9-12.6,6.3c-2-0.9-3.8-3.3-3.5-8.9c0.5-12.2-14.9-19.1-29.7-16.5S43.2,124.6,46.9,132
			c2.3,4.6,11,8.8,16,12.9c-38.5,21.4-50.6,62.4-52.1,99.9c-2.7,69.9,60.7,115.2,141.4,116c81.1,0.8,148.9-43.4,151.9-113.9
			C306.1,200.3,279,159.4,236.9,136.9z"/>
		<path class="st2" d="M177,134.9c-20-2.8-39.9,5.4-52.2,21.3c-21.7,27.3,24.9,34.5,55,41.8s65.6,22.1,75.6,33.3s31.3,24.5,40.6,8.4
			S259.8,133.7,177,134.9z"/>
		<g class="st3">
			<path class="st0" d="M300.8,269.7c-8,19.8-22.9,40.6-50.2,49.6c-58.7,19.3-87.2,0.4-115.7-71.5s-70.3-56.2-89.6-69.5
				s42.2-39,49.8-44.2s18.1-7.2,19.7,0s25.7,0.8,35.4-4.8c8.8-5.1,18.1-15.8,23.1-18.3c-4.6-2.5-6.2-5.4-4.6-10.8
				c1.3-4.5,5.7-10.5,10.6-16.2c12.9-8.3,22.1-20.6,24.8-34.7c-1.9,4.6-4.2,9-6.9,13.2c-6,8.8-67.5,23.7-75.9,7.2s12-14.5,8-37
				c-2.7-15-16.9-20-26.1-21.7c-12.7,6-21,15.9-21.6,31.2c-0.8,20,11.8,37.5,30.8,46.3c10.7,10,16.6,22.9-0.2,29.5
				c-4.3,1.8-8.5,3.9-12.6,6.3c-2-0.9-3.8-3.3-3.5-8.9c0.5-12.2-14.9-19.1-29.7-16.5S43.1,124.5,46.8,132c2.3,4.6,11,8.8,16,12.9
				c-38.4,21.4-50.5,62.4-52,99.9c-2.7,69.9,60.7,115.2,141.4,116C224.2,361.6,285.8,326.8,300.8,269.7z"/>
			<path class="st4" d="M280,172.9c3.2,13.1,1.4,27-14.1,36.4c-36.5,22.2-78.1,21.9-103.8-5.4s-55.9-38.1-73.6-35.9
				s-67.9,27-44.4,65.1s51.7,70.5,32.1,84.4c-6.9,4.9-17,8.1-27.1,10.2c25.7,20.8,62.3,32.7,103.3,33.2c2.3,0,4.5,0,6.8,0
				c-6.8-7.5-15.2-19.6-15-33.4c0.3-21.9-17.8-38.4-43.2-73s2.2-72.4,24.4-63.5s33.3,34,51.7,48.9s57.8,50.5,118.1,34.9
				c1.6-0.4,3.1-0.8,4.6-1.2c2.6-8.6,4.1-17.5,4.5-26.5C305.3,219.3,296.3,193.8,280,172.9z"/>
			<path class="st0" d="M208.7,111.4c-1.9,6.3-7.8,7.5-13.9,7l-5-1.5c0.6,1.3,0.9,2.6,0.8,4c-0.4,8.8,26.1,19.7,33.3,15.7
				c3-1.6,10.1,0.2,17.5,3c-1.5-0.9-3.1-1.8-4.7-2.6c-1-1.4-2.2-2.9-3.6-4.7c-6.4-8-2.1-10.1,8-9.5c7.6,0.4,18.7-1.5,25.2-11.1
				c-5.3,3-11.8,5.7-17.1,5.3c-11.2-0.8-20.9-10.5-18.5-19.3c2-7.1-4.2-18.5-11.5-23.8c-1.1,0.6-2.2,1.2-3.2,2
				C198.6,89.6,213,97,208.7,111.4z"/>
		</g>
		<path class="st5" d="M109.7,212.6c-1.1,0.6-14.4-15.1-26.7-9.4c-7.3,3.4-14.5,7.1-21.4,11.3c0,0,2.1-11.9,12.8-18.2
			s19.2-0.6,19.2-0.6l14.4,9.4L109.7,212.6z"/>
		<path class="st6" d="M86.7,188.2c-15.2,0-27.6,11.6-27.6,26c-0.3,1.8,0.9,3.5,2.7,3.8c1.8,0.3,3.5-0.9,3.8-2.7
			c0.1-0.4,0.1-0.7,0-1.1c0-10.1,9.5-18.3,21.1-18.3s21.1,8.2,21.1,18.3c-0.3,1.8,0.9,3.5,2.7,3.8c1.8,0.3,3.5-0.9,3.8-2.7
			c0.1-0.4,0.1-0.7,0-1.1C114.3,199.9,101.9,188.2,86.7,188.2z"/>
		<path class="st6" d="M73.3,165.8c0,0,8.4-13.2,12.5-10.5S83,164.9,73.3,165.8z"/>
		<path class="st5" d="M206.4,212.6c1.1,0.6,14.4-15.1,26.7-9.4c7.3,3.4,14.4,7.2,21.3,11.3c0,0-2.1-11.9-12.8-18.2
			s-19.2-0.6-19.2-0.6l-14.4,9.4L206.4,212.6z"/>
		<path class="st6" d="M229.4,188.2c15.2,0,27.6,11.6,27.6,26c0.3,1.8-0.9,3.5-2.7,3.8c-1.8,0.3-3.5-0.9-3.8-2.7
			c-0.1-0.4-0.1-0.7,0-1.1c0-10.1-9.5-18.3-21.1-18.3s-21.1,8.2-21.1,18.3c0.3,1.8-0.9,3.5-2.7,3.8c-1.8,0.3-3.5-0.9-3.8-2.7
			c-0.1-0.4-0.1-0.7,0-1.1C201.8,199.9,214.2,188.2,229.4,188.2z"/>
		<path class="st6" d="M242.5,168.4c0,0-8.4-13.2-12.5-10.5S232.8,167.5,242.5,168.4z"/>
		<path class="st7" d="M37.4,212.2c0,0-27.3,0.7-23.7,12.9s38.8-7.2,38.8-7.2S58.2,211.4,37.4,212.2z"/>
		<path class="st8" d="M56.8,215.7c0,0-42.4-27.3-54.6-15.1S31.7,215.7,56.8,215.7z"/>
		<path class="st9" d="M20.6,200c-1.9-0.5-7.7-2.3-12.3,1.9s12.6,1,21,5.5S44.1,206.8,20.6,200z"/>
		<path class="st7" d="M277.4,212.2c0,0,27.3,0.7,23.7,12.9s-38.8-7.2-38.8-7.2S256.5,211.4,277.4,212.2z"/>
		<path class="st8" d="M258,215.7c0,0,42.4-27.3,54.6-15.1S283.1,215.7,258,215.7z"/>
		<path class="st9" d="M294.2,200c1.9-0.5,7.7-2.3,12.3,1.9s-12.6,1-21,5.5S270.7,206.8,294.2,200z"/>
		<path class="st7" d="M274.9,225.5C294.1,268,243.4,336,157.6,336.3C71.7,336,21.1,268,40.2,225.5
			C115,258.3,200.1,258.3,274.9,225.5z"/>
		<path class="st10" d="M268.8,233.2c15.9,38.3-32.4,98.1-111.2,98.3c-78.8-0.2-127.1-60-111.2-98.3
			C117.7,262.1,197.4,262.1,268.8,233.2z"/>
		<path class="st11" d="M129.8,311.5c0,0-22.4-28.2-12.2-42.6s24-12.2,27.1-0.5s-1.6,14.4,5.8,18.1s15.4-1.1,14.4-8
			s-3.2-12.2,5.8-12.8s25,11.2,22.9,24s-8,19.7-11.2,22.3S136.7,317.4,129.8,311.5z"/>
		<path class="st12" d="M157.6,297.5c-27.8,0.1-53.1,5.8-66.2,17.7c18,9.9,40.5,16.3,66.2,16.4s48-6.4,66-16.3
			C210.5,303.4,185.3,297.7,157.6,297.5z"/>
		<path class="st9" d="M209.2,250.3c-36,6.4-72.9,6.1-108.8-1c8.1,13.5,29,25.1,54.2,25.2S200.9,263.7,209.2,250.3z"/>
		<path class="st1" d="M88.7,123.7c3.1-6.5,4-13.2,2.3-19c-5.7-4.9-15.2-7-24.6-5.4c-10.3,1.8-17.4,13.3-19.6,22.6
			c1.1,3.1,3.3,5.8,6.2,7.5C64.2,136.2,83.8,133.7,88.7,123.7z"/>
		<path class="st0" d="M145.3,342.3c0,0,22.9,6.4,36.6-1.6c0,0-4.4,8.8-16.5,9.2C153.2,350.3,147.3,347.5,145.3,342.3z"/>
		<path class="st2" d="M72.2,102c0,0-14.9,0-17.3,10.5s16.9,12.8,25.3,12.5s7.2-14.1,7.6-16.9S80.2,101.2,72.2,102z"/>
		<path class="st2" d="M170.2,8.4c-1.2-0.3-35-6.8-35,3.6s20.5,12.5,22.9,20.5s0.8,22.9,19.3,23.7s23.7-12.5,22.5-19.3
			S196.7,15.6,170.2,8.4z"/>
		<path class="st2" d="M238.5,73.9c0,0-11.9,0.5-4.3,9.2c7,8,13.5,22,22.3,22.9c8.5,0.9,13.5-6.2,11.9-12.2
			C266.7,87.3,255.5,75.2,238.5,73.9z"/>
		<path class="st13" d="M178.7,82.7c-9.6,2.4-42.6,6.4-70.3-2.8c-16-5.3-23.4-21.4-26.8-34.2c0.5,16.3,9.9,30.6,24.4,39.5
			C147.5,98.8,188,80.3,178.7,82.7z"/>
		<path class="st13" d="M55.4,139.6c2.7,1.8,5.4,3.5,7.5,5.3l-0.6,0.4c22.9-3.2,34.5-18,34.5-18s-5.6,6-22.1,12
			C68.4,141.5,61.7,141.7,55.4,139.6z"/>
		<path class="st9" d="M221.2,144.6c0,0-31.7-13.7-51.8-6.8s34.2,6,46.6,13.3S234.5,151.4,221.2,144.6z"/>
		<path class="st13" d="M78.6,338.7c-32.7-15.6-57.4-57.4-66.9-75.5c8.1,59.4,67.2,96.9,140.6,97.6c19.6,0.3,39.1-2.3,57.9-7.6
			C173.1,359.3,114.2,355.6,78.6,338.7z"/>
		<path class="st9" d="M68.6,102c0,0-6,0.4-10.8,6.8s8.8-0.8,15.3-2S81,102.4,68.6,102z"/>
		<path class="st9" d="M154.8,9.1c0,0-14.6,2.1-7,5.6s7.6,3.5,22.2,7.7s20.2,5.6,20.2,0S180.5,11.2,154.8,9.1z"/>
		<path class="st9" d="M192.5,28.4c0,0-0.7,9.7,2.1,9.7S203.7,29.1,192.5,28.4z"/>
		<path class="st9" d="M251,77.2c-1.5-0.7-3.1-1.3-4.7-1.9c-4.4-1.5-10.6-2.8-13.5,0.4c-4.6,5.2,10.6,0.3,18.1,7.5s6,4,8.3,2.9
			S256.8,81.9,251,77.2z"/>
		<path class="st9" d="M261.1,88.8c0,0-1.2,1.2,1.4,3.7s2.3,4,3.2,1.4S263.4,87.9,261.1,88.8z"/>
		<path class="st9" d="M236.4,152.8c0,0-4.8-0.6,2.5,6.7s14,18.1,17.8,14S249.1,159.5,236.4,152.8z"/>
	</g>
</g>
</svg>
