<svg id="_ÎÓÈ_1" data-name="—ÎÓÈ_1" xmlns="http://www.w3.org/2000/svg" viewBox="0 0 290.32 349.73"><defs><style>.cls-1{fill:#045b4f;}.cls-11,.cls-2{fill:#0ba8a0;}.cls-3,.cls-7{fill:#052d28;}.cls-3,.cls-6{opacity:0.22;}.cls-4{fill:#19ccbe;}.cls-5{fill:#00d8a4;}.cls-6{fill:#10ffc0;}.cls-7{opacity:0.29;}.cls-8{fill:#fff;}.cls-9{fill:#06332e;opacity:0.55;}.cls-10{fill:#083f37;}.cls-11{opacity:0.43;}.cls-12{fill:#ef48a0;}.cls-13,.cls-14{fill:#f8c;}.cls-13{opacity:0.78;}.cls-15{fill:#8fffdf;opacity:0.9;}</style></defs><title>PurpleGuy</title><path class="cls-1" d="M798.37,662.32c-4.13-13.41-3.85-16.86-3.74-17.46,1-1.82,4.32-4.5,7.53-7.08,2.29-1.84,4.64-3.74,6.88-5.84,11.25-4.77,16.24-14.56,15.25-29.89-1.21-18.84-18.88-33-41.09-33-22.66,0-41.09,14.93-41.09,33.29,0,13,9.2,24.67,23.59,30.14a6.81,6.81,0,0,1,.6,2.54l-.41,0c-19.8-12.5-40.37-18.83-61.16-18.83-19.33,0-38.53,4.82-57.1,14.33,0-1.67.51-5.42,3.08-12.16,8-9.33,12.33-19.66,12.33-29.16,0-23.47-26.93-34.16-51.95-34.16-24.72,0-46.71,30.22-46.71,54,0,16.14,10.15,25.85,30.17,28.88,3.9,1.46,13,5,14.3,8.4.16.41,1.29,4.44-6.28,18.86-27.63,30-44.11,69-44.11,104.42,0,34.5,15.32,63.18,44.3,83,25.91,17.68,62.12,27.41,102,27.41,92.89,0,144.05-35.17,144.05-99C848.78,741.27,829.48,695.89,798.37,662.32Z" transform="translate(-558.47 -530.28)"/><path class="cls-2" d="M795,664.29c-2.64-8.47-5.19-18.28-3.83-21,2.07-4.14,9.8-8.86,15.77-14.6,8.89-3.53,14.55-10.95,13.56-26.38-1-16.25-16.69-29.48-37.28-29.48s-37.28,13.2-37.28,29.48c0,12.14,9.29,22.57,22.55,27.08a11.43,11.43,0,0,1,1.61,6.31c-.29,2.57-2.5,3.3-5.31,3.14-18.3-11.75-38.69-18.83-60-18.83-20.41,0-40.1,5.66-58,15.3a5.36,5.36,0,0,1-2.12-1.71c-2-2.69,0-10.09,2.78-17.23,7.17-8.23,11.84-18.06,11.84-27.17,0-21.09-25-30.34-48.13-30.34S568.2,588,568.2,609.09c0,16.11,11.55,22.87,27.31,25.16,7.41,2.77,15.17,6.12,16.91,10.77s-2.58,14.62-6.71,22.42c-26.54,28.67-43.43,66.47-43.43,102.2,0,70.74,66.21,106.55,142.45,106.55S845,851.72,845,781C845,741.85,825.38,696.77,795,664.29Z" transform="translate(-558.47 -530.28)"/><path class="cls-3" d="M795,664.29c-2.64-8.47-5.19-18.28-3.83-21,2.07-4.14,9.8-8.86,15.77-14.6,8.89-3.53,14.55-10.95,13.56-26.38a26.89,26.89,0,0,0-1.31-6.64c-.27,8.41-2.63,19.19-12.72,20.81-16.87,2.7-11.47-8.1-25.64-16.87s-10.8,18.22-20.92,6.75c-5.29-6-6-15.31-5.41-22.83-5.34,5.1-8.55,11.65-8.55,18.78,0,12.14,9.29,22.57,22.55,27.08a11.43,11.43,0,0,1,1.61,6.31c-.29,2.57-2.5,3.3-5.31,3.14a122.88,122.88,0,0,0-30.89-14.43c2.91,21.12,23.18,16,34.27,25.23,7.73,6.42,19.79,12.19,27.7,15.59Z" transform="translate(-558.47 -530.28)"/><path class="cls-4" d="M752.47,642.79s-49.93-18.89-79.62,2,29,47.91,54,80.3,63.43,57.36,81.64,49.93,8.77-58,.67-72.87S786.2,652.91,752.47,642.79Z" transform="translate(-558.47 -530.28)"/><path class="cls-3" d="M837.48,760.2c-.67,32.39-52,82.32-102.56,68.15S687,754.13,653.28,732.54,602,779.77,583.1,752.1c-6.12-9-8.84-21.61-9.72-34.61-7.12,17-11.1,34.83-11.1,52.15,0,70.74,66.21,106.55,142.45,106.55S845,851.72,845,781c0-18.43-4.35-38.17-12.12-57.29C835.61,735.09,837.74,748,837.48,760.2Z" transform="translate(-558.47 -530.28)"/><path class="cls-5" d="M834.24,824.88c-6.75,10.59-24.26,29.48-69,35.86-61.4,8.77-110.66,2.7-153.84-18.9-28.78-14.39-42.58-57-48.58-83.74-.38,3.86-.58,7.71-.58,11.54,0,70.74,66.21,106.55,142.45,106.55C762.32,876.2,812.93,862.22,834.24,824.88Z" transform="translate(-558.47 -530.28)"/><path class="cls-6" d="M703,868.46c-1.57-15.72,44.8-10.22,41.66-41.66s-22-32.22-60.52-48.73-52.66-55-30.65-59,81.74,24.37,99,7.07,17.16-61.47-.06-83.4a164.17,164.17,0,0,1-11.25-15.89A102.81,102.81,0,0,0,704.73,620c-1.6,0-3.19,0-4.78.12,15.71,13.14,32.59,33.29,25.85,55.76-11.79,39.3-24.37,16.51-62.88,28.3s-56.59,36.16-37.73,65.24,74.67,27.51,60.52,67.6c-7,19.85-36.17,23.51-63.84,22.14,23.65,11.33,52.45,17,82.85,17q7.22,0,14.28-.3C709.83,874.87,703.43,872.63,703,868.46Z" transform="translate(-558.47 -530.28)"/><path class="cls-3" d="M646.73,635.32a5.36,5.36,0,0,1-2.12-1.71c-2-2.69,0-10.09,2.78-17.23,7.17-8.23,11.84-18.06,11.84-27.17,0-.82-.05-1.61-.12-2.39-11,14.33-34.78,17.5-54.41,14.14-23.62-4-11.47,20.24-25.64,10.12-9-6.43-5.47-20.49-1.7-29.89-5.7,8.9-9.15,19.1-9.15,27.9,0,16.11,11.55,22.87,27.31,25.16,7.41,2.77,15.17,6.12,16.91,10.77s-2.58,14.62-6.71,22.42a174.27,174.27,0,0,0-14.65,18.15c7.26,4.92,11.66,3.63,19.71-3,11.47-9.45,17.54-25,35.09-43.86,2.07-2.23,4.21-4.3,6.38-6.23C650.38,633.41,648.54,634.34,646.73,635.32Z" transform="translate(-558.47 -530.28)"/><path class="cls-7" d="M598,635.21c6.58,2.59,12.88,5.69,14.43,9.82.9,2.41.19,6.21-1.28,10.4,6.91-4.62,15-9.17,22.56-13.31a57.83,57.83,0,0,0,11.08-8.29c-.06-.07-.13-.14-.19-.22-1.85-2.54-.2-9.31,2.34-16.07C636.64,625.43,617.12,635.84,598,635.21Z" transform="translate(-558.47 -530.28)"/><path class="cls-8" d="M751.79,646.84s-39.81-10.79-45.88-2S751.79,657,768,666.41s21.59,17.54,22.94,11.47S782.15,658.31,751.79,646.84Z" transform="translate(-558.47 -530.28)"/><path class="cls-8" d="M799,690.7s-5.4.67-1.35,6.75,8.77,20.92,14.17,20.92S805.77,693.4,799,690.7Z" transform="translate(-558.47 -530.28)"/><path class="cls-5" d="M595.51,634.25c2.33.87,4.7,1.81,6.91,2.82,10.27-1.17,20.68-4.83,30.61-9.8a60.19,60.19,0,0,0,14.07-10.13l.29-.76a56.93,56.93,0,0,0,6.08-8.38,176.29,176.29,0,0,1-17.06,11.18c-2.7,1.35-33.74,16.19-51.28,8.77A41.19,41.19,0,0,1,569.07,616C572,627.21,582.25,632.32,595.51,634.25Z" transform="translate(-558.47 -530.28)"/><ellipse class="cls-9" cx="67.6" cy="221.98" rx="19.27" ry="42.54"/><ellipse class="cls-10" cx="67.6" cy="221.98" rx="15.64" ry="37.73"/><path class="cls-11" d="M627.42,779.62c-7.23,0-13.08-14.12-13.08-31.55a69.09,69.09,0,0,1,1.6-15.13,63,63,0,0,0-3.11,20.41c0,17.43,5.86,31.55,13.08,31.55,5,0,9.26-6.63,11.48-16.42C635,775.29,631.41,779.62,627.42,779.62Z" transform="translate(-558.47 -530.28)"/><ellipse class="cls-8" cx="71.22" cy="206.15" rx="6.9" ry="10.58"/><ellipse class="cls-8" cx="63.72" cy="249.49" rx="3.16" ry="3.31"/><path class="cls-10" d="M616.78,686.6s9.92-13.22,14.73-10.52S628.2,685.7,616.78,686.6Z" transform="translate(-558.47 -530.28)"/><ellipse class="cls-9" cx="220.25" cy="221.98" rx="19.27" ry="42.54"/><ellipse class="cls-10" cx="220.25" cy="221.98" rx="15.64" ry="37.73"/><path class="cls-11" d="M777.36,779.62c7.22,0,13.08-14.12,13.08-31.55a69.1,69.1,0,0,0-1.6-15.13A63,63,0,0,1,792,753.35c0,17.43-5.86,31.55-13.08,31.55-5,0-9.26-6.63-11.48-16.42C769.79,775.29,773.37,779.62,777.36,779.62Z" transform="translate(-558.47 -530.28)"/><ellipse class="cls-8" cx="216.62" cy="206.15" rx="6.9" ry="10.58"/><ellipse class="cls-8" cx="224.12" cy="249.49" rx="3.16" ry="3.31"/><path class="cls-10" d="M788,686.6s-9.92-13.22-14.73-10.52S776.58,685.7,788,686.6Z" transform="translate(-558.47 -530.28)"/><path class="cls-9" d="M670.88,769.66s4.37,16.79,28.31,19.64,33.51-14.37,35-17.73,3.19,20-15.62,24a67.49,67.49,0,0,1-34.2-1.71S673.92,791.62,670.88,769.66Z" transform="translate(-558.47 -530.28)"/><path class="cls-9" d="M711.93,797s9.3,11.38,9.93,15.19,2.55,15.28,8.59,17.83,13.69-4.14,13.05-8.59-.64-18.46-.64-18.46l-12.41-13.37Z" transform="translate(-558.47 -530.28)"/><path class="cls-12" d="M711.93,797s12.46,7.12,17.35,15.57,6.68,14.24,16.46,13.35S759.54,813,755.09,801s-18.69-22.25-18.69-22.25S724.83,798.74,711.93,797Z" transform="translate(-558.47 -530.28)"/><path class="cls-10" d="M703.49,800.86c-19.66,0-35.66-12.63-35.66-28.15a3.05,3.05,0,0,1,6.11,0c0,12.15,13.26,22,29.56,22s29.55-9.89,29.55-22a3.05,3.05,0,0,1,6.11,0C739.15,788.23,723.15,800.86,703.49,800.86Z" transform="translate(-558.47 -530.28)"/><path class="cls-2" d="M659.93,785.38c.44,10.74-13.28,19.44-30.66,19.44s-31.82-8.71-32.27-19.44,13.29-19.44,30.66-19.44S659.49,774.64,659.93,785.38Z" transform="translate(-558.47 -530.28)"/><path class="cls-3" d="M659.93,785.38c.44,10.74-13.28,19.44-30.66,19.44s-31.82-8.71-32.27-19.44,13.29-19.44,30.66-19.44S659.49,774.64,659.93,785.38Z" transform="translate(-558.47 -530.28)"/><path class="cls-6" d="M623.23,766.15c.61,1.08,1.25,2.17,2,3.27,7.27,11.21,20,17.86,32.15,24.1a13,13,0,0,0,2.59-8.14c-.44-10.74-14.89-19.44-32.27-19.44C626.15,765.93,624.68,766,623.23,766.15Z" transform="translate(-558.47 -530.28)"/><path class="cls-13" d="M647.49,788.43c.27,6.49-8,11.76-18.54,11.76s-19.25-5.26-19.51-11.76,8-11.76,18.54-11.76S647.23,781.94,647.49,788.43Z" transform="translate(-558.47 -530.28)"/><path class="cls-2" d="M811.05,785.38c.44,10.74-13.28,19.44-30.66,19.44s-31.82-8.71-32.27-19.44,13.29-19.44,30.66-19.44S810.61,774.64,811.05,785.38Z" transform="translate(-558.47 -530.28)"/><path class="cls-13" d="M798.62,788.43c.27,6.49-8,11.76-18.54,11.76s-19.25-5.26-19.51-11.76,8-11.76,18.54-11.76S798.35,781.94,798.62,788.43Z" transform="translate(-558.47 -530.28)"/><path class="cls-13" d="M733.64,796.56s-9.55-.64-4.46,6.37,8.91,17.83,13.05,16.23S745.42,799.43,733.64,796.56Z" transform="translate(-558.47 -530.28)"/><path class="cls-14" d="M742.87,791.47s-2.23,2.54,1.27,8.91,3.5,18.78,7.32,15.6S753.37,794.65,742.87,791.47Z" transform="translate(-558.47 -530.28)"/><path class="cls-4" d="M617.63,562.74s-17.9-3.8-28.75,12.48,25.49,7,34.17,14.1,26,4.34,28.2-2.71S644.75,564.36,617.63,562.74Z" transform="translate(-558.47 -530.28)"/><path class="cls-8" d="M613.83,564.9s-8.14-1.08-1.09,4.34,11.93,7.05,16.27,6,9.76-2.71,3.8-6S624.68,565.45,613.83,564.9Z" transform="translate(-558.47 -530.28)"/><path class="cls-15" d="M691.05,868.29c-.46,3.56-14.77,3.79-32,.49s-30.75-8.85-30.29-12.41,14.77-3.79,32-.5S691.51,864.72,691.05,868.29Z" transform="translate(-558.47 -530.28)"/><path class="cls-15" d="M624.79,852c-1,2.25-4.36,2.7-7.58,1s-5-4.9-4.06-7.15,4.36-2.7,7.58-1S625.76,849.76,624.79,852Z" transform="translate(-558.47 -530.28)"/><path class="cls-7" d="M768.72,629.91a10.88,10.88,0,0,1,1.36,5.79,3.32,3.32,0,0,1-3.06,3c7.43,4.94,18.47,12.65,25.69,17.72-1.56-5.93-2.51-11.26-1.56-13.16,2.07-4.14,9.8-8.86,15.77-14.6a25.5,25.5,0,0,0,2.89-1.36C799.59,631,784,635.06,768.72,629.91Z" transform="translate(-558.47 -530.28)"/><path class="cls-4" d="M789.61,575.62s-19.67-4.14-23.82,6.21,25.37,7.77,31.06,13.46,11.39,11.91,17.09,6.21S813.94,584.42,789.61,575.62Z" transform="translate(-558.47 -530.28)"/><path class="cls-5" d="M745.92,602.31c0,12.14,9.29,22.57,22.55,27.08.09.18.16.35.25.53a86.5,86.5,0,0,0,21.4,4.2,38.46,38.46,0,0,0,11.58-.89c1.77-1.44,3.56-3,5.21-4.55a20.47,20.47,0,0,0,9.4-7c-4,3.17-9.86,7.3-12.73,7.3-4.66,0-25.89,3.11-38.83-7.77-10.54-8.86-16.28-20.81-18-24.93A23.63,23.63,0,0,0,745.92,602.31Z" transform="translate(-558.47 -530.28)"/><path class="cls-8" d="M789.61,575.62s-11.39-3.11-.52,6.21,15.53,12.94,19.67,12.43S810.32,583.9,789.61,575.62Z" transform="translate(-558.47 -530.28)"/><path class="cls-1" d="M722.92,558.36c0,13.49-10.3,20.76-27.52,20.76S670.12,573.5,670.12,560s8.06-29.73,25.28-29.73S722.92,544.87,722.92,558.36Z" transform="translate(-558.47 -530.28)"/><path class="cls-2" d="M718.54,557.75c0,11.25-8.59,17.32-23,17.32s-21.09-4.69-21.09-15.94,6.72-24.8,21.09-24.8S718.54,546.5,718.54,557.75Z" transform="translate(-558.47 -530.28)"/><path class="cls-3" d="M695.58,575.07c12.24,0,20.26-4.42,22.38-12.68-7.78,3.28-19.66,5.39-25.69,3.38-9.32-3.11.52-11.91-9.84-14-3.58-.72-5.84.13-7.36,1.59a30,30,0,0,0-.58,5.74C674.5,570.38,681.22,575.07,695.58,575.07Z" transform="translate(-558.47 -530.28)"/><path class="cls-4" d="M699,536.79s-9.32-1.55-14.5,5.69,17.09,6.73,18.64,9.84,4.66,5.69,9.84,5.18S714.54,538.34,699,536.79Z" transform="translate(-558.47 -530.28)"/><path class="cls-8" d="M699,536.79s-7.25,2.59-1.55,7.25,17.08,14.5,16,8.8S709.88,535.75,699,536.79Z" transform="translate(-558.47 -530.28)"/><path class="cls-5" d="M684.19,569.9c-4.73-3.58-7.67-9.55-9.46-14.28a29.72,29.72,0,0,0-.23,3.51c0,11.25,6.72,15.94,21.09,15.94,6.87,0,12.41-1.41,16.33-4.09C703.84,572.3,689.5,573.91,684.19,569.9Z" transform="translate(-558.47 -530.28)"/></svg>