<svg id="_ÎÓÈ_3" data-name="—ÎÓÈ_3" xmlns="http://www.w3.org/2000/svg" xmlns:xlink="http://www.w3.org/1999/xlink" viewBox="0 0 1044.22 153"><defs><style>.cls-1{fill:#09011e;opacity:0.36;}.cls-2{fill:#392453;}.cls-3{fill:#502158;}.cls-4{fill:#633b79;}.cls-5{fill:#755695;}.cls-6{fill:#f892fc;opacity:0.46;}.cls-7{fill:url(#linear-gradient);}</style><linearGradient id="linear-gradient" x1="758.86" y1="141.18" x2="758.86" y2="206.18" gradientUnits="userSpaceOnUse"><stop offset="0.19" stop-color="#382158"/><stop offset="1" stop-color="#502158"/></linearGradient></defs><title>timer_bar</title><path class="cls-1" d="M1229.38,143.31H288.69c-28.5,0-51.69,23.55-51.69,52.5v19c0,28.95,23.19,52.5,51.69,52.5h940.69c28.5,0,51.69-23.55,51.69-52.5v-19C1281.07,166.86,1257.88,143.31,1229.38,143.31Z" transform="translate(-237 -114.31)"/><path class="cls-2" d="M1229.38,129.31H288.69c-28.5,0-51.69,23.55-51.69,52.5v19c0,28.95,23.19,52.5,51.69,52.5h940.69c28.5,0,51.69-23.55,51.69-52.5v-19C1281.07,152.86,1257.88,129.31,1229.38,129.31Z" transform="translate(-237 -114.31)"/><path class="cls-3" d="M1276.07,200.81c0,26.23-21,47.5-47,47.5H284c-26,0-47-21.27-47-47.5v-19c0-26.23,21-47.5,47-47.5h945.09c26,0,47,21.27,47,47.5Z" transform="translate(-237 -114.31)"/><path class="cls-2" d="M1229.41,114.31H289.26c-28.49,0-51.66,23.55-51.66,52.5v16c0,28.32,22.69,50.5,51.66,50.5h940.15c29,0,51.66-22.18,51.66-50.5v-16C1281.07,137.86,1257.89,114.31,1229.41,114.31Z" transform="translate(-237 -114.31)"/><path class="cls-4" d="M1276.15,182.81c0,26.23-20.94,45.5-46.77,45.5H288.69c-25.83,0-46.77-19.27-46.77-45.5v-16c0-26.23,20.94-47.5,46.77-47.5h940.69c25.83,0,46.77,21.27,46.77,47.5Z" transform="translate(-237 -114.31)"/><path class="cls-5" d="M1231.51,122s-26.5-.61-39.18.33-23.86,3.64-18.12,6.17,52.27,1.79,57.18,1.95C1237.68,130.63,1239.23,123,1231.51,122Z" transform="translate(-237 -114.31)"/><ellipse class="cls-6" cx="1199.38" cy="124.61" rx="5.88" ry="1.9" transform="translate(-239.78 -83.8) rotate(-1.46)"/><path class="cls-5" d="M1268,189.67c-.71-.74-1.31,0-1.9.84-6.54,9.25-14.2,21.56-26.72,24.75-11.75,3-27.5,2.13-35.12,2.38-36,1.18-24.24,5.65,2.45,5.39,14.8-.14,38.63,4.31,51.63-10C1267.35,203.06,1271.52,193.36,1268,189.67Z" transform="translate(-237 -114.31)"/><ellipse class="cls-6" cx="976.51" cy="106.62" rx="9.5" ry="1.64"/><path class="cls-2" d="M1244,169.28s20.6-3.81,29.75,1.53,7.34,12,7.34,12v-16S1253.9,158.6,1244,169.28Z" transform="translate(-237 -114.31)"/><path class="cls-3" d="M1249.28,179.18c0,15.65-12.68,27.13-28.33,27.13H296.78c-15.64,0-28.33-11.49-28.33-27.13v-9.54a28.33,28.33,0,0,1,28.33-28.33H1221a28.32,28.32,0,0,1,28.33,28.33Z" transform="translate(-237 -114.31)"/><path class="cls-7" d="M1249.28,179.18c0,15.65-12.68,27.13-28.33,27.13H296.78c-15.64,0-28.33-11.49-28.33-27.13v-9.54a28.33,28.33,0,0,1,28.33-28.33H1221a28.32,28.32,0,0,1,28.33,28.33Z" transform="translate(-237 -114.31)"/><ellipse class="cls-6" cx="1221.61" cy="124.67" rx="11.1" ry="1.92" transform="translate(-239.77 -83.23) rotate(-1.46)"/><path class="cls-5" d="M1242.78,129.74s-4.44,3.45,3,7.4,8.38,14,17.26,16.84S1263,128.75,1242.78,129.74Z" transform="translate(-237 -114.31)"/><ellipse class="cls-6" cx="990.6" cy="106.37" rx="2.74" ry="1.36"/><path class="cls-5" d="M333.21,220.24S306.84,223,294.12,223s-24.07-2-18.55-5.22,52-6,56.86-6.59C338.68,210.45,340.82,218.52,333.21,220.24Z" transform="translate(-237 -114.31)"/><ellipse class="cls-6" cx="311.57" cy="217.25" rx="11.1" ry="1.92" transform="translate(-242.42 -106.32) rotate(-1.46)"/><path class="cls-2" d="M277.9,169.78S258,166,249.16,171.31s-7.09,12-7.09,12v-16S268.32,159.1,277.9,169.78Z" transform="translate(-237 -114.31)"/><path class="cls-5" d="M258.52,158.88c.78.78,1.45,0,2.1-.87,7.21-9.67,15.67-22.55,29.49-25.9,13-3.14,30.35-2.22,38.77-2.48,39.75-1.24,26.76-5.91-2.7-5.64-16.34.15-42.64-4.51-57,10.49C259.24,144.87,254.64,155,258.52,158.88Z" transform="translate(-237 -114.31)"/><ellipse class="cls-6" cx="69.48" cy="12" rx="9.5" ry="1.64"/></svg>