<?xml version="1.0" encoding="utf-8"?>
<!-- Generator: Adobe Illustrator 21.0.0, SVG Export Plug-In . SVG Version: 6.00 Build 0)  -->
<svg version="1.1" id="_ÎÓÈ_3" xmlns="http://www.w3.org/2000/svg" xmlns:xlink="http://www.w3.org/1999/xlink" x="0px" y="0px"
	 viewBox="0 0 1044.2 153" style="enable-background:new 0 0 1044.2 153;" xml:space="preserve">
<style type="text/css">
	.st0{opacity:0.36;fill:#09011E;enable-background:new    ;}
	.st1{fill:#392453;}
	.st2{fill:#502158;}
	.st3{fill:#633B79;}
	.st4{fill:#755695;}
	.st5{opacity:0.46;fill:#F892FC;enable-background:new    ;}
	.st6{fill:url(#SVGID_1_);}
</style>
<title>timer_bar</title>
<path class="st0" d="M992.4,29H51.7C23.2,29,0,52.6,0,81.5v19C0,129.4,23.2,153,51.7,153h940.7c28.5,0,51.7-23.6,51.7-52.5v-19
	C1044.1,52.6,1020.9,29,992.4,29z"/>
<path class="st1" d="M992.4,15H51.7C23.2,15,0,38.6,0,67.5v19C0,115.4,23.2,139,51.7,139h940.7c28.5,0,51.7-23.6,51.7-52.5v-19
	C1044.1,38.6,1020.9,15,992.4,15z"/>
<path class="st2" d="M1039.1,86.5c0,26.2-21,47.5-47,47.5H47c-26,0-47-21.3-47-47.5v-19C0,41.3,21,20,47,20h945.1
	c26,0,47,21.3,47,47.5L1039.1,86.5z"/>
<path class="st1" d="M992.4,0H52.3C23.8,0,0.6,23.6,0.6,52.5v16c0,28.3,22.7,50.5,51.7,50.5h940.2c29,0,51.7-22.2,51.7-50.5v-16
	C1044.1,23.6,1020.9,0,992.4,0z"/>
<path class="st3" d="M1039.2,68.5c0,26.2-20.9,45.5-46.8,45.5H51.7C25.9,114,4.9,94.7,4.9,68.5v-16C4.9,26.3,25.9,5,51.7,5h940.7
	c25.8,0,46.8,21.3,46.8,47.5V68.5z"/>
<path class="st4" d="M994.5,7.7c0,0-26.5-0.6-39.2,0.3s-23.9,3.6-18.1,6.2s52.3,1.8,57.2,1.9C1000.7,16.3,1002.2,8.7,994.5,7.7z"/>
<ellipse transform="matrix(0.9997 -2.547905e-02 2.547905e-02 0.9997 5.227915e-02 24.524)" class="st5" cx="962.4" cy="10.2" rx="5.9" ry="1.9"/>
<path class="st4" d="M1031,75.4c-0.7-0.7-1.3,0-1.9,0.8c-6.5,9.2-14.2,21.6-26.7,24.8c-11.8,3-27.5,2.1-35.1,2.4
	c-36,1.2-24.2,5.6,2.4,5.4c14.8-0.1,38.6,4.3,51.6-10C1030.3,88.8,1034.5,79.1,1031,75.4z"/>
<ellipse class="st5" cx="976.5" cy="106.6" rx="9.5" ry="1.6"/>
<path class="st1" d="M1007,55c0,0,20.6-3.8,29.8,1.5s7.3,12,7.3,12v-16C1044.1,52.5,1016.9,44.3,1007,55z"/>
<path class="st2" d="M1012.3,64.9c0,15.6-12.7,27.1-28.3,27.1H59.8c-15.6,0-28.3-11.5-28.3-27.1v-9.5C31.5,39.7,44.1,27,59.8,27H984
	c15.6,0,28.3,12.7,28.3,28.3c0,0,0,0,0,0L1012.3,64.9z"/>
<linearGradient id="SVGID_1_" gradientUnits="userSpaceOnUse" x1="758.89" y1="12.82" x2="758.89" y2="-52.18" gradientTransform="matrix(1 0 0 -1 -237 39.69)">
	<stop  offset="0.19" style="stop-color:#382158"/>
	<stop  offset="1" style="stop-color:#502158"/>
</linearGradient>
<path class="st6" d="M1012.3,64.9c0,15.6-12.7,27.1-28.3,27.1H59.8c-15.6,0-28.3-11.5-28.3-27.1v-9.5C31.5,39.7,44.1,27,59.8,27H984
	c15.6,0,28.3,12.7,28.3,28.3c0,0,0,0,0,0L1012.3,64.9z"/>
<ellipse transform="matrix(0.9997 -2.547905e-02 2.547905e-02 0.9997 5.787744e-02 25.0905)" class="st5" cx="984.6" cy="10.3" rx="11.1" ry="1.9"/>
<path class="st4" d="M1005.8,15.4c0,0-4.4,3.4,3,7.4s8.4,14,17.3,16.8S1026,14.4,1005.8,15.4z"/>
<ellipse class="st5" cx="990.6" cy="106.4" rx="2.7" ry="1.4"/>
<path class="st4" d="M96.2,105.9c0,0-26.4,2.8-39.1,2.8s-24.1-2-18.5-5.2s52-6,56.9-6.6C101.7,96.1,103.8,104.2,96.2,105.9z"/>
<ellipse transform="matrix(0.9997 -2.547905e-02 2.547905e-02 0.9997 -2.5981 1.9337)" class="st5" cx="74.6" cy="102.9" rx="11.1" ry="1.9"/>
<path class="st1" d="M40.9,55.5c0,0-19.9-3.8-28.7,1.5S5.1,69,5.1,69V53C5.1,53,31.3,44.8,40.9,55.5z"/>
<path class="st4" d="M21.5,44.6c0.8,0.8,1.5,0,2.1-0.9c7.2-9.7,15.7-22.6,29.5-25.9c13-3.1,30.4-2.2,38.8-2.5
	c39.8-1.2,26.8-5.9-2.7-5.6c-16.3,0.2-42.6-4.5-57,10.5C22.2,30.6,17.6,40.7,21.5,44.6z"/>
<ellipse class="st5" cx="69.5" cy="12" rx="9.5" ry="1.6"/>
</svg>
