<svg xmlns="http://www.w3.org/2000/svg" xmlns:xlink="http://www.w3.org/1999/xlink" viewBox="0 0 546.63 560.26"><defs><style>.cls-1{mask:url(#mask);}.cls-2,.cls-4,.cls-6{mix-blend-mode:multiply;}.cls-2{fill:url(#radial-gradient);}.cls-3{mask:url(#mask-2);}.cls-4{fill:url(#radial-gradient-2);}.cls-5{mask:url(#mask-3);}.cls-6{fill:url(#radial-gradient-3);}.cls-7{fill:none;}.cls-8{isolation:isolate;}.cls-10,.cls-13,.cls-9{opacity:0.7;}.cls-9{fill:url(#linear-gradient);}.cls-10{fill:url(#linear-gradient-2);}.cls-11{opacity:0.5;}.cls-12{clip-path:url(#clip-path);}.cls-13{fill:url(#linear-gradient-3);}.cls-14{mask:url(#mask-4);}.cls-15,.cls-34,.cls-36{mix-blend-mode:screen;}.cls-15{fill:url(#radial-gradient-4);}.cls-16{fill:#8a9bba;}.cls-17{fill:#7588a3;}.cls-18{fill:#5a6c82;}.cls-19{fill:#b0bfe0;}.cls-20,.cls-22{fill:#92eded;}.cls-21,.cls-32{fill:#142642;}.cls-21{opacity:0.19;}.cls-22{opacity:0.36;}.cls-23{fill:#2af9d7;}.cls-24{fill:#08e2b8;}.cls-25{fill:#00949b;opacity:0.35;}.cls-26,.cls-27{fill:#d1fff6;}.cls-26{opacity:0.33;}.cls-28{fill:#fff;}.cls-29{fill:#687d99;}.cls-30{fill:#fcfaff;}.cls-31{fill:#a5fffd;}.cls-32{opacity:0.29;}.cls-33{mask:url(#mask-5);}.cls-34{fill:url(#radial-gradient-5);}.cls-35{mask:url(#mask-6);}.cls-36{fill:url(#radial-gradient-6);}.cls-37{filter:url(#luminosity-noclip-3);}.cls-38{filter:url(#luminosity-noclip-2);}.cls-39{filter:url(#luminosity-noclip);}</style><filter id="luminosity-noclip" x="570.9" y="-8692" width="301.44" height="32766" filterUnits="userSpaceOnUse" color-interpolation-filters="sRGB"><feFlood flood-color="#fff" result="bg"/><feBlend in="SourceGraphic" in2="bg"/></filter><mask id="mask" x="570.9" y="-8692" width="301.44" height="32766" maskUnits="userSpaceOnUse"><g class="cls-39"/></mask><radialGradient id="radial-gradient" cx="-55.58" cy="-126.79" r="258.52" gradientTransform="translate(754.03 235.42) scale(0.58 0.43)" gradientUnits="userSpaceOnUse"><stop offset="0.14" stop-color="#fff"/><stop offset="0.27" stop-color="#c2c2c2"/><stop offset="0.42" stop-color="#888"/><stop offset="0.56" stop-color="#575757"/><stop offset="0.69" stop-color="#313131"/><stop offset="0.81" stop-color="#161616"/><stop offset="0.92" stop-color="#060606"/><stop offset="1"/></radialGradient><filter id="luminosity-noclip-2" x="649.06" y="-8692" width="221.01" height="32766" filterUnits="userSpaceOnUse" color-interpolation-filters="sRGB"><feFlood flood-color="#fff" result="bg"/><feBlend in="SourceGraphic" in2="bg"/></filter><mask id="mask-2" x="649.06" y="-8692" width="221.01" height="32766" maskUnits="userSpaceOnUse"><g class="cls-38"/></mask><radialGradient id="radial-gradient-2" cx="9.49" cy="-165.25" r="189.54" xlink:href="#radial-gradient"/><filter id="luminosity-noclip-3" x="577.12" y="-8692" width="90.11" height="32766" filterUnits="userSpaceOnUse" color-interpolation-filters="sRGB"><feFlood flood-color="#fff" result="bg"/><feBlend in="SourceGraphic" in2="bg"/></filter><mask id="mask-3" x="577.12" y="-8692" width="90.11" height="32766" maskUnits="userSpaceOnUse"><g class="cls-37"/></mask><radialGradient id="radial-gradient-3" cx="-2733.42" cy="4139.62" r="87.47" gradientTransform="matrix(0.76, 0, 0, 0.36, 2711.07, -1301.22)" xlink:href="#radial-gradient"/><linearGradient id="linear-gradient" x1="273.32" y1="560.26" x2="273.32" y2="234.9" gradientUnits="userSpaceOnUse"><stop offset="0" stop-color="#0d0416" stop-opacity="0"/><stop offset="0.26" stop-color="#0a3f46" stop-opacity="0.17"/><stop offset="0.84" stop-color="#02d4bd" stop-opacity="0.58"/><stop offset="1" stop-color="#00ffe0" stop-opacity="0.7"/></linearGradient><linearGradient id="linear-gradient-2" x1="269.29" y1="560.26" x2="269.29" y2="234.9" gradientUnits="userSpaceOnUse"><stop offset="0" stop-color="#0d0819" stop-opacity="0"/><stop offset="0.28" stop-color="#0a484d" stop-opacity="0.18"/><stop offset="0.92" stop-color="#01e9ce" stop-opacity="0.64"/><stop offset="1" stop-color="#00ffe0" stop-opacity="0.7"/></linearGradient><clipPath id="clip-path" transform="translate(-461.87 -67.89)"><path class="cls-7" d="M574.28,471.84c3.53-11.14,26.13-18,37.63-20s23.3-.36,35-.21a134.26,134.26,0,0,0,42.44-6.31c5.77-1.84,11.57-4.16,15.94-8.35,11.22-10.73,9.16-29.35,2.92-43.57-3.16-7.19-7.26-14.76-5.62-22.44,2.64-12.38,18-16.93,30.67-16.86S760,356.07,770,348.28c8.81-6.89,11.22-19,13-30l3.46-21.09H675.5Z"/></clipPath><linearGradient id="linear-gradient-3" x1="258.78" y1="560.26" x2="258.78" y2="234.9" xlink:href="#linear-gradient-2"/><mask id="mask-4" x="109.04" y="0" width="301.44" height="224.8" maskUnits="userSpaceOnUse"><g transform="translate(-461.87 -67.89)"><g class="cls-1"><path class="cls-2" d="M872.34,180.27c0,62.08-67.47,112.41-150.71,112.42S570.9,242.39,570.9,180.31,638.38,67.9,721.61,67.89,872.34,118.19,872.34,180.27Z"/></g></g></mask><radialGradient id="radial-gradient-4" cx="-55.59" cy="-126.79" r="258.52" gradientTransform="translate(754.03 235.42) scale(0.58 0.43)" gradientUnits="userSpaceOnUse"><stop offset="0" stop-color="#80ebf0"/><stop offset="0.22" stop-color="#56f1eb"/><stop offset="0.45" stop-color="#31f7e6"/><stop offset="0.66" stop-color="#16fce3"/><stop offset="0.85" stop-color="#06fee1"/><stop offset="1" stop-color="#00ffe0"/></radialGradient><mask id="mask-5" x="187.2" y="13.27" width="221.01" height="164.81" maskUnits="userSpaceOnUse"><g transform="translate(-461.87 -67.89)"><g class="cls-3"><path class="cls-4" d="M870.07,163.55c0,45.51-49.46,82.41-110.5,82.42s-110.51-36.88-110.51-82.4,49.47-82.41,110.49-82.42S870.06,118,870.07,163.55Z"/></g></g></mask><radialGradient id="radial-gradient-5" cx="9.49" cy="-165.25" r="189.54" xlink:href="#radial-gradient-4"/><mask id="mask-6" x="115.26" y="59.7" width="90.11" height="117.09" maskUnits="userSpaceOnUse"><g transform="translate(-461.87 -67.89)"><g class="cls-5"><ellipse class="cls-6" cx="622.17" cy="186.14" rx="66.84" ry="31.43" transform="translate(125.93 605.06) rotate(-56.83)"/></g></g></mask><radialGradient id="radial-gradient-6" cx="-2733.42" cy="4139.62" r="87.47" gradientTransform="matrix(0.76, 0, 0, 0.36, 2711.07, -1301.21)" xlink:href="#radial-gradient-4"/></defs><title>UFO</title><g class="cls-8"><g id="_ÎÓÈ_2" data-name="—ÎÓÈ_2"><polygon class="cls-9" points="347.65 234.9 196.89 234.9 0 560.26 546.63 560.26 347.65 234.9"/><polygon class="cls-10" points="331.2 234.9 212.78 234.9 18.06 560.26 520.52 560.26 331.2 234.9"/><g class="cls-11"><g class="cls-12"><polygon class="cls-13" points="331.2 234.9 212.78 234.9 17.05 560.26 500.5 560.26 331.2 234.9"/></g></g><g class="cls-14"><path class="cls-15" d="M872.34,180.27c0,62.08-67.47,112.41-150.71,112.42S570.9,242.39,570.9,180.31,638.38,67.9,721.61,67.89,872.34,118.19,872.34,180.27Z" transform="translate(-461.87 -67.89)"/></g><path class="cls-16" d="M952.69,262.9S839.44,256.26,807,256.26c-21,0-54.92-.15-77,7.67-22.06-7.82-55.94-7.67-77-7.67-32.46,0-145.71,6.64-145.71,6.64s-4.43,12.91,15.86,25.82,87.43,27.67,152,29.88c25.27.87,84.42.87,109.69,0,64.56-2.21,131.69-17,152-29.88S952.69,262.9,952.69,262.9Z" transform="translate(-461.87 -67.89)"/><path class="cls-17" d="M857.08,310c-69.67,6.83-142.75,1.37-153.68-3.42s25.55-22.44,25.55-22.44l-28.78-26.2c-16.77-1.72-34.34-1.67-47.16-1.67-32.46,0-145.71,6.64-145.71,6.64s-4.43,12.91,15.86,25.82,87.43,27.67,152,29.88c25.27.87,84.42.87,109.69,0A580.46,580.46,0,0,0,869,309.32C865.08,309.38,861.1,309.59,857.08,310Z" transform="translate(-461.87 -67.89)"/><path class="cls-18" d="M720.48,318.35s-6.33-1.51-2.71-5.58,9.5-4.07,14.47-2.41,6.33,6.93,1.81,7.84S720.48,318.35,720.48,318.35Z" transform="translate(-461.87 -67.89)"/><path class="cls-18" d="M609.79,312.9s-7.43-4-4.58-7,10.43-2.05,16.75.79,8.69,5.69,4.9,7.11S611.22,313.53,609.79,312.9Z" transform="translate(-461.87 -67.89)"/><path class="cls-19" d="M947.83,257.51c-9-8.57-33.66-27.14-97.82-54-52.78-22.1-94.45-22.73-120.08-19.4-25.63-3.34-67.3-2.7-120.08,19.4-68,28.47-91.67,47.62-99.27,55.43a13.5,13.5,0,0,0-2.44,2.76,10.75,10.75,0,0,0-.84,1.2h.2a6.43,6.43,0,0,0-.57,2.58c0,20,99.92,36.15,223.18,36.15s223.18-16.19,223.18-36.15C953.29,262.74,951.4,260.08,947.83,257.51Z" transform="translate(-461.87 -67.89)"/><path class="cls-20" d="M896.94,267.25c-50.54-9-56.61-31-45.1-46.7a70.56,70.56,0,0,0,7.63-13c-3.06-1.32-6.2-2.66-9.46-4-6.76-2.83-13.34-5.31-19.73-7.47l-46.57,31.54s-61.73,55,5.44,55c40.7,0,97.12.24,120,4.48,19.4-4.21,33.26-9.14,39.84-14.48C942.32,272.35,927.33,272.63,896.94,267.25Z" transform="translate(-461.87 -67.89)"/><path class="cls-21" d="M825.21,298.2c-64.18,1.2-118.49-9-143.52-22.32-30.07-16,47-27.83,64-51.18,10.72-14.76-62.32-23.64-117.48-28.18-5.95,2-12,4.36-18.32,7-68,28.47-91.67,47.62-99.27,55.43a13.5,13.5,0,0,0-2.44,2.76,10.75,10.75,0,0,0-.84,1.2h.2a6.43,6.43,0,0,0-.57,2.58c0,20,99.92,36.15,223.18,36.15C764.13,301.64,796.36,300.4,825.21,298.2Z" transform="translate(-461.87 -67.89)"/><path class="cls-22" d="M569.24,288.82c-8.19-6.74-8.67-21.68,20.71-31.31s104-11.08,127.64-15.9-17.34-39.5-32.27-42.39-90.07,10.6-90.55,16.38c0,0,18.79,12,16.38,26.49-2,12.09-61.32,18.44-97.58,14-1.19,1.07-2.18,2-3,2.85a13.5,13.5,0,0,0-2.44,2.76,10.75,10.75,0,0,0-.84,1.2h.2a6.43,6.43,0,0,0-.57,2.58c0,9.94,24.77,18.94,64.84,25.48C571,290.24,570.09,289.52,569.24,288.82Z" transform="translate(-461.87 -67.89)"/><path class="cls-17" d="M850.13,203.56l-.12-.05c-52.78-22.1-94.45-22.73-120.08-19.4-25.63-3.34-67.3-2.7-120.08,19.4-7.49,3.14-14.42,6.16-20.88,9.06,3.94,8.11,14,16.33,36.93,20.91,55.89,11.18,115.07,11.84,152.55,7.23C812.91,236.48,857.93,228.35,850.13,203.56Z" transform="translate(-461.87 -67.89)"/><path class="cls-23" d="M845,210c0,14.66-55.4,26.54-123.74,26.54S597.48,224.69,597.48,210s32-99.15,123.74-98.41C819.2,109.32,845,195.37,845,210Z" transform="translate(-461.87 -67.89)"/><path class="cls-24" d="M845,210c0-4.87-2.84-17.6-10.22-32.35a46.78,46.78,0,0,0-4.5,3.72c-34,32.05-94.68,4.93-153.85-15.29-20.31-6.94-37.72-9.81-51.83-10.59-19.18,22.73-27.08,47.23-27.08,54.51,0,14.66,55.4,26.54,123.74,26.54S845,224.69,845,210Z" transform="translate(-461.87 -67.89)"/><path class="cls-25" d="M791.71,219.33c-46.72,15.57-113.19-3.59-103-18.57S724,205,692.89,166c-17.67-22.09-12-39.73-3.81-50.88-67.21,16.09-91.6,82.08-91.6,94.88,0,14.66,55.4,26.54,123.74,26.54S845,224.69,845,210c0-7.21-6.24-31.7-24.24-54.44C833.09,181.78,825.1,208.21,791.71,219.33Z" transform="translate(-461.87 -67.89)"/><path class="cls-26" d="M745.26,112.94C756,130.7,766.68,165,718,196c-38.8,24.75-84.88,19.24-119.26,6.52a32,32,0,0,0-1.3,7.53c0,14.66,55.4,26.54,123.74,26.54q8,0,15.66-.21c-6.41-12.46-13.58-34.93,5.72-51.77,23.38-20.4,60-31.28,91.62-8C821.12,151,794.37,119.77,745.26,112.94Z" transform="translate(-461.87 -67.89)"/><path class="cls-27" d="M668.33,127.1s-47,21.49-67.39,84.38c0,0,2.11,1.87,7.5,3.66C608.44,215.14,617.43,161.24,668.33,127.1Z" transform="translate(-461.87 -67.89)"/><path class="cls-27" d="M756.37,118.72s-44.32-7.79-50.31,1.8,6,12,52.71,16.17,54.5,29.95,58.69,35.93,3.17-12-13.18-28.15C794.1,134.38,779.73,124.11,756.37,118.72Z" transform="translate(-461.87 -67.89)"/><path class="cls-28" d="M751.34,121.24s-9.37,2,.49,6.41,14.79,6.41,17.75,2.47S763.18,121.24,751.34,121.24Z" transform="translate(-461.87 -67.89)"/><path class="cls-28" d="M779.45,132.09s-5.92-.49,3.45,7.4S789.8,133.56,779.45,132.09Z" transform="translate(-461.87 -67.89)"/><path class="cls-23" d="M824.69,180.81s-5.44,1.36-3.4,7.49,3.4,19.74,6.81,17S829.45,187.61,824.69,180.81Z" transform="translate(-461.87 -67.89)"/><path class="cls-23" d="M730.11,301.64c123.26,0,223.18-16.19,223.18-36.15,0-.11,0-.22,0-.33-17.68,20.77-61.8,24.06-61.8,24.06A1087,1087,0,0,1,767,299.9c-68.54,1.89-166-5-223.86-19.49-21.12-5.28-31.25-11.73-35.61-17.79-.13.19-.18.29-.18.29h.2a6.43,6.43,0,0,0-.57,2.58C506.93,285.45,606.85,301.64,730.11,301.64Z" transform="translate(-461.87 -67.89)"/><path class="cls-29" d="M716.86,291.3s.67-6.71,12.09-7.16,14.77,7.83,13.43,9.18S715.29,296,716.86,291.3Z" transform="translate(-461.87 -67.89)"/><ellipse class="cls-23" cx="267.88" cy="224.95" rx="10.65" ry="4.79"/><path class="cls-20" d="M725.66,281.84a5.44,5.44,0,0,0-3.08,2.15c-.92,1.62,4.08-.85,9.77,0,2.85.42,4.41.79,4.85.38s-.73-1.19-1.62-1.92C733.81,281,728.35,280.38,725.66,281.84Z" transform="translate(-461.87 -67.89)"/><ellipse class="cls-30" cx="268.44" cy="222.92" rx="4.35" ry="2.06"/><path class="cls-29" d="M639.92,285s2-6.46,13.24-4.69,13,10.54,11.4,11.6S637.48,289.35,639.92,285Z" transform="translate(-461.87 -67.89)"/><ellipse class="cls-23" cx="649.69" cy="288.27" rx="4.79" ry="10.65" transform="translate(-135.21 853.5) rotate(-86.9)"/><path class="cls-20" d="M651.8,277.14a5.44,5.44,0,0,0-3.4,1.6c-1.18,1.44,4.16-.14,9.63,1.66,2.73.9,4.21,1.53,4.71,1.2s-.52-1.3-1.27-2.17C660,277.69,654.7,276.16,651.8,277.14Z" transform="translate(-461.87 -67.89)"/><ellipse class="cls-30" cx="648.26" cy="286.56" rx="2.06" ry="4.35" transform="translate(-134.78 850.49) rotate(-86.9)"/><path class="cls-29" d="M574.46,277.3s2-5.76,12.16-3.7,11.3,10.06,9.83,11S572.07,281.1,574.46,277.3Z" transform="translate(-461.87 -67.89)"/><ellipse class="cls-23" cx="583.15" cy="280.62" rx="4.34" ry="9.64" transform="translate(-215.88 765.11) rotate(-84.3)"/><path class="cls-20" d="M585.52,270.66a4.92,4.92,0,0,0-3.14,1.31c-1.13,1.25,3.77,0,8.63,1.89,2.43.93,3.75,1.55,4.21,1.28s-.41-1.19-1.05-2C592.89,271.49,588.18,269.88,585.52,270.66Z" transform="translate(-461.87 -67.89)"/><ellipse class="cls-30" cx="581.94" cy="279.02" rx="1.86" ry="3.93" transform="translate(-215.34 762.49) rotate(-84.3)"/><path class="cls-29" d="M517.19,260.24s2.63-5.45,11.27-2.2,8.51,11.31,7.08,12S514.53,263.7,517.19,260.24Z" transform="translate(-461.87 -67.89)"/><path class="cls-23" d="M532.7,266.66c-.56,2.33-4.73,3.28-9.33,2.12s-7.87-4-7.32-6.32,4.73-3.28,9.33-2.12S533.26,264.33,532.7,266.66Z" transform="translate(-461.87 -67.89)"/><path class="cls-20" d="M527.91,255a4.16,4.16,0,0,0-3,.92c-1.18,1.1,3.32.49,7.34,2.91,2,1.21,3.08,2,3.53,1.77s-.19-1.23-.64-2.12C534.29,256.69,530.37,254.55,527.91,255Z" transform="translate(-461.87 -67.89)"/><path class="cls-30" d="M526.93,263.69c-.24,1-2,1.43-3.83,1s-3.21-1.67-3-2.67,2-1.43,3.83-1S527.17,262.69,526.93,263.69Z" transform="translate(-461.87 -67.89)"/><path class="cls-29" d="M816.64,285s-2-6.46-13.24-4.69-13,10.54-11.4,11.6S819.08,289.35,816.64,285Z" transform="translate(-461.87 -67.89)"/><ellipse class="cls-23" cx="806.87" cy="288.27" rx="10.65" ry="4.79" transform="translate(-476.29 -23.77) rotate(-3.1)"/><path class="cls-20" d="M804.76,277.14a5.44,5.44,0,0,1,3.4,1.6c1.18,1.44-4.16-.14-9.63,1.66-2.73.9-4.21,1.53-4.71,1.2s.52-1.3,1.27-2.17C796.58,277.69,801.86,276.16,804.76,277.14Z" transform="translate(-461.87 -67.89)"/><ellipse class="cls-30" cx="808.3" cy="286.56" rx="4.35" ry="2.06" transform="translate(-476.17 -23.78) rotate(-3.1)"/><path class="cls-29" d="M882.1,277.3s-2-5.76-12.16-3.7-11.3,10.06-9.83,11S884.49,281.1,882.1,277.3Z" transform="translate(-461.87 -67.89)"/><ellipse class="cls-23" cx="873.41" cy="280.62" rx="9.64" ry="4.34" transform="translate(-485.43 20.27) rotate(-5.7)"/><path class="cls-20" d="M871,270.66a4.92,4.92,0,0,1,3.14,1.31c1.13,1.25-3.77,0-8.63,1.89-2.43.93-3.75,1.55-4.21,1.28s.41-1.19,1.06-2C863.67,271.49,868.38,269.88,871,270.66Z" transform="translate(-461.87 -67.89)"/><ellipse class="cls-30" cx="874.63" cy="279.02" rx="3.93" ry="1.86" transform="translate(-485.24 20.3) rotate(-5.7)"/><path class="cls-29" d="M939.37,260.24s-2.63-5.45-11.27-2.2-8.51,11.31-7.08,12S942,263.7,939.37,260.24Z" transform="translate(-461.87 -67.89)"/><path class="cls-23" d="M923.86,266.66c.56,2.33,4.73,3.28,9.33,2.12s7.87-4,7.32-6.32-4.73-3.28-9.33-2.12S923.31,264.33,923.86,266.66Z" transform="translate(-461.87 -67.89)"/><path class="cls-20" d="M928.65,255a4.16,4.16,0,0,1,3,.92c1.18,1.1-3.32.49-7.34,2.91-2,1.21-3.08,2-3.53,1.77s.19-1.23.64-2.12C922.27,256.69,926.19,254.55,928.65,255Z" transform="translate(-461.87 -67.89)"/><path class="cls-30" d="M929.63,263.69c.24,1,2,1.43,3.83,1s3.21-1.67,3-2.67-2-1.43-3.83-1S929.39,262.69,929.63,263.69Z" transform="translate(-461.87 -67.89)"/><path class="cls-30" d="M852.22,215.35s-5.38,12.56-31.4,18.84S751.3,245,751.3,245s48,.9,76.7-8.07S852.22,215.35,852.22,215.35Z" transform="translate(-461.87 -67.89)"/><path class="cls-20" d="M590.21,213.45s.63,6,15.44,12.6a182.27,182.27,0,0,0,30.25,10.08s-17-1.26-30.25-6S590.21,215.65,590.21,213.45Z" transform="translate(-461.87 -67.89)"/><path class="cls-19" d="M607.23,306.42s10.28-2.29,18.51,3.66c1.37,2.51-.69,9.14,1.14,12.8s-1.83,4.34-4.8,3.66S605.86,316.93,607.23,306.42Z" transform="translate(-461.87 -67.89)"/><path class="cls-21" d="M625.74,310.07c-8.23-5.94-18.51-3.66-18.51-3.66a13.49,13.49,0,0,0,1.46,7.76c.39-2,1.62-4.07,5.16-3.19,5.78,1.45,5.42,10.34,9.68,15.75,2.55.17,4.88-.8,3.35-3.87C625.06,319.21,627.11,312.59,625.74,310.07Z" transform="translate(-461.87 -67.89)"/><path class="cls-31" d="M610.43,313.27a6.73,6.73,0,0,0,1.83,5.26,47.11,47.11,0,0,0,6.63,5.48S615,312.13,610.43,313.27Z" transform="translate(-461.87 -67.89)"/><path class="cls-18" d="M842.65,312.9s7.43-4,4.58-7-10.43-2.05-16.75.79-8.69,5.69-4.9,7.11S841.23,313.53,842.65,312.9Z" transform="translate(-461.87 -67.89)"/><path class="cls-19" d="M845.21,306.42s-10.28-2.29-18.51,3.66c-1.37,2.51.69,9.14-1.14,12.8s1.83,4.34,4.8,3.66S846.58,316.93,845.21,306.42Z" transform="translate(-461.87 -67.89)"/><path class="cls-21" d="M826.7,310.07c8.23-5.94,18.51-3.66,18.51-3.66a13.49,13.49,0,0,1-1.46,7.76c-.39-2-1.62-4.07-5.16-3.19-5.78,1.45-5.42,10.34-9.68,15.75-2.55.17-4.88-.8-3.35-3.87C827.39,319.21,825.33,312.59,826.7,310.07Z" transform="translate(-461.87 -67.89)"/><path class="cls-31" d="M842,313.27a6.73,6.73,0,0,1-1.83,5.26,47.1,47.1,0,0,1-6.63,5.48S837.44,312.13,842,313.27Z" transform="translate(-461.87 -67.89)"/><path class="cls-32" d="M599.61,310.85c-11.57-13.24-46.22-21.91-61.24-20.24-3.11.35-4.86,1.43-5.67,2.94C547.52,299.82,571.61,306.1,599.61,310.85Z" transform="translate(-461.87 -67.89)"/><path class="cls-32" d="M675.15,318.6c9.54.33,23.92.53,39.48.61-8.75-12.33-50.5-15.13-64.41-11.49-8.55,2.24-12.24,5.63-13.83,8.15C649.14,317.21,662.2,318.16,675.15,318.6Z" transform="translate(-461.87 -67.89)"/><path class="cls-32" d="M784.84,318.6c10.44-.36,20.94-1,31.3-2-1.32-2.55-4.84-6.42-14.25-8.88-13.92-3.65-55.73-.84-64.43,11.52C756,319.2,773.7,319,784.84,318.6Z" transform="translate(-461.87 -67.89)"/><path class="cls-32" d="M856.37,311.51c26.66-4.32,50.09-10.06,65.83-15.95a49.66,49.66,0,0,0-8.77-1.33C887.28,292.45,865.67,305,856.37,311.51Z" transform="translate(-461.87 -67.89)"/><path class="cls-19" d="M734.79,318.89c0,5.34-3.73,16.84-7.88,16.84s-7.17-11.5-7.17-16.84.84-7.28,7-7.28S734.79,313.55,734.79,318.89Z" transform="translate(-461.87 -67.89)"/><path class="cls-21" d="M734.79,318.89c0-5.34-1.82-7.28-8-7.28s-7,1.94-7,7.28a29.79,29.79,0,0,0,.77,6c-.35-1.77-1.13-7.62,3.58-9.27,5.16-1.81,10.31-1,9.86,8.9A24.89,24.89,0,0,0,734.79,318.89Z" transform="translate(-461.87 -67.89)"/><path class="cls-31" d="M727.87,317.9s-3.32-.75-3.17,3.47.6,10.1,2.26,9.65S735,318.35,727.87,317.9Z" transform="translate(-461.87 -67.89)"/><g class="cls-33"><path class="cls-34" d="M870.07,163.55c0,45.51-49.46,82.41-110.5,82.42s-110.51-36.88-110.51-82.4,49.47-82.41,110.49-82.42S870.06,118,870.07,163.55Z" transform="translate(-461.87 -67.89)"/></g><g class="cls-35"><ellipse class="cls-36" cx="622.17" cy="186.14" rx="66.84" ry="31.43" transform="translate(-335.94 537.16) rotate(-56.83)"/></g></g></g></svg>