<?xml version="1.0" encoding="utf-8"?>
<!-- Generator: Adobe Illustrator 21.1.0, SVG Export Plug-In . SVG Version: 6.00 Build 0)  -->
<svg version="1.1" id="Layer_1" xmlns="http://www.w3.org/2000/svg" xmlns:xlink="http://www.w3.org/1999/xlink" x="0px" y="0px"
	 viewBox="0 0 93 93" style="enable-background:new 0 0 93 93;" xml:space="preserve">
<style type="text/css">
	.st0{fill:#892563;}
	.st1{fill:#EF48A0;}
	.st2{opacity:0.35;fill:#FF88CC;enable-background:new    ;}
	.st3{opacity:0.29;fill:#56153A;enable-background:new    ;}
	.st4{fill:#FF6CC0;}
	.st5{opacity:0.3;fill:#FFA37B;enable-background:new    ;}
	.st6{fill:#FFC2E8;}
	.st7{fill:#FF88CC;}
	.st8{opacity:0.55;fill:#56153A;enable-background:new    ;}
	.st9{fill:#56153A;}
	.st10{opacity:0.5;fill:#EF48A0;enable-background:new    ;}
	.st11{fill:#FFFFFF;}
	.st12{opacity:0.78;fill:#FF88CC;enable-background:new    ;}
	.st13{opacity:0.44;fill:#FF88CC;enable-background:new    ;}
	.st14{opacity:0.38;fill:#56153A;enable-background:new    ;}
	.st15{fill:#F9E4EC;}
	.st16{opacity:0.5;fill:#56153A;enable-background:new    ;}
</style>
<g id="_x2014_ÎÓÈ_x5F_3">
</g>
<g id="_x2014_ÎÓÈ_x5F_1">
</g>
<g id="_x2014_ÎÓÈ_x5F_2">
	<g>
		<g>
			<path class="st0" d="M50.1,48.2c0-0.9-0.5-1.8-1.4-2.4c-0.2-0.2-0.8-0.6-1.2-0.8c-0.1,0-0.2-0.1-0.2-0.2c0-0.1,0.1-0.2,0.2-0.4
				c0.5-0.2,0.8-0.7,0.8-1.2c0-0.8-0.8-1.4-1.7-1.4c-0.5,0-0.9,0.2-1.2,0.5c-0.2,0.3-0.4,0.6-0.4,0.9c0,0.4,0.3,0.8,0.7,1.1
				c0.2,0.2,0.2,0.3,0.2,0.4c0,0.1,0,0.1-0.4,0.3c-0.1,0-0.2,0.1-0.4,0.1c-0.2,0.1-0.4,0.2-0.6,0.3c-0.6,0.3-1.1,0.7-1.5,1.2
				s-0.5,1.1-0.5,1.7c0,0.9,0.4,1.6,1.2,2.1c0.7,0.5,1.6,0.8,2.6,0.8c1.2,0,2.2-0.4,2.9-1.1C49.9,49.6,50.2,48.9,50.1,48.2z"/>
			<path class="st1" d="M48.7,45.8c-0.2-0.2-0.8-0.6-1.2-0.8s-0.3-0.5,0-0.7c0.5-0.2,0.8-0.6,0.8-1.1c0-0.7-0.7-1.3-1.6-1.3
				c-0.8,0-1.5,0.6-1.5,1.3c0,0.4,0.3,0.8,0.6,1c0.1,0.1,0.2,0.3,0.3,0.4c0.1,0.3-0.2,0.3-0.8,0.5c-0.2,0.1-0.4,0.2-0.6,0.3
				c-1.2,0.5-2,1.6-1.9,2.8c0.1,1.7,1.7,2.8,3.7,2.8s3.6-1.1,3.5-2.8C50,47.3,49.5,46.4,48.7,45.8z"/>
			<path class="st2" d="M47.7,45.6c-0.1,0-1.2-0.2-1.7,0.8c-0.6,1,0.5,1.4,1.4,1.8c1,0.4,1.8,0.4,1.8-0.4
				C49.1,47,48.9,45.8,47.7,45.6z"/>
			<path class="st3" d="M49.6,48.2c-0.2,0.8-1.2,2.2-3.3,1.5c-2.2-0.7-1.1-3.3-1.8-3.8c-0.1-0.1-0.3-0.1-0.4-0.1
				c-0.8,0.6-1.2,1.4-1.2,2.4c0.1,1.7,1.7,2.8,3.7,2.8s3.6-1.1,3.5-2.8c0-0.8-0.4-1.4-0.9-2C49.4,46.8,49.7,47.7,49.6,48.2z"/>
			<path class="st4" d="M49.9,49.2c-0.9,1.6-2,1.6-2.8,1.7c-1,0.1-2.6-0.2-3.4-1.2c-0.7-0.8-0.7-2-0.7-2.5c-0.1,0.3-0.2,0.7-0.2,1
				c0.1,1.7,1.7,2.8,3.7,2.8C48.2,51.1,49.5,50.3,49.9,49.2z"/>
			<path class="st5" d="M46.4,50.5c-0.6-0.5,0.2-1.8,0.5-2.3c0.4-0.6,1.5-0.7,2.4-0.2c0.7,0.4,0,1.7-0.3,2.3c0.6-0.5,1-1.2,1-2.1
				c0-0.7-0.3-1.4-0.8-1.9c-0.3,0.8-1.4,0.8-2.3,0.7c-1.1-0.2-0.8,2.5-2.5,2.5c-0.8,0-1.2-0.6-1.5-1.2c0.1,1.7,1.7,2.8,3.7,2.8
				c0.3,0,0.6,0,0.8-0.1C47,50.9,46.6,50.7,46.4,50.5z"/>
			<path class="st6" d="M46.5,50.9c0,0.1-0.4,0.1-0.8,0c-0.5-0.1-0.8-0.2-0.8-0.3s0.4-0.1,0.8,0S46.5,50.8,46.5,50.9z"/>
			
				<ellipse transform="matrix(0.4427 -0.8967 0.8967 0.4427 -20.3668 68.1359)" class="st6" cx="44.6" cy="50.5" rx="0.1" ry="0.2"/>
			<path class="st3" d="M47.3,45.2c0.4,0.1,0.7,0.2,0.8,0.2c-0.2-0.1-0.4-0.3-0.6-0.3c-0.4-0.2-0.3-0.5,0-0.7
				c0.5-0.2,0.8-0.6,0.8-1.1c0-0.2-0.1-0.4-0.2-0.6c0.1,0.3,0.2,0.8,0,1c-0.3,0.4-1.6,0.9-2.4,0c-0.4-0.4-0.4-0.9-0.3-1.2
				c-0.2,0.2-0.2,0.5-0.2,0.7c0,0.4,0.3,0.8,0.6,1c0.1,0.1,0.2,0.3,0.3,0.4c0.1,0.3-0.1,0.3-0.7,0.5c-0.1,0.2-0.3,0.4-0.1,0.6
				C45.7,46,46.9,45.1,47.3,45.2z"/>
			<path class="st7" d="M47.4,45.6c-0.1,0-0.8-0.1-1.5,0.4c-0.8,0.5,1.6-0.6,2.5,0.2c0.9,0.7,0.7,1.6,0.7,1.6s0.2-0.4,0-1.1
				C48.9,46.1,48.2,45.6,47.4,45.6z"/>
			<g>
				<g>
					<ellipse class="st8" cx="44.4" cy="48.1" rx="0.5" ry="1"/>
					<ellipse class="st9" cx="44.4" cy="48.1" rx="0.4" ry="0.9"/>
					<path class="st10" d="M44.4,48.8c-0.2,0-0.3-0.3-0.3-0.8c0-0.1,0-0.3,0-0.4c0,0.1-0.1,0.3-0.1,0.5C44,48.5,44.1,48.9,44.4,48.8
						c0,0.1,0.1-0.1,0.2-0.3C44.6,48.7,44.5,48.8,44.4,48.8z"/>
					<ellipse class="st11" cx="44.5" cy="47.7" rx="0.2" ry="0.3"/>
					<ellipse class="st11" cx="44.3" cy="48.8" rx="0.1" ry="0.1"/>
					<path class="st9" d="M44.2,46.5c0,0,0.2-0.3,0.4-0.3C44.7,46.3,44.5,46.5,44.2,46.5z"/>
				</g>
				<g>
					<ellipse class="st8" cx="48.1" cy="48.1" rx="0.5" ry="1"/>
					<ellipse class="st9" cx="48.1" cy="48.1" rx="0.4" ry="0.9"/>
					<path class="st10" d="M48.1,48.8c0.2,0,0.3-0.3,0.3-0.8c0-0.1,0-0.3,0-0.4c0,0.1,0.1,0.3,0.1,0.5
						C48.5,48.5,48.4,48.9,48.1,48.8c0,0.1-0.1-0.1-0.2-0.3C47.9,48.7,48,48.8,48.1,48.8z"/>
					<ellipse class="st11" cx="48" cy="47.7" rx="0.2" ry="0.3"/>
					<ellipse class="st11" cx="48.2" cy="48.8" rx="0.1" ry="0.1"/>
					<path class="st9" d="M48.4,46.5c0,0-0.2-0.3-0.4-0.3C47.9,46.3,48.1,46.5,48.4,46.5z"/>
				</g>
				<ellipse class="st12" cx="46.2" cy="49.2" rx="0.5" ry="0.2"/>
				<path class="st9" d="M45.6,49.1c0,0,0.5,0.4,1.3,0.1c0,0-0.1,0.4-0.6,0.5C45.9,49.8,45.7,49.5,45.6,49.1z"/>
			</g>
			<path class="st13" d="M46.9,42.1c0,0-0.9-0.2-1,0.4c-0.2,0.6,1,0.3,1.2,0.5c0.3,0.2,0.5,0.6,0.8,0.4
				C48.1,43.3,48.1,42.3,46.9,42.1z"/>
			<path class="st5" d="M46.4,43.4c0.9-0.1,0.9,0.4,1.2,0.2s-1-1.6,0.1-1.3c-0.3-0.2-0.6-0.3-1-0.3c-0.1,0-0.3,0-0.4,0
				c0.4,0.2,0.7,0.4,0.8,0.8c0.2,0.9-0.7-0.3-1.3,0.2c-0.2,0.2-0.4,0.5-0.5,0.7c0.1,0.2,0.3,0.4,0.5,0.5c0.1,0.1,0.2,0.2,0.2,0.3
				l0.2,0.1C46.3,44.6,45.6,43.5,46.4,43.4z"/>
			<g>
				<path class="st12" d="M44.9,49.5c0,0.2-0.2,0.3-0.5,0.3s-0.5-0.1-0.5-0.3s0.2-0.3,0.5-0.3S44.9,49.3,44.9,49.5z"/>
				<path class="st12" d="M48.5,49.5c0,0.2-0.2,0.3-0.5,0.3s-0.5-0.1-0.5-0.3s0.2-0.3,0.5-0.3S48.5,49.3,48.5,49.5z"/>
			</g>
			<path class="st11" d="M47,42.2c0,0-0.5,0.1-0.2,0.2c0.3,0.2,0.5,0.3,0.7,0.2C47.6,42.6,47.4,42.2,47,42.2z"/>
			<path class="st11" d="M47.7,42.7c0,0-0.2,0,0,0.2c0.1,0.2,0.2,0.2,0.3,0.2C48.1,43,48,42.7,47.7,42.7z"/>
			<path class="st11" d="M47.8,45.6c0,0-0.5-0.1-0.6,0s0.7,0.3,0.9,0.4c0.2,0.1,0.4,0.3,0.5,0.2C48.5,46.1,48.3,45.7,47.8,45.6z"/>
			<path class="st11" d="M48.7,46.2C48.7,46.2,48.6,46.2,48.7,46.2c-0.1,0-0.2,0.1,0,0.2c0.2,0.2,0.2,0.3,0.3,0.2
				C49,46.4,48.9,46.3,48.7,46.2z"/>
			<path class="st4" d="M45.5,43.7c0,0,0.3,0.5,1,0.6s1.1-0.1,1.1-0.1s-0.4,0.3-0.9,0.3C46.1,44.5,45.5,44,45.5,43.7z"/>
			<path class="st14" d="M47.3,45c-0.1-0.2,0-0.4,0.2-0.6c0,0-0.2,0.2-0.7,0.3c-0.3,0.1-0.6,0-0.8-0.1c0,0.1,0.1,0.1,0.1,0.2
				c0.1,0.2-0.1,0.3-0.5,0.4l0.1,0.1c0.2,0.1,0.5-0.1,0.8-0.2C46.7,44.9,47.1,44.9,47.3,45z"/>
			<g>
				<path class="st0" d="M43.4,44c-0.2,0.1-0.5,0.2-0.2,0.8s0.8,0.5,1.1,0C44.7,44.3,44.2,43.7,43.4,44z"/>
				<path class="st1" d="M43.5,44.1c-0.1,0.1-0.4,0.2-0.2,0.7c0.3,0.5,0.7,0.4,1,0C44.6,44.3,44.2,43.9,43.5,44.1z"/>
				<path class="st3" d="M43.3,44.8c0.2,0.4,0.6,0.4,0.9,0h-0.1c-0.4,0.1-0.5-0.4-0.8-0.6c0,0-0.1,0-0.1-0.1
					C43.2,44.3,43.1,44.4,43.3,44.8z"/>
				<path class="st13" d="M43.7,44.1c0,0-0.2,0.1,0,0.2c0.1,0.1,0.3,0.4,0.5,0.3C44.4,44.5,44.2,44,43.7,44.1z"/>
				<path class="st11" d="M43.9,44.2C43.9,44.2,43.7,44.3,43.9,44.2c0.4,0.1,0.4,0.2,0.4,0.1C44.2,44.2,44.1,44.1,43.9,44.2z"/>
				<path class="st4" d="M43.6,44.9c-0.2-0.1-0.3-0.3-0.4-0.4c0,0.1,0,0.1,0.1,0.2c0.2,0.4,0.5,0.4,0.8,0.2C44,45,43.8,45,43.6,44.9
					z"/>
			</g>
			<g>
				<path class="st0" d="M49.5,45c-0.2,0-0.7,0.2-0.5,0.7s0.6,0.7,1,0.2S50,45,49.5,45z"/>
				<path class="st1" d="M49.5,45.1c-0.2,0-0.6,0.2-0.4,0.6c0.2,0.4,0.5,0.6,0.8,0.1C50.2,45.4,50,45.1,49.5,45.1z"/>
				<path class="st3" d="M50.1,45.5c-0.1,0.2-0.3,0.4-0.5,0.3c-0.2-0.1-0.1-0.3-0.3-0.5c-0.1-0.1-0.2,0-0.2,0c0,0.1,0,0.2,0,0.3
					c0.2,0.4,0.5,0.6,0.8,0.1C50,45.7,50.1,45.6,50.1,45.5z"/>
				<path class="st13" d="M49.6,45.1c0,0-0.3,0-0.2,0.2c0.2,0.2,0.2,0.3,0.4,0.2C50,45.5,49.9,45.2,49.6,45.1z"/>
				<path class="st11" d="M49.7,45.2c0,0-0.1-0.1-0.3,0c-0.1,0.1,0.2,0.2,0.3,0.2S49.9,45.3,49.7,45.2z"/>
				<path class="st4" d="M49.9,45.9L49.9,45.9c-0.2,0.1-0.3,0.1-0.6,0c-0.1-0.1-0.2-0.3-0.2-0.4c0,0.1,0,0.1,0,0.2
					C49.3,46.1,49.6,46.2,49.9,45.9z"/>
			</g>
		</g>
		<g>
			<path class="st15" d="M51.5,16.4c-0.3-2.1-3.6-1.8-5.2-1.2c-0.3-0.5-0.8-1-2-1.5c0,0-2.4-2.3-5.6,0.6c0,0-6.3-2.1-8.6,2.4
				c0,0-4.6,0.4-4.1,4.3c0.4,3.9,5.6,1.6,5.6,1.6S30.5,27,34,27.5c2.5,0.3,5-1.4,5.8-3.4c1.3,0.4,2.8,0.4,4.1-0.9c1-1,1.5-2.1,1.6-3
				c0.1,0,0.3,0,0.4,0C48.4,20.2,51.9,19.2,51.5,16.4z"/>
			<path class="st15" d="M26.5,26.3c0,0-2,1.8-0.6,3.2c1.4,1.4,3.7,2.1,5.3,0.2C31.2,29.6,26.3,29.9,26.5,26.3z"/>
			<path class="st15" d="M81,33.3c-0.6-2.5-2-4.2-3.5-4.1l0,0c0-1-0.2-2.3-1.5-3.5c-2.3-2.2-3.8-1.9-4.4-2.9c0,0-2.3-3.7-5.1-1.6
				c-2.7,2,1.7,5.7,3.3,6.1c-0.5,0.8-1.1,2.2-0.9,4.6C69,34,70,35.3,71,36.1c-0.4,1-0.6,2.5,0.8,3.7c2.2,1.9,3.4,0.4,3.4,0.4
				s1.5,4.7,4.1,3.4c2-1,2.2-5,1.1-7.4C80.8,35.5,81.3,34.6,81,33.3z"/>
			<path class="st15" d="M74.1,43.7c0,0,3.5,4.2,6.3,1.3c0,0-0.6,4.7-3.9,5.4c-3.4,0.7-4.1-2.9-4.1-2.9S76.3,49.7,74.1,43.7z"/>
			<path class="st15" d="M30.3,62.7c0-2.3-1.3-3.3-2.4-3.5c0.2-1,0.2-2.1-0.9-2.9c-1.4-1-2.9-1-3.8-0.9c0.6-0.2,1.1-0.8,0.6-2.1
				c-0.8-2-3.1-5.5-5.2-3.8c-1.9-0.5-4.5-0.3-6.1,3.2c-1.4,3.1,0.3,4.6,2.2,5.3c-0.9,1.2-1.5,3.3-0.2,6.5c1.4,3.5,3.9,3,5.8,1.9
				c0.2,1.2,0.8,2.5,2.2,2.9c2.5,0.9,5.7,1.3,6.1-2c0.1-0.4,0.1-0.8,0.1-1.1C29.5,65.6,30.3,64.6,30.3,62.7z"/>
			<path class="st15" d="M25.3,39.3c0,0-2,0.1-1,0.9c1,0.8,2.4,1.2,2.6,1S27.2,39.6,25.3,39.3z"/>
			<path class="st15" d="M19.1,45.2c0,0-2-0.2-2.5,1.3l-0.1,1.1c0,0,1.8-0.9,2.3-0.1c0,0,0.9-1.2,2-0.6c1.2,0.7,1.2,2.2,1.2,2.2
				S23.2,45.2,19.1,45.2z"/>
			<path class="st15" d="M63.6,69.2c0-3.2-3.6-3.4-4.3-2.1c-0.1,0.2-0.2,0.3-0.2,0.4c-0.5-0.3-1.2-0.5-2.1-0.1
				c-1.3,0.6-2.3,1.5-2.5,2.3c-0.5-0.3-1-0.5-1.7-0.5c-1.1,0-1.7,0.6-2,1.4c-0.9-0.3-2.7-0.7-4,0.8c-0.6,0.7-0.8,1.4-0.8,2.1
				c-1.1-0.1-2.7,0.2-3.4,1.6c-1.1,2.3,1.8,4.5,6.2,3.9c0.7-0.1,1.3-0.2,1.8-0.4c-0.1,0.6,0.2,1.1,1.5,1.3c3.5,0.5,6.2-1.3,6.3-3.1
				c0.2,0,0.5,0.1,0.8,0c2-0.3,4.7-3.5,3.7-5.2C63.3,71.3,63.6,70.4,63.6,69.2z"/>
			<path class="st15" d="M62.5,65.7c0,0,2.9-0.1,2.4,1.7c-0.5,1.8-0.7,1.8-0.7,1.8s1.5-0.1,2-1.5c0.6-1.4,0.1-2.7-1.8-3.3
				c0,0,1,1,0.3,1.2C64,65.7,63.3,65.3,62.5,65.7z"/>
			<path class="st15" d="M74.7,59c0,0,1.4,1.9,0.2,3.4c-1.2,1.5-3.5-0.6-3.5-0.6s-0.2,3.1,1.2,4.4c1.4,1.3,4.9-2.1,4.3-5.2
				C76.2,57.9,74.7,59,74.7,59z"/>
			<path class="st15" d="M40.8,31.6c0,0-1.7,1.1-0.6,1.8c1,0.7,1.2-0.8,1.8-1.4C42.4,31.5,41.6,31.1,40.8,31.6z"/>
			<path class="st12" d="M51.5,16.4c-0.3-2.1-3.6-1.8-5.2-1.2c-0.3-0.5-0.8-1-2-1.5c0,0-2.4-2.3-5.6,0.6c0,0-6.3-2.1-8.6,2.4
				c0,0-4.6,0.4-4.1,4.3c0.1,0.6,0.2,1,0.5,1.3h0.1c0,0,1.9-3.8,4.5-3.3s3.5,1.7,3.5,1.7s-0.9-4.4,2.1-4.6c3.1-0.2,3.9,1.3,3.9,1.3
				s0.8-3.7,2.7-3.1c1.8,0.6,2,2.3,2,2.3s5.2-1.9,6.2,0.5C51.5,17,51.6,16.7,51.5,16.4z"/>
			<path class="st16" d="M25.4,62.1c2.9,1.7,2.5,7.1-0.9,5.5s-3-4.1-3-4.1c-1.6,1.6-5.6,0.2-4.9-2.9c0.7-3.1,2.7-1.8,2.7-1.8
				c-0.6-0.6-0.7-4.1-0.7-4.1s-1.1,1.9-3.9-0.3c-1.7-1.3-0.8-3.4,0.2-4.7c-0.9,0.5-1.7,1.4-2.3,2.8c-1.4,3.1,0.3,4.6,2.2,5.3
				c-0.9,1.2-1.5,3.3-0.2,6.5c1.4,3.5,3.9,3,5.8,1.9c0.2,1.2,0.8,2.5,2.2,2.9c2.5,0.9,5.7,1.3,6.1-2c0.1-0.4,0.1-0.8,0.1-1.1
				c0.3-0.2,0.5-0.4,0.8-0.7C29.8,62.7,25.4,62.1,25.4,62.1z"/>
			<path class="st12" d="M81,33.3c-0.6-2.5-2-4.2-3.5-4.1l0,0c0-1-0.2-2.3-1.5-3.5c-2.3-2.2-3.8-1.9-4.4-2.9c0,0-2.3-3.7-5.1-1.6
				c-1.5,1.1-0.8,2.8,0.4,4.1c0.1-1.4,0.7-3.1,2.4-2C72,25,72,27.1,72,27.1s1.7-1.6,3.4,0.6c1.8,2.2,0,4.2,0,4.2s3.7-1.5,4.6,1.9
				c0.9,3.3-2.8,4.3-2.8,4.3s4.1,3.3,1.1,5.8c0.3,0,0.6-0.1,0.9-0.2c2-1,2.2-5,1.1-7.4C80.8,35.5,81.3,34.6,81,33.3z"/>
			<path class="st16" d="M61.6,66.4c1.5,2.7,1.1,6.9-0.6,7.9c-2.2,1.3-4.3-0.8-4.3-0.8s1.1,2.5-2.5,3.5s-4.8-2.3-4.8-2.3
				s0.1,2.3-3.7,1.7c-2.1-0.3-2.4-1.4-2.3-2.3c-0.4,0.3-0.7,0.6-1,1.1c-1.1,2.3,1.8,4.5,6.2,3.9c0.7-0.1,1.3-0.2,1.8-0.4
				c-0.1,0.6,0.2,1.1,1.5,1.3c3.5,0.5,6.2-1.3,6.3-3.1c0.2,0,0.5,0.1,0.8,0c2-0.3,4.7-3.5,3.7-5.2c0.4-0.5,0.7-1.4,0.7-2.6
				C63.6,67.5,62.7,66.7,61.6,66.4z"/>
			<path class="st15" d="M26.9,70.5c0,0,3.4-1,3-2.9c0,0,1.6-0.2,1.7-2c0,0,1.6,2.4,0,4.2C30,71.7,28.1,71.4,26.9,70.5z"/>
			<path class="st15" d="M52.7,14.1c0,0,3,2.4,0.5,5.1c0,0,2.7,0.5,3.8-0.8C58.1,17.2,56,13.7,52.7,14.1z"/>
		</g>
	</g>
</g>
</svg>
