<?xml version="1.0" encoding="utf-8"?>
<!-- Generator: Adobe Illustrator 21.1.0, SVG Export Plug-In . SVG Version: 6.00 Build 0)  -->
<svg version="1.1" xmlns="http://www.w3.org/2000/svg" xmlns:xlink="http://www.w3.org/1999/xlink" x="0px" y="0px"
	 viewBox="0 0 93 93" style="enable-background:new 0 0 93 93;" xml:space="preserve">
<style type="text/css">
	.st0{fill:#045B4F;}
	.st1{fill:#0BA8A0;}
	.st2{opacity:0.22;fill:#052D28;}
	.st3{fill:#19CCBE;}
	.st4{fill:#00D8A4;}
	.st5{opacity:0.22;fill:#10FFC0;}
	.st6{opacity:0.29;fill:#052D28;}
	.st7{fill:#FFFFFF;}
	.st8{opacity:0.55;fill:#06332E;}
	.st9{fill:#083F37;}
	.st10{opacity:0.43;fill:#0BA8A0;}
	.st11{fill:#EF48A0;}
	.st12{opacity:0.78;fill:#FF88CC;}
	.st13{fill:#FF88CC;}
	.st14{opacity:0.9;fill:#8FFFDF;}
	.st15{fill:#F5FF76;}
	.st16{opacity:0.61;fill:#79B293;}
	.st17{opacity:0.22;}
	.st18{fill:#052D28;}
	.st19{fill:#BDFDFF;}
	.st20{opacity:0.52;fill:#BDFDFF;}
	.st21{opacity:0.62;}
	.st22{opacity:0.5;fill:#BDFDFF;}
	.st23{opacity:0.68;}
	.st24{fill:#0B3D36;}
	.st25{fill:#892563;}
	.st26{opacity:0.35;fill:#FF88CC;}
	.st27{opacity:0.29;fill:#56153A;}
	.st28{fill:#FF6CC0;}
	.st29{opacity:0.3;fill:#FFA37B;}
	.st30{fill:#FFC2E8;}
	.st31{opacity:0.55;fill:#56153A;}
	.st32{fill:#56153A;}
	.st33{opacity:0.5;fill:#EF48A0;}
	.st34{opacity:0.44;fill:#FF88CC;}
	.st35{opacity:0.38;fill:#56153A;}
	.st36{opacity:0.61;fill:#DDAFC9;}
	.st37{opacity:0.3;fill:#F9E4EC;}
	.st38{opacity:0.5;}
	.st39{opacity:0.5;fill:#56153A;}
	.st40{fill:#F9E4EC;}
	.st41{clip-path:url(#SVGID_2_);}
	.st42{clip-path:url(#SVGID_4_);fill:#0A4377;}
	.st43{clip-path:url(#SVGID_4_);fill:#2D84E2;}
	.st44{clip-path:url(#SVGID_4_);fill:#3BADF2;}
	.st45{opacity:0.27;clip-path:url(#SVGID_4_);}
	.st46{clip-path:url(#SVGID_6_);fill:#19328E;}
	.st47{clip-path:url(#SVGID_8_);fill:#19328E;}
	.st48{opacity:0.5;clip-path:url(#SVGID_4_);}
	.st49{clip-path:url(#SVGID_10_);fill:#19328E;}
	.st50{opacity:0.13;clip-path:url(#SVGID_4_);}
	.st51{clip-path:url(#SVGID_12_);fill:#C5FFFF;}
	.st52{opacity:0.62;clip-path:url(#SVGID_4_);}
	.st53{clip-path:url(#SVGID_14_);fill:#C5FFFF;}
	.st54{clip-path:url(#SVGID_16_);fill:#C5FFFF;}
	.st55{opacity:0.22;clip-path:url(#SVGID_4_);}
	.st56{clip-path:url(#SVGID_18_);fill:#C5FFFF;}
	.st57{clip-path:url(#SVGID_4_);fill:#0E3B63;}
	.st58{clip-path:url(#SVGID_20_);fill:#C5FFFF;}
	.st59{clip-path:url(#SVGID_22_);fill:#C5FFFF;}
	.st60{clip-path:url(#SVGID_24_);fill:#C5FFFF;}
	.st61{clip-path:url(#SVGID_4_);fill:#EF48A0;}
	.st62{clip-path:url(#SVGID_4_);fill:#FFFFFF;}
	.st63{clip-path:url(#SVGID_26_);fill:#19328E;}
	.st64{clip-path:url(#SVGID_28_);fill:#19328E;}
	.st65{clip-path:url(#SVGID_30_);fill:#19328E;}
	.st66{opacity:0.78;clip-path:url(#SVGID_4_);}
	.st67{opacity:0.43;clip-path:url(#SVGID_32_);fill:#3BADF2;}
	.st68{opacity:0.43;clip-path:url(#SVGID_34_);fill:#3BADF2;}
	.st69{clip-path:url(#SVGID_36_);fill:#19328E;}
	.st70{clip-path:url(#SVGID_38_);}
	.st71{clip-path:url(#SVGID_40_);fill:#0A4377;}
	.st72{clip-path:url(#SVGID_40_);fill:#2D84E2;}
	.st73{clip-path:url(#SVGID_40_);fill:#3BADF2;}
	.st74{opacity:0.27;clip-path:url(#SVGID_40_);}
	.st75{clip-path:url(#SVGID_42_);fill:#19328E;}
	.st76{clip-path:url(#SVGID_44_);fill:#19328E;}
	.st77{opacity:0.5;clip-path:url(#SVGID_40_);}
	.st78{clip-path:url(#SVGID_46_);fill:#19328E;}
	.st79{opacity:0.13;clip-path:url(#SVGID_40_);}
	.st80{clip-path:url(#SVGID_48_);fill:#C5FFFF;}
	.st81{opacity:0.62;clip-path:url(#SVGID_40_);}
	.st82{clip-path:url(#SVGID_50_);fill:#C5FFFF;}
	.st83{clip-path:url(#SVGID_52_);fill:#C5FFFF;}
	.st84{opacity:0.22;clip-path:url(#SVGID_40_);}
	.st85{clip-path:url(#SVGID_54_);fill:#C5FFFF;}
	.st86{clip-path:url(#SVGID_40_);fill:#0E3B63;}
	.st87{clip-path:url(#SVGID_56_);fill:#C5FFFF;}
	.st88{clip-path:url(#SVGID_58_);fill:#C5FFFF;}
	.st89{clip-path:url(#SVGID_60_);fill:#C5FFFF;}
	.st90{clip-path:url(#SVGID_40_);fill:#EF48A0;}
	.st91{clip-path:url(#SVGID_40_);fill:#FFFFFF;}
	.st92{clip-path:url(#SVGID_62_);fill:#19328E;}
	.st93{clip-path:url(#SVGID_64_);fill:#19328E;}
	.st94{clip-path:url(#SVGID_66_);fill:#19328E;}
	.st95{opacity:0.78;clip-path:url(#SVGID_40_);}
	.st96{opacity:0.43;clip-path:url(#SVGID_68_);fill:#3BADF2;}
	.st97{opacity:0.43;clip-path:url(#SVGID_70_);fill:#3BADF2;}
	.st98{clip-path:url(#SVGID_72_);fill:#19328E;}
	.st99{opacity:0.21;fill:#85D2F9;}
	.st100{clip-path:url(#SVGID_74_);}
	.st101{clip-path:url(#SVGID_76_);fill:#0A4377;}
	.st102{clip-path:url(#SVGID_76_);fill:#2D84E2;}
	.st103{clip-path:url(#SVGID_76_);fill:#3BADF2;}
	.st104{opacity:0.27;clip-path:url(#SVGID_76_);}
	.st105{clip-path:url(#SVGID_78_);fill:#19328E;}
	.st106{clip-path:url(#SVGID_80_);fill:#19328E;}
	.st107{opacity:0.5;clip-path:url(#SVGID_76_);}
	.st108{clip-path:url(#SVGID_82_);fill:#19328E;}
	.st109{opacity:0.13;clip-path:url(#SVGID_76_);}
	.st110{clip-path:url(#SVGID_84_);fill:#C5FFFF;}
	.st111{opacity:0.62;clip-path:url(#SVGID_76_);}
	.st112{clip-path:url(#SVGID_86_);fill:#C5FFFF;}
	.st113{clip-path:url(#SVGID_88_);fill:#C5FFFF;}
	.st114{opacity:0.22;clip-path:url(#SVGID_76_);}
	.st115{clip-path:url(#SVGID_90_);fill:#C5FFFF;}
	.st116{clip-path:url(#SVGID_76_);fill:#0E3B63;}
	.st117{clip-path:url(#SVGID_92_);fill:#C5FFFF;}
	.st118{clip-path:url(#SVGID_94_);fill:#C5FFFF;}
	.st119{clip-path:url(#SVGID_96_);fill:#C5FFFF;}
	.st120{clip-path:url(#SVGID_76_);fill:#EF48A0;}
	.st121{clip-path:url(#SVGID_76_);fill:#FFFFFF;}
	.st122{clip-path:url(#SVGID_98_);fill:#19328E;}
	.st123{clip-path:url(#SVGID_100_);fill:#19328E;}
	.st124{clip-path:url(#SVGID_102_);fill:#19328E;}
	.st125{opacity:0.78;clip-path:url(#SVGID_76_);}
	.st126{opacity:0.43;clip-path:url(#SVGID_104_);fill:#3BADF2;}
	.st127{opacity:0.43;clip-path:url(#SVGID_106_);fill:#3BADF2;}
	.st128{clip-path:url(#SVGID_108_);fill:#19328E;}
	.st129{opacity:0.5;fill:#C5FFFF;}
	.st130{fill:#C5FFFF;}
	.st131{opacity:0.37;}
	.st132{fill:#19328E;}
	.st133{opacity:0.43;fill:#3BADF2;}
	.st134{clip-path:url(#SVGID_110_);}
	.st135{clip-path:url(#SVGID_112_);fill:#0A4377;}
	.st136{clip-path:url(#SVGID_112_);fill:#2D84E2;}
	.st137{clip-path:url(#SVGID_112_);fill:#3BADF2;}
	.st138{opacity:0.27;clip-path:url(#SVGID_112_);}
	.st139{clip-path:url(#SVGID_114_);fill:#19328E;}
	.st140{clip-path:url(#SVGID_116_);fill:#19328E;}
	.st141{opacity:0.5;clip-path:url(#SVGID_112_);}
	.st142{clip-path:url(#SVGID_118_);fill:#19328E;}
	.st143{opacity:0.13;clip-path:url(#SVGID_112_);}
	.st144{clip-path:url(#SVGID_120_);fill:#C5FFFF;}
	.st145{opacity:0.62;clip-path:url(#SVGID_112_);}
	.st146{clip-path:url(#SVGID_122_);fill:#C5FFFF;}
	.st147{clip-path:url(#SVGID_124_);fill:#C5FFFF;}
	.st148{opacity:0.22;clip-path:url(#SVGID_112_);}
	.st149{clip-path:url(#SVGID_126_);fill:#C5FFFF;}
	.st150{clip-path:url(#SVGID_112_);fill:#0E3B63;}
	.st151{clip-path:url(#SVGID_128_);fill:#C5FFFF;}
	.st152{clip-path:url(#SVGID_130_);fill:#C5FFFF;}
	.st153{clip-path:url(#SVGID_132_);fill:#C5FFFF;}
	.st154{clip-path:url(#SVGID_112_);fill:#EF48A0;}
	.st155{clip-path:url(#SVGID_112_);fill:#FFFFFF;}
	.st156{clip-path:url(#SVGID_134_);fill:#19328E;}
	.st157{clip-path:url(#SVGID_136_);fill:#19328E;}
	.st158{clip-path:url(#SVGID_138_);fill:#19328E;}
	.st159{opacity:0.78;clip-path:url(#SVGID_112_);}
	.st160{opacity:0.43;clip-path:url(#SVGID_140_);fill:#3BADF2;}
	.st161{opacity:0.43;clip-path:url(#SVGID_142_);fill:#3BADF2;}
	.st162{clip-path:url(#SVGID_144_);fill:#19328E;}
	.st163{opacity:0.37;fill:#19328E;}
	.st164{clip-path:url(#SVGID_146_);}
	.st165{clip-path:url(#SVGID_148_);fill:#0A4377;}
	.st166{clip-path:url(#SVGID_148_);fill:#2D84E2;}
	.st167{clip-path:url(#SVGID_148_);fill:#3BADF2;}
	.st168{opacity:0.27;clip-path:url(#SVGID_148_);}
	.st169{clip-path:url(#SVGID_150_);fill:#19328E;}
	.st170{clip-path:url(#SVGID_152_);fill:#19328E;}
	.st171{opacity:0.5;clip-path:url(#SVGID_148_);}
	.st172{clip-path:url(#SVGID_154_);fill:#19328E;}
	.st173{opacity:0.13;clip-path:url(#SVGID_148_);}
	.st174{clip-path:url(#SVGID_156_);fill:#C5FFFF;}
	.st175{opacity:0.62;clip-path:url(#SVGID_148_);}
	.st176{clip-path:url(#SVGID_158_);fill:#C5FFFF;}
	.st177{clip-path:url(#SVGID_160_);fill:#C5FFFF;}
	.st178{opacity:0.22;clip-path:url(#SVGID_148_);}
	.st179{clip-path:url(#SVGID_162_);fill:#C5FFFF;}
	.st180{clip-path:url(#SVGID_148_);fill:#0E3B63;}
	.st181{clip-path:url(#SVGID_164_);fill:#C5FFFF;}
	.st182{clip-path:url(#SVGID_166_);fill:#C5FFFF;}
	.st183{clip-path:url(#SVGID_168_);fill:#C5FFFF;}
	.st184{clip-path:url(#SVGID_148_);fill:#EF48A0;}
	.st185{clip-path:url(#SVGID_148_);fill:#FFFFFF;}
	.st186{clip-path:url(#SVGID_170_);fill:#19328E;}
	.st187{clip-path:url(#SVGID_172_);fill:#19328E;}
	.st188{clip-path:url(#SVGID_174_);fill:#19328E;}
	.st189{opacity:0.78;clip-path:url(#SVGID_148_);}
	.st190{opacity:0.43;clip-path:url(#SVGID_176_);fill:#3BADF2;}
	.st191{opacity:0.43;clip-path:url(#SVGID_178_);fill:#3BADF2;}
	.st192{clip-path:url(#SVGID_180_);fill:#19328E;}
	.st193{clip-path:url(#SVGID_182_);}
	.st194{clip-path:url(#SVGID_184_);fill:#0A4377;}
	.st195{clip-path:url(#SVGID_184_);fill:#2D84E2;}
	.st196{clip-path:url(#SVGID_184_);fill:#3BADF2;}
	.st197{opacity:0.27;clip-path:url(#SVGID_184_);}
	.st198{clip-path:url(#SVGID_186_);fill:#19328E;}
	.st199{clip-path:url(#SVGID_188_);fill:#19328E;}
	.st200{opacity:0.5;clip-path:url(#SVGID_184_);}
	.st201{clip-path:url(#SVGID_190_);fill:#19328E;}
	.st202{opacity:0.13;clip-path:url(#SVGID_184_);}
	.st203{clip-path:url(#SVGID_192_);fill:#C5FFFF;}
	.st204{opacity:0.62;clip-path:url(#SVGID_184_);}
	.st205{clip-path:url(#SVGID_194_);fill:#C5FFFF;}
	.st206{clip-path:url(#SVGID_196_);fill:#C5FFFF;}
	.st207{opacity:0.22;clip-path:url(#SVGID_184_);}
	.st208{clip-path:url(#SVGID_198_);fill:#C5FFFF;}
	.st209{clip-path:url(#SVGID_184_);fill:#0E3B63;}
	.st210{clip-path:url(#SVGID_200_);fill:#C5FFFF;}
	.st211{clip-path:url(#SVGID_202_);fill:#C5FFFF;}
	.st212{clip-path:url(#SVGID_204_);fill:#C5FFFF;}
	.st213{clip-path:url(#SVGID_184_);fill:#EF48A0;}
	.st214{clip-path:url(#SVGID_184_);fill:#FFFFFF;}
	.st215{clip-path:url(#SVGID_206_);fill:#19328E;}
	.st216{clip-path:url(#SVGID_208_);fill:#19328E;}
	.st217{clip-path:url(#SVGID_210_);fill:#19328E;}
	.st218{opacity:0.78;clip-path:url(#SVGID_184_);}
	.st219{opacity:0.43;clip-path:url(#SVGID_212_);fill:#3BADF2;}
	.st220{opacity:0.43;clip-path:url(#SVGID_214_);fill:#3BADF2;}
	.st221{clip-path:url(#SVGID_216_);fill:#19328E;}
	.st222{clip-path:url(#SVGID_218_);}
	.st223{clip-path:url(#SVGID_220_);fill:#0A4377;}
	.st224{clip-path:url(#SVGID_220_);fill:#2D84E2;}
	.st225{clip-path:url(#SVGID_220_);fill:#3BADF2;}
	.st226{opacity:0.27;clip-path:url(#SVGID_220_);}
	.st227{clip-path:url(#SVGID_222_);fill:#19328E;}
	.st228{clip-path:url(#SVGID_224_);fill:#19328E;}
	.st229{opacity:0.5;clip-path:url(#SVGID_220_);}
	.st230{clip-path:url(#SVGID_226_);fill:#19328E;}
	.st231{opacity:0.13;clip-path:url(#SVGID_220_);}
	.st232{clip-path:url(#SVGID_228_);fill:#C5FFFF;}
	.st233{opacity:0.62;clip-path:url(#SVGID_220_);}
	.st234{clip-path:url(#SVGID_230_);fill:#C5FFFF;}
	.st235{clip-path:url(#SVGID_232_);fill:#C5FFFF;}
	.st236{opacity:0.22;clip-path:url(#SVGID_220_);}
	.st237{clip-path:url(#SVGID_234_);fill:#C5FFFF;}
	.st238{clip-path:url(#SVGID_220_);fill:#0E3B63;}
	.st239{clip-path:url(#SVGID_236_);fill:#C5FFFF;}
	.st240{clip-path:url(#SVGID_238_);fill:#C5FFFF;}
	.st241{clip-path:url(#SVGID_240_);fill:#C5FFFF;}
	.st242{clip-path:url(#SVGID_220_);fill:#EF48A0;}
	.st243{clip-path:url(#SVGID_220_);fill:#FFFFFF;}
	.st244{clip-path:url(#SVGID_242_);fill:#19328E;}
	.st245{clip-path:url(#SVGID_244_);fill:#19328E;}
	.st246{clip-path:url(#SVGID_246_);fill:#19328E;}
	.st247{opacity:0.78;clip-path:url(#SVGID_220_);}
	.st248{opacity:0.43;clip-path:url(#SVGID_248_);fill:#3BADF2;}
	.st249{opacity:0.43;clip-path:url(#SVGID_250_);fill:#3BADF2;}
	.st250{clip-path:url(#SVGID_252_);fill:#19328E;}
	.st251{clip-path:url(#SVGID_254_);}
	.st252{clip-path:url(#SVGID_256_);fill:#57056B;}
	.st253{clip-path:url(#SVGID_256_);fill:#D14AED;}
	.st254{opacity:0.52;clip-path:url(#SVGID_256_);}
	.st255{clip-path:url(#SVGID_258_);fill:#ED82F9;}
	.st256{opacity:0.33;clip-path:url(#SVGID_256_);}
	.st257{clip-path:url(#SVGID_260_);fill:#421554;}
	.st258{clip-path:url(#SVGID_256_);fill:#E84DF4;}
	.st259{opacity:0.45;clip-path:url(#SVGID_256_);}
	.st260{clip-path:url(#SVGID_262_);fill:#D183FF;}
	.st261{opacity:0.55;clip-path:url(#SVGID_256_);}
	.st262{clip-path:url(#SVGID_264_);fill:#421554;}
	.st263{clip-path:url(#SVGID_256_);fill:#440254;}
	.st264{opacity:0.5;clip-path:url(#SVGID_256_);}
	.st265{clip-path:url(#SVGID_266_);fill:#BE4AED;}
	.st266{clip-path:url(#SVGID_256_);fill:#FFFFFF;}
	.st267{clip-path:url(#SVGID_268_);fill:#421554;}
	.st268{clip-path:url(#SVGID_270_);fill:#BE4AED;}
	.st269{clip-path:url(#SVGID_272_);fill:#421554;}
	.st270{clip-path:url(#SVGID_256_);fill:#EF48A0;}
	.st271{opacity:0.39;clip-path:url(#SVGID_256_);}
	.st272{clip-path:url(#SVGID_274_);fill:#421554;}
	.st273{clip-path:url(#SVGID_256_);fill:#ED82F9;}
	.st274{clip-path:url(#SVGID_256_);fill:#FF6CC0;}
	.st275{opacity:0.37;clip-path:url(#SVGID_256_);}
	.st276{clip-path:url(#SVGID_276_);fill:#421554;}
	.st277{clip-path:url(#SVGID_256_);fill:#FFC2E8;}
	.st278{opacity:0.78;clip-path:url(#SVGID_256_);}
	.st279{clip-path:url(#SVGID_278_);fill:#FF88CC;}
	.st280{clip-path:url(#SVGID_280_);fill:#FF88CC;}
	.st281{clip-path:url(#SVGID_282_);}
	.st282{clip-path:url(#SVGID_284_);fill:#57056B;}
	.st283{clip-path:url(#SVGID_284_);fill:#D14AED;}
	.st284{opacity:0.52;clip-path:url(#SVGID_284_);}
	.st285{clip-path:url(#SVGID_286_);fill:#ED82F9;}
	.st286{opacity:0.33;clip-path:url(#SVGID_284_);}
	.st287{clip-path:url(#SVGID_288_);fill:#421554;}
	.st288{clip-path:url(#SVGID_284_);fill:#E84DF4;}
	.st289{opacity:0.45;clip-path:url(#SVGID_284_);}
	.st290{clip-path:url(#SVGID_290_);fill:#D183FF;}
	.st291{opacity:0.55;clip-path:url(#SVGID_284_);}
	.st292{clip-path:url(#SVGID_292_);fill:#421554;}
	.st293{clip-path:url(#SVGID_284_);fill:#440254;}
	.st294{opacity:0.5;clip-path:url(#SVGID_284_);}
	.st295{clip-path:url(#SVGID_294_);fill:#BE4AED;}
	.st296{clip-path:url(#SVGID_284_);fill:#FFFFFF;}
	.st297{clip-path:url(#SVGID_296_);fill:#421554;}
	.st298{clip-path:url(#SVGID_298_);fill:#BE4AED;}
	.st299{clip-path:url(#SVGID_300_);fill:#421554;}
	.st300{clip-path:url(#SVGID_284_);fill:#EF48A0;}
	.st301{opacity:0.39;clip-path:url(#SVGID_284_);}
	.st302{clip-path:url(#SVGID_302_);fill:#421554;}
	.st303{clip-path:url(#SVGID_284_);fill:#ED82F9;}
	.st304{clip-path:url(#SVGID_284_);fill:#FF6CC0;}
	.st305{opacity:0.37;clip-path:url(#SVGID_284_);}
	.st306{clip-path:url(#SVGID_304_);fill:#421554;}
	.st307{clip-path:url(#SVGID_284_);fill:#FFC2E8;}
	.st308{opacity:0.78;clip-path:url(#SVGID_284_);}
	.st309{clip-path:url(#SVGID_306_);fill:#FF88CC;}
	.st310{clip-path:url(#SVGID_308_);fill:#FF88CC;}
	.st311{opacity:0.53;fill:#EA94FF;}
	.st312{clip-path:url(#SVGID_310_);}
	.st313{clip-path:url(#SVGID_312_);fill:#57056B;}
	.st314{clip-path:url(#SVGID_312_);fill:#D14AED;}
	.st315{opacity:0.52;clip-path:url(#SVGID_312_);}
	.st316{clip-path:url(#SVGID_314_);fill:#ED82F9;}
	.st317{opacity:0.33;clip-path:url(#SVGID_312_);}
	.st318{clip-path:url(#SVGID_316_);fill:#421554;}
	.st319{clip-path:url(#SVGID_312_);fill:#E84DF4;}
	.st320{opacity:0.45;clip-path:url(#SVGID_312_);}
	.st321{clip-path:url(#SVGID_318_);fill:#D183FF;}
	.st322{opacity:0.55;clip-path:url(#SVGID_312_);}
	.st323{clip-path:url(#SVGID_320_);fill:#421554;}
	.st324{clip-path:url(#SVGID_312_);fill:#440254;}
	.st325{opacity:0.5;clip-path:url(#SVGID_312_);}
	.st326{clip-path:url(#SVGID_322_);fill:#BE4AED;}
	.st327{clip-path:url(#SVGID_312_);fill:#FFFFFF;}
	.st328{clip-path:url(#SVGID_324_);fill:#421554;}
	.st329{clip-path:url(#SVGID_326_);fill:#BE4AED;}
	.st330{clip-path:url(#SVGID_328_);fill:#421554;}
	.st331{clip-path:url(#SVGID_312_);fill:#EF48A0;}
	.st332{opacity:0.39;clip-path:url(#SVGID_312_);}
	.st333{clip-path:url(#SVGID_330_);fill:#421554;}
	.st334{clip-path:url(#SVGID_312_);fill:#ED82F9;}
	.st335{clip-path:url(#SVGID_312_);fill:#FF6CC0;}
	.st336{opacity:0.37;clip-path:url(#SVGID_312_);}
	.st337{clip-path:url(#SVGID_332_);fill:#421554;}
	.st338{clip-path:url(#SVGID_312_);fill:#FFC2E8;}
	.st339{opacity:0.78;clip-path:url(#SVGID_312_);}
	.st340{clip-path:url(#SVGID_334_);fill:#FF88CC;}
	.st341{clip-path:url(#SVGID_336_);fill:#FF88CC;}
	.st342{fill:#EFC5FF;}
	.st343{fill:#421554;}
	.st344{fill:#ED82F9;}
	.st345{clip-path:url(#SVGID_338_);}
	.st346{clip-path:url(#SVGID_340_);fill:#57056B;}
	.st347{clip-path:url(#SVGID_340_);fill:#D14AED;}
	.st348{opacity:0.52;clip-path:url(#SVGID_340_);}
	.st349{clip-path:url(#SVGID_342_);fill:#ED82F9;}
	.st350{opacity:0.33;clip-path:url(#SVGID_340_);}
	.st351{clip-path:url(#SVGID_344_);fill:#421554;}
	.st352{clip-path:url(#SVGID_340_);fill:#E84DF4;}
	.st353{opacity:0.45;clip-path:url(#SVGID_340_);}
	.st354{clip-path:url(#SVGID_346_);fill:#D183FF;}
	.st355{opacity:0.55;clip-path:url(#SVGID_340_);}
	.st356{clip-path:url(#SVGID_348_);fill:#421554;}
	.st357{clip-path:url(#SVGID_340_);fill:#440254;}
	.st358{opacity:0.5;clip-path:url(#SVGID_340_);}
	.st359{clip-path:url(#SVGID_350_);fill:#BE4AED;}
	.st360{clip-path:url(#SVGID_340_);fill:#FFFFFF;}
	.st361{clip-path:url(#SVGID_352_);fill:#421554;}
	.st362{clip-path:url(#SVGID_354_);fill:#BE4AED;}
	.st363{clip-path:url(#SVGID_356_);fill:#421554;}
	.st364{clip-path:url(#SVGID_340_);fill:#EF48A0;}
	.st365{opacity:0.39;clip-path:url(#SVGID_340_);}
	.st366{clip-path:url(#SVGID_358_);fill:#421554;}
	.st367{clip-path:url(#SVGID_340_);fill:#ED82F9;}
	.st368{clip-path:url(#SVGID_340_);fill:#FF6CC0;}
	.st369{opacity:0.37;clip-path:url(#SVGID_340_);}
	.st370{clip-path:url(#SVGID_360_);fill:#421554;}
	.st371{clip-path:url(#SVGID_340_);fill:#FFC2E8;}
	.st372{opacity:0.78;clip-path:url(#SVGID_340_);}
	.st373{clip-path:url(#SVGID_362_);fill:#FF88CC;}
	.st374{clip-path:url(#SVGID_364_);fill:#FF88CC;}
	.st375{opacity:0.5;fill:#421554;}
	.st376{clip-path:url(#SVGID_366_);}
	.st377{clip-path:url(#SVGID_368_);fill:#57056B;}
	.st378{clip-path:url(#SVGID_368_);fill:#D14AED;}
	.st379{opacity:0.52;clip-path:url(#SVGID_368_);}
	.st380{clip-path:url(#SVGID_370_);fill:#ED82F9;}
	.st381{opacity:0.33;clip-path:url(#SVGID_368_);}
	.st382{clip-path:url(#SVGID_372_);fill:#421554;}
	.st383{clip-path:url(#SVGID_368_);fill:#E84DF4;}
	.st384{opacity:0.45;clip-path:url(#SVGID_368_);}
	.st385{clip-path:url(#SVGID_374_);fill:#D183FF;}
	.st386{opacity:0.55;clip-path:url(#SVGID_368_);}
	.st387{clip-path:url(#SVGID_376_);fill:#421554;}
	.st388{clip-path:url(#SVGID_368_);fill:#440254;}
	.st389{opacity:0.5;clip-path:url(#SVGID_368_);}
	.st390{clip-path:url(#SVGID_378_);fill:#BE4AED;}
	.st391{clip-path:url(#SVGID_368_);fill:#FFFFFF;}
	.st392{clip-path:url(#SVGID_380_);fill:#421554;}
	.st393{clip-path:url(#SVGID_382_);fill:#BE4AED;}
	.st394{clip-path:url(#SVGID_384_);fill:#421554;}
	.st395{clip-path:url(#SVGID_368_);fill:#EF48A0;}
	.st396{opacity:0.39;clip-path:url(#SVGID_368_);}
	.st397{clip-path:url(#SVGID_386_);fill:#421554;}
	.st398{clip-path:url(#SVGID_368_);fill:#ED82F9;}
	.st399{clip-path:url(#SVGID_368_);fill:#FF6CC0;}
	.st400{opacity:0.37;clip-path:url(#SVGID_368_);}
	.st401{clip-path:url(#SVGID_388_);fill:#421554;}
	.st402{clip-path:url(#SVGID_368_);fill:#FFC2E8;}
	.st403{opacity:0.78;clip-path:url(#SVGID_368_);}
	.st404{clip-path:url(#SVGID_390_);fill:#FF88CC;}
	.st405{clip-path:url(#SVGID_392_);fill:#FF88CC;}
	.st406{clip-path:url(#SVGID_394_);}
	.st407{clip-path:url(#SVGID_396_);fill:#57056B;}
	.st408{clip-path:url(#SVGID_396_);fill:#D14AED;}
	.st409{opacity:0.52;clip-path:url(#SVGID_396_);}
	.st410{clip-path:url(#SVGID_398_);fill:#ED82F9;}
	.st411{opacity:0.33;clip-path:url(#SVGID_396_);}
	.st412{clip-path:url(#SVGID_400_);fill:#421554;}
	.st413{clip-path:url(#SVGID_396_);fill:#E84DF4;}
	.st414{opacity:0.45;clip-path:url(#SVGID_396_);}
	.st415{clip-path:url(#SVGID_402_);fill:#D183FF;}
	.st416{opacity:0.55;clip-path:url(#SVGID_396_);}
	.st417{clip-path:url(#SVGID_404_);fill:#421554;}
	.st418{clip-path:url(#SVGID_396_);fill:#440254;}
	.st419{opacity:0.5;clip-path:url(#SVGID_396_);}
	.st420{clip-path:url(#SVGID_406_);fill:#BE4AED;}
	.st421{clip-path:url(#SVGID_396_);fill:#FFFFFF;}
	.st422{clip-path:url(#SVGID_408_);fill:#421554;}
	.st423{clip-path:url(#SVGID_410_);fill:#BE4AED;}
	.st424{clip-path:url(#SVGID_412_);fill:#421554;}
	.st425{clip-path:url(#SVGID_396_);fill:#EF48A0;}
	.st426{opacity:0.39;clip-path:url(#SVGID_396_);}
	.st427{clip-path:url(#SVGID_414_);fill:#421554;}
	.st428{clip-path:url(#SVGID_396_);fill:#ED82F9;}
	.st429{clip-path:url(#SVGID_396_);fill:#FF6CC0;}
	.st430{opacity:0.37;clip-path:url(#SVGID_396_);}
	.st431{clip-path:url(#SVGID_416_);fill:#421554;}
	.st432{clip-path:url(#SVGID_396_);fill:#FFC2E8;}
	.st433{opacity:0.78;clip-path:url(#SVGID_396_);}
	.st434{clip-path:url(#SVGID_418_);fill:#FF88CC;}
	.st435{clip-path:url(#SVGID_420_);fill:#FF88CC;}
	.st436{clip-path:url(#SVGID_422_);}
	.st437{clip-path:url(#SVGID_424_);fill:#57056B;}
	.st438{clip-path:url(#SVGID_424_);fill:#D14AED;}
	.st439{opacity:0.52;clip-path:url(#SVGID_424_);}
	.st440{clip-path:url(#SVGID_426_);fill:#ED82F9;}
	.st441{opacity:0.33;clip-path:url(#SVGID_424_);}
	.st442{clip-path:url(#SVGID_428_);fill:#421554;}
	.st443{clip-path:url(#SVGID_424_);fill:#E84DF4;}
	.st444{opacity:0.45;clip-path:url(#SVGID_424_);}
	.st445{clip-path:url(#SVGID_430_);fill:#D183FF;}
	.st446{opacity:0.55;clip-path:url(#SVGID_424_);}
	.st447{clip-path:url(#SVGID_432_);fill:#421554;}
	.st448{clip-path:url(#SVGID_424_);fill:#440254;}
	.st449{opacity:0.5;clip-path:url(#SVGID_424_);}
	.st450{clip-path:url(#SVGID_434_);fill:#BE4AED;}
	.st451{clip-path:url(#SVGID_424_);fill:#FFFFFF;}
	.st452{clip-path:url(#SVGID_436_);fill:#421554;}
	.st453{clip-path:url(#SVGID_438_);fill:#BE4AED;}
	.st454{clip-path:url(#SVGID_440_);fill:#421554;}
	.st455{clip-path:url(#SVGID_424_);fill:#EF48A0;}
	.st456{opacity:0.39;clip-path:url(#SVGID_424_);}
	.st457{clip-path:url(#SVGID_442_);fill:#421554;}
	.st458{clip-path:url(#SVGID_424_);fill:#ED82F9;}
	.st459{clip-path:url(#SVGID_424_);fill:#FF6CC0;}
	.st460{opacity:0.37;clip-path:url(#SVGID_424_);}
	.st461{clip-path:url(#SVGID_444_);fill:#421554;}
	.st462{clip-path:url(#SVGID_424_);fill:#FFC2E8;}
	.st463{opacity:0.78;clip-path:url(#SVGID_424_);}
	.st464{clip-path:url(#SVGID_446_);fill:#FF88CC;}
	.st465{clip-path:url(#SVGID_448_);fill:#FF88CC;}
	.st466{clip-path:url(#SVGID_450_);}
	.st467{clip-path:url(#SVGID_452_);fill:#771515;}
	.st468{clip-path:url(#SVGID_452_);fill:#FF3E3E;}
	.st469{opacity:0.42;clip-path:url(#SVGID_452_);}
	.st470{clip-path:url(#SVGID_454_);fill:#FFCE00;}
	.st471{opacity:0.43;clip-path:url(#SVGID_452_);}
	.st472{clip-path:url(#SVGID_456_);fill:#771515;}
	.st473{opacity:0.61;clip-path:url(#SVGID_456_);}
	.st474{clip-path:url(#SVGID_458_);fill:#F97906;}
	.st475{opacity:0.22;clip-path:url(#SVGID_452_);}
	.st476{clip-path:url(#SVGID_460_);fill:#FEFFF5;}
	.st477{clip-path:url(#SVGID_452_);fill:#560C09;}
	.st478{clip-path:url(#SVGID_462_);fill:#FEFFF5;}
	.st479{opacity:0.46;clip-path:url(#SVGID_452_);}
	.st480{clip-path:url(#SVGID_464_);fill:#470A04;}
	.st481{clip-path:url(#SVGID_452_);fill:#5AB8FF;}
	.st482{clip-path:url(#SVGID_452_);fill:#FFFFFF;}
	.st483{clip-path:url(#SVGID_466_);fill:#470A04;}
	.st484{clip-path:url(#SVGID_468_);fill:#470A04;}
	.st485{clip-path:url(#SVGID_452_);fill:#56153A;}
	.st486{clip-path:url(#SVGID_452_);fill:#28081C;}
	.st487{clip-path:url(#SVGID_452_);fill:#EF48A0;}
	.st488{clip-path:url(#SVGID_470_);fill:#FFCE00;}
	.st489{clip-path:url(#SVGID_472_);fill:#FFCE00;}
	.st490{clip-path:url(#SVGID_474_);fill:#FFCE00;}
	.st491{clip-path:url(#SVGID_452_);fill:#F97906;}
	.st492{clip-path:url(#SVGID_476_);}
	.st493{clip-path:url(#SVGID_478_);fill:#771515;}
	.st494{clip-path:url(#SVGID_478_);fill:#FF3E3E;}
	.st495{opacity:0.42;clip-path:url(#SVGID_478_);}
	.st496{clip-path:url(#SVGID_480_);fill:#FFCE00;}
	.st497{opacity:0.43;clip-path:url(#SVGID_478_);}
	.st498{clip-path:url(#SVGID_482_);fill:#771515;}
	.st499{opacity:0.61;clip-path:url(#SVGID_482_);}
	.st500{clip-path:url(#SVGID_484_);fill:#F97906;}
	.st501{opacity:0.22;clip-path:url(#SVGID_478_);}
	.st502{clip-path:url(#SVGID_486_);fill:#FEFFF5;}
	.st503{clip-path:url(#SVGID_478_);fill:#560C09;}
	.st504{clip-path:url(#SVGID_488_);fill:#FEFFF5;}
	.st505{opacity:0.46;clip-path:url(#SVGID_478_);}
	.st506{clip-path:url(#SVGID_490_);fill:#470A04;}
	.st507{clip-path:url(#SVGID_478_);fill:#5AB8FF;}
	.st508{clip-path:url(#SVGID_478_);fill:#FFFFFF;}
	.st509{clip-path:url(#SVGID_492_);fill:#470A04;}
	.st510{clip-path:url(#SVGID_494_);fill:#470A04;}
	.st511{clip-path:url(#SVGID_478_);fill:#56153A;}
	.st512{clip-path:url(#SVGID_478_);fill:#28081C;}
	.st513{clip-path:url(#SVGID_478_);fill:#EF48A0;}
	.st514{clip-path:url(#SVGID_496_);fill:#FFCE00;}
	.st515{clip-path:url(#SVGID_498_);fill:#FFCE00;}
	.st516{clip-path:url(#SVGID_500_);fill:#FFCE00;}
	.st517{clip-path:url(#SVGID_478_);fill:#F97906;}
	.st518{opacity:0.3;fill:#FFCE00;}
	.st519{clip-path:url(#SVGID_502_);}
	.st520{clip-path:url(#SVGID_504_);fill:#771515;}
	.st521{clip-path:url(#SVGID_504_);fill:#FF3E3E;}
	.st522{opacity:0.42;clip-path:url(#SVGID_504_);}
	.st523{clip-path:url(#SVGID_506_);fill:#FFCE00;}
	.st524{opacity:0.43;clip-path:url(#SVGID_504_);}
	.st525{clip-path:url(#SVGID_508_);fill:#771515;}
	.st526{opacity:0.61;clip-path:url(#SVGID_508_);}
	.st527{clip-path:url(#SVGID_510_);fill:#F97906;}
	.st528{opacity:0.22;clip-path:url(#SVGID_504_);}
	.st529{clip-path:url(#SVGID_512_);fill:#FEFFF5;}
	.st530{clip-path:url(#SVGID_504_);fill:#560C09;}
	.st531{clip-path:url(#SVGID_514_);fill:#FEFFF5;}
	.st532{opacity:0.46;clip-path:url(#SVGID_504_);}
	.st533{clip-path:url(#SVGID_516_);fill:#470A04;}
	.st534{clip-path:url(#SVGID_504_);fill:#5AB8FF;}
	.st535{clip-path:url(#SVGID_504_);fill:#FFFFFF;}
	.st536{clip-path:url(#SVGID_518_);fill:#470A04;}
	.st537{clip-path:url(#SVGID_520_);fill:#470A04;}
	.st538{clip-path:url(#SVGID_504_);fill:#56153A;}
	.st539{clip-path:url(#SVGID_504_);fill:#28081C;}
	.st540{clip-path:url(#SVGID_504_);fill:#EF48A0;}
	.st541{clip-path:url(#SVGID_522_);fill:#FFCE00;}
	.st542{clip-path:url(#SVGID_524_);fill:#FFCE00;}
	.st543{clip-path:url(#SVGID_526_);fill:#FFCE00;}
	.st544{clip-path:url(#SVGID_504_);fill:#F97906;}
	.st545{fill:#FEFFC7;}
	.st546{fill:#FF3E3E;}
	.st547{opacity:0.55;fill:#F97906;}
	.st548{clip-path:url(#SVGID_528_);}
	.st549{clip-path:url(#SVGID_530_);fill:#771515;}
	.st550{clip-path:url(#SVGID_530_);fill:#FF3E3E;}
	.st551{opacity:0.42;clip-path:url(#SVGID_530_);}
	.st552{clip-path:url(#SVGID_532_);fill:#FFCE00;}
	.st553{opacity:0.43;clip-path:url(#SVGID_530_);}
	.st554{clip-path:url(#SVGID_534_);fill:#771515;}
	.st555{opacity:0.61;clip-path:url(#SVGID_534_);}
	.st556{clip-path:url(#SVGID_536_);fill:#F97906;}
	.st557{opacity:0.22;clip-path:url(#SVGID_530_);}
	.st558{clip-path:url(#SVGID_538_);fill:#FEFFF5;}
	.st559{clip-path:url(#SVGID_530_);fill:#560C09;}
	.st560{clip-path:url(#SVGID_540_);fill:#FEFFF5;}
	.st561{opacity:0.46;clip-path:url(#SVGID_530_);}
	.st562{clip-path:url(#SVGID_542_);fill:#470A04;}
	.st563{clip-path:url(#SVGID_530_);fill:#5AB8FF;}
	.st564{clip-path:url(#SVGID_530_);fill:#FFFFFF;}
	.st565{clip-path:url(#SVGID_544_);fill:#470A04;}
	.st566{clip-path:url(#SVGID_546_);fill:#470A04;}
	.st567{clip-path:url(#SVGID_530_);fill:#56153A;}
	.st568{clip-path:url(#SVGID_530_);fill:#28081C;}
	.st569{clip-path:url(#SVGID_530_);fill:#EF48A0;}
	.st570{clip-path:url(#SVGID_548_);fill:#FFCE00;}
	.st571{clip-path:url(#SVGID_550_);fill:#FFCE00;}
	.st572{clip-path:url(#SVGID_552_);fill:#FFCE00;}
	.st573{clip-path:url(#SVGID_530_);fill:#F97906;}
	.st574{opacity:0.5;fill:#FF3E3E;}
	.st575{clip-path:url(#SVGID_554_);}
	.st576{clip-path:url(#SVGID_556_);fill:#771515;}
	.st577{clip-path:url(#SVGID_556_);fill:#FF3E3E;}
	.st578{opacity:0.42;clip-path:url(#SVGID_556_);}
	.st579{clip-path:url(#SVGID_558_);fill:#FFCE00;}
	.st580{opacity:0.43;clip-path:url(#SVGID_556_);}
	.st581{clip-path:url(#SVGID_560_);fill:#771515;}
	.st582{opacity:0.61;clip-path:url(#SVGID_560_);}
	.st583{clip-path:url(#SVGID_562_);fill:#F97906;}
	.st584{opacity:0.22;clip-path:url(#SVGID_556_);}
	.st585{clip-path:url(#SVGID_564_);fill:#FEFFF5;}
	.st586{clip-path:url(#SVGID_556_);fill:#560C09;}
	.st587{clip-path:url(#SVGID_566_);fill:#FEFFF5;}
	.st588{opacity:0.46;clip-path:url(#SVGID_556_);}
	.st589{clip-path:url(#SVGID_568_);fill:#470A04;}
	.st590{clip-path:url(#SVGID_556_);fill:#5AB8FF;}
	.st591{clip-path:url(#SVGID_556_);fill:#FFFFFF;}
	.st592{clip-path:url(#SVGID_570_);fill:#470A04;}
	.st593{clip-path:url(#SVGID_572_);fill:#470A04;}
	.st594{clip-path:url(#SVGID_556_);fill:#56153A;}
	.st595{clip-path:url(#SVGID_556_);fill:#28081C;}
	.st596{clip-path:url(#SVGID_556_);fill:#EF48A0;}
	.st597{clip-path:url(#SVGID_574_);fill:#FFCE00;}
	.st598{clip-path:url(#SVGID_576_);fill:#FFCE00;}
	.st599{clip-path:url(#SVGID_578_);fill:#FFCE00;}
	.st600{clip-path:url(#SVGID_556_);fill:#F97906;}
	.st601{clip-path:url(#SVGID_580_);}
	.st602{clip-path:url(#SVGID_582_);fill:#771515;}
	.st603{clip-path:url(#SVGID_582_);fill:#FF3E3E;}
	.st604{opacity:0.42;clip-path:url(#SVGID_582_);}
	.st605{clip-path:url(#SVGID_584_);fill:#FFCE00;}
	.st606{opacity:0.43;clip-path:url(#SVGID_582_);}
	.st607{clip-path:url(#SVGID_586_);fill:#771515;}
	.st608{opacity:0.61;clip-path:url(#SVGID_586_);}
	.st609{clip-path:url(#SVGID_588_);fill:#F97906;}
	.st610{opacity:0.22;clip-path:url(#SVGID_582_);}
	.st611{clip-path:url(#SVGID_590_);fill:#FEFFF5;}
	.st612{clip-path:url(#SVGID_582_);fill:#560C09;}
	.st613{clip-path:url(#SVGID_592_);fill:#FEFFF5;}
	.st614{opacity:0.46;clip-path:url(#SVGID_582_);}
	.st615{clip-path:url(#SVGID_594_);fill:#470A04;}
	.st616{clip-path:url(#SVGID_582_);fill:#5AB8FF;}
	.st617{clip-path:url(#SVGID_582_);fill:#FFFFFF;}
	.st618{clip-path:url(#SVGID_596_);fill:#470A04;}
	.st619{clip-path:url(#SVGID_598_);fill:#470A04;}
	.st620{clip-path:url(#SVGID_582_);fill:#56153A;}
	.st621{clip-path:url(#SVGID_582_);fill:#28081C;}
	.st622{clip-path:url(#SVGID_582_);fill:#EF48A0;}
	.st623{clip-path:url(#SVGID_600_);fill:#FFCE00;}
	.st624{clip-path:url(#SVGID_602_);fill:#FFCE00;}
	.st625{clip-path:url(#SVGID_604_);fill:#FFCE00;}
	.st626{clip-path:url(#SVGID_582_);fill:#F97906;}
	.st627{clip-path:url(#SVGID_606_);}
	.st628{clip-path:url(#SVGID_608_);fill:#771515;}
	.st629{clip-path:url(#SVGID_608_);fill:#FF3E3E;}
	.st630{opacity:0.42;clip-path:url(#SVGID_608_);}
	.st631{clip-path:url(#SVGID_610_);fill:#FFCE00;}
	.st632{opacity:0.43;clip-path:url(#SVGID_608_);}
	.st633{clip-path:url(#SVGID_612_);fill:#771515;}
	.st634{opacity:0.61;clip-path:url(#SVGID_612_);}
	.st635{clip-path:url(#SVGID_614_);fill:#F97906;}
	.st636{opacity:0.22;clip-path:url(#SVGID_608_);}
	.st637{clip-path:url(#SVGID_616_);fill:#FEFFF5;}
	.st638{clip-path:url(#SVGID_608_);fill:#560C09;}
	.st639{clip-path:url(#SVGID_618_);fill:#FEFFF5;}
	.st640{opacity:0.46;clip-path:url(#SVGID_608_);}
	.st641{clip-path:url(#SVGID_620_);fill:#470A04;}
	.st642{clip-path:url(#SVGID_608_);fill:#5AB8FF;}
	.st643{clip-path:url(#SVGID_608_);fill:#FFFFFF;}
	.st644{clip-path:url(#SVGID_622_);fill:#470A04;}
	.st645{clip-path:url(#SVGID_624_);fill:#470A04;}
	.st646{clip-path:url(#SVGID_608_);fill:#56153A;}
	.st647{clip-path:url(#SVGID_608_);fill:#28081C;}
	.st648{clip-path:url(#SVGID_608_);fill:#EF48A0;}
	.st649{clip-path:url(#SVGID_626_);fill:#FFCE00;}
	.st650{clip-path:url(#SVGID_628_);fill:#FFCE00;}
	.st651{clip-path:url(#SVGID_630_);fill:#FFCE00;}
	.st652{clip-path:url(#SVGID_608_);fill:#F97906;}
</style>
<g id="_x2014_ÎÓÈ_x5F_3">
</g>
<g id="_x2014_ÎÓÈ_x5F_1">
</g>
<g id="_x2014_ÎÓÈ_x5F_2">
	<g>
		<g>
			<defs>
				<rect id="SVGID_73_" x="18.9" y="12.3" width="57" height="65.5"/>
			</defs>
			<clipPath id="SVGID_2_">
				<use xlink:href="#SVGID_73_"  style="overflow:visible;"/>
			</clipPath>
			<g class="st41">
				<defs>
					<rect id="SVGID_75_" x="18.9" y="12.3" width="57" height="65.5"/>
				</defs>
				<clipPath id="SVGID_4_">
					<use xlink:href="#SVGID_75_"  style="overflow:visible;"/>
				</clipPath>
				<path class="st42" d="M66.4,42c-3-3.9-4.1-6-4-6.5c0.4-0.7,2.8-2.3,4.1-3.2l0.4-0.3c3.5-1.8,5.6-5.4,5.6-9.3
					c0-5.6-4.6-10.2-10.4-10.4c-0.2,0-0.4,0-0.6,0c-6.6,0-10,4.3-10,12.4c0,2.4,0.9,4.4,2.5,5.9c0.8,1.7,1,2.4,1,2.7
					c-1.3,0-4.3-0.3-6.5-0.6c-0.7-0.2-1.3-0.3-2-0.4c-1.8-1.2-3.1-2.2-3.4-2.9c-0.2-0.3,0.1-0.8,0.4-1.2c1.6-0.8,2.7-1.8,3.4-3.1
					c0.6-1.2,0.6-2.7-0.1-4c-0.8-1.6-2.4-2.7-4.2-3c-0.1,0-0.9-0.1-1.9-0.1c-3.7,0-5.8,1.5-6,4.1c-0.3,3.7,1.4,6.2,3.3,7
					c0.8,0.5,1.3,0.9,1.3,1.3c-0.1,0.1-0.3,0.4-1.4,1.1c-5,0.5-9.4,3-12.8,7.3c-3.3,4.2-5.3,9.7-5.8,15.7
					c-0.5,6.6,1.1,12.3,4.7,16.5c3.7,4.3,9.3,6.8,15.5,6.8l0.8,0h0c10.7,0,33.1,0,33.5-18.1C73.6,52.7,71.2,46.8,66.4,42"/>
				<path class="st43" d="M65.9,42.4c-1.3-1.7-4.7-6.2-4.2-7.3c0.4-0.9,3-2.6,4.8-3.8c3.2-1.6,5.3-4.9,5.3-8.7
					c0-5.4-4.4-9.6-9.8-9.8c-8.4-0.3-10,6.3-10,11.7c0,2.4,0.9,4.2,2.3,5.4c0.9,1.8,1.7,3.8,0.6,3.8c-1.3,0-4.4-0.3-6.7-0.6
					c-0.7-0.2-1.4-0.3-2.1-0.5c-1.1-0.7-3.1-2.1-3.8-3.2c-0.4-0.7,0-1.5,0.5-2.1c1.4-0.7,2.5-1.5,3.2-2.8c1.1-2.2-0.5-5.5-3.8-5.9
					c0,0-6.9-1.2-7.2,3.4c-0.3,3.3,1.2,5.6,2.9,6.4c1,0.7,1.8,1.2,1.7,2c-0.1,0.5-1.1,1.2-1.9,1.6C27.7,33,20.6,42.7,19.6,54.6
					c-1.2,14.7,8.8,22.5,19.6,22.5c10.8,0,33.2,0.2,33.6-17.5C72.9,52.2,70.1,46.6,65.9,42.4"/>
				<path class="st44" d="M55.7,37c0,0-3.7-1.2-6.7-0.9c-3.8,0.3-6.9,2.3-4,5.7c5.3,6.3,16.4,18.8,20.5,17.9
					c4.1-0.8,5.3-7.7,2.7-11.5C65.6,44.5,65,41.3,55.7,37"/>
				<g class="st45">
					<g>
						<defs>
							<rect id="SVGID_77_" x="34.4" y="14.4" width="37.4" height="24.8"/>
						</defs>
						<clipPath id="SVGID_6_">
							<use xlink:href="#SVGID_77_"  style="overflow:visible;"/>
						</clipPath>
						<path class="st46" d="M55,33.9c-1.1,0-3.4-0.2-5.5-0.5c0.2,0.4,0.2,0.9,0,1.4c-0.8,1.9,1.3,4.4,2.8,3.3s5.4-0.4,7.9,0.4
							c2.5,0.9,3.4,0.6,3.4,0.6s0,0,0,0c-1.1-1.7-2.1-3.4-1.8-4c0.4-0.9,3-2.6,4.8-3.8c2.3-1.2,4.1-3.3,4.9-5.8
							c-1.2,2.6-5,4.6-7.4,2.7c-2.9-2.2-0.8-5.7-4.4-7.8c-3.7-2.1-2.3,3.3-3.9,0.4c-1.3-2.4-0.1-5.3,0.4-6.4
							c-3.2,2.2-3.9,6.5-3.9,10.2c0,2.4,0.9,4.2,2.3,5.4C55.3,31.9,56.1,33.9,55,33.9"/>
						<path class="st46" d="M46.2,32.8c-1.1-0.7-3.1-2.1-3.8-3.2c-0.4-0.7,0-1.5,0.5-2.1c1.4-0.7,2.5-1.5,3.2-2.8
							c0.6-1.2,0.4-2.7-0.4-3.9c0.3,1.5,0.1,3.6-1.1,3.9c-1.7,0.4-2.8-0.2-4.6-1.3c-1.8-1.2-2.6,1.5-3.4,1.1
							c-0.6-0.3-1.2-1.6-1.5-2.4c0,0,0,0,0,0.1c-0.3,3.3,1.2,5.6,2.9,6.4c1,0.7,1.8,1.2,1.7,2c-0.1,0.5-1.1,1.2-1.9,1.6
							c-0.9,0.1-1.7,0.2-2.5,0.4c-0.3,0.6-0.6,1.3-0.9,1.9c-0.6,1.3,5.9,1.6,7.3,0.8C43.1,34.5,46.2,32.8,46.2,32.8"/>
						<path class="st46" d="M71.5,25.4c0.2-0.6,0.3-1.2,0.3-1.8C71.7,22.4,71.7,23.5,71.5,25.4"/>
					</g>
				</g>
				<g class="st45">
					<g>
						<defs>
							<rect id="SVGID_79_" x="19.5" y="39.2" width="53.2" height="37.9"/>
						</defs>
						<clipPath id="SVGID_8_">
							<use xlink:href="#SVGID_79_"  style="overflow:visible;"/>
						</clipPath>
						<path class="st47" d="M72.8,59.6c0-0.5,0-0.9,0-1.3c-1.7,9.6-12.3,15.8-16,10.2c-4.1-6.3-6.9-0.4-11.3-2.1
							c-4.4-1.6-2.9-22.4-13.4-26.5c-2.9-1.1-5.5-0.7-7.7,0.6c-2.7,3.9-4.4,8.8-4.8,14.2c-1.2,14.7,8.8,22.5,19.6,22.5
							C50,77.1,72.4,77.3,72.8,59.6"/>
					</g>
				</g>
				<g class="st48">
					<g>
						<defs>
							<rect id="SVGID_81_" x="23.2" y="36.7" width="5.3" height="7.9"/>
						</defs>
						<clipPath id="SVGID_10_">
							<use xlink:href="#SVGID_81_"  style="overflow:visible;"/>
						</clipPath>
						<path class="st49" d="M23.5,40.8c0,0-0.8,2.1,0.3,3.4s2.3-0.8,3.2-2.1c0.9-1.3,1.6-4.1,1.5-5.2C28.4,35.7,23.8,39.8,23.5,40.8
							"/>
					</g>
				</g>
				<path class="st44" d="M69.5,69.1c-4.1,3.5-16.5,6.5-23.4,6.1c-7.4-0.5-15-2-20.7-8c-4.6-4.9-4.7-15.3-4.6-19
					c-0.6,2-1,4.2-1.2,6.4c-1.2,14.7,8.8,22.5,19.6,22.5C47.6,77.1,62.8,77.2,69.5,69.1"/>
				<g class="st50">
					<g>
						<defs>
							<rect id="SVGID_83_" x="19.9" y="36.3" width="52.3" height="40.8"/>
						</defs>
						<clipPath id="SVGID_12_">
							<use xlink:href="#SVGID_83_"  style="overflow:visible;"/>
						</clipPath>
						<path class="st51" d="M65.9,42.4c0-0.1-0.1-0.1-0.2-0.2c1.8,3.9,3,8.6-1.8,9c-8.1,0.7-18.7-12-23.1-12.6
							c-4.4-0.6-15.5-9.2-10.8,10.5c2.5,10.4,1.7,21.2-5.2,16.7c-2-1.3-3.7-3-5-4.7C21.7,71.5,30.1,77,39,77.1
							c-3.3-2.2-8-5.8-6.2-8.1c2.6-3.4,5-7.5,1.9-15.5c-3.1-8-2.4-14.6,5-12.1c7.4,2.5,16.2,23.5,18.7,26.8c4.6,6,9.6-6.9,11.4-9.9
							c1.8-2.9-0.2-7.8,2.4-4.6c0,0,0,0,0,0C71.2,49.2,68.9,45.4,65.9,42.4"/>
					</g>
				</g>
				<g class="st52">
					<g>
						<defs>
							<rect id="SVGID_85_" x="30.8" y="73.2" width="11.2" height="3.2"/>
						</defs>
						<clipPath id="SVGID_14_">
							<use xlink:href="#SVGID_85_"  style="overflow:visible;"/>
						</clipPath>
						<path class="st53" d="M42,75.9c-0.1,0.6-2.7,0.7-5.8,0.1c-3.1-0.6-5.5-1.6-5.5-2.2c0.1-0.6,2.7-0.7,5.8-0.1
							C39.7,74.2,42.1,75.2,42,75.9"/>
					</g>
				</g>
				<g class="st52">
					<g>
						<defs>
							<rect id="SVGID_87_" x="27.9" y="71.5" width="2.2" height="1.8"/>
						</defs>
						<clipPath id="SVGID_16_">
							<use xlink:href="#SVGID_87_"  style="overflow:visible;"/>
						</clipPath>
						<path class="st54" d="M30.1,73c-0.2,0.4-0.8,0.5-1.4,0.2c-0.6-0.3-0.9-0.9-0.7-1.3c0.2-0.4,0.8-0.5,1.4-0.2
							C29.9,72,30.3,72.5,30.1,73"/>
					</g>
				</g>
				<g class="st55">
					<g>
						<defs>
							<rect id="SVGID_89_" x="28.5" y="52.3" width="8.7" height="3.8"/>
						</defs>
						<clipPath id="SVGID_18_">
							<use xlink:href="#SVGID_89_"  style="overflow:visible;"/>
						</clipPath>
						<path class="st56" d="M37.1,55.8c-0.2,0.1-2.6-2.7-4.8-1.7c-2.2,1-3.8,2-3.8,2s0.4-2.1,2.3-3.3c1.9-1.1,3.5-0.1,3.5-0.1
							l2.6,1.7L37.1,55.8z"/>
					</g>
				</g>
				<path class="st57" d="M33,51.4c-2.7,0-5,2.1-5,4.7c0,0.4,0.3,0.7,0.6,0.7c0.3,0,0.6-0.3,0.6-0.7c0-1.8,1.7-3.3,3.8-3.3
					s3.8,1.5,3.8,3.3c0,0.4,0.3,0.7,0.6,0.7c0.3,0,0.6-0.3,0.6-0.7C38,53.5,35.7,51.4,33,51.4"/>
				<path class="st57" d="M30.8,46.8c0,0,1.5-2.4,2.3-1.9C33.8,45.4,32.5,46.7,30.8,46.8"/>
				<g class="st55">
					<g>
						<defs>
							<rect id="SVGID_91_" x="54.5" y="52.3" width="8.7" height="3.8"/>
						</defs>
						<clipPath id="SVGID_20_">
							<use xlink:href="#SVGID_91_"  style="overflow:visible;"/>
						</clipPath>
						<path class="st58" d="M54.5,55.8c0.2,0.1,2.6-2.7,4.8-1.7c2.2,1,3.8,2,3.8,2s-0.4-2.1-2.3-3.3c-1.9-1.1-3.5-0.1-3.5-0.1
							l-2.6,1.7L54.5,55.8z"/>
					</g>
				</g>
				<path class="st57" d="M58.7,51.4c2.7,0,5,2.1,5,4.7c0,0.4-0.3,0.7-0.6,0.7s-0.6-0.3-0.6-0.7c0-1.8-1.7-3.3-3.8-3.3
					c-2.1,0-3.8,1.5-3.8,3.3c0,0.4-0.3,0.7-0.6,0.7c-0.3,0-0.6-0.3-0.6-0.7C53.7,53.5,55.9,51.4,58.7,51.4"/>
				<path class="st57" d="M60.9,46.8c0,0-1.5-2.4-2.3-1.9C57.9,45.4,59.2,46.7,60.9,46.8"/>
				<g class="st55">
					<g>
						<defs>
							<rect id="SVGID_93_" x="40.2" y="57.1" width="5.6" height="4.6"/>
						</defs>
						<clipPath id="SVGID_22_">
							<use xlink:href="#SVGID_93_"  style="overflow:visible;"/>
						</clipPath>
						<path class="st59" d="M45.8,59.4c0,1.3-1.3,2.3-2.8,2.3c-1.6,0-2.8-1-2.8-2.3s1.3-2.3,2.8-2.3C44.6,57.1,45.8,58.1,45.8,59.4"
							/>
					</g>
				</g>
				<g class="st55">
					<g>
						<defs>
							<rect id="SVGID_95_" x="47.2" y="57.3" width="5.6" height="4.6"/>
						</defs>
						<clipPath id="SVGID_24_">
							<use xlink:href="#SVGID_95_"  style="overflow:visible;"/>
						</clipPath>
						<path class="st60" d="M52.8,59.6c0,1.3-1.3,2.3-2.8,2.3c-1.6,0-2.8-1-2.8-2.3c0-1.3,1.3-2.3,2.8-2.3
							C51.6,57.3,52.8,58.3,52.8,59.6"/>
					</g>
				</g>
				<path class="st61" d="M44.3,62.3c0,0,1.7,4.7,2.8,3.9c1.1-0.8,1.9-4.2,1.9-4.2L47,59.5L44.3,62.3z"/>
				<path class="st57" d="M53,57.1c-0.2-0.3-0.5-0.3-0.8-0.1c-0.2,0.2-0.3,0.6-0.1,0.8c0,0,0.6,0.7,0.5,1.6c0,0.5-0.3,1-0.8,1.4
					c-0.8,0.7-1.8,0.8-2.7,0.3c-1.1-0.5-1.8-1.6-1.8-2.9c0-0.3-0.3-0.6-0.6-0.6c0,0,0,0-0.1,0c0,0,0,0-0.1,0c-0.3,0-0.6,0.2-0.6,0.6
					c-0.1,1.3-0.7,2.4-1.8,2.9c-1,0.5-2,0.3-2.7-0.3c-0.5-0.4-0.8-0.9-0.8-1.4c-0.1-0.9,0.5-1.6,0.5-1.6c0.2-0.3,0.2-0.6-0.1-0.8
					c-0.2-0.2-0.6-0.2-0.8,0.1c0,0-0.9,1.1-0.7,2.5c0.1,0.8,0.5,1.6,1.2,2.2c0.7,0.6,1.5,0.9,2.3,0.9c0.5,0,1.1-0.1,1.6-0.4
					c0.9-0.4,1.6-1.2,2-2.1c0.4,0.9,1.1,1.6,2,2.1c0.5,0.2,1.1,0.4,1.6,0.4c0.8,0,1.6-0.3,2.3-0.9c0.7-0.6,1.1-1.4,1.2-2.2
					C53.9,58.2,53,57.2,53,57.1"/>
				<path class="st62" d="M56.9,38.7c0,0-3.4-0.7-1.7,1.3c1.8,2.1,5.4,4.6,6.4,3.9C62.6,43.2,61.6,40.3,56.9,38.7"/>
				<path class="st62" d="M63.2,44.1c0,0-0.9,0.2,0.2,1.5c1.1,1.3,2.7,2.1,2.8,1.3C66.3,46.2,64.4,44.2,63.2,44.1"/>
				<g class="st48">
					<g>
						<defs>
							<rect id="SVGID_97_" x="54.5" y="30.4" width="11" height="8.4"/>
						</defs>
						<clipPath id="SVGID_26_">
							<use xlink:href="#SVGID_97_"  style="overflow:visible;"/>
						</clipPath>
						<path class="st63" d="M65.5,32.1c-2.6,0.9-6.6,1.2-10.6-1.5c-0.1-0.1-0.2-0.2-0.3-0.2c0.9,1.7,1.5,3.5,0.4,3.5
							c-0.1,0-0.3,0-0.5,0c3.4,1.7,8.7,4.9,8.7,4.9s0,0,0,0c-1-1.5-1.8-3-1.5-3.6C62.1,34.4,63.9,33.2,65.5,32.1"/>
					</g>
				</g>
				<g class="st48">
					<g>
						<defs>
							<rect id="SVGID_99_" x="35.7" y="26.1" width="9.9" height="6.4"/>
						</defs>
						<clipPath id="SVGID_28_">
							<use xlink:href="#SVGID_99_"  style="overflow:visible;"/>
						</clipPath>
						<path class="st64" d="M37.8,32.1c-0.4,0-0.8,0.1-1.2,0.1c0.9,0.4,2.2,0.4,3.6-0.1c1.2-0.4,4,0,5.4,0.3
							c-1.1-0.8-2.7-1.9-3.2-2.9c-0.3-0.6-0.1-1.2,0.3-1.8c-0.7,0.3-1.6,0.4-3.2-0.1c-2.1-0.6-3.2-1.3-3.7-1.6
							c0.5,1.2,1.4,2,2.3,2.4c1,0.7,1.8,1.2,1.7,2C39.6,31,38.6,31.7,37.8,32.1"/>
					</g>
				</g>
				<path class="st44" d="M42.9,27.5C42.9,27.5,42.9,27.5,42.9,27.5c0.4-0.2,0.7-0.4,1-0.6c-0.4,0.2-0.9,0.3-1.3,0.3
					c-1.1,0-4,0-5.9-1.6c-1-0.9-1.5-1.6-1.7-2c0.1,1.3,0.5,2.4,1.1,3.2c1.3,0.6,2.8,1,4.1,1.1C41.1,28.2,42.1,27.9,42.9,27.5"/>
				<path class="st44" d="M54.4,30.1c0,0,0,0.1,0.1,0.1c4,3.3,8.8,2.5,10.9,1.9c0.4-0.3,0.8-0.5,1.1-0.7c0.3-0.2,0.7-0.4,1-0.6
					c1.1-1.1,2.7-2.7,1.8-1.8c-1.4,1.3-4.4,2.9-5.7,2.6c-1.3-0.3-3.9-0.1-7.8-3.2c-3-2.4-3.3-6.4-3.3-8.1c-0.3,1.5-0.4,3-0.4,4.4
					C52.1,27,53,28.8,54.4,30.1"/>
				<path class="st44" d="M63.6,14c0,0-3.6,1.1-2.8,2.4c0.8,1.3,4.4,6.5,5.3,7.9c0.8,1.4,3.3,1.7,4.2,0.1
					C71.1,22.8,70.4,16.4,63.6,14"/>
				<path class="st44" d="M43.3,19.7c0,0-4.9-2.1-5.6,0.7c-0.8,2.8,3.1,1.3,4.4,2.2c1.3,1,2.5,0.6,2.7-0.2
					C45,21.7,44.9,21,43.3,19.7"/>
				<path class="st42" d="M75.9,38.3c0,2.4-2,4.4-4.5,4.4c-2.5,0-4.5-2-4.5-4.4c0-2.4,2-4.4,4.5-4.4C73.9,33.9,75.9,35.9,75.9,38.3"
					/>
				<path class="st43" d="M75.4,38.3c0,2.1-1.8,3.9-4,3.9c-2.2,0-4-1.7-4-3.9c0-2.1,1.8-3.9,4-3.9C73.6,34.4,75.4,36.2,75.4,38.3"/>
				<g class="st45">
					<g>
						<defs>
							<rect id="SVGID_101_" x="67.4" y="36.8" width="7.8" height="5.4"/>
						</defs>
						<clipPath id="SVGID_30_">
							<use xlink:href="#SVGID_101_"  style="overflow:visible;"/>
						</clipPath>
						<path class="st65" d="M67.4,38.3c0,2.1,1.8,3.9,4,3.9c1.8,0,3.3-1.1,3.8-2.7c-0.7,0.8-1.9,1.6-2.5,1.2c-1.1-0.7,0-3-1.3-3.8
							c-1.3-0.7-1.8,2.5-3.1,1.9c-0.6-0.3-0.7-1.1-0.6-2C67.5,37.3,67.4,37.8,67.4,38.3"/>
					</g>
				</g>
				<path class="st44" d="M69.8,41c-1.2-0.5-1.9-1.6-2.4-2.5c0.1,2.1,1.8,3.7,4,3.7c1,0,1.9-0.3,2.5-0.9C73,41.5,71.3,41.6,69.8,41"
					/>
				<path class="st44" d="M72.5,35c0,0-2.6-0.2-3.4,0.7c-0.8,1,1.8-0.2,2.9,0.8c1.1,1.1,1.1,2.4,2.1,2.5
					C74.9,39.1,75.5,35.9,72.5,35"/>
				<path class="st62" d="M72.5,35c0,0-1.5,0.3-0.3,0.8s2.1,1.4,2.1,0.8C74.2,36,73.2,35.1,72.5,35"/>
				<g class="st66">
					<g>
						<defs>
							<rect id="SVGID_103_" x="29.8" y="56.2" width="6.4" height="4.2"/>
						</defs>
						<clipPath id="SVGID_32_">
							<use xlink:href="#SVGID_103_"  style="overflow:visible;"/>
						</clipPath>
						<path class="st67" d="M36.2,58.3c0,1.2-1.3,2.1-3.1,2.1c-1.8,0-3.2-0.9-3.3-2.1c0-1.2,1.3-2.1,3.1-2.1
							C34.7,56.2,36.1,57.1,36.2,58.3"/>
					</g>
				</g>
				<g class="st66">
					<g>
						<defs>
							<rect id="SVGID_105_" x="55.5" y="56" width="6.4" height="4.2"/>
						</defs>
						<clipPath id="SVGID_34_">
							<use xlink:href="#SVGID_105_"  style="overflow:visible;"/>
						</clipPath>
						<path class="st68" d="M61.9,58.1c0,1.2-1.3,2.1-3.1,2.1c-1.8,0-3.2-0.9-3.3-2.1c0-1.2,1.3-2.1,3.1-2.1
							C60.4,56,61.9,57,61.9,58.1"/>
					</g>
				</g>
				<path class="st62" d="M66.1,15.5c0,0-3.7-1.8-4.9-0.6c-1.2,1.1,3,1,4.3,2.2c1.3,1.3,2.1,2.4,2.4,2.2
					C68.2,19.1,68.8,16.9,66.1,15.5"/>
				<path class="st62" d="M68.8,19c0,0-0.3,0.9,0.3,1.4c0.5,0.5,1,2.5,1.1,1.5C70.4,21.1,69.8,18.8,68.8,19"/>
				<path class="st62" d="M41.4,19.1c0,0-2-0.4-2.8,0.5c-0.7,0.9,3-0.1,3.7,0.7C43.1,21.1,42.9,19.1,41.4,19.1"/>
				<path class="st62" d="M43.2,19.9c0,0-0.2,0.4,0.5,1c0.7,0.6,1.1,1.3,0.8,0.4C44.2,20.4,44.2,20.4,43.2,19.9"/>
				<path class="st42" d="M23.9,32.8c-1.7,0-5,1.7-3.5,5.4c1.4,3.8,4.4,5,7.2,1.3C30.3,35.7,27.7,32.8,23.9,32.8"/>
				<path class="st43" d="M23.9,33.5c-1.4,0-4.1,1.4-2.9,4.5c1.2,3.1,3.7,4.2,6,1C29.3,36,27.1,33.6,23.9,33.5"/>
				<g class="st45">
					<g>
						<defs>
							<rect id="SVGID_107_" x="20.7" y="35.3" width="7.2" height="5.7"/>
						</defs>
						<clipPath id="SVGID_36_">
							<use xlink:href="#SVGID_107_"  style="overflow:visible;"/>
						</clipPath>
						<path class="st69" d="M27.9,36.7c-0.7,1.4-2.3,3.1-3.5,2.3c-1.7-1-0.4-2.5-2-3.4c-0.7-0.4-1.2-0.3-1.5,0
							c-0.2,0.7-0.3,1.5,0.1,2.5c1.2,3.1,3.7,4.2,6,1C27.6,38.2,27.9,37.4,27.9,36.7"/>
					</g>
				</g>
				<path class="st44" d="M24.6,34c0,0-2.5,0.2-1.3,1.4c1.3,1.2,1.7,2.4,2.8,1.7C27.2,36.6,26.8,34.3,24.6,34"/>
				<path class="st62" d="M25.5,34.3c0,0-1-0.6-2-0.1c-0.9,0.5,1.6,1.1,2.1,1.5C26.1,36.2,26.9,35.3,25.5,34.3"/>
				<path class="st44" d="M26.7,39.5c0,0-0.1,0-0.1,0.1c-1.4,0.7-2.4,0.9-4.2-0.3c-1-0.8-1.5-1.9-1.7-2.7c0,0.5,0.1,1,0.3,1.6
					C22.1,41.1,24.5,42.2,26.7,39.5"/>
			</g>
		</g>
		<path class="st129" d="M46.2,3.9c0,0-5.1,33.6-31.9,40.1c0,0,31.7,6.1,32.5,45.1c0,0,5-38.9,31.9-45.3
			C78.7,43.8,47.6,41.4,46.2,3.9z"/>
		<path class="st130" d="M70.7,44c1.9-1.5,3.9-4.2,3-8.5c-1.4-6.5-7.2-8.9-11.8-7.6c-1.2-4-4.7-8.7-14.6-6.3c0,0-5.3-3.7-9.6-1.1
			c-4.3,2.7-3.2,7.7-3.2,7.7s-6.7-2.6-10.9,3.7c-3.6,5.4-2.1,11.4,1.9,12.5c0,0-7.2,4.5-2.1,14.6c5.1,10.1,14.1,6.4,14.1,6.4
			s8,6.7,17.3-0.8c0,0,4.3,4.9,14.1-0.8C77.1,59.2,75.8,49.9,70.7,44z"/>
		<g class="st131">
			<path class="st132" d="M67.1,43.1c0,0,0.2,0,0.6,0.1C67.4,43,67.1,43.1,67.1,43.1z"/>
			<path class="st132" d="M54.8,64.8c0,0,4.3,4.9,14.1-0.8c8.3-4.8,7-14.1,1.8-19.9c1.6-1.3,3.3-3.5,3.2-6.8c-0.1,0.4-0.2,0.7-0.3,1
				c-0.8,4.7-4.3,5-5.8,4.9c0.6,0.2,1.7,0.8,3.2,2.8c2.5,3.3,2.6,12.1-3.3,15.2c-5.9,3.2-10.2,0.5-10.2,0.5c1.9-0.4,2.3-3,2.3-3
				c-2.5,2.1-5.4,1.8-5.4,1.8c0.1,2.1-4.1,6.5-9.5,4.4c-5.4-2.1-3.4-6.5-3.4-6.5c2.5,0.1,4.3-1.8,4.3-1.8
				c-4.8,1.8-10.3-0.5-10.3-0.5c0.8,1.6,3.2,2.3,3.2,2.3c-0.3,4.3-7.3,7-10.9,2.5c-3.6-4.5-1.2-10-1.2-10c-1.8-5.5,1.8-9.6,1.8-9.6
				c-4.3-0.6-5.1-5.6-5.2-8.5c-3,5.2-1.5,10.7,2.3,11.7c0,0-7.2,4.5-2.1,14.6c5.1,10.1,14.1,6.4,14.1,6.4S45.4,72.2,54.8,64.8z"/>
		</g>
		<path class="st133" d="M71.2,33.6c1.3,1.7,2.1,3.5,2.6,5.1c0.1-1,0.1-2-0.2-3.2c-1.4-6.5-7.2-8.9-11.8-7.6
			c-1.2-4-4.7-8.7-14.6-6.3c0,0-5.3-3.7-9.6-1.1c-4.3,2.7-3.2,7.7-3.2,7.7s-2.8-1.1-5.9-0.2c0.3,0.1,0.4,0.2,0.4,0.2s-3,1.2-3.8,3.4
			c0,0,6.9-3,10-0.4c0,0-2.2,0.7-2.3,2.7c0,0,4.8-4,8.8-1.4c0,0-0.8-3.6-3.4-3.7c0,0,0.4-6.6,5.5-5.9c5.1,0.7,4.9,5.1,4.9,5.1
			s0-4.4,4.3-4.7c4.3-0.3,7.6,3.6,6.6,7.8c0,0-1.2-1-3.6-0.4c0,0,4.1,0.7,4.7,2.9l-0.5-2.2C60.1,31.7,67.5,28.8,71.2,33.6z"/>
		<path class="st133" d="M44.6,39.4c0,0,4.7-5.8,11.5-2.2c0,0-5.5-2.1-8.4,2.2c0,0,4.3,0,5.6,2.7c0,0-7.1-2.9-10.2-0.5
			C43.2,41.6,43.6,40.3,44.6,39.4z"/>
		<path class="st129" d="M71.1,16.9c0,0-6.8,6.2-8.4,9.9C62.7,26.9,75,15.6,71.1,16.9z"/>
		<path class="st129" d="M25,27.7c0,0-5.1-5.2-5.5-3.2C19.2,26.5,25,27.7,25,27.7z"/>
		<path class="st129" d="M25.4,66.4c0,0-7.1,8.3-5.4,9.1C21.7,76.4,24.3,68.5,25.4,66.4z"/>
		<path class="st129" d="M67.4,67.2c0,0,5.6,3.1,4.6,3.8C71,71.7,67.4,67.2,67.4,67.2z"/>
	</g>
</g>
</svg>
