<?xml version="1.0" encoding="utf-8"?>
<!-- Generator: Adobe Illustrator 21.1.0, SVG Export Plug-In . SVG Version: 6.00 Build 0)  -->
<svg version="1.1" xmlns="http://www.w3.org/2000/svg" xmlns:xlink="http://www.w3.org/1999/xlink" x="0px" y="0px"
	 viewBox="0 0 93 93" style="enable-background:new 0 0 93 93;" xml:space="preserve">
<style type="text/css">
	.st0{fill:#045B4F;}
	.st1{fill:#0BA8A0;}
	.st2{opacity:0.22;fill:#052D28;}
	.st3{fill:#19CCBE;}
	.st4{fill:#00D8A4;}
	.st5{opacity:0.22;fill:#10FFC0;}
	.st6{opacity:0.29;fill:#052D28;}
	.st7{fill:#FFFFFF;}
	.st8{opacity:0.55;fill:#06332E;}
	.st9{fill:#083F37;}
	.st10{opacity:0.43;fill:#0BA8A0;}
	.st11{fill:#EF48A0;}
	.st12{opacity:0.78;fill:#FF88CC;}
	.st13{fill:#FF88CC;}
	.st14{opacity:0.9;fill:#8FFFDF;}
	.st15{fill:#F5FF76;}
	.st16{opacity:0.61;fill:#79B293;}
	.st17{opacity:0.22;}
	.st18{fill:#052D28;}
	.st19{fill:#BDFDFF;}
	.st20{opacity:0.52;fill:#BDFDFF;}
	.st21{opacity:0.62;}
	.st22{opacity:0.5;fill:#BDFDFF;}
	.st23{opacity:0.68;}
	.st24{fill:#0B3D36;}
	.st25{fill:#892563;}
	.st26{opacity:0.35;fill:#FF88CC;}
	.st27{opacity:0.29;fill:#56153A;}
	.st28{fill:#FF6CC0;}
	.st29{opacity:0.3;fill:#FFA37B;}
	.st30{fill:#FFC2E8;}
	.st31{opacity:0.55;fill:#56153A;}
	.st32{fill:#56153A;}
	.st33{opacity:0.5;fill:#EF48A0;}
	.st34{opacity:0.44;fill:#FF88CC;}
	.st35{opacity:0.38;fill:#56153A;}
	.st36{opacity:0.61;fill:#DDAFC9;}
	.st37{opacity:0.3;fill:#F9E4EC;}
	.st38{opacity:0.5;}
	.st39{opacity:0.5;fill:#56153A;}
	.st40{fill:#F9E4EC;}
	.st41{clip-path:url(#SVGID_2_);}
	.st42{clip-path:url(#SVGID_4_);fill:#0A4377;}
	.st43{clip-path:url(#SVGID_4_);fill:#2D84E2;}
	.st44{clip-path:url(#SVGID_4_);fill:#3BADF2;}
	.st45{opacity:0.27;clip-path:url(#SVGID_4_);}
	.st46{clip-path:url(#SVGID_6_);fill:#19328E;}
	.st47{clip-path:url(#SVGID_8_);fill:#19328E;}
	.st48{opacity:0.5;clip-path:url(#SVGID_4_);}
	.st49{clip-path:url(#SVGID_10_);fill:#19328E;}
	.st50{opacity:0.13;clip-path:url(#SVGID_4_);}
	.st51{clip-path:url(#SVGID_12_);fill:#C5FFFF;}
	.st52{opacity:0.62;clip-path:url(#SVGID_4_);}
	.st53{clip-path:url(#SVGID_14_);fill:#C5FFFF;}
	.st54{clip-path:url(#SVGID_16_);fill:#C5FFFF;}
	.st55{opacity:0.22;clip-path:url(#SVGID_4_);}
	.st56{clip-path:url(#SVGID_18_);fill:#C5FFFF;}
	.st57{clip-path:url(#SVGID_4_);fill:#0E3B63;}
	.st58{clip-path:url(#SVGID_20_);fill:#C5FFFF;}
	.st59{clip-path:url(#SVGID_22_);fill:#C5FFFF;}
	.st60{clip-path:url(#SVGID_24_);fill:#C5FFFF;}
	.st61{clip-path:url(#SVGID_4_);fill:#EF48A0;}
	.st62{clip-path:url(#SVGID_4_);fill:#FFFFFF;}
	.st63{clip-path:url(#SVGID_26_);fill:#19328E;}
	.st64{clip-path:url(#SVGID_28_);fill:#19328E;}
	.st65{clip-path:url(#SVGID_30_);fill:#19328E;}
	.st66{opacity:0.78;clip-path:url(#SVGID_4_);}
	.st67{opacity:0.43;clip-path:url(#SVGID_32_);fill:#3BADF2;}
	.st68{opacity:0.43;clip-path:url(#SVGID_34_);fill:#3BADF2;}
	.st69{clip-path:url(#SVGID_36_);fill:#19328E;}
	.st70{clip-path:url(#SVGID_38_);}
	.st71{clip-path:url(#SVGID_40_);fill:#0A4377;}
	.st72{clip-path:url(#SVGID_40_);fill:#2D84E2;}
	.st73{clip-path:url(#SVGID_40_);fill:#3BADF2;}
	.st74{opacity:0.27;clip-path:url(#SVGID_40_);}
	.st75{clip-path:url(#SVGID_42_);fill:#19328E;}
	.st76{clip-path:url(#SVGID_44_);fill:#19328E;}
	.st77{opacity:0.5;clip-path:url(#SVGID_40_);}
	.st78{clip-path:url(#SVGID_46_);fill:#19328E;}
	.st79{opacity:0.13;clip-path:url(#SVGID_40_);}
	.st80{clip-path:url(#SVGID_48_);fill:#C5FFFF;}
	.st81{opacity:0.62;clip-path:url(#SVGID_40_);}
	.st82{clip-path:url(#SVGID_50_);fill:#C5FFFF;}
	.st83{clip-path:url(#SVGID_52_);fill:#C5FFFF;}
	.st84{opacity:0.22;clip-path:url(#SVGID_40_);}
	.st85{clip-path:url(#SVGID_54_);fill:#C5FFFF;}
	.st86{clip-path:url(#SVGID_40_);fill:#0E3B63;}
	.st87{clip-path:url(#SVGID_56_);fill:#C5FFFF;}
	.st88{clip-path:url(#SVGID_58_);fill:#C5FFFF;}
	.st89{clip-path:url(#SVGID_60_);fill:#C5FFFF;}
	.st90{clip-path:url(#SVGID_40_);fill:#EF48A0;}
	.st91{clip-path:url(#SVGID_40_);fill:#FFFFFF;}
	.st92{clip-path:url(#SVGID_62_);fill:#19328E;}
	.st93{clip-path:url(#SVGID_64_);fill:#19328E;}
	.st94{clip-path:url(#SVGID_66_);fill:#19328E;}
	.st95{opacity:0.78;clip-path:url(#SVGID_40_);}
	.st96{opacity:0.43;clip-path:url(#SVGID_68_);fill:#3BADF2;}
	.st97{opacity:0.43;clip-path:url(#SVGID_70_);fill:#3BADF2;}
	.st98{clip-path:url(#SVGID_72_);fill:#19328E;}
	.st99{opacity:0.21;fill:#85D2F9;}
	.st100{clip-path:url(#SVGID_74_);}
	.st101{clip-path:url(#SVGID_76_);fill:#0A4377;}
	.st102{clip-path:url(#SVGID_76_);fill:#2D84E2;}
	.st103{clip-path:url(#SVGID_76_);fill:#3BADF2;}
	.st104{opacity:0.27;clip-path:url(#SVGID_76_);}
	.st105{clip-path:url(#SVGID_78_);fill:#19328E;}
	.st106{clip-path:url(#SVGID_80_);fill:#19328E;}
	.st107{opacity:0.5;clip-path:url(#SVGID_76_);}
	.st108{clip-path:url(#SVGID_82_);fill:#19328E;}
	.st109{opacity:0.13;clip-path:url(#SVGID_76_);}
	.st110{clip-path:url(#SVGID_84_);fill:#C5FFFF;}
	.st111{opacity:0.62;clip-path:url(#SVGID_76_);}
	.st112{clip-path:url(#SVGID_86_);fill:#C5FFFF;}
	.st113{clip-path:url(#SVGID_88_);fill:#C5FFFF;}
	.st114{opacity:0.22;clip-path:url(#SVGID_76_);}
	.st115{clip-path:url(#SVGID_90_);fill:#C5FFFF;}
	.st116{clip-path:url(#SVGID_76_);fill:#0E3B63;}
	.st117{clip-path:url(#SVGID_92_);fill:#C5FFFF;}
	.st118{clip-path:url(#SVGID_94_);fill:#C5FFFF;}
	.st119{clip-path:url(#SVGID_96_);fill:#C5FFFF;}
	.st120{clip-path:url(#SVGID_76_);fill:#EF48A0;}
	.st121{clip-path:url(#SVGID_76_);fill:#FFFFFF;}
	.st122{clip-path:url(#SVGID_98_);fill:#19328E;}
	.st123{clip-path:url(#SVGID_100_);fill:#19328E;}
	.st124{clip-path:url(#SVGID_102_);fill:#19328E;}
	.st125{opacity:0.78;clip-path:url(#SVGID_76_);}
	.st126{opacity:0.43;clip-path:url(#SVGID_104_);fill:#3BADF2;}
	.st127{opacity:0.43;clip-path:url(#SVGID_106_);fill:#3BADF2;}
	.st128{clip-path:url(#SVGID_108_);fill:#19328E;}
	.st129{opacity:0.5;fill:#C5FFFF;}
	.st130{fill:#C5FFFF;}
	.st131{opacity:0.37;}
	.st132{fill:#19328E;}
	.st133{opacity:0.43;fill:#3BADF2;}
	.st134{clip-path:url(#SVGID_110_);}
	.st135{clip-path:url(#SVGID_112_);fill:#0A4377;}
	.st136{clip-path:url(#SVGID_112_);fill:#2D84E2;}
	.st137{clip-path:url(#SVGID_112_);fill:#3BADF2;}
	.st138{opacity:0.27;clip-path:url(#SVGID_112_);}
	.st139{clip-path:url(#SVGID_114_);fill:#19328E;}
	.st140{clip-path:url(#SVGID_116_);fill:#19328E;}
	.st141{opacity:0.5;clip-path:url(#SVGID_112_);}
	.st142{clip-path:url(#SVGID_118_);fill:#19328E;}
	.st143{opacity:0.13;clip-path:url(#SVGID_112_);}
	.st144{clip-path:url(#SVGID_120_);fill:#C5FFFF;}
	.st145{opacity:0.62;clip-path:url(#SVGID_112_);}
	.st146{clip-path:url(#SVGID_122_);fill:#C5FFFF;}
	.st147{clip-path:url(#SVGID_124_);fill:#C5FFFF;}
	.st148{opacity:0.22;clip-path:url(#SVGID_112_);}
	.st149{clip-path:url(#SVGID_126_);fill:#C5FFFF;}
	.st150{clip-path:url(#SVGID_112_);fill:#0E3B63;}
	.st151{clip-path:url(#SVGID_128_);fill:#C5FFFF;}
	.st152{clip-path:url(#SVGID_130_);fill:#C5FFFF;}
	.st153{clip-path:url(#SVGID_132_);fill:#C5FFFF;}
	.st154{clip-path:url(#SVGID_112_);fill:#EF48A0;}
	.st155{clip-path:url(#SVGID_112_);fill:#FFFFFF;}
	.st156{clip-path:url(#SVGID_134_);fill:#19328E;}
	.st157{clip-path:url(#SVGID_136_);fill:#19328E;}
	.st158{clip-path:url(#SVGID_138_);fill:#19328E;}
	.st159{opacity:0.78;clip-path:url(#SVGID_112_);}
	.st160{opacity:0.43;clip-path:url(#SVGID_140_);fill:#3BADF2;}
	.st161{opacity:0.43;clip-path:url(#SVGID_142_);fill:#3BADF2;}
	.st162{clip-path:url(#SVGID_144_);fill:#19328E;}
	.st163{opacity:0.37;fill:#19328E;}
	.st164{clip-path:url(#SVGID_146_);}
	.st165{clip-path:url(#SVGID_148_);fill:#0A4377;}
	.st166{clip-path:url(#SVGID_148_);fill:#2D84E2;}
	.st167{clip-path:url(#SVGID_148_);fill:#3BADF2;}
	.st168{opacity:0.27;clip-path:url(#SVGID_148_);}
	.st169{clip-path:url(#SVGID_150_);fill:#19328E;}
	.st170{clip-path:url(#SVGID_152_);fill:#19328E;}
	.st171{opacity:0.5;clip-path:url(#SVGID_148_);}
	.st172{clip-path:url(#SVGID_154_);fill:#19328E;}
	.st173{opacity:0.13;clip-path:url(#SVGID_148_);}
	.st174{clip-path:url(#SVGID_156_);fill:#C5FFFF;}
	.st175{opacity:0.62;clip-path:url(#SVGID_148_);}
	.st176{clip-path:url(#SVGID_158_);fill:#C5FFFF;}
	.st177{clip-path:url(#SVGID_160_);fill:#C5FFFF;}
	.st178{opacity:0.22;clip-path:url(#SVGID_148_);}
	.st179{clip-path:url(#SVGID_162_);fill:#C5FFFF;}
	.st180{clip-path:url(#SVGID_148_);fill:#0E3B63;}
	.st181{clip-path:url(#SVGID_164_);fill:#C5FFFF;}
	.st182{clip-path:url(#SVGID_166_);fill:#C5FFFF;}
	.st183{clip-path:url(#SVGID_168_);fill:#C5FFFF;}
	.st184{clip-path:url(#SVGID_148_);fill:#EF48A0;}
	.st185{clip-path:url(#SVGID_148_);fill:#FFFFFF;}
	.st186{clip-path:url(#SVGID_170_);fill:#19328E;}
	.st187{clip-path:url(#SVGID_172_);fill:#19328E;}
	.st188{clip-path:url(#SVGID_174_);fill:#19328E;}
	.st189{opacity:0.78;clip-path:url(#SVGID_148_);}
	.st190{opacity:0.43;clip-path:url(#SVGID_176_);fill:#3BADF2;}
	.st191{opacity:0.43;clip-path:url(#SVGID_178_);fill:#3BADF2;}
	.st192{clip-path:url(#SVGID_180_);fill:#19328E;}
	.st193{clip-path:url(#SVGID_182_);}
	.st194{clip-path:url(#SVGID_184_);fill:#0A4377;}
	.st195{clip-path:url(#SVGID_184_);fill:#2D84E2;}
	.st196{clip-path:url(#SVGID_184_);fill:#3BADF2;}
	.st197{opacity:0.27;clip-path:url(#SVGID_184_);}
	.st198{clip-path:url(#SVGID_186_);fill:#19328E;}
	.st199{clip-path:url(#SVGID_188_);fill:#19328E;}
	.st200{opacity:0.5;clip-path:url(#SVGID_184_);}
	.st201{clip-path:url(#SVGID_190_);fill:#19328E;}
	.st202{opacity:0.13;clip-path:url(#SVGID_184_);}
	.st203{clip-path:url(#SVGID_192_);fill:#C5FFFF;}
	.st204{opacity:0.62;clip-path:url(#SVGID_184_);}
	.st205{clip-path:url(#SVGID_194_);fill:#C5FFFF;}
	.st206{clip-path:url(#SVGID_196_);fill:#C5FFFF;}
	.st207{opacity:0.22;clip-path:url(#SVGID_184_);}
	.st208{clip-path:url(#SVGID_198_);fill:#C5FFFF;}
	.st209{clip-path:url(#SVGID_184_);fill:#0E3B63;}
	.st210{clip-path:url(#SVGID_200_);fill:#C5FFFF;}
	.st211{clip-path:url(#SVGID_202_);fill:#C5FFFF;}
	.st212{clip-path:url(#SVGID_204_);fill:#C5FFFF;}
	.st213{clip-path:url(#SVGID_184_);fill:#EF48A0;}
	.st214{clip-path:url(#SVGID_184_);fill:#FFFFFF;}
	.st215{clip-path:url(#SVGID_206_);fill:#19328E;}
	.st216{clip-path:url(#SVGID_208_);fill:#19328E;}
	.st217{clip-path:url(#SVGID_210_);fill:#19328E;}
	.st218{opacity:0.78;clip-path:url(#SVGID_184_);}
	.st219{opacity:0.43;clip-path:url(#SVGID_212_);fill:#3BADF2;}
	.st220{opacity:0.43;clip-path:url(#SVGID_214_);fill:#3BADF2;}
	.st221{clip-path:url(#SVGID_216_);fill:#19328E;}
	.st222{clip-path:url(#SVGID_218_);}
	.st223{clip-path:url(#SVGID_220_);fill:#0A4377;}
	.st224{clip-path:url(#SVGID_220_);fill:#2D84E2;}
	.st225{clip-path:url(#SVGID_220_);fill:#3BADF2;}
	.st226{opacity:0.27;clip-path:url(#SVGID_220_);}
	.st227{clip-path:url(#SVGID_222_);fill:#19328E;}
	.st228{clip-path:url(#SVGID_224_);fill:#19328E;}
	.st229{opacity:0.5;clip-path:url(#SVGID_220_);}
	.st230{clip-path:url(#SVGID_226_);fill:#19328E;}
	.st231{opacity:0.13;clip-path:url(#SVGID_220_);}
	.st232{clip-path:url(#SVGID_228_);fill:#C5FFFF;}
	.st233{opacity:0.62;clip-path:url(#SVGID_220_);}
	.st234{clip-path:url(#SVGID_230_);fill:#C5FFFF;}
	.st235{clip-path:url(#SVGID_232_);fill:#C5FFFF;}
	.st236{opacity:0.22;clip-path:url(#SVGID_220_);}
	.st237{clip-path:url(#SVGID_234_);fill:#C5FFFF;}
	.st238{clip-path:url(#SVGID_220_);fill:#0E3B63;}
	.st239{clip-path:url(#SVGID_236_);fill:#C5FFFF;}
	.st240{clip-path:url(#SVGID_238_);fill:#C5FFFF;}
	.st241{clip-path:url(#SVGID_240_);fill:#C5FFFF;}
	.st242{clip-path:url(#SVGID_220_);fill:#EF48A0;}
	.st243{clip-path:url(#SVGID_220_);fill:#FFFFFF;}
	.st244{clip-path:url(#SVGID_242_);fill:#19328E;}
	.st245{clip-path:url(#SVGID_244_);fill:#19328E;}
	.st246{clip-path:url(#SVGID_246_);fill:#19328E;}
	.st247{opacity:0.78;clip-path:url(#SVGID_220_);}
	.st248{opacity:0.43;clip-path:url(#SVGID_248_);fill:#3BADF2;}
	.st249{opacity:0.43;clip-path:url(#SVGID_250_);fill:#3BADF2;}
	.st250{clip-path:url(#SVGID_252_);fill:#19328E;}
	.st251{clip-path:url(#SVGID_254_);}
	.st252{clip-path:url(#SVGID_256_);fill:#57056B;}
	.st253{clip-path:url(#SVGID_256_);fill:#D14AED;}
	.st254{opacity:0.52;clip-path:url(#SVGID_256_);}
	.st255{clip-path:url(#SVGID_258_);fill:#ED82F9;}
	.st256{opacity:0.33;clip-path:url(#SVGID_256_);}
	.st257{clip-path:url(#SVGID_260_);fill:#421554;}
	.st258{clip-path:url(#SVGID_256_);fill:#E84DF4;}
	.st259{opacity:0.45;clip-path:url(#SVGID_256_);}
	.st260{clip-path:url(#SVGID_262_);fill:#D183FF;}
	.st261{opacity:0.55;clip-path:url(#SVGID_256_);}
	.st262{clip-path:url(#SVGID_264_);fill:#421554;}
	.st263{clip-path:url(#SVGID_256_);fill:#440254;}
	.st264{opacity:0.5;clip-path:url(#SVGID_256_);}
	.st265{clip-path:url(#SVGID_266_);fill:#BE4AED;}
	.st266{clip-path:url(#SVGID_256_);fill:#FFFFFF;}
	.st267{clip-path:url(#SVGID_268_);fill:#421554;}
	.st268{clip-path:url(#SVGID_270_);fill:#BE4AED;}
	.st269{clip-path:url(#SVGID_272_);fill:#421554;}
	.st270{clip-path:url(#SVGID_256_);fill:#EF48A0;}
	.st271{opacity:0.39;clip-path:url(#SVGID_256_);}
	.st272{clip-path:url(#SVGID_274_);fill:#421554;}
	.st273{clip-path:url(#SVGID_256_);fill:#ED82F9;}
	.st274{clip-path:url(#SVGID_256_);fill:#FF6CC0;}
	.st275{opacity:0.37;clip-path:url(#SVGID_256_);}
	.st276{clip-path:url(#SVGID_276_);fill:#421554;}
	.st277{clip-path:url(#SVGID_256_);fill:#FFC2E8;}
	.st278{opacity:0.78;clip-path:url(#SVGID_256_);}
	.st279{clip-path:url(#SVGID_278_);fill:#FF88CC;}
	.st280{clip-path:url(#SVGID_280_);fill:#FF88CC;}
	.st281{clip-path:url(#SVGID_282_);}
	.st282{clip-path:url(#SVGID_284_);fill:#57056B;}
	.st283{clip-path:url(#SVGID_284_);fill:#D14AED;}
	.st284{opacity:0.52;clip-path:url(#SVGID_284_);}
	.st285{clip-path:url(#SVGID_286_);fill:#ED82F9;}
	.st286{opacity:0.33;clip-path:url(#SVGID_284_);}
	.st287{clip-path:url(#SVGID_288_);fill:#421554;}
	.st288{clip-path:url(#SVGID_284_);fill:#E84DF4;}
	.st289{opacity:0.45;clip-path:url(#SVGID_284_);}
	.st290{clip-path:url(#SVGID_290_);fill:#D183FF;}
	.st291{opacity:0.55;clip-path:url(#SVGID_284_);}
	.st292{clip-path:url(#SVGID_292_);fill:#421554;}
	.st293{clip-path:url(#SVGID_284_);fill:#440254;}
	.st294{opacity:0.5;clip-path:url(#SVGID_284_);}
	.st295{clip-path:url(#SVGID_294_);fill:#BE4AED;}
	.st296{clip-path:url(#SVGID_284_);fill:#FFFFFF;}
	.st297{clip-path:url(#SVGID_296_);fill:#421554;}
	.st298{clip-path:url(#SVGID_298_);fill:#BE4AED;}
	.st299{clip-path:url(#SVGID_300_);fill:#421554;}
	.st300{clip-path:url(#SVGID_284_);fill:#EF48A0;}
	.st301{opacity:0.39;clip-path:url(#SVGID_284_);}
	.st302{clip-path:url(#SVGID_302_);fill:#421554;}
	.st303{clip-path:url(#SVGID_284_);fill:#ED82F9;}
	.st304{clip-path:url(#SVGID_284_);fill:#FF6CC0;}
	.st305{opacity:0.37;clip-path:url(#SVGID_284_);}
	.st306{clip-path:url(#SVGID_304_);fill:#421554;}
	.st307{clip-path:url(#SVGID_284_);fill:#FFC2E8;}
	.st308{opacity:0.78;clip-path:url(#SVGID_284_);}
	.st309{clip-path:url(#SVGID_306_);fill:#FF88CC;}
	.st310{clip-path:url(#SVGID_308_);fill:#FF88CC;}
	.st311{opacity:0.53;fill:#EA94FF;}
	.st312{clip-path:url(#SVGID_310_);}
	.st313{clip-path:url(#SVGID_312_);fill:#57056B;}
	.st314{clip-path:url(#SVGID_312_);fill:#D14AED;}
	.st315{opacity:0.52;clip-path:url(#SVGID_312_);}
	.st316{clip-path:url(#SVGID_314_);fill:#ED82F9;}
	.st317{opacity:0.33;clip-path:url(#SVGID_312_);}
	.st318{clip-path:url(#SVGID_316_);fill:#421554;}
	.st319{clip-path:url(#SVGID_312_);fill:#E84DF4;}
	.st320{opacity:0.45;clip-path:url(#SVGID_312_);}
	.st321{clip-path:url(#SVGID_318_);fill:#D183FF;}
	.st322{opacity:0.55;clip-path:url(#SVGID_312_);}
	.st323{clip-path:url(#SVGID_320_);fill:#421554;}
	.st324{clip-path:url(#SVGID_312_);fill:#440254;}
	.st325{opacity:0.5;clip-path:url(#SVGID_312_);}
	.st326{clip-path:url(#SVGID_322_);fill:#BE4AED;}
	.st327{clip-path:url(#SVGID_312_);fill:#FFFFFF;}
	.st328{clip-path:url(#SVGID_324_);fill:#421554;}
	.st329{clip-path:url(#SVGID_326_);fill:#BE4AED;}
	.st330{clip-path:url(#SVGID_328_);fill:#421554;}
	.st331{clip-path:url(#SVGID_312_);fill:#EF48A0;}
	.st332{opacity:0.39;clip-path:url(#SVGID_312_);}
	.st333{clip-path:url(#SVGID_330_);fill:#421554;}
	.st334{clip-path:url(#SVGID_312_);fill:#ED82F9;}
	.st335{clip-path:url(#SVGID_312_);fill:#FF6CC0;}
	.st336{opacity:0.37;clip-path:url(#SVGID_312_);}
	.st337{clip-path:url(#SVGID_332_);fill:#421554;}
	.st338{clip-path:url(#SVGID_312_);fill:#FFC2E8;}
	.st339{opacity:0.78;clip-path:url(#SVGID_312_);}
	.st340{clip-path:url(#SVGID_334_);fill:#FF88CC;}
	.st341{clip-path:url(#SVGID_336_);fill:#FF88CC;}
	.st342{fill:#EFC5FF;}
	.st343{fill:#421554;}
	.st344{fill:#ED82F9;}
	.st345{clip-path:url(#SVGID_338_);}
	.st346{clip-path:url(#SVGID_340_);fill:#57056B;}
	.st347{clip-path:url(#SVGID_340_);fill:#D14AED;}
	.st348{opacity:0.52;clip-path:url(#SVGID_340_);}
	.st349{clip-path:url(#SVGID_342_);fill:#ED82F9;}
	.st350{opacity:0.33;clip-path:url(#SVGID_340_);}
	.st351{clip-path:url(#SVGID_344_);fill:#421554;}
	.st352{clip-path:url(#SVGID_340_);fill:#E84DF4;}
	.st353{opacity:0.45;clip-path:url(#SVGID_340_);}
	.st354{clip-path:url(#SVGID_346_);fill:#D183FF;}
	.st355{opacity:0.55;clip-path:url(#SVGID_340_);}
	.st356{clip-path:url(#SVGID_348_);fill:#421554;}
	.st357{clip-path:url(#SVGID_340_);fill:#440254;}
	.st358{opacity:0.5;clip-path:url(#SVGID_340_);}
	.st359{clip-path:url(#SVGID_350_);fill:#BE4AED;}
	.st360{clip-path:url(#SVGID_340_);fill:#FFFFFF;}
	.st361{clip-path:url(#SVGID_352_);fill:#421554;}
	.st362{clip-path:url(#SVGID_354_);fill:#BE4AED;}
	.st363{clip-path:url(#SVGID_356_);fill:#421554;}
	.st364{clip-path:url(#SVGID_340_);fill:#EF48A0;}
	.st365{opacity:0.39;clip-path:url(#SVGID_340_);}
	.st366{clip-path:url(#SVGID_358_);fill:#421554;}
	.st367{clip-path:url(#SVGID_340_);fill:#ED82F9;}
	.st368{clip-path:url(#SVGID_340_);fill:#FF6CC0;}
	.st369{opacity:0.37;clip-path:url(#SVGID_340_);}
	.st370{clip-path:url(#SVGID_360_);fill:#421554;}
	.st371{clip-path:url(#SVGID_340_);fill:#FFC2E8;}
	.st372{opacity:0.78;clip-path:url(#SVGID_340_);}
	.st373{clip-path:url(#SVGID_362_);fill:#FF88CC;}
	.st374{clip-path:url(#SVGID_364_);fill:#FF88CC;}
	.st375{opacity:0.5;fill:#421554;}
	.st376{clip-path:url(#SVGID_366_);}
	.st377{clip-path:url(#SVGID_368_);fill:#57056B;}
	.st378{clip-path:url(#SVGID_368_);fill:#D14AED;}
	.st379{opacity:0.52;clip-path:url(#SVGID_368_);}
	.st380{clip-path:url(#SVGID_370_);fill:#ED82F9;}
	.st381{opacity:0.33;clip-path:url(#SVGID_368_);}
	.st382{clip-path:url(#SVGID_372_);fill:#421554;}
	.st383{clip-path:url(#SVGID_368_);fill:#E84DF4;}
	.st384{opacity:0.45;clip-path:url(#SVGID_368_);}
	.st385{clip-path:url(#SVGID_374_);fill:#D183FF;}
	.st386{opacity:0.55;clip-path:url(#SVGID_368_);}
	.st387{clip-path:url(#SVGID_376_);fill:#421554;}
	.st388{clip-path:url(#SVGID_368_);fill:#440254;}
	.st389{opacity:0.5;clip-path:url(#SVGID_368_);}
	.st390{clip-path:url(#SVGID_378_);fill:#BE4AED;}
	.st391{clip-path:url(#SVGID_368_);fill:#FFFFFF;}
	.st392{clip-path:url(#SVGID_380_);fill:#421554;}
	.st393{clip-path:url(#SVGID_382_);fill:#BE4AED;}
	.st394{clip-path:url(#SVGID_384_);fill:#421554;}
	.st395{clip-path:url(#SVGID_368_);fill:#EF48A0;}
	.st396{opacity:0.39;clip-path:url(#SVGID_368_);}
	.st397{clip-path:url(#SVGID_386_);fill:#421554;}
	.st398{clip-path:url(#SVGID_368_);fill:#ED82F9;}
	.st399{clip-path:url(#SVGID_368_);fill:#FF6CC0;}
	.st400{opacity:0.37;clip-path:url(#SVGID_368_);}
	.st401{clip-path:url(#SVGID_388_);fill:#421554;}
	.st402{clip-path:url(#SVGID_368_);fill:#FFC2E8;}
	.st403{opacity:0.78;clip-path:url(#SVGID_368_);}
	.st404{clip-path:url(#SVGID_390_);fill:#FF88CC;}
	.st405{clip-path:url(#SVGID_392_);fill:#FF88CC;}
	.st406{clip-path:url(#SVGID_394_);}
	.st407{clip-path:url(#SVGID_396_);fill:#57056B;}
	.st408{clip-path:url(#SVGID_396_);fill:#D14AED;}
	.st409{opacity:0.52;clip-path:url(#SVGID_396_);}
	.st410{clip-path:url(#SVGID_398_);fill:#ED82F9;}
	.st411{opacity:0.33;clip-path:url(#SVGID_396_);}
	.st412{clip-path:url(#SVGID_400_);fill:#421554;}
	.st413{clip-path:url(#SVGID_396_);fill:#E84DF4;}
	.st414{opacity:0.45;clip-path:url(#SVGID_396_);}
	.st415{clip-path:url(#SVGID_402_);fill:#D183FF;}
	.st416{opacity:0.55;clip-path:url(#SVGID_396_);}
	.st417{clip-path:url(#SVGID_404_);fill:#421554;}
	.st418{clip-path:url(#SVGID_396_);fill:#440254;}
	.st419{opacity:0.5;clip-path:url(#SVGID_396_);}
	.st420{clip-path:url(#SVGID_406_);fill:#BE4AED;}
	.st421{clip-path:url(#SVGID_396_);fill:#FFFFFF;}
	.st422{clip-path:url(#SVGID_408_);fill:#421554;}
	.st423{clip-path:url(#SVGID_410_);fill:#BE4AED;}
	.st424{clip-path:url(#SVGID_412_);fill:#421554;}
	.st425{clip-path:url(#SVGID_396_);fill:#EF48A0;}
	.st426{opacity:0.39;clip-path:url(#SVGID_396_);}
	.st427{clip-path:url(#SVGID_414_);fill:#421554;}
	.st428{clip-path:url(#SVGID_396_);fill:#ED82F9;}
	.st429{clip-path:url(#SVGID_396_);fill:#FF6CC0;}
	.st430{opacity:0.37;clip-path:url(#SVGID_396_);}
	.st431{clip-path:url(#SVGID_416_);fill:#421554;}
	.st432{clip-path:url(#SVGID_396_);fill:#FFC2E8;}
	.st433{opacity:0.78;clip-path:url(#SVGID_396_);}
	.st434{clip-path:url(#SVGID_418_);fill:#FF88CC;}
	.st435{clip-path:url(#SVGID_420_);fill:#FF88CC;}
	.st436{clip-path:url(#SVGID_422_);}
	.st437{clip-path:url(#SVGID_424_);fill:#57056B;}
	.st438{clip-path:url(#SVGID_424_);fill:#D14AED;}
	.st439{opacity:0.52;clip-path:url(#SVGID_424_);}
	.st440{clip-path:url(#SVGID_426_);fill:#ED82F9;}
	.st441{opacity:0.33;clip-path:url(#SVGID_424_);}
	.st442{clip-path:url(#SVGID_428_);fill:#421554;}
	.st443{clip-path:url(#SVGID_424_);fill:#E84DF4;}
	.st444{opacity:0.45;clip-path:url(#SVGID_424_);}
	.st445{clip-path:url(#SVGID_430_);fill:#D183FF;}
	.st446{opacity:0.55;clip-path:url(#SVGID_424_);}
	.st447{clip-path:url(#SVGID_432_);fill:#421554;}
	.st448{clip-path:url(#SVGID_424_);fill:#440254;}
	.st449{opacity:0.5;clip-path:url(#SVGID_424_);}
	.st450{clip-path:url(#SVGID_434_);fill:#BE4AED;}
	.st451{clip-path:url(#SVGID_424_);fill:#FFFFFF;}
	.st452{clip-path:url(#SVGID_436_);fill:#421554;}
	.st453{clip-path:url(#SVGID_438_);fill:#BE4AED;}
	.st454{clip-path:url(#SVGID_440_);fill:#421554;}
	.st455{clip-path:url(#SVGID_424_);fill:#EF48A0;}
	.st456{opacity:0.39;clip-path:url(#SVGID_424_);}
	.st457{clip-path:url(#SVGID_442_);fill:#421554;}
	.st458{clip-path:url(#SVGID_424_);fill:#ED82F9;}
	.st459{clip-path:url(#SVGID_424_);fill:#FF6CC0;}
	.st460{opacity:0.37;clip-path:url(#SVGID_424_);}
	.st461{clip-path:url(#SVGID_444_);fill:#421554;}
	.st462{clip-path:url(#SVGID_424_);fill:#FFC2E8;}
	.st463{opacity:0.78;clip-path:url(#SVGID_424_);}
	.st464{clip-path:url(#SVGID_446_);fill:#FF88CC;}
	.st465{clip-path:url(#SVGID_448_);fill:#FF88CC;}
	.st466{clip-path:url(#SVGID_450_);}
	.st467{clip-path:url(#SVGID_452_);fill:#771515;}
	.st468{clip-path:url(#SVGID_452_);fill:#FF3E3E;}
	.st469{opacity:0.42;clip-path:url(#SVGID_452_);}
	.st470{clip-path:url(#SVGID_454_);fill:#FFCE00;}
	.st471{opacity:0.43;clip-path:url(#SVGID_452_);}
	.st472{clip-path:url(#SVGID_456_);fill:#771515;}
	.st473{opacity:0.61;clip-path:url(#SVGID_456_);}
	.st474{clip-path:url(#SVGID_458_);fill:#F97906;}
	.st475{opacity:0.22;clip-path:url(#SVGID_452_);}
	.st476{clip-path:url(#SVGID_460_);fill:#FEFFF5;}
	.st477{clip-path:url(#SVGID_452_);fill:#560C09;}
	.st478{clip-path:url(#SVGID_462_);fill:#FEFFF5;}
	.st479{opacity:0.46;clip-path:url(#SVGID_452_);}
	.st480{clip-path:url(#SVGID_464_);fill:#470A04;}
	.st481{clip-path:url(#SVGID_452_);fill:#5AB8FF;}
	.st482{clip-path:url(#SVGID_452_);fill:#FFFFFF;}
	.st483{clip-path:url(#SVGID_466_);fill:#470A04;}
	.st484{clip-path:url(#SVGID_468_);fill:#470A04;}
	.st485{clip-path:url(#SVGID_452_);fill:#56153A;}
	.st486{clip-path:url(#SVGID_452_);fill:#28081C;}
	.st487{clip-path:url(#SVGID_452_);fill:#EF48A0;}
	.st488{clip-path:url(#SVGID_470_);fill:#FFCE00;}
	.st489{clip-path:url(#SVGID_472_);fill:#FFCE00;}
	.st490{clip-path:url(#SVGID_474_);fill:#FFCE00;}
	.st491{clip-path:url(#SVGID_452_);fill:#F97906;}
	.st492{clip-path:url(#SVGID_476_);}
	.st493{clip-path:url(#SVGID_478_);fill:#771515;}
	.st494{clip-path:url(#SVGID_478_);fill:#FF3E3E;}
	.st495{opacity:0.42;clip-path:url(#SVGID_478_);}
	.st496{clip-path:url(#SVGID_480_);fill:#FFCE00;}
	.st497{opacity:0.43;clip-path:url(#SVGID_478_);}
	.st498{clip-path:url(#SVGID_482_);fill:#771515;}
	.st499{opacity:0.61;clip-path:url(#SVGID_482_);}
	.st500{clip-path:url(#SVGID_484_);fill:#F97906;}
	.st501{opacity:0.22;clip-path:url(#SVGID_478_);}
	.st502{clip-path:url(#SVGID_486_);fill:#FEFFF5;}
	.st503{clip-path:url(#SVGID_478_);fill:#560C09;}
	.st504{clip-path:url(#SVGID_488_);fill:#FEFFF5;}
	.st505{opacity:0.46;clip-path:url(#SVGID_478_);}
	.st506{clip-path:url(#SVGID_490_);fill:#470A04;}
	.st507{clip-path:url(#SVGID_478_);fill:#5AB8FF;}
	.st508{clip-path:url(#SVGID_478_);fill:#FFFFFF;}
	.st509{clip-path:url(#SVGID_492_);fill:#470A04;}
	.st510{clip-path:url(#SVGID_494_);fill:#470A04;}
	.st511{clip-path:url(#SVGID_478_);fill:#56153A;}
	.st512{clip-path:url(#SVGID_478_);fill:#28081C;}
	.st513{clip-path:url(#SVGID_478_);fill:#EF48A0;}
	.st514{clip-path:url(#SVGID_496_);fill:#FFCE00;}
	.st515{clip-path:url(#SVGID_498_);fill:#FFCE00;}
	.st516{clip-path:url(#SVGID_500_);fill:#FFCE00;}
	.st517{clip-path:url(#SVGID_478_);fill:#F97906;}
	.st518{opacity:0.3;fill:#FFCE00;}
	.st519{clip-path:url(#SVGID_502_);}
	.st520{clip-path:url(#SVGID_504_);fill:#771515;}
	.st521{clip-path:url(#SVGID_504_);fill:#FF3E3E;}
	.st522{opacity:0.42;clip-path:url(#SVGID_504_);}
	.st523{clip-path:url(#SVGID_506_);fill:#FFCE00;}
	.st524{opacity:0.43;clip-path:url(#SVGID_504_);}
	.st525{clip-path:url(#SVGID_508_);fill:#771515;}
	.st526{opacity:0.61;clip-path:url(#SVGID_508_);}
	.st527{clip-path:url(#SVGID_510_);fill:#F97906;}
	.st528{opacity:0.22;clip-path:url(#SVGID_504_);}
	.st529{clip-path:url(#SVGID_512_);fill:#FEFFF5;}
	.st530{clip-path:url(#SVGID_504_);fill:#560C09;}
	.st531{clip-path:url(#SVGID_514_);fill:#FEFFF5;}
	.st532{opacity:0.46;clip-path:url(#SVGID_504_);}
	.st533{clip-path:url(#SVGID_516_);fill:#470A04;}
	.st534{clip-path:url(#SVGID_504_);fill:#5AB8FF;}
	.st535{clip-path:url(#SVGID_504_);fill:#FFFFFF;}
	.st536{clip-path:url(#SVGID_518_);fill:#470A04;}
	.st537{clip-path:url(#SVGID_520_);fill:#470A04;}
	.st538{clip-path:url(#SVGID_504_);fill:#56153A;}
	.st539{clip-path:url(#SVGID_504_);fill:#28081C;}
	.st540{clip-path:url(#SVGID_504_);fill:#EF48A0;}
	.st541{clip-path:url(#SVGID_522_);fill:#FFCE00;}
	.st542{clip-path:url(#SVGID_524_);fill:#FFCE00;}
	.st543{clip-path:url(#SVGID_526_);fill:#FFCE00;}
	.st544{clip-path:url(#SVGID_504_);fill:#F97906;}
	.st545{fill:#FEFFC7;}
	.st546{fill:#FF3E3E;}
	.st547{opacity:0.55;fill:#F97906;}
	.st548{clip-path:url(#SVGID_528_);}
	.st549{clip-path:url(#SVGID_530_);fill:#771515;}
	.st550{clip-path:url(#SVGID_530_);fill:#FF3E3E;}
	.st551{opacity:0.42;clip-path:url(#SVGID_530_);}
	.st552{clip-path:url(#SVGID_532_);fill:#FFCE00;}
	.st553{opacity:0.43;clip-path:url(#SVGID_530_);}
	.st554{clip-path:url(#SVGID_534_);fill:#771515;}
	.st555{opacity:0.61;clip-path:url(#SVGID_534_);}
	.st556{clip-path:url(#SVGID_536_);fill:#F97906;}
	.st557{opacity:0.22;clip-path:url(#SVGID_530_);}
	.st558{clip-path:url(#SVGID_538_);fill:#FEFFF5;}
	.st559{clip-path:url(#SVGID_530_);fill:#560C09;}
	.st560{clip-path:url(#SVGID_540_);fill:#FEFFF5;}
	.st561{opacity:0.46;clip-path:url(#SVGID_530_);}
	.st562{clip-path:url(#SVGID_542_);fill:#470A04;}
	.st563{clip-path:url(#SVGID_530_);fill:#5AB8FF;}
	.st564{clip-path:url(#SVGID_530_);fill:#FFFFFF;}
	.st565{clip-path:url(#SVGID_544_);fill:#470A04;}
	.st566{clip-path:url(#SVGID_546_);fill:#470A04;}
	.st567{clip-path:url(#SVGID_530_);fill:#56153A;}
	.st568{clip-path:url(#SVGID_530_);fill:#28081C;}
	.st569{clip-path:url(#SVGID_530_);fill:#EF48A0;}
	.st570{clip-path:url(#SVGID_548_);fill:#FFCE00;}
	.st571{clip-path:url(#SVGID_550_);fill:#FFCE00;}
	.st572{clip-path:url(#SVGID_552_);fill:#FFCE00;}
	.st573{clip-path:url(#SVGID_530_);fill:#F97906;}
	.st574{opacity:0.5;fill:#FF3E3E;}
	.st575{clip-path:url(#SVGID_554_);}
	.st576{clip-path:url(#SVGID_556_);fill:#771515;}
	.st577{clip-path:url(#SVGID_556_);fill:#FF3E3E;}
	.st578{opacity:0.42;clip-path:url(#SVGID_556_);}
	.st579{clip-path:url(#SVGID_558_);fill:#FFCE00;}
	.st580{opacity:0.43;clip-path:url(#SVGID_556_);}
	.st581{clip-path:url(#SVGID_560_);fill:#771515;}
	.st582{opacity:0.61;clip-path:url(#SVGID_560_);}
	.st583{clip-path:url(#SVGID_562_);fill:#F97906;}
	.st584{opacity:0.22;clip-path:url(#SVGID_556_);}
	.st585{clip-path:url(#SVGID_564_);fill:#FEFFF5;}
	.st586{clip-path:url(#SVGID_556_);fill:#560C09;}
	.st587{clip-path:url(#SVGID_566_);fill:#FEFFF5;}
	.st588{opacity:0.46;clip-path:url(#SVGID_556_);}
	.st589{clip-path:url(#SVGID_568_);fill:#470A04;}
	.st590{clip-path:url(#SVGID_556_);fill:#5AB8FF;}
	.st591{clip-path:url(#SVGID_556_);fill:#FFFFFF;}
	.st592{clip-path:url(#SVGID_570_);fill:#470A04;}
	.st593{clip-path:url(#SVGID_572_);fill:#470A04;}
	.st594{clip-path:url(#SVGID_556_);fill:#56153A;}
	.st595{clip-path:url(#SVGID_556_);fill:#28081C;}
	.st596{clip-path:url(#SVGID_556_);fill:#EF48A0;}
	.st597{clip-path:url(#SVGID_574_);fill:#FFCE00;}
	.st598{clip-path:url(#SVGID_576_);fill:#FFCE00;}
	.st599{clip-path:url(#SVGID_578_);fill:#FFCE00;}
	.st600{clip-path:url(#SVGID_556_);fill:#F97906;}
	.st601{clip-path:url(#SVGID_580_);}
	.st602{clip-path:url(#SVGID_582_);fill:#771515;}
	.st603{clip-path:url(#SVGID_582_);fill:#FF3E3E;}
	.st604{opacity:0.42;clip-path:url(#SVGID_582_);}
	.st605{clip-path:url(#SVGID_584_);fill:#FFCE00;}
	.st606{opacity:0.43;clip-path:url(#SVGID_582_);}
	.st607{clip-path:url(#SVGID_586_);fill:#771515;}
	.st608{opacity:0.61;clip-path:url(#SVGID_586_);}
	.st609{clip-path:url(#SVGID_588_);fill:#F97906;}
	.st610{opacity:0.22;clip-path:url(#SVGID_582_);}
	.st611{clip-path:url(#SVGID_590_);fill:#FEFFF5;}
	.st612{clip-path:url(#SVGID_582_);fill:#560C09;}
	.st613{clip-path:url(#SVGID_592_);fill:#FEFFF5;}
	.st614{opacity:0.46;clip-path:url(#SVGID_582_);}
	.st615{clip-path:url(#SVGID_594_);fill:#470A04;}
	.st616{clip-path:url(#SVGID_582_);fill:#5AB8FF;}
	.st617{clip-path:url(#SVGID_582_);fill:#FFFFFF;}
	.st618{clip-path:url(#SVGID_596_);fill:#470A04;}
	.st619{clip-path:url(#SVGID_598_);fill:#470A04;}
	.st620{clip-path:url(#SVGID_582_);fill:#56153A;}
	.st621{clip-path:url(#SVGID_582_);fill:#28081C;}
	.st622{clip-path:url(#SVGID_582_);fill:#EF48A0;}
	.st623{clip-path:url(#SVGID_600_);fill:#FFCE00;}
	.st624{clip-path:url(#SVGID_602_);fill:#FFCE00;}
	.st625{clip-path:url(#SVGID_604_);fill:#FFCE00;}
	.st626{clip-path:url(#SVGID_582_);fill:#F97906;}
	.st627{clip-path:url(#SVGID_606_);}
	.st628{clip-path:url(#SVGID_608_);fill:#771515;}
	.st629{clip-path:url(#SVGID_608_);fill:#FF3E3E;}
	.st630{opacity:0.42;clip-path:url(#SVGID_608_);}
	.st631{clip-path:url(#SVGID_610_);fill:#FFCE00;}
	.st632{opacity:0.43;clip-path:url(#SVGID_608_);}
	.st633{clip-path:url(#SVGID_612_);fill:#771515;}
	.st634{opacity:0.61;clip-path:url(#SVGID_612_);}
	.st635{clip-path:url(#SVGID_614_);fill:#F97906;}
	.st636{opacity:0.22;clip-path:url(#SVGID_608_);}
	.st637{clip-path:url(#SVGID_616_);fill:#FEFFF5;}
	.st638{clip-path:url(#SVGID_608_);fill:#560C09;}
	.st639{clip-path:url(#SVGID_618_);fill:#FEFFF5;}
	.st640{opacity:0.46;clip-path:url(#SVGID_608_);}
	.st641{clip-path:url(#SVGID_620_);fill:#470A04;}
	.st642{clip-path:url(#SVGID_608_);fill:#5AB8FF;}
	.st643{clip-path:url(#SVGID_608_);fill:#FFFFFF;}
	.st644{clip-path:url(#SVGID_622_);fill:#470A04;}
	.st645{clip-path:url(#SVGID_624_);fill:#470A04;}
	.st646{clip-path:url(#SVGID_608_);fill:#56153A;}
	.st647{clip-path:url(#SVGID_608_);fill:#28081C;}
	.st648{clip-path:url(#SVGID_608_);fill:#EF48A0;}
	.st649{clip-path:url(#SVGID_626_);fill:#FFCE00;}
	.st650{clip-path:url(#SVGID_628_);fill:#FFCE00;}
	.st651{clip-path:url(#SVGID_630_);fill:#FFCE00;}
	.st652{clip-path:url(#SVGID_608_);fill:#F97906;}
</style>
<g id="_x2014_ÎÓÈ_x5F_3">
</g>
<g id="_x2014_ÎÓÈ_x5F_1">
</g>
<g id="_x2014_ÎÓÈ_x5F_2">
	<g>
		<g>
			<path class="st25" d="M75.4,60c-0.3-7.4-4.3-14.4-10.9-19.2c-1.7-1.4-6.1-4.8-9.2-6c-0.9-0.4-1.4-0.8-1.5-1.4
				c-0.1-0.8,0.5-1.9,1.6-3c4-1.9,6.4-5.6,6.3-9.6c-0.2-6-6.1-10.8-13-10.8c-3.7,0-7.1,1.4-9.4,3.8c-1.9,2-2.9,4.5-2.8,7.1
				c0.1,3.3,2,6.4,5.2,8.5c1.3,1.5,1.7,2.3,1.8,2.8c0.3,1,0.1,1.2-3.2,2.2c-0.8,0.2-1.7,0.5-2.8,0.9c-1.4,0.5-3,1.2-4.5,2.1
				c-4.7,2-8.7,5.2-11.4,9.2c-2.8,4.1-4.2,8.8-4,13.7c0.3,6.8,3.5,12.6,9.3,16.8c5.4,4,12.8,6.2,20.7,6.2c9.3,0,17.5-3,22.6-8.3
				C73.7,70.7,75.6,65.6,75.4,60z"/>
			<path class="st11" d="M64,41.4c-1.7-1.3-6-4.7-9.1-5.9c-3.2-1.3-2.1-3.8,0-5.7c3.7-1.7,6.1-5.1,5.9-8.9
				c-0.2-5.6-5.7-10.1-12.3-10.1c-6.6,0-11.7,4.5-11.5,10.1c0.1,3.2,2.1,6.1,4.9,8c0.9,1.1,1.8,2.3,2,3.1c0.7,2.3-1.5,2.3-6.5,4
				c-1.6,0.5-3.1,1.3-4.4,2c-9.3,4-15.5,12.4-15.1,22.2c0.6,13.6,13.6,22.3,29.2,22.3s27.9-8.7,27.4-22.3
				C74.3,52.6,70.2,45.9,64,41.4z"/>
			<path class="st26" d="M56,39.1c-0.5-0.1-9-1.2-13.4,6.5c-4.4,7.7,3.6,10.9,11.1,14.2c7.5,3.3,14.3,3.2,14.1-3
				C67.6,50.6,65.7,41.2,56,39.1z"/>
			<path class="st27" d="M71.1,60.2c-1.6,6.6-9.2,17.3-26.2,11.7c-17-5.6-8.7-25.9-13.8-30c-1-0.8-2.2-1-3.5-1
				c-6.1,4.5-9.8,11.3-9.5,19c0.6,13.6,13.6,22.3,29.2,22.3s27.9-8.7,27.4-22.3c-0.2-5.9-2.9-11.3-7-15.6
				C70,48.9,72.2,55.6,71.1,60.2z"/>
			<path class="st28" d="M73.6,67.3c-6.7,12.3-15.4,12.5-22,13.3c-8.1,1-20.4-1.6-26.6-9.2c-5.2-6.3-5.9-15.9-5.6-19.6
				c-0.9,2.6-1.4,5.3-1.3,8.2c0.6,13.6,13.6,22.3,29.2,22.3C59.9,82.3,70.3,76.7,73.6,67.3z"/>
			<path class="st29" d="M46.1,77.8c-4.3-3.8,1.2-13.9,4.1-18.4c2.9-4.5,11.7-5.7,19.3-1.2c5.6,3.3,0.4,13.4-2.3,18.1
				c4.9-3.9,7.8-9.4,7.5-16.2c-0.2-5.6-2.6-10.7-6.4-14.9c-2.2,6-10.8,6.6-18.4,5.3c-8.9-1.5-6.4,19.4-19.8,19.4
				c-6.2,0-9.8-4.5-11.9-9.5c0.8,13.4,13.7,21.9,29.2,21.9c2.3,0,4.5-0.2,6.6-0.6C51,80.8,47.9,79.4,46.1,77.8z"/>
			<path class="st30" d="M46.6,81.3c-0.1,0.7-3,0.7-6.6,0.1c-3.5-0.6-6.3-1.7-6.2-2.4c0.1-0.7,3-0.7,6.6-0.1
				C43.9,79.6,46.7,80.6,46.6,81.3z"/>
			<path class="st30" d="M33,78.2c-0.2,0.4-0.9,0.5-1.6,0.2c-0.7-0.3-1-0.9-0.8-1.4c0.2-0.4,0.9-0.5,1.6-0.2
				C32.8,77.1,33.2,77.7,33,78.2z"/>
			<path class="st27" d="M53.3,36.4c2.9,0.8,5.4,1.9,6.2,1.6C58,37,56.4,36,55,35.4c-3.2-1.3-2.1-3.8,0-5.7c3.7-1.7,6.1-5.1,5.9-8.9
				c-0.1-1.7-0.7-3.4-1.6-4.8c0.8,2.4,1.6,6.1,0.3,8.1C57.5,27.4,47,31,41,24.1c-3-3.5-2.9-6.7-2-9.1c-1.3,1.6-2,3.6-1.9,5.7
				c0.1,3.2,2.1,6.1,4.9,8c0.9,1.1,1.8,2.3,2,3.1c0.6,2.1-1.1,2.2-5.3,3.6c-0.5,1.6-2.3,3.1-0.5,4.8C40.8,42.7,50,35.4,53.3,36.4z"
				/>
			<path class="st13" d="M54.3,39.3c-0.5,0-6.1-0.7-12,3.2c-6,3.8,12.6-4.4,19.7,1.3c7,5.7,5.7,12.9,5.7,12.9s1.5-3.5-0.3-8.3
				C65.5,43.6,60.5,39.7,54.3,39.3z"/>
			<g>
				<g>
					<ellipse class="st31" cx="30.4" cy="59" rx="3.7" ry="8.2"/>
					<ellipse class="st32" cx="30.4" cy="59" rx="3" ry="7.3"/>
					<path class="st33" d="M30.7,64.3c-1.4,0-2.5-2.7-2.5-6.1c0-1.1,0.1-2,0.3-2.9c-0.4,1.1-0.6,2.4-0.6,3.9c0,3.4,1.1,6.1,2.5,6.1
						c1,0,1.8-1.3,2.2-3.2C32.1,63.5,31.4,64.3,30.7,64.3z"/>
					<ellipse class="st7" cx="31.1" cy="56" rx="1.3" ry="2"/>
					<ellipse class="st7" cx="29.6" cy="64.3" rx="0.6" ry="0.6"/>
					<path class="st32" d="M28.6,46.4c0,0,1.9-2.5,2.8-2C32.4,44.9,30.8,46.2,28.6,46.4z"/>
				</g>
				<g>
					<ellipse class="st31" cx="59.8" cy="59" rx="3.7" ry="8.2"/>
					<ellipse class="st32" cx="59.8" cy="59" rx="3" ry="7.3"/>
					<path class="st33" d="M59.5,64.3c1.4,0,2.5-2.7,2.5-6.1c0-1.1-0.1-2-0.3-2.9c0.4,1.1,0.6,2.4,0.6,3.9c0,3.4-1.1,6.1-2.5,6.1
						c-1,0-1.8-1.3-2.2-3.2C58,63.5,58.7,64.3,59.5,64.3z"/>
					<ellipse class="st7" cx="59.1" cy="56" rx="1.3" ry="2"/>
					<ellipse class="st7" cx="60.5" cy="64.3" rx="0.6" ry="0.6"/>
					<path class="st32" d="M61.5,46.4c0,0-1.9-2.5-2.8-2C57.8,44.9,59.4,46.2,61.5,46.4z"/>
				</g>
				<ellipse class="st12" cx="44.5" cy="67.9" rx="3.6" ry="1.5"/>
				<path class="st32" d="M39.9,67.2c0,0,4.2,3.3,10.4,0.7c0,0-1,2.9-4.6,3.6C42.2,72.1,40.2,69.8,39.9,67.2z"/>
			</g>
			<path class="st34" d="M50.4,12c0,0-7-1.2-8.2,3.3c-1.2,4.5,7.7,2.2,9.7,3.8c2,1.6,4.1,4.8,6,3.4C59.6,21.1,59.8,13.7,50.4,12z"/>
			<path class="st29" d="M46.4,22c6.9-1,6.8,3.2,9.7,1.5c2.7-1.6-8.3-12.9,0.5-10.2c-2.2-1.6-5-2.6-8-2.6c-1,0-2,0.1-2.9,0.3
				c2.9,1.3,5.6,3.2,6.2,6.3c1.5,7.4-5.3-2.5-9.8,1.7c-1.7,1.6-2.9,3.8-3.8,5.9c0.9,1.5,2.2,2.9,3.7,3.9c0.7,0.9,1.4,1.8,1.8,2.5
				l1.7,0.6C45.5,31.9,39.5,23,46.4,22z"/>
			<g>
				<path class="st12" d="M34.5,70.1c0.1,1.2-1.5,2.3-3.6,2.3c-2,0-3.7-1-3.8-2.3c-0.1-1.2,1.5-2.3,3.6-2.3
					C32.8,67.8,34.5,68.8,34.5,70.1z"/>
				<path class="st12" d="M63,70.1c0.1,1.2-1.5,2.3-3.6,2.3c-2,0-3.7-1-3.8-2.3c-0.1-1.2,1.5-2.3,3.6-2.3
					C61.2,67.8,62.9,68.8,63,70.1z"/>
			</g>
			<path class="st7" d="M50.5,12.7c0,0-4.1,0.7-1.4,1.9s3.5,2.7,5.1,1.8C55.8,15.5,54,12.5,50.5,12.7z"/>
			<path class="st7" d="M56.1,16.8c0,0-1.2,0.2-0.4,1.4c0.9,1.2,1.6,1.9,2.5,1.4C59.1,19.1,58.6,16.8,56.1,16.8z"/>
			<path class="st7" d="M56.8,39.6c0,0-3.8-0.6-5.1,0c-1.3,0.6,5.7,2.4,7.2,3.3c1.5,0.9,3,2.1,3.6,1.3C63,43.4,61,40.1,56.8,39.6z"
				/>
			<path class="st7" d="M63.9,44.4c0,0-0.1,0-0.2,0c-0.4,0.1-1.1,0.5,0,1.4c1.4,1.3,1.7,2.3,2.3,1.2C66.4,45.9,65.6,44.5,63.9,44.4z
				"/>
			<path class="st28" d="M39.2,24.7c0,0,2.4,3.9,7.7,4.7c5.4,0.8,8.7-0.5,8.7-0.5s-2.9,2-7.3,2.2C43.9,31.1,39,26.7,39.2,24.7z"/>
			<path class="st35" d="M53.4,34.4c-1.1-1.3,0-3.1,1.6-4.6c0,0-1.5,1.3-5.5,2c-2.4,0.5-4.5-0.3-6-1.2c0.3,0.5,0.5,0.9,0.6,1.3
				c0.5,1.8-0.8,2.2-3.9,3.2c0.2,0.3,0.5,0.6,1,0.9c1.9,0.8,3.7-0.8,6-1.7C48.6,33.6,51.5,34,53.4,34.4z"/>
			<g>
				<path class="st25" d="M22.6,27.2c-1.3,0.5-3.8,1.6-1.5,5.9s6.2,3.6,9-0.3C33,28.9,29.1,24.8,22.6,27.2z"/>
				<path class="st11" d="M23.1,27.8c-1.2,0.4-3.3,1.4-1.3,5.1c2,3.7,5.3,3.1,7.8-0.3C32,29.3,28.6,25.7,23.1,27.8z"/>
				<path class="st27" d="M21.8,32.9c1.9,3.5,5,3.1,7.4,0.3c-0.2,0.1-0.5,0.2-0.7,0.3c-3.1,0.8-4.2-2.9-5.9-4.7
					c-0.2-0.2-0.4-0.3-0.6-0.4C21,29.1,20.4,30.3,21.8,32.9z"/>
				<path class="st34" d="M25.1,27.9c0,0-1.2,0.4-0.3,1.3c0.9,0.8,2.1,3.2,4,2.3C30.7,30.5,29.2,26.9,25.1,27.9z"/>
				<path class="st7" d="M26.2,28.2c0,0-1.5,0.8,0.5,1c2,0.2,2.3,1.1,2.1,0.3C28.7,28.6,28,28,26.2,28.2z"/>
				<path class="st28" d="M24,34.2c-1.4-0.6-2.4-2.2-2.9-3c0.1,0.5,0.3,1.1,0.7,1.7c1.6,2.9,3.9,3.1,6,1.6
					C27,34.7,25.4,34.8,24,34.2z"/>
			</g>
			<g>
				<path class="st25" d="M70.6,34.4c-1.8,0-5.3,1.8-3.8,5.8c1.5,4,4.7,5.4,7.7,1.3C77.4,37.6,74.6,34.5,70.6,34.4z"/>
				<path class="st11" d="M70.6,35.2c-1.5,0-4.4,1.5-3.2,4.8c1.3,3.4,3.9,4.5,6.4,1.1C76.3,37.8,74,35.3,70.6,35.2z"/>
				<path class="st27" d="M74.9,38.6c-0.7,1.5-2.5,3.3-3.8,2.5c-1.8-1.1-0.4-2.6-2.1-3.7c-0.8-0.5-1.3-0.3-1.6,0
					c-0.3,0.7-0.3,1.6,0.1,2.6c1.3,3.4,3.9,4.5,6.4,1.1C74.6,40.2,74.9,39.4,74.9,38.6z"/>
				<path class="st34" d="M71.3,35.7c0,0-2.7,0.3-1.4,1.5c1.4,1.3,1.8,2.5,3,1.9C74.1,38.5,73.7,36.1,71.3,35.7z"/>
				<path class="st7" d="M72.3,36c0,0-1.1-0.6-2.1-0.1c-1,0.5,1.7,1.2,2.2,1.6C72.9,38.1,73.8,37.2,72.3,36z"/>
				<path class="st28" d="M73.6,41.6c0,0-0.1,0-0.1,0.1c-1.5,0.7-2.6,1-4.5-0.4c-1.1-0.8-1.6-2-1.8-2.9c0,0.5,0.1,1.1,0.3,1.7
					C68.7,43.3,71.2,44.4,73.6,41.6z"/>
			</g>
		</g>
		<g>
			<path class="st36" d="M47.3,17.2c0,0-3.8,25-23.7,29.8c0,0,23.6,4.5,24.2,33.6c0,0,3.7-29,23.7-33.7
				C71.5,46.9,48.3,45.1,47.3,17.2z"/>
			<path class="st15" d="M38.3,40.7c0,0,14,2.2,20.1-5.7c0,0-8,16.8-3,23.1c0,0-11.5-4.3-18.9,4.3C36.4,62.4,42.9,49,38.3,40.7z"/>
		</g>
	</g>
</g>
</svg>
