<?xml version="1.0" encoding="utf-8"?>
<!-- Generator: Adobe Illustrator 21.0.0, SVG Export Plug-In . SVG Version: 6.00 Build 0)  -->
<svg version="1.1" id="_ÎÓÈ_3" xmlns="http://www.w3.org/2000/svg" xmlns:xlink="http://www.w3.org/1999/xlink" x="0px" y="0px"
	 viewBox="0 0 765.8 52.7" style="enable-background:new 0 0 765.8 52.7;" xml:space="preserve">
<style type="text/css">
	.st0{clip-path:url(#SVGID_2_);}
	.st1{fill:#18CCBD;}
	.st2{fill:#85E4DC;}
	.st3{fill:#098D85;}
</style>
<title>progress_bar_fill</title>
<g>
	<defs>
		<rect id="SVGID_1_" y="-19.7" width="765.8" height="92"/>
	</defs>
	<clipPath id="SVGID_2_">
		<use xlink:href="#SVGID_1_"  style="overflow:visible;"/>
	</clipPath>
	<g class="st0">
		<path class="st1" d="M765.8,30.7c0,12.7-12.3,22-27.5,22H27.5C12.3,52.7,0,43.4,0,30.7V23C0,10.3,12.3,0,27.5,0h710.8
			c15.2,0,27.5,10.3,27.5,23V30.7z"/>
		<path class="st2" d="M370.5,19c148,0,279.8-7.4,364.9-19H28.2c-3.5,0-7,0.5-10.3,1.6C103.1,12.2,229.5,19,370.5,19z"/>
		<path class="st3" d="M1.4,37.8c3.6,8.9,14,14.9,26.1,14.9h710.8c12.2,0,22.5-6,26.1-14.9H1.4z"/>
	</g>
</g>
</svg>
