<?xml version="1.0" encoding="utf-8"?>
<!-- Generator: Adobe Illustrator 21.0.0, SVG Export Plug-In . SVG Version: 6.00 Build 0)  -->
<svg version="1.1" id="_ÎÓÈ_3" xmlns="http://www.w3.org/2000/svg" xmlns:xlink="http://www.w3.org/1999/xlink" x="0px" y="0px"
	 viewBox="0 0 1047.6 119" style="enable-background:new 0 0 1047.6 119;" xml:space="preserve">
<style type="text/css">
	.st0{fill:#392453;}
	.st1{fill:#633B79;}
	.st2{fill:#755695;}
	.st3{opacity:0.46;fill:#F892FC;enable-background:new    ;}
	.st4{fill:#502158;}
	.st5{fill:url(#SVGID_1_);}
	.st6{opacity:0.63;fill:#392453;enable-background:new    ;}
</style>
<title>progress_bar_frame</title>
<path class="st0" d="M995.6,0H51.9C23.3,0,0,23.6,0,52.5v16C0,96.8,22.8,119,51.9,119h943.7c29.1,0,51.9-22.2,51.9-50.5v-16
	C1047.4,23.5,1024.1,0,995.6,0z"/>
<path class="st1" d="M1042.4,68.5c0,26.2-21,45.5-46.8,45.5H54.3C28.5,114,7.5,94.7,7.5,68.5v-16C7.5,26.3,28.5,5,54.3,5h941.3
	c25.9,0,46.8,21.3,46.8,47.5V68.5z"/>
<path class="st2" d="M996.3,9.5c0,0-124.2-2.5-176.5-2c-52.3,0.5-98.6,3-75.4,5.9s216,2.5,234.7,4.4S1013.1,11.5,996.3,9.5z"/>
<ellipse class="st3" cx="950.7" cy="11.6" rx="9.3" ry="3.4"/>
<path class="st2" d="M1019.9,66.2c0,0-0.5,15.5-13,22.5s-36,6-90.9,7s-110.4,3.5-92.9,4s105.9,2.5,136.4,0s45,3.5,57.4-9.5
	C1029.4,77.2,1025.9,67.2,1019.9,66.2z"/>
<ellipse class="st3" cx="975.3" cy="97" rx="14.7" ry="2.5"/>
<path class="st0" d="M1010.3,55c0,0,20.6-3.8,29.8,1.5c9.1,5.3,7.3,12,7.3,12v-16C1047.4,52.5,1020.2,44.3,1010.3,55z"/>
<path class="st2" d="M643.5,96c0,0-50.7-3.1-82-1.5s-38.4,1.5-16.9,5.6s64-0.5,78.9,1s21,7.2,24.1,3.6S650.7,97.6,643.5,96z"/>
<ellipse class="st3" cx="636.1" cy="97.1" rx="13.1" ry="2.3"/>
<path class="st4" d="M1015.6,64.9c0,15.6-12.7,27.1-28.3,27.1H63.1c-15.6,0-28.3-11.5-28.3-27.1v-9.5C34.8,39.7,47.5,27,63.1,27
	h924.2c15.6,0,28.3,12.7,28.3,28.3c0,0,0,0,0,0L1015.6,64.9z"/>
<path class="st0" d="M703.9,1.2c3.1,8.7,3.9,18,2.5,27.2c-2.5,14.8,9.2,0.8,9.2,0.8s-8.2-7.4,0.8-27.2L703.9,1.2z"/>
<path class="st0" d="M199.7,1.2c3.1,8.7,3.9,18,2.5,27.2c-2.5,14.8,7.4,0.8,7.4,0.8s-8.2-7.4,0.8-27.2L199.7,1.2z"/>
<linearGradient id="SVGID_1_" gradientUnits="userSpaceOnUse" x1="-177.115" y1="-1894.1801" x2="-177.115" y2="-1959.1799" gradientTransform="matrix(1 0 0 -1 702.34 -1867.3101)">
	<stop  offset="0.19" style="stop-color:#382158"/>
	<stop  offset="1" style="stop-color:#502158"/>
</linearGradient>
<path class="st5" d="M1015.6,64.9c0,15.6-12.7,27.1-28.3,27.1H63.1c-15.6,0-28.3-11.5-28.3-27.1v-9.5C34.8,39.7,47.5,27,63.1,27
	h924.2c15.6,0,28.3,12.7,28.3,28.3c0,0,0,0,0,0L1015.6,64.9z"/>
<path class="st6" d="M39.9,60.8c0-15.5,12.5-28,28-28h914.5c8.6,0,16.6,3.9,22,10.6c3.5,4.4,2.7,10.9-1.7,14.4c-2,1.6-4.5,2.3-7,2.2
	c-125.3-7.5-256-12.4-391.7-13.7C405.3,44.2,216.9,49.8,39.9,60.8z"/>
<path class="st2" d="M185.3,6.8c0,0-107.5-3.5-95.6,1.4s62.8,6.3,74.7,6.3S214.6,11.7,185.3,6.8z"/>
<ellipse class="st3" cx="178" cy="10.1" rx="17.6" ry="2.3"/>
<path class="st2" d="M537.6,8.8c0,0-266-4.9-236.6,2s155.4,8.9,184.8,8.9C515.2,19.7,610.2,15.7,537.6,8.8z"/>
<ellipse class="st3" cx="519.6" cy="13.5" rx="43.6" ry="3.2"/>
<ellipse class="st3" cx="983.5" cy="11.8" rx="17.6" ry="3.4"/>
<path class="st2" d="M313.5,96c0,0-50.7-3.1-82-1.5s-38.4,1.5-16.9,5.6s64-0.5,78.9,1s21,7.2,24.1,3.6S320.7,97.6,313.5,96z"/>
<ellipse class="st3" cx="306.1" cy="97.1" rx="13.1" ry="2.3"/>
<path class="st2" d="M1009.1,15.4c0,0-4.4,3.4,3,7.4c7.4,4,8.4,14,17.3,16.8S1029.3,14.4,1009.1,15.4z"/>
<ellipse class="st3" cx="997.5" cy="96.3" rx="3.8" ry="2.5"/>
<path class="st0" d="M322.2,92c3,6.8,3.9,14.3,2.5,21.6c-2.5,11.8,9.2,0.7,9.2,0.7s-8.2-5.9,0.8-21.6L322.2,92z"/>
<path class="st0" d="M653.1,92c3,6.8,3.9,14.3,2.5,21.6c-2.5,11.8,9.2,0.7,9.2,0.7s-8.2-5.9,0.8-21.6L653.1,92z"/>
<path class="st0" d="M39.9,64.1c0,0-20.5,4.4-29.8-0.7S2.4,51.6,2.4,51.6l0.4,16C2.9,67.6,30.2,75,39.9,64.1z"/>
</svg>
