<svg xmlns="http://www.w3.org/2000/svg" viewBox="0 0 314.78 364.66"><defs><style>.cls-1{isolation:isolate;}.cls-2{fill:#771515;}.cls-3{fill:#ff3e3e;}.cls-4{fill:#ffce00;opacity:0.42;mix-blend-mode:lighten;}.cls-5{opacity:0.43;}.cls-15,.cls-6{fill:#f97906;}.cls-6{opacity:0.61;}.cls-7{fill:#fefff5;opacity:0.22;}.cls-8{fill:#560c09;}.cls-9{fill:#470a04;opacity:0.46;}.cls-10{fill:#5ab8ff;}.cls-11{fill:#fff;}.cls-12{fill:#56153a;}.cls-13{fill:#28081c;}.cls-14{fill:#ef48a0;}</style></defs><title>SVGtest1</title><g class="cls-1"><g id="_ÎÓÈ_1" data-name="—ÎÓÈ_1"><path class="cls-2" d="M782,651.63c-1-1.33-2-2.72-3.19-4.14a14.38,14.38,0,0,1-2-3,16,16,0,0,1,4.14-.4c.83,0,1.71,0,2.66.08.69,0,1.41.06,2.15.06,6.47,0,27.87-2,31.76-27.13.92-6-1-12-5.59-17.29-7.72-9-22.54-15.28-36.05-15.28-7.8,0-14.56,2.06-19.53,6-12.87,10.09-10.94,18.26-9.23,25.47.92,3.91,1.8,7.61.49,12-.61,2-2,4.38-7.78,4.38-.54,0-1.12,0-1.71-.07-2.27-.72-4.39-1.37-6.37-2-17.38-5.34-18.32-6.4-16.88-11.37.66-2.27,2.85-6.6,9.47-14.32,16.36-10.68,26.13-26.74,26.84-44.14.44-10.84-2.7-19.85-9.35-26.76-10.22-10.64-28.43-16-54.13-16-42.43,0-66.38,15-67.46,42.32-.81,20.78,11.62,39.76,32.48,49.67,6.21,6,9.32,11.66,8.56,15.68-.54,2.84-3.22,5.24-8,7.12a91.1,91.1,0,0,0-10.51,5.11,11.45,11.45,0,0,1-.39-4,17.12,17.12,0,0,0-5-12.79c-4.95-5.16-13.28-8.24-22.28-8.24a40,40,0,0,0-6.91.6c-7.72,1.36-14.81,7.41-19.43,16.6-3.15,6.26-5.78,15.67-2.81,21.6,2,3.91,6.67,7.05,11.24,10.09l1.23.82c-38,24.15-47.61,67.38-48.87,100.08-1.12,28.85,8.71,55,28.41,75.73,26.3,27.62,68.87,43.74,116.8,44.24h2.31c40.54,0,78.18-11.19,106-31.5,29.58-21.62,46-51.38,47.43-86.08C852.51,718.89,826.26,675.62,782,651.63Z" transform="translate(-542.61 -517.67)"/><path class="cls-3" d="M779.47,654.58c-1-1.36-2.16-2.92-3.59-4.71-6.41-8-2.14-10.11,8-9.54s26.72-3.09,29.93-23.84-37.44-36.82-55-23-3.18,21.26-7.44,35.59c-1.86,6.27-7.8,7.54-13.89,7-20.66-6.54-29.23-7.66-26.17-18.18,1.31-4.49,5.69-10.48,10.6-16.16,14.91-9.57,24.87-24.53,25.56-41.39,1.17-29-25.56-38.83-59.67-38.83s-62.5,9.72-63.64,38.65c-.79,20,11.76,37.48,30.85,46.33,10.67,10.05,16.57,22.88-.17,29.53a95.9,95.9,0,0,0-12.58,6.33c-2-.91-3.79-3.26-3.55-8.88.51-12.18-14.87-19.12-29.68-16.51s-23.2,25.32-19.49,32.73c2.29,4.58,11,8.78,16,12.93C567,684,554.94,725,553.48,762.5c-2.71,69.93,60.73,115.16,141.44,116,81.07.84,148.93-43.41,151.86-113.91C848.73,718,821.56,677.09,779.47,654.58Z" transform="translate(-542.61 -517.67)"/><path class="cls-4" d="M719.66,652.61a56.24,56.24,0,0,0-52.23,21.3c-21.7,27.32,24.91,34.55,55,41.78S788,737.79,798,749s31.34,24.51,40.58,8.44S802.43,651.41,719.66,652.61Z" transform="translate(-542.61 -517.67)"/><g class="cls-5"><path class="cls-2" d="M843.39,787.41c-8,19.82-22.89,40.64-50.2,49.63-58.66,19.29-87.19.4-115.71-71.52s-70.31-56.25-89.6-69.51,42.19-39,49.82-44.2,18.08-7.23,19.69,0,25.71.8,35.36-4.82c8.75-5.1,18.14-15.8,23.11-18.34-4.64-2.45-6.16-5.37-4.59-10.78,1.31-4.49,5.69-10.48,10.6-16.16,12.89-8.27,22.07-20.58,24.76-34.66a85.16,85.16,0,0,1-6.88,13.24c-6,8.84-67.5,23.71-75.94,7.23s12.05-14.46,8-37c-2.67-15-16.89-20-26.12-21.65-12.72,6-21,15.89-21.62,31.23-.79,20,11.76,37.48,30.85,46.33,10.67,10.05,16.57,22.88-.17,29.53a95.9,95.9,0,0,0-12.58,6.33c-2-.91-3.79-3.26-3.55-8.88.51-12.18-14.87-19.12-29.68-16.51s-23.2,25.32-19.49,32.73c2.29,4.58,11,8.78,16,12.93C567,684,554.94,725,553.48,762.5c-2.71,69.93,60.73,115.16,141.44,116C766.86,879.25,828.38,844.49,843.39,787.41Z" transform="translate(-542.61 -517.67)"/><path class="cls-6" d="M822.61,690.52c3.19,13.11,1.4,27-14.06,36.44-36.5,22.22-78.09,21.9-103.8-5.4s-55.87-38.09-73.64-35.87-67.93,27-44.44,65.07,51.74,70.47,32.06,84.43c-6.9,4.89-17,8.07-27.14,10.15,25.68,20.82,62.27,32.74,103.33,33.16,2.27,0,4.53,0,6.78,0-6.79-7.49-15.24-19.56-15-33.43.32-21.9-17.78-38.41-43.17-73s2.22-72.37,24.44-63.48,33.33,34,51.74,48.88,57.77,50.47,118.08,34.91c1.57-.4,3.08-.82,4.58-1.23a106.25,106.25,0,0,0,4.45-26.52C847.94,737,838.9,711.47,822.61,690.52Z" transform="translate(-542.61 -517.67)"/><path class="cls-2" d="M751.32,629.05c-1.86,6.27-7.8,7.54-13.89,7l-5-1.54a8.07,8.07,0,0,1,.84,4.05c-.4,8.84,26.12,19.69,33.35,15.67,3-1.64,10.07.21,17.45,3-1.53-.89-3.08-1.77-4.65-2.61-1-1.36-2.16-2.92-3.59-4.71-6.41-8-2.14-10.11,8-9.54,7.56.42,18.69-1.51,25.2-11.1-5.32,3-11.75,5.69-17.1,5.3-11.25-.8-20.89-10.45-18.48-19.29,1.95-7.14-4.23-18.46-11.54-23.83a20.89,20.89,0,0,0-3.19,2C741.17,607.23,755.58,614.72,751.32,629.05Z" transform="translate(-542.61 -517.67)"/></g><path class="cls-7" d="M652.34,730.27c-1.07.63-14.43-15.08-26.72-9.43a214.57,214.57,0,0,0-21.37,11.31s2.14-11.94,12.82-18.23,19.23-.63,19.23-.63l14.43,9.43Z" transform="translate(-542.61 -517.67)"/><path class="cls-8" d="M629.27,705.91c-15.24,0-27.63,11.64-27.63,25.95a3.29,3.29,0,1,0,6.49,0c0-10.1,9.48-18.31,21.14-18.31s21.14,8.22,21.14,18.31a3.29,3.29,0,1,0,6.49,0C656.9,717.54,644.51,705.91,629.27,705.91Z" transform="translate(-542.61 -517.67)"/><path class="cls-8" d="M615.87,683.48s8.43-13.23,12.52-10.52S625.58,682.58,615.87,683.48Z" transform="translate(-542.61 -517.67)"/><path class="cls-7" d="M749,730.27c1.07.63,14.43-15.08,26.72-9.43A214.44,214.44,0,0,1,797,732.16s-2.14-11.94-12.82-18.23S765,713.3,765,713.3l-14.43,9.43Z" transform="translate(-542.61 -517.67)"/><path class="cls-8" d="M772,705.91c15.23,0,27.63,11.64,27.63,25.95a3.29,3.29,0,1,1-6.49,0c0-10.1-9.48-18.31-21.14-18.31s-21.14,8.22-21.14,18.31a3.29,3.29,0,1,1-6.49,0C744.39,717.54,756.79,705.91,772,705.91Z" transform="translate(-542.61 -517.67)"/><path class="cls-8" d="M785.1,686.09s-8.43-13.23-12.52-10.52S775.39,685.19,785.1,686.09Z" transform="translate(-542.61 -517.67)"/><path class="cls-9" d="M580,729.82s-27.3.72-23.71,12.93,38.8-7.18,38.8-7.18S600.85,729.1,580,729.82Z" transform="translate(-542.61 -517.67)"/><path class="cls-10" d="M599.41,733.41s-42.4-27.3-54.61-15.09S574.26,733.41,599.41,733.41Z" transform="translate(-542.61 -517.67)"/><path class="cls-11" d="M563.18,717.66c-1.89-.54-7.74-2.26-12.26,1.94s12.58,1,21,5.49S586.73,724.44,563.18,717.66Z" transform="translate(-542.61 -517.67)"/><path class="cls-9" d="M820,729.82s27.3.72,23.71,12.93-38.8-7.18-38.8-7.18S799.15,729.1,820,729.82Z" transform="translate(-542.61 -517.67)"/><path class="cls-10" d="M800.59,733.41s42.39-27.3,54.61-15.09S825.74,733.41,800.59,733.41Z" transform="translate(-542.61 -517.67)"/><path class="cls-11" d="M836.82,717.66c1.89-.54,7.74-2.26,12.26,1.94s-12.58,1-21,5.49S813.27,724.44,836.82,717.66Z" transform="translate(-542.61 -517.67)"/><path class="cls-9" d="M817.53,743.2C836.69,785.63,786,853.7,700.19,854c-85.86-.28-136.5-68.35-117.34-110.78A292.62,292.62,0,0,0,817.53,743.2Z" transform="translate(-542.61 -517.67)"/><path class="cls-12" d="M811.36,750.88C827.29,789.18,779,849,700.19,849.21c-78.84-.17-127.1-60-111.17-98.33A296.33,296.33,0,0,0,811.36,750.88Z" transform="translate(-542.61 -517.67)"/><path class="cls-13" d="M672.36,829.21S650,801,660.12,786.64s24-12.24,27.14-.53-1.6,14.37,5.85,18.09,15.44-1.06,14.37-8-3.19-12.24,5.85-12.77,25,11.18,22.88,23.95-8,19.69-11.17,22.35S679.28,835.07,672.36,829.21Z" transform="translate(-542.61 -517.67)"/><path class="cls-14" d="M700.22,815.14c-27.76.1-53.13,5.81-66.18,17.71,18,9.91,40.46,16.31,66.15,16.36s48-6.42,66-16.29C753.14,821.07,727.87,815.33,700.22,815.14Z" transform="translate(-542.61 -517.67)"/><path class="cls-11" d="M751.83,768a295,295,0,0,1-108.81-1c8.08,13.52,29,25.07,54.22,25.25S743.54,781.33,751.83,768Z" transform="translate(-542.61 -517.67)"/><path class="cls-3" d="M631.27,641.36c3.14-6.54,4-13.25,2.31-19-5.66-4.89-15.24-7.05-24.6-5.41-10.26,1.8-17.43,13.26-19.64,22.6a14.24,14.24,0,0,0,6.17,7.46C606.76,653.82,626.45,651.41,631.27,641.36Z" transform="translate(-542.61 -517.67)"/><path class="cls-2" d="M687.92,859.93s22.9,6.43,36.56-1.61c0,0-4.42,8.84-16.47,9.24C695.79,868,689.93,865.16,687.92,859.93Z" transform="translate(-542.61 -517.67)"/><path class="cls-4" d="M614.79,619.67s-14.87,0-17.28,10.45,16.88,12.85,25.31,12.45,7.23-14.06,7.63-16.87S622.83,618.86,614.79,619.67Z" transform="translate(-542.61 -517.67)"/><path class="cls-4" d="M712.83,526.05c-1.16-.32-35-6.83-35,3.62s20.49,12.46,22.9,20.49.8,22.9,19.28,23.7,23.7-12.45,22.5-19.29S739.34,533.28,712.83,526.05Z" transform="translate(-542.61 -517.67)"/><path class="cls-4" d="M781.08,591.54s-11.94.46-4.3,9.21c7,8,13.49,22,22.29,22.92,8.47.92,13.51-6.17,11.94-12.22C809.35,605,798.11,592.85,781.08,591.54Z" transform="translate(-542.61 -517.67)"/><path class="cls-15" d="M721.27,600.38c-9.64,2.41-42.59,6.43-70.31-2.81-16-5.32-23.4-21.44-26.84-34.16.55,16.32,9.94,30.63,24.37,39.55C690.13,616.47,730.61,598,721.27,600.38Z" transform="translate(-542.61 -517.67)"/><path class="cls-15" d="M598,657.31c2.65,1.79,5.4,3.54,7.5,5.28l-.64.37c22.89-3.24,34.47-18,34.47-18s-5.63,6-22.1,12.05A30,30,0,0,1,598,657.31Z" transform="translate(-542.61 -517.67)"/><path class="cls-11" d="M763.85,662.26s-31.74-13.66-51.83-6.83,34.15,6,46.61,13.26S777.12,669.09,763.85,662.26Z" transform="translate(-542.61 -517.67)"/><path class="cls-15" d="M621.22,856.32c-32.67-15.56-57.39-57.37-66.88-75.45,8.06,59.39,67.17,96.88,140.58,97.64a200.56,200.56,0,0,0,57.9-7.64C715.68,877,656.76,873.24,621.22,856.32Z" transform="translate(-542.61 -517.67)"/><path class="cls-11" d="M611.18,619.67s-6,.4-10.85,6.83,8.84-.8,15.27-2S623.63,620.07,611.18,619.67Z" transform="translate(-542.61 -517.67)"/><path class="cls-11" d="M697.45,526.81s-14.59,2.08-6.95,5.56,7.64,3.47,22.24,7.65,20.16,5.56,20.16,0S723.16,528.9,697.45,526.81Z" transform="translate(-542.61 -517.67)"/><path class="cls-11" d="M735.15,546.08s-.69,9.73,2.09,9.73S746.27,546.78,735.15,546.08Z" transform="translate(-542.61 -517.67)"/><path class="cls-11" d="M793.63,594.92a42.62,42.62,0,0,0-4.65-1.86c-4.36-1.47-10.63-2.78-13.48.42-4.6,5.18,10.64.29,18.12,7.48s6,4,8.34,2.88S799.38,599.52,793.63,594.92Z" transform="translate(-542.61 -517.67)"/><path class="cls-11" d="M803.69,606.42s-1.15,1.15,1.44,3.74,2.3,4,3.16,1.44S806,605.56,803.69,606.42Z" transform="translate(-542.61 -517.67)"/><path class="cls-11" d="M779,670.45s-4.76-.63,2.54,6.67,14,18.09,17.78,14S791.73,677.12,779,670.45Z" transform="translate(-542.61 -517.67)"/></g></g></svg>